solid mount_adapter
facet normal -0.0 -0.0 1.0
  outer loop
    vertex 21.67128610248716 20.4654504877526 11.999999999999998
    vertex 15.772040408845967 23.438800058303045 11.999999999999998
    vertex 14.801468989711509 23.31102190688705 11.999999999999998
  endloop
endfacet
facet normal -0.0 -0.0 1.0
  outer loop
    vertex 15.772040408845967 23.438800058303045 11.999999999999998
    vertex 21.67128610248716 20.4654504877526 11.999999999999998
    vertex 17.71318324711487 23.183243755471057 11.999999999999998
  endloop
endfacet
facet normal -0.0 -0.0 1.0
  outer loop
    vertex 17.71318324711487 23.183243755471057 11.999999999999998
    vertex 21.67128610248716 20.4654504877526 11.999999999999998
    vertex 19.522040408845967 22.433990586686335 11.999999999999998
  endloop
endfacet
facet normal -0.0 -0.0 1.0
  outer loop
    vertex 19.522040408845967 22.433990586686335 11.999999999999998
    vertex 21.67128610248716 20.4654504877526 11.999999999999998
    vertex 21.07534126774507 21.24210091720215 11.999999999999998
  endloop
endfacet
facet normal -0.13052619222005188 -0.9914448613738104 -0.0
  outer loop
    vertex 17.71318324711487 23.183243755471057 50.0
    vertex 15.772040408845967 23.438800058303045 11.999999999999998
    vertex 17.71318324711487 23.183243755471057 11.999999999999998
  endloop
endfacet
facet normal -0.13052619222005188 -0.9914448613738104 -0.0
  outer loop
    vertex 15.772040408845967 23.438800058303045 11.999999999999998
    vertex 17.71318324711487 23.183243755471057 50.0
    vertex 15.772040408845967 23.438800058303045 50.0
  endloop
endfacet
facet normal 0.13052619222005274 -0.9914448613738103 -1.5174675879297241e-18
  outer loop
    vertex 15.772040408845967 23.438800058303045 50.0
    vertex 14.801468989711509 23.31102190688705 11.999999999999998
    vertex 15.772040408845967 23.438800058303045 11.999999999999998
  endloop
endfacet
facet normal 0.13052619222005274 -0.9914448613738103 -1.5174675879297241e-18
  outer loop
    vertex 14.801468989711509 23.31102190688705 11.999999999999998
    vertex 15.772040408845967 23.438800058303045 50.0
    vertex 13.830897570577054 23.183243755471054 11.999999999999998
  endloop
endfacet
facet normal 0.13052619222005274 -0.9914448613738103 -1.5174675879297241e-18
  outer loop
    vertex 13.830897570577054 23.183243755471054 11.999999999999998
    vertex 15.772040408845967 23.438800058303045 50.0
    vertex 13.830897570577054 23.183243755471054 50.0
  endloop
endfacet
facet normal 0.3826834323650902 -0.9238795325112866 -0.0
  outer loop
    vertex 13.830897570577054 23.183243755471054 50.0
    vertex 12.022040408845966 22.43399058668633 11.999999999999998
    vertex 13.830897570577054 23.183243755471054 11.999999999999998
  endloop
endfacet
facet normal 0.3826834323650902 -0.9238795325112866 -0.0
  outer loop
    vertex 12.022040408845966 22.43399058668633 11.999999999999998
    vertex 13.830897570577054 23.183243755471054 50.0
    vertex 12.022040408845966 22.43399058668633 50.0
  endloop
endfacet
facet normal 0.608761429008721 -0.7933533402912349 -0.0
  outer loop
    vertex 12.022040408845966 22.43399058668633 50.0
    vertex 10.46873954994686 21.242100917202148 11.999999999999998
    vertex 12.022040408845966 22.43399058668633 11.999999999999998
  endloop
endfacet
facet normal 0.608761429008721 -0.7933533402912349 -0.0
  outer loop
    vertex 10.46873954994686 21.242100917202148 11.999999999999998
    vertex 12.022040408845966 22.43399058668633 50.0
    vertex 10.46873954994686 21.242100917202148 50.0
  endloop
endfacet
facet normal 0.7933533402912353 -0.6087614290087205 -0.0
  outer loop
    vertex 10.46873954994686 21.242100917202148 11.999999999999998
    vertex 9.276849880462676 19.68880005830304 50.0
    vertex 9.276849880462676 19.68880005830304 11.999999999999998
  endloop
endfacet
facet normal 0.7933533402912353 -0.6087614290087205 -0.0
  outer loop
    vertex 9.276849880462676 19.68880005830304 50.0
    vertex 10.46873954994686 21.242100917202148 11.999999999999998
    vertex 10.46873954994686 21.242100917202148 50.0
  endloop
endfacet
facet normal 0.9238795325112871 -0.38268343236508917 -1.370981865734185e-17
  outer loop
    vertex 8.902223296070312 18.78437147743749 11.999999999999998
    vertex 8.527596711677957 17.879942896571947 50.0
    vertex 8.527596711677957 17.879942896571947 11.999999999999998
  endloop
endfacet
facet normal 0.9238795325112871 -0.38268343236508917 -1.370981865734185e-17
  outer loop
    vertex 8.527596711677957 17.879942896571947 50.0
    vertex 8.902223296070312 18.78437147743749 11.999999999999998
    vertex 9.276849880462676 19.68880005830304 50.0
  endloop
endfacet
facet normal 0.9238795325112871 -0.38268343236508917 -1.370981865734185e-17
  outer loop
    vertex 9.276849880462676 19.68880005830304 50.0
    vertex 8.902223296070312 18.78437147743749 11.999999999999998
    vertex 9.276849880462676 19.68880005830304 11.999999999999998
  endloop
endfacet
facet normal 0.9914448613738106 -0.13052619222005135 -0.0
  outer loop
    vertex 8.527596711677957 17.879942896571947 11.999999999999998
    vertex 8.27204040884597 15.938800058303046 50.0
    vertex 8.27204040884597 15.938800058303046 11.999999999999998
  endloop
endfacet
facet normal 0.9914448613738106 -0.13052619222005135 -0.0
  outer loop
    vertex 8.27204040884597 15.938800058303046 50.0
    vertex 8.527596711677957 17.879942896571947 11.999999999999998
    vertex 8.527596711677957 17.879942896571947 50.0
  endloop
endfacet
facet normal 0.9914448613738103 0.13052619222005218 0.0
  outer loop
    vertex 8.27204040884597 15.938800058303046 11.999999999999998
    vertex 8.527596711677958 13.997657220034137 50.0
    vertex 8.527596711677958 13.997657220034137 11.999999999999998
  endloop
endfacet
facet normal 0.9914448613738103 0.13052619222005218 0.0
  outer loop
    vertex 8.527596711677958 13.997657220034137 50.0
    vertex 8.27204040884597 15.938800058303046 11.999999999999998
    vertex 8.27204040884597 15.938800058303046 50.0
  endloop
endfacet
facet normal 0.9238795325112865 0.38268343236509034 0.0
  outer loop
    vertex 8.527596711677958 13.997657220034137 11.999999999999998
    vertex 9.27684988046268 12.188800058303045 50.0
    vertex 9.27684988046268 12.188800058303045 11.999999999999998
  endloop
endfacet
facet normal 0.9238795325112865 0.38268343236509034 0.0
  outer loop
    vertex 9.27684988046268 12.188800058303045 50.0
    vertex 8.527596711677958 13.997657220034137 11.999999999999998
    vertex 8.527596711677958 13.997657220034137 50.0
  endloop
endfacet
facet normal 0.7933533402912356 0.6087614290087203 -1.2480503199400513e-18
  outer loop
    vertex 9.872794715204776 11.412149628853488 11.999999999999998
    vertex 10.468739549946864 10.635499199403938 50.0
    vertex 10.468739549946864 10.635499199403938 11.999999999999998
  endloop
endfacet
facet normal 0.7933533402912356 0.6087614290087203 -1.2480503199400513e-18
  outer loop
    vertex 10.468739549946864 10.635499199403938 50.0
    vertex 9.872794715204776 11.412149628853488 11.999999999999998
    vertex 9.27684988046268 12.188800058303045 50.0
  endloop
endfacet
facet normal 0.7933533402912356 0.6087614290087203 -1.2480503199400513e-18
  outer loop
    vertex 9.27684988046268 12.188800058303045 50.0
    vertex 9.872794715204776 11.412149628853488 11.999999999999998
    vertex 9.27684988046268 12.188800058303045 11.999999999999998
  endloop
endfacet
facet normal 0.6087614290087199 0.7933533402912358 0.0
  outer loop
    vertex 10.468739549946864 10.635499199403938 50.0
    vertex 12.022040408845971 9.443609529919756 11.999999999999998
    vertex 10.468739549946864 10.635499199403938 11.999999999999998
  endloop
endfacet
facet normal 0.6087614290087199 0.7933533402912358 0.0
  outer loop
    vertex 12.022040408845971 9.443609529919756 11.999999999999998
    vertex 10.468739549946864 10.635499199403938 50.0
    vertex 12.022040408845971 9.443609529919756 50.0
  endloop
endfacet
facet normal 0.3826834323650892 0.923879532511287 0.0
  outer loop
    vertex 12.022040408845971 9.443609529919756 50.0
    vertex 13.830897570577067 8.694356361135036 11.999999999999998
    vertex 12.022040408845971 9.443609529919756 11.999999999999998
  endloop
endfacet
facet normal 0.3826834323650892 0.923879532511287 0.0
  outer loop
    vertex 13.830897570577067 8.694356361135036 11.999999999999998
    vertex 12.022040408845971 9.443609529919756 50.0
    vertex 13.830897570577067 8.694356361135036 50.0
  endloop
endfacet
facet normal 0.13052619222005135 0.9914448613738106 0.0
  outer loop
    vertex 13.830897570577067 8.694356361135036 50.0
    vertex 15.772040408845967 8.438800058303048 11.999999999999998
    vertex 13.830897570577067 8.694356361135036 11.999999999999998
  endloop
endfacet
facet normal 0.13052619222005135 0.9914448613738106 0.0
  outer loop
    vertex 15.772040408845967 8.438800058303048 11.999999999999998
    vertex 13.830897570577067 8.694356361135036 50.0
    vertex 15.772040408845967 8.438800058303048 50.0
  endloop
endfacet
facet normal -0.13052619222005168 0.9914448613738105 7.437131129722371e-18
  outer loop
    vertex 15.772040408845967 8.438800058303048 50.0
    vertex 16.742611827980426 8.566578209719044 11.999999999999998
    vertex 15.772040408845967 8.438800058303048 11.999999999999998
  endloop
endfacet
facet normal -0.13052619222005168 0.9914448613738105 7.437131129722371e-18
  outer loop
    vertex 16.742611827980426 8.566578209719044 11.999999999999998
    vertex 15.772040408845967 8.438800058303048 50.0
    vertex 17.713183247114873 8.694356361135037 11.999999999999998
  endloop
endfacet
facet normal -0.13052619222005168 0.9914448613738105 7.437131129722371e-18
  outer loop
    vertex 17.713183247114873 8.694356361135037 11.999999999999998
    vertex 15.772040408845967 8.438800058303048 50.0
    vertex 17.713183247114873 8.694356361135037 50.0
  endloop
endfacet
facet normal -0.3826834323650899 0.9238795325112868 -0.0
  outer loop
    vertex 17.713183247114873 8.694356361135037 50.0
    vertex 19.522040408845967 9.44360952991976 11.999999999999998
    vertex 17.713183247114873 8.694356361135037 11.999999999999998
  endloop
endfacet
facet normal -0.3826834323650899 0.9238795325112868 -0.0
  outer loop
    vertex 19.522040408845967 9.44360952991976 11.999999999999998
    vertex 17.713183247114873 8.694356361135037 50.0
    vertex 19.522040408845967 9.44360952991976 50.0
  endloop
endfacet
facet normal -0.608761429008721 0.7933533402912349 -0.0
  outer loop
    vertex 19.522040408845967 9.44360952991976 50.0
    vertex 21.075341267745074 10.635499199403942 11.999999999999998
    vertex 19.522040408845967 9.44360952991976 11.999999999999998
  endloop
endfacet
facet normal -0.608761429008721 0.7933533402912349 -0.0
  outer loop
    vertex 21.075341267745074 10.635499199403942 11.999999999999998
    vertex 19.522040408845967 9.44360952991976 50.0
    vertex 21.075341267745074 10.635499199403942 50.0
  endloop
endfacet
facet normal -0.7933533402912356 0.6087614290087203 -0.0
  outer loop
    vertex 22.267230937229254 12.18880005830305 50.0
    vertex 21.075341267745074 10.635499199403942 11.999999999999998
    vertex 21.075341267745074 10.635499199403942 50.0
  endloop
endfacet
facet normal -0.7933533402912356 0.6087614290087203 -0.0
  outer loop
    vertex 21.075341267745074 10.635499199403942 11.999999999999998
    vertex 22.267230937229254 12.18880005830305 50.0
    vertex 22.267230937229254 12.18880005830305 11.999999999999998
  endloop
endfacet
facet normal -0.9238795325112871 0.3826834323650895 -6.856416214983271e-18
  outer loop
    vertex 23.016484106013976 13.997657220034142 50.0
    vertex 22.267230937229254 12.18880005830305 11.999999999999998
    vertex 22.267230937229254 12.18880005830305 50.0
  endloop
endfacet
facet normal -0.9238795325112871 0.3826834323650895 -6.856416214983271e-18
  outer loop
    vertex 22.267230937229254 12.18880005830305 11.999999999999998
    vertex 23.016484106013976 13.997657220034142 50.0
    vertex 22.641857521621617 13.0932286391686 11.999999999999998
  endloop
endfacet
facet normal -0.9238795325112871 0.3826834323650895 -6.856416214983271e-18
  outer loop
    vertex 22.641857521621617 13.0932286391686 11.999999999999998
    vertex 23.016484106013976 13.997657220034142 50.0
    vertex 23.016484106013976 13.997657220034142 11.999999999999998
  endloop
endfacet
facet normal -0.9914448613738104 0.13052619222005188 -0.0
  outer loop
    vertex 23.272040408845964 15.938800058303046 50.0
    vertex 23.016484106013976 13.997657220034142 11.999999999999998
    vertex 23.016484106013976 13.997657220034142 50.0
  endloop
endfacet
facet normal -0.9914448613738104 0.13052619222005188 -0.0
  outer loop
    vertex 23.016484106013976 13.997657220034142 11.999999999999998
    vertex 23.272040408845964 15.938800058303046 50.0
    vertex 23.272040408845964 15.938800058303046 11.999999999999998
  endloop
endfacet
facet normal -0.9914448613738104 -0.13052619222005168 -0.0
  outer loop
    vertex 23.016484106013976 17.879942896571954 50.0
    vertex 23.272040408845964 15.938800058303046 11.999999999999998
    vertex 23.272040408845964 15.938800058303046 50.0
  endloop
endfacet
facet normal -0.9914448613738104 -0.13052619222005168 -0.0
  outer loop
    vertex 23.272040408845964 15.938800058303046 11.999999999999998
    vertex 23.016484106013976 17.879942896571954 50.0
    vertex 23.016484106013976 17.879942896571954 11.999999999999998
  endloop
endfacet
facet normal -0.9238795325112864 -0.382683432365091 -0.0
  outer loop
    vertex 22.267230937229254 19.688800058303045 50.0
    vertex 23.016484106013976 17.879942896571954 11.999999999999998
    vertex 23.016484106013976 17.879942896571954 50.0
  endloop
endfacet
facet normal -0.9238795325112864 -0.382683432365091 -0.0
  outer loop
    vertex 23.016484106013976 17.879942896571954 11.999999999999998
    vertex 22.267230937229254 19.688800058303045 50.0
    vertex 22.267230937229254 19.688800058303045 11.999999999999998
  endloop
endfacet
facet normal -0.7933533402912356 -0.6087614290087203 -2.546827302880498e-18
  outer loop
    vertex 21.07534126774507 21.24210091720215 50.0
    vertex 22.267230937229254 19.688800058303045 11.999999999999998
    vertex 22.267230937229254 19.688800058303045 50.0
  endloop
endfacet
facet normal -0.7933533402912356 -0.6087614290087203 -2.546827302880498e-18
  outer loop
    vertex 22.267230937229254 19.688800058303045 11.999999999999998
    vertex 21.07534126774507 21.24210091720215 50.0
    vertex 21.67128610248716 20.4654504877526 11.999999999999998
  endloop
endfacet
facet normal -0.7933533402912356 -0.6087614290087203 -2.546827302880498e-18
  outer loop
    vertex 21.67128610248716 20.4654504877526 11.999999999999998
    vertex 21.07534126774507 21.24210091720215 50.0
    vertex 21.07534126774507 21.24210091720215 11.999999999999998
  endloop
endfacet
facet normal -0.608761429008721 -0.7933533402912349 -0.0
  outer loop
    vertex 21.07534126774507 21.24210091720215 50.0
    vertex 19.522040408845967 22.433990586686335 11.999999999999998
    vertex 21.07534126774507 21.24210091720215 11.999999999999998
  endloop
endfacet
facet normal -0.608761429008721 -0.7933533402912349 -0.0
  outer loop
    vertex 19.522040408845967 22.433990586686335 11.999999999999998
    vertex 21.07534126774507 21.24210091720215 50.0
    vertex 19.522040408845967 22.433990586686335 50.0
  endloop
endfacet
facet normal -0.3826834323650892 -0.923879532511287 -0.0
  outer loop
    vertex 19.522040408845967 22.433990586686335 50.0
    vertex 17.71318324711487 23.183243755471057 11.999999999999998
    vertex 19.522040408845967 22.433990586686335 11.999999999999998
  endloop
endfacet
facet normal -0.3826834323650892 -0.923879532511287 -0.0
  outer loop
    vertex 17.71318324711487 23.183243755471057 11.999999999999998
    vertex 19.522040408845967 22.433990586686335 50.0
    vertex 17.71318324711487 23.183243755471057 50.0
  endloop
endfacet
facet normal 4.563482300077714e-32 -5.525419877964583e-32 1.0
  outer loop
    vertex 14.801468989711509 23.31102190688705 11.999999999999998
    vertex 9.276849880462676 19.68880005830304 11.999999999999998
    vertex 8.902223296070312 18.78437147743749 11.999999999999998
  endloop
endfacet
facet normal 4.563482300077714e-32 -5.525419877964583e-32 1.0
  outer loop
    vertex 9.276849880462676 19.68880005830304 11.999999999999998
    vertex 14.801468989711509 23.31102190688705 11.999999999999998
    vertex 10.46873954994686 21.242100917202148 11.999999999999998
  endloop
endfacet
facet normal 4.563482300077714e-32 -5.525419877964583e-32 1.0
  outer loop
    vertex 10.46873954994686 21.242100917202148 11.999999999999998
    vertex 14.801468989711509 23.31102190688705 11.999999999999998
    vertex 12.022040408845966 22.43399058668633 11.999999999999998
  endloop
endfacet
facet normal 4.563482300077714e-32 -5.525419877964583e-32 1.0
  outer loop
    vertex 12.022040408845966 22.43399058668633 11.999999999999998
    vertex 14.801468989711509 23.31102190688705 11.999999999999998
    vertex 13.830897570577054 23.183243755471054 11.999999999999998
  endloop
endfacet
facet normal 4.563482300077714e-32 -5.525419877964583e-32 1.0
  outer loop
    vertex 22.641857521621617 13.0932286391686 11.999999999999998
    vertex 22.267230937229254 19.688800058303045 11.999999999999998
    vertex 21.67128610248716 20.4654504877526 11.999999999999998
  endloop
endfacet
facet normal 4.563482300077714e-32 -5.525419877964583e-32 1.0
  outer loop
    vertex 22.267230937229254 19.688800058303045 11.999999999999998
    vertex 22.641857521621617 13.0932286391686 11.999999999999998
    vertex 23.016484106013976 17.879942896571954 11.999999999999998
  endloop
endfacet
facet normal 4.563482300077714e-32 -5.525419877964583e-32 1.0
  outer loop
    vertex 23.016484106013976 17.879942896571954 11.999999999999998
    vertex 22.641857521621617 13.0932286391686 11.999999999999998
    vertex 23.016484106013976 13.997657220034142 11.999999999999998
  endloop
endfacet
facet normal 4.563482300077714e-32 -5.525419877964583e-32 1.0
  outer loop
    vertex 23.016484106013976 17.879942896571954 11.999999999999998
    vertex 23.016484106013976 13.997657220034142 11.999999999999998
    vertex 23.272040408845964 15.938800058303046 11.999999999999998
  endloop
endfacet
facet normal 4.563482300077714e-32 -5.525419877964583e-32 1.0
  outer loop
    vertex 17.713183247114873 8.694356361135037 11.999999999999998
    vertex 22.641857521621617 13.0932286391686 11.999999999999998
    vertex 16.742611827980426 8.566578209719044 11.999999999999998
  endloop
endfacet
facet normal 4.563482300077714e-32 -5.525419877964583e-32 1.0
  outer loop
    vertex 22.641857521621617 13.0932286391686 11.999999999999998
    vertex 17.713183247114873 8.694356361135037 11.999999999999998
    vertex 19.522040408845967 9.44360952991976 11.999999999999998
  endloop
endfacet
facet normal 4.563482300077714e-32 -5.525419877964583e-32 1.0
  outer loop
    vertex 22.641857521621617 13.0932286391686 11.999999999999998
    vertex 19.522040408845967 9.44360952991976 11.999999999999998
    vertex 21.075341267745074 10.635499199403942 11.999999999999998
  endloop
endfacet
facet normal 4.563482300077714e-32 -5.525419877964583e-32 1.0
  outer loop
    vertex 22.641857521621617 13.0932286391686 11.999999999999998
    vertex 21.075341267745074 10.635499199403942 11.999999999999998
    vertex 22.267230937229254 12.18880005830305 11.999999999999998
  endloop
endfacet
facet normal 4.563482300077714e-32 -5.525419877964583e-32 1.0
  outer loop
    vertex 10.468739549946864 10.635499199403938 11.999999999999998
    vertex 16.742611827980426 8.566578209719044 11.999999999999998
    vertex 9.872794715204776 11.412149628853488 11.999999999999998
  endloop
endfacet
facet normal 4.563482300077714e-32 -5.525419877964583e-32 1.0
  outer loop
    vertex 16.742611827980426 8.566578209719044 11.999999999999998
    vertex 10.468739549946864 10.635499199403938 11.999999999999998
    vertex 12.022040408845971 9.443609529919756 11.999999999999998
  endloop
endfacet
facet normal 4.563482300077714e-32 -5.525419877964583e-32 1.0
  outer loop
    vertex 16.742611827980426 8.566578209719044 11.999999999999998
    vertex 12.022040408845971 9.443609529919756 11.999999999999998
    vertex 13.830897570577067 8.694356361135036 11.999999999999998
  endloop
endfacet
facet normal 4.563482300077714e-32 -5.525419877964583e-32 1.0
  outer loop
    vertex 16.742611827980426 8.566578209719044 11.999999999999998
    vertex 13.830897570577067 8.694356361135036 11.999999999999998
    vertex 15.772040408845967 8.438800058303048 11.999999999999998
  endloop
endfacet
facet normal 4.563482300077714e-32 -5.525419877964583e-32 1.0
  outer loop
    vertex 8.527596711677958 13.997657220034137 11.999999999999998
    vertex 8.527596711677957 17.879942896571947 11.999999999999998
    vertex 8.27204040884597 15.938800058303046 11.999999999999998
  endloop
endfacet
facet normal 4.563482300077714e-32 -5.525419877964583e-32 1.0
  outer loop
    vertex 8.527596711677957 17.879942896571947 11.999999999999998
    vertex 8.527596711677958 13.997657220034137 11.999999999999998
    vertex 8.902223296070312 18.78437147743749 11.999999999999998
  endloop
endfacet
facet normal 4.563482300077714e-32 -5.525419877964583e-32 1.0
  outer loop
    vertex 8.902223296070312 18.78437147743749 11.999999999999998
    vertex 8.527596711677958 13.997657220034137 11.999999999999998
    vertex 9.27684988046268 12.188800058303045 11.999999999999998
  endloop
endfacet
facet normal 4.563482300077714e-32 -5.525419877964583e-32 1.0
  outer loop
    vertex 8.902223296070312 18.78437147743749 11.999999999999998
    vertex 9.27684988046268 12.188800058303045 11.999999999999998
    vertex 9.872794715204776 11.412149628853488 11.999999999999998
  endloop
endfacet
facet normal 0.0 0.0 1.0
  outer loop
    vertex 9.872794715204776 11.412149628853488 6.999999999999998
    vertex 13.000401811312107 14.790749761207774 6.999999999999998
    vertex 12.797705824724536 15.54722148164289 6.999999999999998
  endloop
endfacet
facet normal 0.0 0.0 1.0
  outer loop
    vertex 13.000401811312107 14.790749761207774 6.999999999999998
    vertex 9.872794715204776 11.412149628853488 6.999999999999998
    vertex 13.391980387972264 14.112515771276883 6.999999999999998
  endloop
endfacet
facet normal 0.0 0.0 1.0
  outer loop
    vertex 13.391980387972264 14.112515771276883 6.999999999999998
    vertex 9.872794715204776 11.412149628853488 6.999999999999998
    vertex 16.742611827980426 8.566578209719044 6.999999999999998
  endloop
endfacet
facet normal 0.0 0.0 1.0
  outer loop
    vertex 13.391980387972264 14.112515771276883 6.999999999999998
    vertex 16.742611827980426 8.566578209719044 6.999999999999998
    vertex 13.945756121819809 13.558740037429338 6.999999999999998
  endloop
endfacet
facet normal 0.0 0.0 1.0
  outer loop
    vertex 13.945756121819809 13.558740037429338 6.999999999999998
    vertex 16.742611827980426 8.566578209719044 6.999999999999998
    vertex 14.6239901117507 13.167161460769185 6.999999999999998
  endloop
endfacet
facet normal 0.0 0.0 1.0
  outer loop
    vertex 14.6239901117507 13.167161460769185 6.999999999999998
    vertex 16.742611827980426 8.566578209719044 6.999999999999998
    vertex 15.380461832185816 12.964465474181615 6.999999999999998
  endloop
endfacet
facet normal 0.0 0.0 1.0
  outer loop
    vertex 15.380461832185816 12.964465474181615 6.999999999999998
    vertex 16.742611827980426 8.566578209719044 6.999999999999998
    vertex 16.163618985506123 12.964465474181615 6.999999999999998
  endloop
endfacet
facet normal 0.0 0.0 1.0
  outer loop
    vertex 16.163618985506123 12.964465474181615 6.999999999999998
    vertex 16.742611827980426 8.566578209719044 6.999999999999998
    vertex 16.920090705941238 13.167161460769188 6.999999999999998
  endloop
endfacet
facet normal 0.0 0.0 1.0
  outer loop
    vertex 16.920090705941238 13.167161460769188 6.999999999999998
    vertex 16.742611827980426 8.566578209719044 6.999999999999998
    vertex 22.641857521621617 13.0932286391686 6.999999999999998
  endloop
endfacet
facet normal 0.0 0.0 1.0
  outer loop
    vertex 16.920090705941238 13.167161460769188 6.999999999999998
    vertex 22.641857521621617 13.0932286391686 6.999999999999998
    vertex 17.59832469587213 13.558740037429342 6.999999999999998
  endloop
endfacet
facet normal 0.0 0.0 1.0
  outer loop
    vertex 17.59832469587213 13.558740037429342 6.999999999999998
    vertex 22.641857521621617 13.0932286391686 6.999999999999998
    vertex 18.152100429719674 14.112515771276886 6.999999999999998
  endloop
endfacet
facet normal 0.0 0.0 1.0
  outer loop
    vertex 18.152100429719674 14.112515771276886 6.999999999999998
    vertex 22.641857521621617 13.0932286391686 6.999999999999998
    vertex 18.54367900637983 14.79074976120778 6.999999999999998
  endloop
endfacet
facet normal 0.0 0.0 1.0
  outer loop
    vertex 18.54367900637983 14.79074976120778 6.999999999999998
    vertex 22.641857521621617 13.0932286391686 6.999999999999998
    vertex 18.746374992967397 15.547221481642893 6.999999999999998
  endloop
endfacet
facet normal 0.0 0.0 1.0
  outer loop
    vertex 18.746374992967397 15.547221481642893 6.999999999999998
    vertex 22.641857521621617 13.0932286391686 6.999999999999998
    vertex 18.746374992967397 16.330378634963203 6.999999999999998
  endloop
endfacet
facet normal 0.0 0.0 1.0
  outer loop
    vertex 18.746374992967397 16.330378634963203 6.999999999999998
    vertex 22.641857521621617 13.0932286391686 6.999999999999998
    vertex 21.67128610248716 20.4654504877526 6.999999999999998
  endloop
endfacet
facet normal 0.0 0.0 1.0
  outer loop
    vertex 9.872794715204776 11.412149628853488 6.999999999999998
    vertex 14.801468989711509 23.31102190688705 6.999999999999998
    vertex 8.902223296070312 18.78437147743749 6.999999999999998
  endloop
endfacet
facet normal 0.0 0.0 1.0
  outer loop
    vertex 14.801468989711509 23.31102190688705 6.999999999999998
    vertex 9.872794715204776 11.412149628853488 6.999999999999998
    vertex 13.000401811312106 17.086850355398315 6.999999999999998
  endloop
endfacet
facet normal 0.0 0.0 1.0
  outer loop
    vertex 13.000401811312106 17.086850355398315 6.999999999999998
    vertex 9.872794715204776 11.412149628853488 6.999999999999998
    vertex 12.797705824724536 16.330378634963196 6.999999999999998
  endloop
endfacet
facet normal 0.0 0.0 1.0
  outer loop
    vertex 12.797705824724536 16.330378634963196 6.999999999999998
    vertex 9.872794715204776 11.412149628853488 6.999999999999998
    vertex 12.797705824724536 15.54722148164289 6.999999999999998
  endloop
endfacet
facet normal 0.0 0.0 1.0
  outer loop
    vertex 14.801468989711509 23.31102190688705 6.999999999999998
    vertex 13.000401811312106 17.086850355398315 6.999999999999998
    vertex 13.391980387972259 17.765084345329203 6.999999999999998
  endloop
endfacet
facet normal 0.0 0.0 1.0
  outer loop
    vertex 14.801468989711509 23.31102190688705 6.999999999999998
    vertex 13.391980387972259 17.765084345329203 6.999999999999998
    vertex 13.945756121819803 18.318860079176748 6.999999999999998
  endloop
endfacet
facet normal 0.0 0.0 1.0
  outer loop
    vertex 14.801468989711509 23.31102190688705 6.999999999999998
    vertex 13.945756121819803 18.318860079176748 6.999999999999998
    vertex 14.623990111750695 18.710438655836906 6.999999999999998
  endloop
endfacet
facet normal 0.0 0.0 1.0
  outer loop
    vertex 14.801468989711509 23.31102190688705 6.999999999999998
    vertex 14.623990111750695 18.710438655836906 6.999999999999998
    vertex 15.38046183218581 18.913134642424478 6.999999999999998
  endloop
endfacet
facet normal 0.0 0.0 1.0
  outer loop
    vertex 14.801468989711509 23.31102190688705 6.999999999999998
    vertex 15.38046183218581 18.913134642424478 6.999999999999998
    vertex 21.67128610248716 20.4654504877526 6.999999999999998
  endloop
endfacet
facet normal 0.0 0.0 1.0
  outer loop
    vertex 21.67128610248716 20.4654504877526 6.999999999999998
    vertex 15.38046183218581 18.913134642424478 6.999999999999998
    vertex 16.163618985506123 18.913134642424478 6.999999999999998
  endloop
endfacet
facet normal 0.0 0.0 1.0
  outer loop
    vertex 21.67128610248716 20.4654504877526 6.999999999999998
    vertex 16.163618985506123 18.913134642424478 6.999999999999998
    vertex 16.920090705941234 18.710438655836906 6.999999999999998
  endloop
endfacet
facet normal 0.0 0.0 1.0
  outer loop
    vertex 21.67128610248716 20.4654504877526 6.999999999999998
    vertex 16.920090705941234 18.710438655836906 6.999999999999998
    vertex 17.59832469587213 18.318860079176755 6.999999999999998
  endloop
endfacet
facet normal 0.0 0.0 1.0
  outer loop
    vertex 21.67128610248716 20.4654504877526 6.999999999999998
    vertex 17.59832469587213 18.318860079176755 6.999999999999998
    vertex 18.15210042971967 17.76508434532921 6.999999999999998
  endloop
endfacet
facet normal 0.0 0.0 1.0
  outer loop
    vertex 21.67128610248716 20.4654504877526 6.999999999999998
    vertex 18.15210042971967 17.76508434532921 6.999999999999998
    vertex 18.543679006379826 17.08685035539832 6.999999999999998
  endloop
endfacet
facet normal 0.0 0.0 1.0
  outer loop
    vertex 21.67128610248716 20.4654504877526 6.999999999999998
    vertex 18.543679006379826 17.08685035539832 6.999999999999998
    vertex 18.746374992967397 16.330378634963203 6.999999999999998
  endloop
endfacet
facet normal -0.38268343236508906 -0.9238795325112871 -0.0
  outer loop
    vertex 21.67128610248716 20.4654504877526 11.999999999999998
    vertex 14.801468989711509 23.31102190688705 6.999999999999998
    vertex 21.67128610248716 20.4654504877526 6.999999999999998
  endloop
endfacet
facet normal -0.38268343236508906 -0.9238795325112871 -0.0
  outer loop
    vertex 14.801468989711509 23.31102190688705 6.999999999999998
    vertex 21.67128610248716 20.4654504877526 11.999999999999998
    vertex 14.801468989711509 23.31102190688705 11.999999999999998
  endloop
endfacet
facet normal 0.6087614290087212 -0.7933533402912347 -0.0
  outer loop
    vertex 14.801468989711509 23.31102190688705 11.999999999999998
    vertex 8.902223296070312 18.78437147743749 6.999999999999998
    vertex 14.801468989711509 23.31102190688705 6.999999999999998
  endloop
endfacet
facet normal 0.6087614290087212 -0.7933533402912347 -0.0
  outer loop
    vertex 8.902223296070312 18.78437147743749 6.999999999999998
    vertex 14.801468989711509 23.31102190688705 11.999999999999998
    vertex 8.902223296070312 18.78437147743749 11.999999999999998
  endloop
endfacet
facet normal 0.9914448613738104 0.13052619222005304 0.0
  outer loop
    vertex 8.902223296070312 18.78437147743749 6.999999999999998
    vertex 9.872794715204776 11.412149628853488 11.999999999999998
    vertex 9.872794715204776 11.412149628853488 6.999999999999998
  endloop
endfacet
facet normal 0.9914448613738104 0.13052619222005304 0.0
  outer loop
    vertex 9.872794715204776 11.412149628853488 11.999999999999998
    vertex 8.902223296070312 18.78437147743749 6.999999999999998
    vertex 8.902223296070312 18.78437147743749 11.999999999999998
  endloop
endfacet
facet normal 0.3826834323650888 0.9238795325112873 0.0
  outer loop
    vertex 9.872794715204776 11.412149628853488 11.999999999999998
    vertex 16.742611827980426 8.566578209719044 6.999999999999998
    vertex 9.872794715204776 11.412149628853488 6.999999999999998
  endloop
endfacet
facet normal 0.3826834323650888 0.9238795325112873 0.0
  outer loop
    vertex 16.742611827980426 8.566578209719044 6.999999999999998
    vertex 9.872794715204776 11.412149628853488 11.999999999999998
    vertex 16.742611827980426 8.566578209719044 11.999999999999998
  endloop
endfacet
facet normal -0.6087614290087212 0.7933533402912347 -0.0
  outer loop
    vertex 16.742611827980426 8.566578209719044 11.999999999999998
    vertex 22.641857521621617 13.0932286391686 6.999999999999998
    vertex 16.742611827980426 8.566578209719044 6.999999999999998
  endloop
endfacet
facet normal -0.6087614290087212 0.7933533402912347 -0.0
  outer loop
    vertex 22.641857521621617 13.0932286391686 6.999999999999998
    vertex 16.742611827980426 8.566578209719044 11.999999999999998
    vertex 22.641857521621617 13.0932286391686 11.999999999999998
  endloop
endfacet
facet normal -0.9914448613738104 -0.13052619222005266 -0.0
  outer loop
    vertex 21.67128610248716 20.4654504877526 11.999999999999998
    vertex 22.641857521621617 13.0932286391686 6.999999999999998
    vertex 22.641857521621617 13.0932286391686 11.999999999999998
  endloop
endfacet
facet normal -0.9914448613738104 -0.13052619222005266 -0.0
  outer loop
    vertex 22.641857521621617 13.0932286391686 6.999999999999998
    vertex 21.67128610248716 20.4654504877526 11.999999999999998
    vertex 21.67128610248716 20.4654504877526 6.999999999999998
  endloop
endfacet
facet normal -0.8660254037844387 -0.4999999999999999 4.6680553093468594e-32
  outer loop
    vertex 18.15210042971967 17.76508434532921 6.999999999999998
    vertex 18.543679006379826 17.08685035539832 2.255973186038318e-14
    vertex 18.543679006379826 17.08685035539832 6.999999999999998
  endloop
endfacet
facet normal -0.8660254037844387 -0.4999999999999999 4.6680553093468594e-32
  outer loop
    vertex 18.543679006379826 17.08685035539832 2.255973186038318e-14
    vertex 18.15210042971967 17.76508434532921 6.999999999999998
    vertex 18.15210042971967 17.76508434532921 2.255973186038318e-14
  endloop
endfacet
facet normal -0.7071067811865476 -0.7071067811865476 1.04130783280493e-31
  outer loop
    vertex 17.59832469587213 18.318860079176755 6.999999999999998
    vertex 18.15210042971967 17.76508434532921 2.255973186038318e-14
    vertex 18.15210042971967 17.76508434532921 6.999999999999998
  endloop
endfacet
facet normal -0.7071067811865476 -0.7071067811865476 1.04130783280493e-31
  outer loop
    vertex 18.15210042971967 17.76508434532921 2.255973186038318e-14
    vertex 17.59832469587213 18.318860079176755 6.999999999999998
    vertex 17.59832469587213 18.318860079176755 2.255973186038318e-14
  endloop
endfacet
facet normal -0.49999999999999833 -0.8660254037844396 1.5448467267120786e-31
  outer loop
    vertex 17.59832469587213 18.318860079176755 6.999999999999998
    vertex 16.920090705941234 18.710438655836906 2.255973186038318e-14
    vertex 17.59832469587213 18.318860079176755 2.255973186038318e-14
  endloop
endfacet
facet normal -0.49999999999999833 -0.8660254037844396 1.5448467267120786e-31
  outer loop
    vertex 16.920090705941234 18.710438655836906 2.255973186038318e-14
    vertex 17.59832469587213 18.318860079176755 6.999999999999998
    vertex 16.920090705941234 18.710438655836906 6.999999999999998
  endloop
endfacet
facet normal -0.25881904510251913 -0.9659258262890689 1.94310686917372e-31
  outer loop
    vertex 16.920090705941234 18.710438655836906 6.999999999999998
    vertex 16.163618985506123 18.913134642424478 2.255973186038318e-14
    vertex 16.920090705941234 18.710438655836906 2.255973186038318e-14
  endloop
endfacet
facet normal -0.25881904510251913 -0.9659258262890689 1.94310686917372e-31
  outer loop
    vertex 16.163618985506123 18.913134642424478 2.255973186038318e-14
    vertex 16.920090705941234 18.710438655836906 6.999999999999998
    vertex 16.163618985506123 18.913134642424478 6.999999999999998
  endloop
endfacet
facet normal -0.0 -1.0 2.208947489637101e-31
  outer loop
    vertex 16.163618985506123 18.913134642424478 6.999999999999998
    vertex 15.38046183218581 18.913134642424478 2.255973186038318e-14
    vertex 16.163618985506123 18.913134642424478 2.255973186038318e-14
  endloop
endfacet
facet normal -0.0 -1.0 2.208947489637101e-31
  outer loop
    vertex 15.38046183218581 18.913134642424478 2.255973186038318e-14
    vertex 16.163618985506123 18.913134642424478 6.999999999999998
    vertex 15.38046183218581 18.913134642424478 6.999999999999998
  endloop
endfacet
facet normal 0.25881904510252157 -0.9659258262890682 2.324251989140041e-31
  outer loop
    vertex 15.38046183218581 18.913134642424478 6.999999999999998
    vertex 14.623990111750695 18.710438655836906 2.255973186038318e-14
    vertex 15.38046183218581 18.913134642424478 2.255973186038318e-14
  endloop
endfacet
facet normal 0.25881904510252157 -0.9659258262890682 2.324251989140041e-31
  outer loop
    vertex 14.623990111750695 18.710438655836906 2.255973186038318e-14
    vertex 15.38046183218581 18.913134642424478 6.999999999999998
    vertex 14.623990111750695 18.710438655836906 6.999999999999998
  endloop
endfacet
facet normal 0.5000000000000027 -0.8660254037844372 2.2811625565911075e-31
  outer loop
    vertex 14.623990111750695 18.710438655836906 6.999999999999998
    vertex 13.945756121819803 18.318860079176748 2.255973186038318e-14
    vertex 14.623990111750695 18.710438655836906 2.255973186038318e-14
  endloop
endfacet
facet normal 0.5000000000000027 -0.8660254037844372 2.2811625565911075e-31
  outer loop
    vertex 13.945756121819803 18.318860079176748 2.255973186038318e-14
    vertex 14.623990111750695 18.710438655836906 6.999999999999998
    vertex 13.945756121819803 18.318860079176748 6.999999999999998
  endloop
endfacet
facet normal 0.7071067811865476 -0.7071067811865476 2.08261566560986e-31
  outer loop
    vertex 13.945756121819803 18.318860079176748 2.255973186038318e-14
    vertex 13.391980387972259 17.765084345329203 6.999999999999998
    vertex 13.391980387972259 17.765084345329203 2.255973186038318e-14
  endloop
endfacet
facet normal 0.7071067811865476 -0.7071067811865476 2.08261566560986e-31
  outer loop
    vertex 13.391980387972259 17.765084345329203 6.999999999999998
    vertex 13.945756121819803 18.318860079176748 2.255973186038318e-14
    vertex 13.945756121819803 18.318860079176748 6.999999999999998
  endloop
endfacet
facet normal 0.8660254037844387 -0.4999999999999999 1.742141958702414e-31
  outer loop
    vertex 13.391980387972259 17.765084345329203 2.255973186038318e-14
    vertex 13.000401811312106 17.086850355398315 6.999999999999998
    vertex 13.000401811312106 17.086850355398315 2.255973186038318e-14
  endloop
endfacet
facet normal 0.8660254037844387 -0.4999999999999999 1.742141958702414e-31
  outer loop
    vertex 13.000401811312106 17.086850355398315 6.999999999999998
    vertex 13.391980387972259 17.765084345329203 2.255973186038318e-14
    vertex 13.391980387972259 17.765084345329203 6.999999999999998
  endloop
endfacet
facet normal 0.9659258262890691 -0.2588190451025182 1.2829441563351063e-31
  outer loop
    vertex 13.000401811312106 17.086850355398315 2.255973186038318e-14
    vertex 12.797705824724536 16.330378634963196 6.999999999999998
    vertex 12.797705824724536 16.330378634963196 2.255973186038318e-14
  endloop
endfacet
facet normal 0.9659258262890691 -0.2588190451025182 1.2829441563351063e-31
  outer loop
    vertex 12.797705824724536 16.330378634963196 6.999999999999998
    vertex 13.000401811312106 17.086850355398315 2.255973186038318e-14
    vertex 13.000401811312106 17.086850355398315 6.999999999999998
  endloop
endfacet
facet normal 1.0 0.0 7.363158298790334e-32
  outer loop
    vertex 12.797705824724536 16.330378634963196 2.255973186038318e-14
    vertex 12.797705824724536 15.54722148164289 6.999999999999998
    vertex 12.797705824724536 15.54722148164289 2.255973186038318e-14
  endloop
endfacet
facet normal 1.0 0.0 7.363158298790334e-32
  outer loop
    vertex 12.797705824724536 15.54722148164289 6.999999999999998
    vertex 12.797705824724536 16.330378634963196 2.255973186038318e-14
    vertex 12.797705824724536 16.330378634963196 6.999999999999998
  endloop
endfacet
facet normal 0.9659258262890682 0.25881904510252157 1.3950879643613986e-32
  outer loop
    vertex 12.797705824724536 15.54722148164289 2.255973186038318e-14
    vertex 13.000401811312107 14.790749761207774 6.999999999999998
    vertex 13.000401811312107 14.790749761207774 2.255973186038318e-14
  endloop
endfacet
facet normal 0.9659258262890682 0.25881904510252157 1.3950879643613986e-32
  outer loop
    vertex 13.000401811312107 14.790749761207774 6.999999999999998
    vertex 12.797705824724536 15.54722148164289 2.255973186038318e-14
    vertex 12.797705824724536 15.54722148164289 6.999999999999998
  endloop
endfacet
facet normal 0.8660254037844372 0.5000000000000027 -4.668055309346931e-32
  outer loop
    vertex 13.000401811312107 14.790749761207774 2.255973186038318e-14
    vertex 13.391980387972264 14.112515771276883 6.999999999999998
    vertex 13.391980387972264 14.112515771276883 2.255973186038318e-14
  endloop
endfacet
facet normal 0.8660254037844372 0.5000000000000027 -4.668055309346931e-32
  outer loop
    vertex 13.391980387972264 14.112515771276883 6.999999999999998
    vertex 13.000401811312107 14.790749761207774 2.255973186038318e-14
    vertex 13.000401811312107 14.790749761207774 6.999999999999998
  endloop
endfacet
facet normal 0.7071067811865476 0.7071067811865476 -1.04130783280493e-31
  outer loop
    vertex 13.391980387972264 14.112515771276883 2.255973186038318e-14
    vertex 13.945756121819809 13.558740037429338 6.999999999999998
    vertex 13.945756121819809 13.558740037429338 2.255973186038318e-14
  endloop
endfacet
facet normal 0.7071067811865476 0.7071067811865476 -1.04130783280493e-31
  outer loop
    vertex 13.945756121819809 13.558740037429338 6.999999999999998
    vertex 13.391980387972264 14.112515771276883 2.255973186038318e-14
    vertex 13.391980387972264 14.112515771276883 6.999999999999998
  endloop
endfacet
facet normal 0.4999999999999999 0.8660254037844387 -1.5448467267120753e-31
  outer loop
    vertex 13.945756121819809 13.558740037429338 6.999999999999998
    vertex 14.6239901117507 13.167161460769185 2.255973186038318e-14
    vertex 13.945756121819809 13.558740037429338 2.255973186038318e-14
  endloop
endfacet
facet normal 0.4999999999999999 0.8660254037844387 -1.5448467267120753e-31
  outer loop
    vertex 14.6239901117507 13.167161460769185 2.255973186038318e-14
    vertex 13.945756121819809 13.558740037429338 6.999999999999998
    vertex 14.6239901117507 13.167161460769185 6.999999999999998
  endloop
endfacet
facet normal 0.2588190451025182 0.9659258262890691 -1.9431068691737214e-31
  outer loop
    vertex 14.6239901117507 13.167161460769185 6.999999999999998
    vertex 15.380461832185816 12.964465474181615 2.255973186038318e-14
    vertex 14.6239901117507 13.167161460769185 2.255973186038318e-14
  endloop
endfacet
facet normal 0.2588190451025182 0.9659258262890691 -1.9431068691737214e-31
  outer loop
    vertex 15.380461832185816 12.964465474181615 2.255973186038318e-14
    vertex 14.6239901117507 13.167161460769185 6.999999999999998
    vertex 15.380461832185816 12.964465474181615 6.999999999999998
  endloop
endfacet
facet normal -0.0 1.0 -2.2089474896371004e-31
  outer loop
    vertex 15.380461832185816 12.964465474181615 6.999999999999998
    vertex 16.163618985506123 12.964465474181615 2.255973186038318e-14
    vertex 15.380461832185816 12.964465474181615 2.255973186038318e-14
  endloop
endfacet
facet normal -0.0 1.0 -2.2089474896371004e-31
  outer loop
    vertex 16.163618985506123 12.964465474181615 2.255973186038318e-14
    vertex 15.380461832185816 12.964465474181615 6.999999999999998
    vertex 16.163618985506123 12.964465474181615 6.999999999999998
  endloop
endfacet
facet normal -0.25881904510252157 0.9659258262890682 -2.324251989140041e-31
  outer loop
    vertex 16.163618985506123 12.964465474181615 6.999999999999998
    vertex 16.920090705941238 13.167161460769188 2.255973186038318e-14
    vertex 16.163618985506123 12.964465474181615 2.255973186038318e-14
  endloop
endfacet
facet normal -0.25881904510252157 0.9659258262890682 -2.324251989140041e-31
  outer loop
    vertex 16.920090705941238 13.167161460769188 2.255973186038318e-14
    vertex 16.163618985506123 12.964465474181615 6.999999999999998
    vertex 16.920090705941238 13.167161460769188 6.999999999999998
  endloop
endfacet
facet normal -0.4999999999999999 0.8660254037844387 -2.281162556591109e-31
  outer loop
    vertex 16.920090705941238 13.167161460769188 6.999999999999998
    vertex 17.59832469587213 13.558740037429342 2.255973186038318e-14
    vertex 16.920090705941238 13.167161460769188 2.255973186038318e-14
  endloop
endfacet
facet normal -0.4999999999999999 0.8660254037844387 -2.281162556591109e-31
  outer loop
    vertex 17.59832469587213 13.558740037429342 2.255973186038318e-14
    vertex 16.920090705941238 13.167161460769188 6.999999999999998
    vertex 17.59832469587213 13.558740037429342 6.999999999999998
  endloop
endfacet
facet normal -0.7071067811865476 0.7071067811865476 -2.08261566560986e-31
  outer loop
    vertex 18.152100429719674 14.112515771276886 6.999999999999998
    vertex 17.59832469587213 13.558740037429342 2.255973186038318e-14
    vertex 17.59832469587213 13.558740037429342 6.999999999999998
  endloop
endfacet
facet normal -0.7071067811865476 0.7071067811865476 -2.08261566560986e-31
  outer loop
    vertex 17.59832469587213 13.558740037429342 2.255973186038318e-14
    vertex 18.152100429719674 14.112515771276886 6.999999999999998
    vertex 18.152100429719674 14.112515771276886 2.255973186038318e-14
  endloop
endfacet
facet normal -0.8660254037844396 0.49999999999999833 -1.7421419587024113e-31
  outer loop
    vertex 18.54367900637983 14.79074976120778 6.999999999999998
    vertex 18.152100429719674 14.112515771276886 2.255973186038318e-14
    vertex 18.152100429719674 14.112515771276886 6.999999999999998
  endloop
endfacet
facet normal -0.8660254037844396 0.49999999999999833 -1.7421419587024113e-31
  outer loop
    vertex 18.152100429719674 14.112515771276886 2.255973186038318e-14
    vertex 18.54367900637983 14.79074976120778 6.999999999999998
    vertex 18.54367900637983 14.79074976120778 2.255973186038318e-14
  endloop
endfacet
facet normal -0.9659258262890689 0.25881904510251913 -1.282944156335108e-31
  outer loop
    vertex 18.746374992967397 15.547221481642893 6.999999999999998
    vertex 18.54367900637983 14.79074976120778 2.255973186038318e-14
    vertex 18.54367900637983 14.79074976120778 6.999999999999998
  endloop
endfacet
facet normal -0.9659258262890689 0.25881904510251913 -1.282944156335108e-31
  outer loop
    vertex 18.54367900637983 14.79074976120778 2.255973186038318e-14
    vertex 18.746374992967397 15.547221481642893 6.999999999999998
    vertex 18.746374992967397 15.547221481642893 2.255973186038318e-14
  endloop
endfacet
facet normal -1.0 0.0 -7.363158298790334e-32
  outer loop
    vertex 18.746374992967397 16.330378634963203 6.999999999999998
    vertex 18.746374992967397 15.547221481642893 2.255973186038318e-14
    vertex 18.746374992967397 15.547221481642893 6.999999999999998
  endloop
endfacet
facet normal -1.0 0.0 -7.363158298790334e-32
  outer loop
    vertex 18.746374992967397 15.547221481642893 2.255973186038318e-14
    vertex 18.746374992967397 16.330378634963203 6.999999999999998
    vertex 18.746374992967397 16.330378634963203 2.255973186038318e-14
  endloop
endfacet
facet normal -0.9659258262890682 -0.25881904510252157 -1.3950879643613986e-32
  outer loop
    vertex 18.543679006379826 17.08685035539832 6.999999999999998
    vertex 18.746374992967397 16.330378634963203 2.255973186038318e-14
    vertex 18.746374992967397 16.330378634963203 6.999999999999998
  endloop
endfacet
facet normal -0.9659258262890682 -0.25881904510252157 -1.3950879643613986e-32
  outer loop
    vertex 18.746374992967397 16.330378634963203 2.255973186038318e-14
    vertex 18.543679006379826 17.08685035539832 6.999999999999998
    vertex 18.543679006379826 17.08685035539832 2.255973186038318e-14
  endloop
endfacet
facet normal -0.0 -0.0 1.0
  outer loop
    vertex 8.3451509749396 6.2598893067499635 50.0
    vertex 8.27204040884597 15.938800058303046 50.0
    vertex 6.093129657292912 8.511910624396641 50.0
  endloop
endfacet
facet normal -0.0 -0.0 1.0
  outer loop
    vertex 8.27204040884597 15.938800058303046 50.0
    vertex 8.3451509749396 6.2598893067499635 50.0
    vertex 8.527596711677958 13.997657220034137 50.0
  endloop
endfacet
facet normal -0.0 -0.0 1.0
  outer loop
    vertex 8.527596711677958 13.997657220034137 50.0
    vertex 8.3451509749396 6.2598893067499635 50.0
    vertex 11.103302533991894 4.667469761665342 50.0
  endloop
endfacet
facet normal -0.0 -0.0 1.0
  outer loop
    vertex 8.527596711677958 13.997657220034137 50.0
    vertex 11.103302533991894 4.667469761665342 50.0
    vertex 9.27684988046268 12.188800058303045 50.0
  endloop
endfacet
facet normal -0.0 -0.0 1.0
  outer loop
    vertex 9.27684988046268 12.188800058303045 50.0
    vertex 11.103302533991894 4.667469761665342 50.0
    vertex 10.468739549946864 10.635499199403938 50.0
  endloop
endfacet
facet normal -0.0 -0.0 1.0
  outer loop
    vertex 10.468739549946864 10.635499199403938 50.0
    vertex 11.103302533991894 4.667469761665342 50.0
    vertex 12.022040408845971 9.443609529919756 50.0
  endloop
endfacet
facet normal -0.0 -0.0 1.0
  outer loop
    vertex 12.022040408845971 9.443609529919756 50.0
    vertex 11.103302533991894 4.667469761665342 50.0
    vertex 14.179620863761361 3.843172749542559 50.0
  endloop
endfacet
facet normal -0.0 -0.0 1.0
  outer loop
    vertex 12.022040408845971 9.443609529919756 50.0
    vertex 14.179620863761361 3.843172749542559 50.0
    vertex 13.830897570577067 8.694356361135036 50.0
  endloop
endfacet
facet normal -0.0 -0.0 1.0
  outer loop
    vertex 13.830897570577067 8.694356361135036 50.0
    vertex 14.179620863761361 3.843172749542559 50.0
    vertex 15.772040408845967 8.438800058303048 50.0
  endloop
endfacet
facet normal -0.0 -0.0 1.0
  outer loop
    vertex 15.772040408845967 8.438800058303048 50.0
    vertex 14.179620863761361 3.843172749542559 50.0
    vertex 17.364459953930616 3.843172749542565 50.0
  endloop
endfacet
facet normal -0.0 -0.0 1.0
  outer loop
    vertex 15.772040408845967 8.438800058303048 50.0
    vertex 17.364459953930616 3.843172749542565 50.0
    vertex 17.713183247114873 8.694356361135037 50.0
  endloop
endfacet
facet normal -0.0 -0.0 1.0
  outer loop
    vertex 17.713183247114873 8.694356361135037 50.0
    vertex 17.364459953930616 3.843172749542565 50.0
    vertex 20.44077828370008 4.667469761665359 50.0
  endloop
endfacet
facet normal -0.0 -0.0 1.0
  outer loop
    vertex 17.713183247114873 8.694356361135037 50.0
    vertex 20.44077828370008 4.667469761665359 50.0
    vertex 19.522040408845967 9.44360952991976 50.0
  endloop
endfacet
facet normal -0.0 -0.0 1.0
  outer loop
    vertex 19.522040408845967 9.44360952991976 50.0
    vertex 20.44077828370008 4.667469761665359 50.0
    vertex 21.075341267745074 10.635499199403942 50.0
  endloop
endfacet
facet normal -0.0 -0.0 1.0
  outer loop
    vertex 21.075341267745074 10.635499199403942 50.0
    vertex 20.44077828370008 4.667469761665359 50.0
    vertex 23.19892984275237 6.259889306749991 50.0
  endloop
endfacet
facet normal -0.0 -0.0 1.0
  outer loop
    vertex 21.075341267745074 10.635499199403942 50.0
    vertex 23.19892984275237 6.259889306749991 50.0
    vertex 22.267230937229254 12.18880005830305 50.0
  endloop
endfacet
facet normal -0.0 -0.0 1.0
  outer loop
    vertex 22.267230937229254 12.18880005830305 50.0
    vertex 23.19892984275237 6.259889306749991 50.0
    vertex 23.016484106013976 13.997657220034142 50.0
  endloop
endfacet
facet normal -0.0 -0.0 1.0
  outer loop
    vertex 23.016484106013976 13.997657220034142 50.0
    vertex 23.19892984275237 6.259889306749991 50.0
    vertex 23.272040408845964 15.938800058303046 50.0
  endloop
endfacet
facet normal -0.0 -0.0 1.0
  outer loop
    vertex 23.272040408845964 15.938800058303046 50.0
    vertex 23.19892984275237 6.259889306749991 50.0
    vertex 25.450951160399047 8.511910624396673 50.0
  endloop
endfacet
facet normal -0.0 -0.0 1.0
  outer loop
    vertex 23.272040408845964 15.938800058303046 50.0
    vertex 25.450951160399047 8.511910624396673 50.0
    vertex 25.450951160399025 23.36568949220945 50.0
  endloop
endfacet
facet normal -0.0 -0.0 1.0
  outer loop
    vertex 25.450951160399025 23.36568949220945 50.0
    vertex 25.450951160399047 8.511910624396673 50.0
    vertex 27.043370705483653 20.607537933157158 50.0
  endloop
endfacet
facet normal -0.0 -0.0 1.0
  outer loop
    vertex 27.043370705483653 20.607537933157158 50.0
    vertex 25.450951160399047 8.511910624396673 50.0
    vertex 27.04337070548367 11.270062183448973 50.0
  endloop
endfacet
facet normal -0.0 -0.0 1.0
  outer loop
    vertex 27.043370705483653 20.607537933157158 50.0
    vertex 27.04337070548367 11.270062183448973 50.0
    vertex 27.867667717606448 17.531219603387694 50.0
  endloop
endfacet
facet normal -0.0 -0.0 1.0
  outer loop
    vertex 27.867667717606448 17.531219603387694 50.0
    vertex 27.04337070548367 11.270062183448973 50.0
    vertex 27.867667717606455 14.346380513218437 50.0
  endloop
endfacet
facet normal -0.0 -0.0 1.0
  outer loop
    vertex 3.6764131000854854 14.34638051321839 50.0
    vertex 4.500710112208263 20.60753793315712 50.0
    vertex 3.6764131000854796 17.531219603387655 50.0
  endloop
endfacet
facet normal -0.0 -0.0 1.0
  outer loop
    vertex 4.500710112208263 20.60753793315712 50.0
    vertex 3.6764131000854854 14.34638051321839 50.0
    vertex 4.50071011220828 11.270062183448932 50.0
  endloop
endfacet
facet normal -0.0 -0.0 1.0
  outer loop
    vertex 4.500710112208263 20.60753793315712 50.0
    vertex 4.50071011220828 11.270062183448932 50.0
    vertex 6.093129657292882 23.365689492209412 50.0
  endloop
endfacet
facet normal -0.0 -0.0 1.0
  outer loop
    vertex 6.093129657292882 23.365689492209412 50.0
    vertex 4.50071011220828 11.270062183448932 50.0
    vertex 6.093129657292912 8.511910624396641 50.0
  endloop
endfacet
facet normal -0.0 -0.0 1.0
  outer loop
    vertex 6.093129657292882 23.365689492209412 50.0
    vertex 6.093129657292912 8.511910624396641 50.0
    vertex 8.345150974939564 25.617710809856103 50.0
  endloop
endfacet
facet normal -0.0 -0.0 1.0
  outer loop
    vertex 8.345150974939564 25.617710809856103 50.0
    vertex 6.093129657292912 8.511910624396641 50.0
    vertex 8.27204040884597 15.938800058303046 50.0
  endloop
endfacet
facet normal -0.0 -0.0 1.0
  outer loop
    vertex 8.345150974939564 25.617710809856103 50.0
    vertex 8.27204040884597 15.938800058303046 50.0
    vertex 8.527596711677957 17.879942896571947 50.0
  endloop
endfacet
facet normal -0.0 -0.0 1.0
  outer loop
    vertex 8.345150974939564 25.617710809856103 50.0
    vertex 8.527596711677957 17.879942896571947 50.0
    vertex 11.103302533991856 27.210130354940734 50.0
  endloop
endfacet
facet normal -0.0 -0.0 1.0
  outer loop
    vertex 11.103302533991856 27.210130354940734 50.0
    vertex 8.527596711677957 17.879942896571947 50.0
    vertex 9.276849880462676 19.68880005830304 50.0
  endloop
endfacet
facet normal -0.0 -0.0 1.0
  outer loop
    vertex 11.103302533991856 27.210130354940734 50.0
    vertex 9.276849880462676 19.68880005830304 50.0
    vertex 10.46873954994686 21.242100917202148 50.0
  endloop
endfacet
facet normal -0.0 -0.0 1.0
  outer loop
    vertex 11.103302533991856 27.210130354940734 50.0
    vertex 10.46873954994686 21.242100917202148 50.0
    vertex 12.022040408845966 22.43399058668633 50.0
  endloop
endfacet
facet normal -0.0 -0.0 1.0
  outer loop
    vertex 11.103302533991856 27.210130354940734 50.0
    vertex 12.022040408845966 22.43399058668633 50.0
    vertex 14.17962086376132 28.03442736706353 50.0
  endloop
endfacet
facet normal -0.0 -0.0 1.0
  outer loop
    vertex 14.17962086376132 28.03442736706353 50.0
    vertex 12.022040408845966 22.43399058668633 50.0
    vertex 13.830897570577054 23.183243755471054 50.0
  endloop
endfacet
facet normal -0.0 -0.0 1.0
  outer loop
    vertex 14.17962086376132 28.03442736706353 50.0
    vertex 13.830897570577054 23.183243755471054 50.0
    vertex 15.772040408845967 23.438800058303045 50.0
  endloop
endfacet
facet normal -0.0 -0.0 1.0
  outer loop
    vertex 14.17962086376132 28.03442736706353 50.0
    vertex 15.772040408845967 23.438800058303045 50.0
    vertex 17.364459953930577 28.034427367063532 50.0
  endloop
endfacet
facet normal -0.0 -0.0 1.0
  outer loop
    vertex 17.364459953930577 28.034427367063532 50.0
    vertex 15.772040408845967 23.438800058303045 50.0
    vertex 17.71318324711487 23.183243755471057 50.0
  endloop
endfacet
facet normal -0.0 -0.0 1.0
  outer loop
    vertex 17.364459953930577 28.034427367063532 50.0
    vertex 17.71318324711487 23.183243755471057 50.0
    vertex 20.440778283700045 27.210130354940752 50.0
  endloop
endfacet
facet normal -0.0 -0.0 1.0
  outer loop
    vertex 20.440778283700045 27.210130354940752 50.0
    vertex 17.71318324711487 23.183243755471057 50.0
    vertex 19.522040408845967 22.433990586686335 50.0
  endloop
endfacet
facet normal -0.0 -0.0 1.0
  outer loop
    vertex 20.440778283700045 27.210130354940752 50.0
    vertex 19.522040408845967 22.433990586686335 50.0
    vertex 21.07534126774507 21.24210091720215 50.0
  endloop
endfacet
facet normal -0.0 -0.0 1.0
  outer loop
    vertex 20.440778283700045 27.210130354940752 50.0
    vertex 21.07534126774507 21.24210091720215 50.0
    vertex 23.198929842752342 25.617710809856128 50.0
  endloop
endfacet
facet normal -0.0 -0.0 1.0
  outer loop
    vertex 23.198929842752342 25.617710809856128 50.0
    vertex 21.07534126774507 21.24210091720215 50.0
    vertex 22.267230937229254 19.688800058303045 50.0
  endloop
endfacet
facet normal -0.0 -0.0 1.0
  outer loop
    vertex 23.198929842752342 25.617710809856128 50.0
    vertex 22.267230937229254 19.688800058303045 50.0
    vertex 23.016484106013976 17.879942896571954 50.0
  endloop
endfacet
facet normal -0.0 -0.0 1.0
  outer loop
    vertex 23.198929842752342 25.617710809856128 50.0
    vertex 23.016484106013976 17.879942896571954 50.0
    vertex 23.272040408845964 15.938800058303046 50.0
  endloop
endfacet
facet normal -0.0 -0.0 1.0
  outer loop
    vertex 23.198929842752342 25.617710809856128 50.0
    vertex 23.272040408845964 15.938800058303046 50.0
    vertex 25.450951160399025 23.36568949220945 50.0
  endloop
endfacet
facet normal 0.0 0.0 -1.0
  outer loop
    vertex 14.179620863761484 28.03442736706355 -2.00370669926137e-29
    vertex 12.797705824724536 16.330378634963196 2.255973186038318e-14
    vertex 11.103302533992007 27.210130354940794 -2.00370669926137e-29
  endloop
endfacet
facet normal 0.0 0.0 -1.0
  outer loop
    vertex 12.797705824724536 16.330378634963196 2.255973186038318e-14
    vertex 14.179620863761484 28.03442736706355 -2.00370669926137e-29
    vertex 13.000401811312106 17.086850355398315 2.255973186038318e-14
  endloop
endfacet
facet normal 0.0 0.0 -1.0
  outer loop
    vertex 13.000401811312106 17.086850355398315 2.255973186038318e-14
    vertex 14.179620863761484 28.03442736706355 -2.00370669926137e-29
    vertex 13.391980387972259 17.765084345329203 2.255973186038318e-14
  endloop
endfacet
facet normal 0.0 0.0 -1.0
  outer loop
    vertex 13.391980387972259 17.765084345329203 2.255973186038318e-14
    vertex 14.179620863761484 28.03442736706355 -2.00370669926137e-29
    vertex 13.945756121819803 18.318860079176748 2.255973186038318e-14
  endloop
endfacet
facet normal 0.0 0.0 -1.0
  outer loop
    vertex 13.945756121819803 18.318860079176748 2.255973186038318e-14
    vertex 14.179620863761484 28.03442736706355 -2.00370669926137e-29
    vertex 14.623990111750695 18.710438655836906 2.255973186038318e-14
  endloop
endfacet
facet normal 0.0 0.0 -1.0
  outer loop
    vertex 14.623990111750695 18.710438655836906 2.255973186038318e-14
    vertex 14.179620863761484 28.03442736706355 -2.00370669926137e-29
    vertex 17.364459953930737 28.03442736706351 -2.00370669926137e-29
  endloop
endfacet
facet normal 0.0 0.0 -1.0
  outer loop
    vertex 14.623990111750695 18.710438655836906 2.255973186038318e-14
    vertex 17.364459953930737 28.03442736706351 -2.00370669926137e-29
    vertex 15.38046183218581 18.913134642424478 2.255973186038318e-14
  endloop
endfacet
facet normal 0.0 0.0 -1.0
  outer loop
    vertex 15.38046183218581 18.913134642424478 2.255973186038318e-14
    vertex 17.364459953930737 28.03442736706351 -2.00370669926137e-29
    vertex 16.163618985506123 18.913134642424478 2.255973186038318e-14
  endloop
endfacet
facet normal 0.0 0.0 -1.0
  outer loop
    vertex 16.163618985506123 18.913134642424478 2.255973186038318e-14
    vertex 17.364459953930737 28.03442736706351 -2.00370669926137e-29
    vertex 16.920090705941234 18.710438655836906 2.255973186038318e-14
  endloop
endfacet
facet normal 0.0 0.0 -1.0
  outer loop
    vertex 16.920090705941234 18.710438655836906 2.255973186038318e-14
    vertex 17.364459953930737 28.03442736706351 -2.00370669926137e-29
    vertex 17.59832469587213 18.318860079176755 2.255973186038318e-14
  endloop
endfacet
facet normal 0.0 0.0 -1.0
  outer loop
    vertex 17.59832469587213 18.318860079176755 2.255973186038318e-14
    vertex 17.364459953930737 28.03442736706351 -2.00370669926137e-29
    vertex 20.440778283700197 27.210130354940688 -2.00370669926137e-29
  endloop
endfacet
facet normal 0.0 0.0 -1.0
  outer loop
    vertex 17.59832469587213 18.318860079176755 2.255973186038318e-14
    vertex 20.440778283700197 27.210130354940688 -2.00370669926137e-29
    vertex 18.15210042971967 17.76508434532921 2.255973186038318e-14
  endloop
endfacet
facet normal 0.0 0.0 -1.0
  outer loop
    vertex 18.15210042971967 17.76508434532921 2.255973186038318e-14
    vertex 20.440778283700197 27.210130354940688 -2.00370669926137e-29
    vertex 18.543679006379826 17.08685035539832 2.255973186038318e-14
  endloop
endfacet
facet normal 0.0 0.0 -1.0
  outer loop
    vertex 18.543679006379826 17.08685035539832 2.255973186038318e-14
    vertex 20.440778283700197 27.210130354940688 -2.00370669926137e-29
    vertex 18.746374992967397 16.330378634963203 2.255973186038318e-14
  endloop
endfacet
facet normal 0.0 0.0 -1.0
  outer loop
    vertex 18.746374992967397 16.330378634963203 2.255973186038318e-14
    vertex 20.440778283700197 27.210130354940688 -2.00370669926137e-29
    vertex 18.746374992967397 15.547221481642893 2.255973186038318e-14
  endloop
endfacet
facet normal 0.0 0.0 -1.0
  outer loop
    vertex 18.746374992967397 15.547221481642893 2.255973186038318e-14
    vertex 20.440778283700197 27.210130354940688 -2.00370669926137e-29
    vertex 20.44077828369992 4.667469761665291 -2.00370669926137e-29
  endloop
endfacet
facet normal 0.0 0.0 -1.0
  outer loop
    vertex 20.44077828369992 4.667469761665291 -2.00370669926137e-29
    vertex 20.440778283700197 27.210130354940688 -2.00370669926137e-29
    vertex 23.198929842752246 6.259889306749892 -2.00370669926137e-29
  endloop
endfacet
facet normal 0.0 0.0 -1.0
  outer loop
    vertex 23.198929842752246 6.259889306749892 -2.00370669926137e-29
    vertex 20.440778283700197 27.210130354940688 -2.00370669926137e-29
    vertex 23.198929842752474 25.61771080985603 -2.00370669926137e-29
  endloop
endfacet
facet normal 0.0 0.0 -1.0
  outer loop
    vertex 23.198929842752246 6.259889306749892 -2.00370669926137e-29
    vertex 23.198929842752474 25.61771080985603 -2.00370669926137e-29
    vertex 25.45095116039895 8.511910624396544 -2.00370669926137e-29
  endloop
endfacet
facet normal 0.0 0.0 -1.0
  outer loop
    vertex 25.45095116039895 8.511910624396544 -2.00370669926137e-29
    vertex 23.198929842752474 25.61771080985603 -2.00370669926137e-29
    vertex 25.450951160399125 23.365689492209327 -2.00370669926137e-29
  endloop
endfacet
facet normal 0.0 0.0 -1.0
  outer loop
    vertex 25.45095116039895 8.511910624396544 -2.00370669926137e-29
    vertex 25.450951160399125 23.365689492209327 -2.00370669926137e-29
    vertex 27.04337070548361 11.270062183448822 -2.00370669926137e-29
  endloop
endfacet
facet normal 0.0 0.0 -1.0
  outer loop
    vertex 27.04337070548361 11.270062183448822 -2.00370669926137e-29
    vertex 25.450951160399125 23.365689492209327 -2.00370669926137e-29
    vertex 27.04337070548372 20.60753793315701 -2.00370669926137e-29
  endloop
endfacet
facet normal 0.0 0.0 -1.0
  outer loop
    vertex 27.04337070548361 11.270062183448822 -2.00370669926137e-29
    vertex 27.04337070548372 20.60753793315701 -2.00370669926137e-29
    vertex 27.86766771760643 14.346380513218278 -2.00370669926137e-29
  endloop
endfacet
facet normal 0.0 0.0 -1.0
  outer loop
    vertex 27.86766771760643 14.346380513218278 -2.00370669926137e-29
    vertex 27.04337070548372 20.60753793315701 -2.00370669926137e-29
    vertex 27.867667717606476 17.531219603387537 -2.00370669926137e-29
  endloop
endfacet
facet normal 0.0 0.0 -1.0
  outer loop
    vertex 3.676413100085499 17.53121960338782 -2.00370669926137e-29
    vertex 4.5007101122082105 11.27006218344909 -2.00370669926137e-29
    vertex 3.6764131000854614 14.346380513218563 -2.00370669926137e-29
  endloop
endfacet
facet normal 0.0 0.0 -1.0
  outer loop
    vertex 4.5007101122082105 11.27006218344909 -2.00370669926137e-29
    vertex 3.676413100085499 17.53121960338782 -2.00370669926137e-29
    vertex 4.500710112208325 20.607537933157275 -2.00370669926137e-29
  endloop
endfacet
facet normal 0.0 0.0 -1.0
  outer loop
    vertex 4.5007101122082105 11.27006218344909 -2.00370669926137e-29
    vertex 4.500710112208325 20.607537933157275 -2.00370669926137e-29
    vertex 6.09312965729281 8.511910624396767 -2.00370669926137e-29
  endloop
endfacet
facet normal 0.0 0.0 -1.0
  outer loop
    vertex 6.09312965729281 8.511910624396767 -2.00370669926137e-29
    vertex 4.500710112208325 20.607537933157275 -2.00370669926137e-29
    vertex 6.0931296572929865 23.365689492209555 -2.00370669926137e-29
  endloop
endfacet
facet normal 0.0 0.0 -1.0
  outer loop
    vertex 6.09312965729281 8.511910624396767 -2.00370669926137e-29
    vertex 6.0931296572929865 23.365689492209555 -2.00370669926137e-29
    vertex 8.345150974939457 6.259889306750066 -2.00370669926137e-29
  endloop
endfacet
facet normal 0.0 0.0 -1.0
  outer loop
    vertex 8.345150974939457 6.259889306750066 -2.00370669926137e-29
    vertex 6.0931296572929865 23.365689492209555 -2.00370669926137e-29
    vertex 8.345150974939688 25.617710809856206 -2.00370669926137e-29
  endloop
endfacet
facet normal 0.0 0.0 -1.0
  outer loop
    vertex 8.345150974939457 6.259889306750066 -2.00370669926137e-29
    vertex 8.345150974939688 25.617710809856206 -2.00370669926137e-29
    vertex 11.10330253399173 4.667469761665407 -2.00370669926137e-29
  endloop
endfacet
facet normal 0.0 0.0 -1.0
  outer loop
    vertex 11.10330253399173 4.667469761665407 -2.00370669926137e-29
    vertex 8.345150974939688 25.617710809856206 -2.00370669926137e-29
    vertex 11.103302533992007 27.210130354940794 -2.00370669926137e-29
  endloop
endfacet
facet normal 0.0 0.0 -1.0
  outer loop
    vertex 11.10330253399173 4.667469761665407 -2.00370669926137e-29
    vertex 11.103302533992007 27.210130354940794 -2.00370669926137e-29
    vertex 14.179620863761192 3.8431727495425805 -2.00370669926137e-29
  endloop
endfacet
facet normal 0.0 0.0 -1.0
  outer loop
    vertex 14.179620863761192 3.8431727495425805 -2.00370669926137e-29
    vertex 11.103302533992007 27.210130354940794 -2.00370669926137e-29
    vertex 12.797705824724536 15.54722148164289 2.255973186038318e-14
  endloop
endfacet
facet normal 0.0 0.0 -1.0
  outer loop
    vertex 12.797705824724536 15.54722148164289 2.255973186038318e-14
    vertex 11.103302533992007 27.210130354940794 -2.00370669926137e-29
    vertex 12.797705824724536 16.330378634963196 2.255973186038318e-14
  endloop
endfacet
facet normal 0.0 0.0 -1.0
  outer loop
    vertex 14.179620863761192 3.8431727495425805 -2.00370669926137e-29
    vertex 12.797705824724536 15.54722148164289 2.255973186038318e-14
    vertex 13.000401811312107 14.790749761207774 2.255973186038318e-14
  endloop
endfacet
facet normal 0.0 0.0 -1.0
  outer loop
    vertex 14.179620863761192 3.8431727495425805 -2.00370669926137e-29
    vertex 13.000401811312107 14.790749761207774 2.255973186038318e-14
    vertex 13.391980387972264 14.112515771276883 2.255973186038318e-14
  endloop
endfacet
facet normal 0.0 0.0 -1.0
  outer loop
    vertex 14.179620863761192 3.8431727495425805 -2.00370669926137e-29
    vertex 13.391980387972264 14.112515771276883 2.255973186038318e-14
    vertex 13.945756121819809 13.558740037429338 2.255973186038318e-14
  endloop
endfacet
facet normal 0.0 0.0 -1.0
  outer loop
    vertex 14.179620863761192 3.8431727495425805 -2.00370669926137e-29
    vertex 13.945756121819809 13.558740037429338 2.255973186038318e-14
    vertex 14.6239901117507 13.167161460769185 2.255973186038318e-14
  endloop
endfacet
facet normal 0.0 0.0 -1.0
  outer loop
    vertex 14.179620863761192 3.8431727495425805 -2.00370669926137e-29
    vertex 14.6239901117507 13.167161460769185 2.255973186038318e-14
    vertex 17.36445995393045 3.8431727495425423 -2.00370669926137e-29
  endloop
endfacet
facet normal 0.0 0.0 -1.0
  outer loop
    vertex 17.36445995393045 3.8431727495425423 -2.00370669926137e-29
    vertex 14.6239901117507 13.167161460769185 2.255973186038318e-14
    vertex 15.380461832185816 12.964465474181615 2.255973186038318e-14
  endloop
endfacet
facet normal 0.0 0.0 -1.0
  outer loop
    vertex 17.36445995393045 3.8431727495425423 -2.00370669926137e-29
    vertex 15.380461832185816 12.964465474181615 2.255973186038318e-14
    vertex 16.163618985506123 12.964465474181615 2.255973186038318e-14
  endloop
endfacet
facet normal 0.0 0.0 -1.0
  outer loop
    vertex 17.36445995393045 3.8431727495425423 -2.00370669926137e-29
    vertex 16.163618985506123 12.964465474181615 2.255973186038318e-14
    vertex 16.920090705941238 13.167161460769188 2.255973186038318e-14
  endloop
endfacet
facet normal 0.0 0.0 -1.0
  outer loop
    vertex 17.36445995393045 3.8431727495425423 -2.00370669926137e-29
    vertex 16.920090705941238 13.167161460769188 2.255973186038318e-14
    vertex 17.59832469587213 13.558740037429342 2.255973186038318e-14
  endloop
endfacet
facet normal 0.0 0.0 -1.0
  outer loop
    vertex 17.36445995393045 3.8431727495425423 -2.00370669926137e-29
    vertex 17.59832469587213 13.558740037429342 2.255973186038318e-14
    vertex 20.44077828369992 4.667469761665291 -2.00370669926137e-29
  endloop
endfacet
facet normal 0.0 0.0 -1.0
  outer loop
    vertex 20.44077828369992 4.667469761665291 -2.00370669926137e-29
    vertex 17.59832469587213 13.558740037429342 2.255973186038318e-14
    vertex 18.152100429719674 14.112515771276886 2.255973186038318e-14
  endloop
endfacet
facet normal 0.0 0.0 -1.0
  outer loop
    vertex 20.44077828369992 4.667469761665291 -2.00370669926137e-29
    vertex 18.152100429719674 14.112515771276886 2.255973186038318e-14
    vertex 18.54367900637983 14.79074976120778 2.255973186038318e-14
  endloop
endfacet
facet normal 0.0 0.0 -1.0
  outer loop
    vertex 20.44077828369992 4.667469761665291 -2.00370669926137e-29
    vertex 18.54367900637983 14.79074976120778 2.255973186038318e-14
    vertex 18.746374992967397 15.547221481642893 2.255973186038318e-14
  endloop
endfacet
facet normal 0.707106781186544 -0.707106781186551 5.951144997537568e-17
  outer loop
    vertex 25.450951160399047 8.511910624396673 50.0
    vertex 23.198929842752246 6.259889306749892 -2.00370669926137e-29
    vertex 25.45095116039895 8.511910624396544 -2.00370669926137e-29
  endloop
endfacet
facet normal 0.707106781186544 -0.707106781186551 5.951144997537568e-17
  outer loop
    vertex 23.198929842752246 6.259889306749892 -2.00370669926137e-29
    vertex 25.450951160399047 8.511910624396673 50.0
    vertex 23.19892984275237 6.259889306749991 50.0
  endloop
endfacet
facet normal 0.8660254037844364 -0.5000000000000041 3.521476037464156e-17
  outer loop
    vertex 27.04337070548361 11.270062183448822 -2.00370669926137e-29
    vertex 25.450951160399047 8.511910624396673 50.0
    vertex 25.45095116039895 8.511910624396544 -2.00370669926137e-29
  endloop
endfacet
facet normal 0.8660254037844364 -0.5000000000000041 3.521476037464156e-17
  outer loop
    vertex 25.450951160399047 8.511910624396673 50.0
    vertex 27.04337070548361 11.270062183448822 -2.00370669926137e-29
    vertex 27.04337070548367 11.270062183448973 50.0
  endloop
endfacet
facet normal 0.9659258262890671 -0.2588190451025254 -1.825761544277925e-17
  outer loop
    vertex 27.86766771760643 14.346380513218278 -2.00370669926137e-29
    vertex 27.04337070548367 11.270062183448973 50.0
    vertex 27.04337070548361 11.270062183448822 -2.00370669926137e-29
  endloop
endfacet
facet normal 0.9659258262890671 -0.2588190451025254 -1.825761544277925e-17
  outer loop
    vertex 27.04337070548367 11.270062183448973 50.0
    vertex 27.86766771760643 14.346380513218278 -2.00370669926137e-29
    vertex 27.867667717606455 14.346380513218437 50.0
  endloop
endfacet
facet normal 1.0 -6.198041665202687e-15 5.639932965097753e-17
  outer loop
    vertex 27.867667717606476 17.531219603387537 -2.00370669926137e-29
    vertex 27.867667717606455 14.346380513218437 50.0
    vertex 27.86766771760643 14.346380513218278 -2.00370669926137e-29
  endloop
endfacet
facet normal 1.0 -6.198041665202687e-15 5.639932965097753e-17
  outer loop
    vertex 27.867667717606455 14.346380513218437 50.0
    vertex 27.867667717606476 17.531219603387537 -2.00370669926137e-29
    vertex 27.867667717606448 17.531219603387694 50.0
  endloop
endfacet
facet normal 0.9659258262890694 0.2588190451025165 1.3093406706933457e-16
  outer loop
    vertex 27.04337070548372 20.60753793315701 -2.00370669926137e-29
    vertex 27.867667717606448 17.531219603387694 50.0
    vertex 27.867667717606476 17.531219603387537 -2.00370669926137e-29
  endloop
endfacet
facet normal 0.9659258262890694 0.2588190451025165 1.3093406706933457e-16
  outer loop
    vertex 27.867667717606448 17.531219603387694 50.0
    vertex 27.04337070548372 20.60753793315701 -2.00370669926137e-29
    vertex 27.043370705483653 20.607537933157158 50.0
  endloop
endfacet
facet normal 0.8660254037844414 0.4999999999999953 9.740218987688416e-17
  outer loop
    vertex 25.450951160399125 23.365689492209327 -2.00370669926137e-29
    vertex 27.043370705483653 20.607537933157158 50.0
    vertex 27.04337070548372 20.60753793315701 -2.00370669926137e-29
  endloop
endfacet
facet normal 0.8660254037844414 0.4999999999999953 9.740218987688416e-17
  outer loop
    vertex 27.043370705483653 20.607537933157158 50.0
    vertex 25.450951160399125 23.365689492209327 -2.00370669926137e-29
    vertex 25.450951160399025 23.36568949220945 50.0
  endloop
endfacet
facet normal 0.707106781186551 0.707106781186544 7.850446592495869e-17
  outer loop
    vertex 23.198929842752474 25.61771080985603 -2.00370669926137e-29
    vertex 25.450951160399025 23.36568949220945 50.0
    vertex 25.450951160399125 23.365689492209327 -2.00370669926137e-29
  endloop
endfacet
facet normal 0.707106781186551 0.707106781186544 7.850446592495869e-17
  outer loop
    vertex 25.450951160399025 23.36568949220945 50.0
    vertex 23.198929842752474 25.61771080985603 -2.00370669926137e-29
    vertex 23.198929842752342 25.617710809856128 50.0
  endloop
endfacet
facet normal 0.5000000000000044 0.8660254037844362 4.3272814598523383e-17
  outer loop
    vertex 20.440778283700045 27.210130354940752 50.0
    vertex 23.198929842752474 25.61771080985603 -2.00370669926137e-29
    vertex 20.440778283700197 27.210130354940688 -2.00370669926137e-29
  endloop
endfacet
facet normal 0.5000000000000044 0.8660254037844362 4.3272814598523383e-17
  outer loop
    vertex 23.198929842752474 25.61771080985603 -2.00370669926137e-29
    vertex 20.440778283700045 27.210130354940752 50.0
    vertex 23.198929842752342 25.617710809856128 50.0
  endloop
endfacet
facet normal 0.2588190451025252 0.9659258262890671 -7.134533311531387e-18
  outer loop
    vertex 17.364459953930577 28.034427367063532 50.0
    vertex 20.440778283700197 27.210130354940688 -2.00370669926137e-29
    vertex 17.364459953930737 28.03442736706351 -2.00370669926137e-29
  endloop
endfacet
facet normal 0.2588190451025252 0.9659258262890671 -7.134533311531387e-18
  outer loop
    vertex 20.440778283700197 27.210130354940688 -2.00370669926137e-29
    vertex 17.364459953930577 28.034427367063532 50.0
    vertex 20.440778283700045 27.210130354940752 50.0
  endloop
endfacet
facet normal 5.312607141602303e-15 1.0 1.723786863732859e-29
  outer loop
    vertex 14.17962086376132 28.03442736706353 50.0
    vertex 17.364459953930737 28.03442736706351 -2.00370669926137e-29
    vertex 14.179620863761484 28.03442736706355 -2.00370669926137e-29
  endloop
endfacet
facet normal 5.312607141602303e-15 1.0 1.723786863732859e-29
  outer loop
    vertex 17.364459953930737 28.03442736706351 -2.00370669926137e-29
    vertex 14.17962086376132 28.03442736706353 50.0
    vertex 17.364459953930577 28.034427367063532 50.0
  endloop
endfacet
facet normal -0.25881904510251647 0.9659258262890694 3.4268392678112222e-18
  outer loop
    vertex 11.103302533991856 27.210130354940734 50.0
    vertex 14.179620863761484 28.03442736706355 -2.00370669926137e-29
    vertex 11.103302533992007 27.210130354940794 -2.00370669926137e-29
  endloop
endfacet
facet normal -0.25881904510251647 0.9659258262890694 3.4268392678112222e-18
  outer loop
    vertex 14.179620863761484 28.03442736706355 -2.00370669926137e-29
    vertex 11.103302533991856 27.210130354940734 50.0
    vertex 14.17962086376132 28.03442736706353 50.0
  endloop
endfacet
facet normal -0.49999999999999434 0.8660254037844418 3.422740250487249e-17
  outer loop
    vertex 8.345150974939564 25.617710809856103 50.0
    vertex 11.103302533992007 27.210130354940794 -2.00370669926137e-29
    vertex 8.345150974939688 25.617710809856206 -2.00370669926137e-29
  endloop
endfacet
facet normal -0.49999999999999434 0.8660254037844418 3.422740250487249e-17
  outer loop
    vertex 11.103302533992007 27.210130354940794 -2.00370669926137e-29
    vertex 8.345150974939564 25.617710809856103 50.0
    vertex 11.103302533991856 27.210130354940734 50.0
  endloop
endfacet
facet normal -0.7071067811865441 0.7071067811865509 9.243267762131992e-17
  outer loop
    vertex 6.093129657292882 23.365689492209412 50.0
    vertex 8.345150974939688 25.617710809856206 -2.00370669926137e-29
    vertex 6.0931296572929865 23.365689492209555 -2.00370669926137e-29
  endloop
endfacet
facet normal -0.7071067811865441 0.7071067811865509 9.243267762131992e-17
  outer loop
    vertex 8.345150974939688 25.617710809856206 -2.00370669926137e-29
    vertex 6.093129657292882 23.365689492209412 50.0
    vertex 8.345150974939564 25.617710809856103 50.0
  endloop
endfacet
facet normal -0.8660254037844364 0.5000000000000039 3.932760203421273e-17
  outer loop
    vertex 6.093129657292882 23.365689492209412 50.0
    vertex 4.500710112208325 20.607537933157275 -2.00370669926137e-29
    vertex 4.500710112208263 20.60753793315712 50.0
  endloop
endfacet
facet normal -0.8660254037844364 0.5000000000000039 3.932760203421273e-17
  outer loop
    vertex 4.500710112208325 20.607537933157275 -2.00370669926137e-29
    vertex 6.093129657292882 23.365689492209412 50.0
    vertex 6.0931296572929865 23.365689492209555 -2.00370669926137e-29
  endloop
endfacet
facet normal -0.9659258262890669 0.2588190451025259 4.2322774295887706e-17
  outer loop
    vertex 4.500710112208263 20.60753793315712 50.0
    vertex 3.676413100085499 17.53121960338782 -2.00370669926137e-29
    vertex 3.6764131000854796 17.531219603387655 50.0
  endloop
endfacet
facet normal -0.9659258262890669 0.2588190451025259 4.2322774295887706e-17
  outer loop
    vertex 3.676413100085499 17.53121960338782 -2.00370669926137e-29
    vertex 4.500710112208263 20.60753793315712 50.0
    vertex 4.500710112208325 20.607537933157275 -2.00370669926137e-29
  endloop
endfacet
facet normal -1.0 5.091248510702195e-15 4.229949723823569e-17
  outer loop
    vertex 3.6764131000854796 17.531219603387655 50.0
    vertex 3.6764131000854614 14.346380513218563 -2.00370669926137e-29
    vertex 3.6764131000854854 14.34638051321839 50.0
  endloop
endfacet
facet normal -1.0 5.091248510702195e-15 4.229949723823569e-17
  outer loop
    vertex 3.6764131000854614 14.346380513218563 -2.00370669926137e-29
    vertex 3.6764131000854796 17.531219603387655 50.0
    vertex 3.676413100085499 17.53121960338782 -2.00370669926137e-29
  endloop
endfacet
facet normal -0.9659258262890696 -0.25881904510251585 4.526465043381338e-17
  outer loop
    vertex 3.6764131000854854 14.34638051321839 50.0
    vertex 4.5007101122082105 11.27006218344909 -2.00370669926137e-29
    vertex 4.50071011220828 11.270062183448932 50.0
  endloop
endfacet
facet normal -0.9659258262890696 -0.25881904510251585 4.526465043381338e-17
  outer loop
    vertex 4.5007101122082105 11.27006218344909 -2.00370669926137e-29
    vertex 3.6764131000854854 14.34638051321839 50.0
    vertex 3.6764131000854614 14.346380513218563 -2.00370669926137e-29
  endloop
endfacet
facet normal -0.8660254037844412 -0.4999999999999955 6.056471124286353e-17
  outer loop
    vertex 4.50071011220828 11.270062183448932 50.0
    vertex 6.09312965729281 8.511910624396767 -2.00370669926137e-29
    vertex 6.093129657292912 8.511910624396641 50.0
  endloop
endfacet
facet normal -0.8660254037844412 -0.4999999999999955 6.056471124286353e-17
  outer loop
    vertex 6.09312965729281 8.511910624396767 -2.00370669926137e-29
    vertex 4.50071011220828 11.270062183448932 50.0
    vertex 4.5007101122082105 11.27006218344909 -2.00370669926137e-29
  endloop
endfacet
facet normal -0.7071067811865511 -0.707106781186544 1.0256228612776471e-16
  outer loop
    vertex 6.093129657292912 8.511910624396641 50.0
    vertex 8.345150974939457 6.259889306750066 -2.00370669926137e-29
    vertex 8.3451509749396 6.2598893067499635 50.0
  endloop
endfacet
facet normal -0.7071067811865511 -0.707106781186544 1.0256228612776471e-16
  outer loop
    vertex 8.345150974939457 6.259889306750066 -2.00370669926137e-29
    vertex 6.093129657292912 8.511910624396641 50.0
    vertex 6.09312965729281 8.511910624396767 -2.00370669926137e-29
  endloop
endfacet
facet normal -0.5000000000000041 -0.8660254037844364 6.900236580256276e-17
  outer loop
    vertex 11.103302533991894 4.667469761665342 50.0
    vertex 8.345150974939457 6.259889306750066 -2.00370669926137e-29
    vertex 11.10330253399173 4.667469761665407 -2.00370669926137e-29
  endloop
endfacet
facet normal -0.5000000000000041 -0.8660254037844364 6.900236580256276e-17
  outer loop
    vertex 8.345150974939457 6.259889306750066 -2.00370669926137e-29
    vertex 11.103302533991894 4.667469761665342 50.0
    vertex 8.3451509749396 6.2598893067499635 50.0
  endloop
endfacet
facet normal -0.2588190451025257 -0.9659258262890671 3.0008957239833676e-17
  outer loop
    vertex 14.179620863761361 3.843172749542559 50.0
    vertex 11.10330253399173 4.667469761665407 -2.00370669926137e-29
    vertex 14.179620863761192 3.8431727495425805 -2.00370669926137e-29
  endloop
endfacet
facet normal -0.2588190451025257 -0.9659258262890671 3.0008957239833676e-17
  outer loop
    vertex 11.10330253399173 4.667469761665407 -2.00370669926137e-29
    vertex 14.179620863761361 3.843172749542559 50.0
    vertex 11.103302533991894 4.667469761665342 50.0
  endloop
endfacet
facet normal -5.09124851070221e-15 -1.0 1.4099832412756717e-17
  outer loop
    vertex 17.364459953930616 3.843172749542565 50.0
    vertex 14.179620863761192 3.8431727495425805 -2.00370669926137e-29
    vertex 17.36445995393045 3.8431727495425423 -2.00370669926137e-29
  endloop
endfacet
facet normal -5.09124851070221e-15 -1.0 1.4099832412756717e-17
  outer loop
    vertex 14.179620863761192 3.8431727495425805 -2.00370669926137e-29
    vertex 17.364459953930616 3.843172749542565 50.0
    vertex 14.179620863761361 3.843172749542559 50.0
  endloop
endfacet
facet normal 0.2588190451025156 -0.9659258262890696 1.805350708889533e-17
  outer loop
    vertex 20.44077828370008 4.667469761665359 50.0
    vertex 17.36445995393045 3.8431727495425423 -2.00370669926137e-29
    vertex 20.44077828369992 4.667469761665291 -2.00370669926137e-29
  endloop
endfacet
facet normal 0.2588190451025156 -0.9659258262890696 1.805350708889533e-17
  outer loop
    vertex 17.36445995393045 3.8431727495425423 -2.00370669926137e-29
    vertex 20.44077828370008 4.667469761665359 50.0
    vertex 17.364459953930616 3.843172749542565 50.0
  endloop
endfacet
facet normal 0.49999999999999567 -0.8660254037844412 1.7078777532983636e-17
  outer loop
    vertex 23.19892984275237 6.259889306749991 50.0
    vertex 20.44077828369992 4.667469761665291 -2.00370669926137e-29
    vertex 23.198929842752246 6.259889306749892 -2.00370669926137e-29
  endloop
endfacet
facet normal 0.49999999999999567 -0.8660254037844412 1.7078777532983636e-17
  outer loop
    vertex 20.44077828369992 4.667469761665291 -2.00370669926137e-29
    vertex 23.19892984275237 6.259889306749991 50.0
    vertex 20.44077828370008 4.667469761665359 50.0
  endloop
endfacet
endsolid mount_adapter
