solid stand_bracket_post
facet normal 0.0 0.0 -1.0
  outer loop
    vertex 2.7871582409334574 24.134191848964978 -1.2523166870383562e-30
    vertex 2.430110774973786 15.341590770805784 -1.2523166870383562e-30
    vertex 2.029850561838979 19.761394405210797 -1.2523166870383562e-30
  endloop
endfacet
facet normal 0.0 0.0 -1.0
  outer loop
    vertex 2.430110774973786 15.341590770805784 -1.2523166870383562e-30
    vertex 2.7871582409334574 24.134191848964978 -1.2523166870383562e-30
    vertex 3.9606618082740193 11.17598325936377 -1.2523166870383562e-30
  endloop
endfacet
facet normal 0.0 0.0 -1.0
  outer loop
    vertex 3.9606618082740193 11.17598325936377 -1.2523166870383562e-30
    vertex 2.7871582409334574 24.134191848964978 -1.2523166870383562e-30
    vertex 4.65042454543705 28.16198418266592 -1.2523166870383562e-30
  endloop
endfacet
facet normal 0.0 0.0 -1.0
  outer loop
    vertex 3.9606618082740193 11.17598325936377 -1.2523166870383562e-30
    vertex 4.65042454543705 28.16198418266592 -1.2523166870383562e-30
    vertex 6.517199138175445 7.548451138797643 -1.2523166870383562e-30
  endloop
endfacet
facet normal 0.0 0.0 -1.0
  outer loop
    vertex 6.517199138175445 7.548451138797643 -1.2523166870383562e-30
    vertex 4.65042454543705 28.16198418266592 -1.2523166870383562e-30
    vertex 7.49267095589099 31.570284015013446 -1.2523166870383562e-30
  endloop
endfacet
facet normal 0.0 0.0 -1.0
  outer loop
    vertex 6.517199138175445 7.548451138797643 -1.2523166870383562e-30
    vertex 7.49267095589099 31.570284015013446 -1.2523166870383562e-30
    vertex 7.0257331863396075 19.558523011927537 -1.2523166870383562e-30
  endloop
endfacet
facet normal 0.0 0.0 -1.0
  outer loop
    vertex 7.0257331863396075 19.558523011927537 -1.2523166870383562e-30
    vertex 7.49267095589099 31.570284015013446 -1.2523166870383562e-30
    vertex 7.560303312759237 22.645203560459898 -1.2523166870383562e-30
  endloop
endfacet
facet normal 0.0 0.0 -1.0
  outer loop
    vertex 7.560303312759237 22.645203560459898 -1.2523166870383562e-30
    vertex 7.49267095589099 31.570284015013446 -1.2523166870383562e-30
    vertex 11.120203076457125 34.12682134491487 -1.2523166870383562e-30
  endloop
endfacet
facet normal 0.0 0.0 -1.0
  outer loop
    vertex 7.560303312759237 22.645203560459898 -1.2523166870383562e-30
    vertex 11.120203076457125 34.12682134491487 -1.2523166870383562e-30
    vertex 8.87555011593824 25.488351090131154 -1.2523166870383562e-30
  endloop
endfacet
facet normal 0.0 0.0 -1.0
  outer loop
    vertex 8.87555011593824 25.488351090131154 -1.2523166870383562e-30
    vertex 11.120203076457125 34.12682134491487 -1.2523166870383562e-30
    vertex 10.88184169978808 27.894209795317646 -1.2523166870383562e-30
  endloop
endfacet
facet normal 0.0 0.0 -1.0
  outer loop
    vertex 10.88184169978808 27.894209795317646 -1.2523166870383562e-30
    vertex 11.120203076457125 34.12682134491487 -1.2523166870383562e-30
    vertex 13.442452608422995 29.698824381130418 -1.2523166870383562e-30
  endloop
endfacet
facet normal 0.0 0.0 -1.0
  outer loop
    vertex 13.442452608422995 29.698824381130418 -1.2523166870383562e-30
    vertex 11.120203076457125 34.12682134491487 -1.2523166870383562e-30
    vertex 15.285810587899135 35.65737237821511 -1.2523166870383562e-30
  endloop
endfacet
facet normal 0.0 0.0 -1.0
  outer loop
    vertex 13.442452608422995 29.698824381130418 -1.2523166870383562e-30
    vertex 15.285810587899135 35.65737237821511 -1.2523166870383562e-30
    vertex 16.38288144002912 30.77921334581294 -1.2523166870383562e-30
  endloop
endfacet
facet normal 0.0 0.0 -1.0
  outer loop
    vertex 16.38288144002912 30.77921334581294 -1.2523166870383562e-30
    vertex 15.285810587899135 35.65737237821511 -1.2523166870383562e-30
    vertex 19.70561422230415 36.057632591349915 -1.2523166870383562e-30
  endloop
endfacet
facet normal 0.0 0.0 -1.0
  outer loop
    vertex 16.38288144002912 30.77921334581294 -1.2523166870383562e-30
    vertex 19.70561422230415 36.057632591349915 -1.2523166870383562e-30
    vertex 19.502742829020896 31.06174996684928 -1.2523166870383562e-30
  endloop
endfacet
facet normal 0.0 0.0 -1.0
  outer loop
    vertex 19.502742829020896 31.06174996684928 -1.2523166870383562e-30
    vertex 19.70561422230415 36.057632591349915 -1.2523166870383562e-30
    vertex 22.589423377553256 30.527179840429646 -1.2523166870383562e-30
  endloop
endfacet
facet normal 0.0 0.0 -1.0
  outer loop
    vertex 22.589423377553256 30.527179840429646 -1.2523166870383562e-30
    vertex 19.70561422230415 36.057632591349915 -1.2523166870383562e-30
    vertex 24.07841166605833 35.30032491225544 -1.2523166870383562e-30
  endloop
endfacet
facet normal 0.0 0.0 -1.0
  outer loop
    vertex 22.589423377553256 30.527179840429646 -1.2523166870383562e-30
    vertex 24.07841166605833 35.30032491225544 -1.2523166870383562e-30
    vertex 25.432570907224505 29.211933037250645 -1.2523166870383562e-30
  endloop
endfacet
facet normal 0.0 0.0 -1.0
  outer loop
    vertex 25.432570907224505 29.211933037250645 -1.2523166870383562e-30
    vertex 24.07841166605833 35.30032491225544 -1.2523166870383562e-30
    vertex 28.106203999759266 33.43705860775185 -1.2523166870383562e-30
  endloop
endfacet
facet normal 0.0 0.0 -1.0
  outer loop
    vertex 25.432570907224505 29.211933037250645 -1.2523166870383562e-30
    vertex 28.106203999759266 33.43705860775185 -1.2523166870383562e-30
    vertex 27.838429612411 27.20564145340081 -1.2523166870383562e-30
  endloop
endfacet
facet normal 0.0 0.0 -1.0
  outer loop
    vertex 27.838429612411 27.20564145340081 -1.2523166870383562e-30
    vertex 28.106203999759266 33.43705860775185 -1.2523166870383562e-30
    vertex 29.64304419822378 24.64503054476589 -1.2523166870383562e-30
  endloop
endfacet
facet normal 0.0 0.0 -1.0
  outer loop
    vertex 29.64304419822378 24.64503054476589 -1.2523166870383562e-30
    vertex 28.106203999759266 33.43705860775185 -1.2523166870383562e-30
    vertex 31.514503832106797 30.594812197297905 -1.2523166870383562e-30
  endloop
endfacet
facet normal 0.0 0.0 -1.0
  outer loop
    vertex 29.64304419822378 24.64503054476589 -1.2523166870383562e-30
    vertex 31.514503832106797 30.594812197297905 -1.2523166870383562e-30
    vertex 30.7234331629063 21.704601713159768 -1.2523166870383562e-30
  endloop
endfacet
facet normal 0.0 0.0 -1.0
  outer loop
    vertex 30.7234331629063 21.704601713159768 -1.2523166870383562e-30
    vertex 31.514503832106797 30.594812197297905 -1.2523166870383562e-30
    vertex 31.00596978394264 18.58474032416799 -1.2523166870383562e-30
  endloop
endfacet
facet normal 0.0 0.0 -1.0
  outer loop
    vertex 6.517199138175445 7.548451138797643 -1.2523166870383562e-30
    vertex 7.308269807375945 16.43866162293576 -1.2523166870383562e-30
    vertex 9.925498970522977 4.706204728343699 -1.2523166870383562e-30
  endloop
endfacet
facet normal 0.0 0.0 -1.0
  outer loop
    vertex 7.308269807375945 16.43866162293576 -1.2523166870383562e-30
    vertex 6.517199138175445 7.548451138797643 -1.2523166870383562e-30
    vertex 7.0257331863396075 19.558523011927537 -1.2523166870383562e-30
  endloop
endfacet
facet normal 0.0 0.0 -1.0
  outer loop
    vertex 9.925498970522977 4.706204728343699 -1.2523166870383562e-30
    vertex 7.308269807375945 16.43866162293576 -1.2523166870383562e-30
    vertex 8.388658772058466 13.498232791329636 -1.2523166870383562e-30
  endloop
endfacet
facet normal 0.0 0.0 -1.0
  outer loop
    vertex 9.925498970522977 4.706204728343699 -1.2523166870383562e-30
    vertex 8.388658772058466 13.498232791329636 -1.2523166870383562e-30
    vertex 10.193273357871238 10.937621882694721 -1.2523166870383562e-30
  endloop
endfacet
facet normal 0.0 0.0 -1.0
  outer loop
    vertex 9.925498970522977 4.706204728343699 -1.2523166870383562e-30
    vertex 10.193273357871238 10.937621882694721 -1.2523166870383562e-30
    vertex 13.95329130422391 2.8429384238401085 -1.2523166870383562e-30
  endloop
endfacet
facet normal 0.0 0.0 -1.0
  outer loop
    vertex 13.95329130422391 2.8429384238401085 -1.2523166870383562e-30
    vertex 10.193273357871238 10.937621882694721 -1.2523166870383562e-30
    vertex 12.599132063057732 8.93133029884488 -1.2523166870383562e-30
  endloop
endfacet
facet normal 0.0 0.0 -1.0
  outer loop
    vertex 13.95329130422391 2.8429384238401085 -1.2523166870383562e-30
    vertex 12.599132063057732 8.93133029884488 -1.2523166870383562e-30
    vertex 15.44227959272898 7.616083495665878 -1.2523166870383562e-30
  endloop
endfacet
facet normal 0.0 0.0 -1.0
  outer loop
    vertex 13.95329130422391 2.8429384238401085 -1.2523166870383562e-30
    vertex 15.44227959272898 7.616083495665878 -1.2523166870383562e-30
    vertex 18.326088747978098 2.085630744745625 -1.2523166870383562e-30
  endloop
endfacet
facet normal 0.0 0.0 -1.0
  outer loop
    vertex 18.326088747978098 2.085630744745625 -1.2523166870383562e-30
    vertex 15.44227959272898 7.616083495665878 -1.2523166870383562e-30
    vertex 18.528960141261347 7.081513369246244 -1.2523166870383562e-30
  endloop
endfacet
facet normal 0.0 0.0 -1.0
  outer loop
    vertex 18.326088747978098 2.085630744745625 -1.2523166870383562e-30
    vertex 18.528960141261347 7.081513369246244 -1.2523166870383562e-30
    vertex 22.745892382383108 2.4858909578804314 -1.2523166870383562e-30
  endloop
endfacet
facet normal 0.0 0.0 -1.0
  outer loop
    vertex 22.745892382383108 2.4858909578804314 -1.2523166870383562e-30
    vertex 18.528960141261347 7.081513369246244 -1.2523166870383562e-30
    vertex 21.648821530253123 7.364049990282584 -1.2523166870383562e-30
  endloop
endfacet
facet normal 0.0 0.0 -1.0
  outer loop
    vertex 22.745892382383108 2.4858909578804314 -1.2523166870383562e-30
    vertex 21.648821530253123 7.364049990282584 -1.2523166870383562e-30
    vertex 24.589250361859243 8.444438954965102 -1.2523166870383562e-30
  endloop
endfacet
facet normal 0.0 0.0 -1.0
  outer loop
    vertex 22.745892382383108 2.4858909578804314 -1.2523166870383562e-30
    vertex 24.589250361859243 8.444438954965102 -1.2523166870383562e-30
    vertex 26.911499893825116 4.016441991180662 -1.2523166870383562e-30
  endloop
endfacet
facet normal 0.0 0.0 -1.0
  outer loop
    vertex 26.911499893825116 4.016441991180662 -1.2523166870383562e-30
    vertex 24.589250361859243 8.444438954965102 -1.2523166870383562e-30
    vertex 27.149861270494164 10.249053540777876 -1.2523166870383562e-30
  endloop
endfacet
facet normal 0.0 0.0 -1.0
  outer loop
    vertex 26.911499893825116 4.016441991180662 -1.2523166870383562e-30
    vertex 27.149861270494164 10.249053540777876 -1.2523166870383562e-30
    vertex 30.539032014391257 6.5729793210820935 -1.2523166870383562e-30
  endloop
endfacet
facet normal 0.0 0.0 -1.0
  outer loop
    vertex 30.539032014391257 6.5729793210820935 -1.2523166870383562e-30
    vertex 27.149861270494164 10.249053540777876 -1.2523166870383562e-30
    vertex 29.156152854344004 12.65491224596437 -1.2523166870383562e-30
  endloop
endfacet
facet normal 0.0 0.0 -1.0
  outer loop
    vertex 30.539032014391257 6.5729793210820935 -1.2523166870383562e-30
    vertex 29.156152854344004 12.65491224596437 -1.2523166870383562e-30
    vertex 30.471399657523005 15.498059775635621 -1.2523166870383562e-30
  endloop
endfacet
facet normal 0.0 0.0 -1.0
  outer loop
    vertex 30.539032014391257 6.5729793210820935 -1.2523166870383562e-30
    vertex 30.471399657523005 15.498059775635621 -1.2523166870383562e-30
    vertex 31.00596978394264 18.58474032416799 -1.2523166870383562e-30
  endloop
endfacet
facet normal 0.0 0.0 -1.0
  outer loop
    vertex 30.539032014391257 6.5729793210820935 -1.2523166870383562e-30
    vertex 31.00596978394264 18.58474032416799 -1.2523166870383562e-30
    vertex 33.38127842484519 9.981279153429623 -1.2523166870383562e-30
  endloop
endfacet
facet normal 0.0 0.0 -1.0
  outer loop
    vertex 33.38127842484519 9.981279153429623 -1.2523166870383562e-30
    vertex 31.00596978394264 18.58474032416799 -1.2523166870383562e-30
    vertex 31.514503832106797 30.594812197297905 -1.2523166870383562e-30
  endloop
endfacet
facet normal 0.0 0.0 -1.0
  outer loop
    vertex 33.38127842484519 9.981279153429623 -1.2523166870383562e-30
    vertex 31.514503832106797 30.594812197297905 -1.2523166870383562e-30
    vertex 34.07104116200823 26.96728007673177 -1.2523166870383562e-30
  endloop
endfacet
facet normal 0.0 0.0 -1.0
  outer loop
    vertex 33.38127842484519 9.981279153429623 -1.2523166870383562e-30
    vertex 34.07104116200823 26.96728007673177 -1.2523166870383562e-30
    vertex 35.24454472934878 14.009071487130555 -1.2523166870383562e-30
  endloop
endfacet
facet normal 0.0 0.0 -1.0
  outer loop
    vertex 35.24454472934878 14.009071487130555 -1.2523166870383562e-30
    vertex 34.07104116200823 26.96728007673177 -1.2523166870383562e-30
    vertex 35.60159219530846 22.801672565289763 -1.2523166870383562e-30
  endloop
endfacet
facet normal 0.0 0.0 -1.0
  outer loop
    vertex 35.24454472934878 14.009071487130555 -1.2523166870383562e-30
    vertex 35.60159219530846 22.801672565289763 -1.2523166870383562e-30
    vertex 36.00185240844327 18.381868930884746 -1.2523166870383562e-30
  endloop
endfacet
facet normal -0.0 -0.0 1.0
  outer loop
    vertex 9.925498970522977 4.706204728343699 40.0
    vertex 7.064758237388732 17.98933310317424 40.0
    vertex 6.517199138175445 7.548451138797643 40.0
  endloop
endfacet
facet normal -0.0 -0.0 1.0
  outer loop
    vertex 7.064758237388732 17.98933310317424 40.0
    vertex 9.925498970522977 4.706204728343699 40.0
    vertex 7.7521013458245855 14.933040990166381 40.0
  endloop
endfacet
facet normal -0.0 -0.0 1.0
  outer loop
    vertex 7.7521013458245855 14.933040990166381 40.0
    vertex 9.925498970522977 4.706204728343699 40.0
    vertex 9.207050412027646 12.15878699251166 40.0
  endloop
endfacet
facet normal -0.0 -0.0 1.0
  outer loop
    vertex 9.207050412027646 12.15878699251166 40.0
    vertex 9.925498970522977 4.706204728343699 40.0
    vertex 11.330453061553188 9.855631935478758 40.0
  endloop
endfacet
facet normal -0.0 -0.0 1.0
  outer loop
    vertex 11.330453061553188 9.855631935478758 40.0
    vertex 9.925498970522977 4.706204728343699 40.0
    vertex 13.95329130422391 2.8429384238401085 40.0
  endloop
endfacet
facet normal -0.0 -0.0 1.0
  outer loop
    vertex 11.330453061553188 9.855631935478758 40.0
    vertex 13.95329130422391 2.8429384238401085 40.0
    vertex 13.977602912924844 8.180532030060766 40.0
  endloop
endfacet
facet normal -0.0 -0.0 1.0
  outer loop
    vertex 13.977602912924844 8.180532030060766 40.0
    vertex 13.95329130422391 2.8429384238401085 40.0
    vertex 18.326088747978098 2.085630744745625 40.0
  endloop
endfacet
facet normal -0.0 -0.0 1.0
  outer loop
    vertex 13.977602912924844 8.180532030060766 40.0
    vertex 18.326088747978098 2.085630744745625 40.0
    vertex 16.968101078393598 7.247642566578445 40.0
  endloop
endfacet
facet normal -0.0 -0.0 1.0
  outer loop
    vertex 16.968101078393598 7.247642566578445 40.0
    vertex 18.326088747978098 2.085630744745625 40.0
    vertex 20.098150050014652 7.1205384202953805 40.0
  endloop
endfacet
facet normal -0.0 -0.0 1.0
  outer loop
    vertex 20.098150050014652 7.1205384202953805 40.0
    vertex 18.326088747978098 2.085630744745625 40.0
    vertex 22.745892382383108 2.4858909578804314 40.0
  endloop
endfacet
facet normal -0.0 -0.0 1.0
  outer loop
    vertex 20.098150050014652 7.1205384202953805 40.0
    vertex 22.745892382383108 2.4858909578804314 40.0
    vertex 23.15444216302252 7.807881528731233 40.0
  endloop
endfacet
facet normal -0.0 -0.0 1.0
  outer loop
    vertex 23.15444216302252 7.807881528731233 40.0
    vertex 22.745892382383108 2.4858909578804314 40.0
    vertex 26.911499893825116 4.016441991180662 40.0
  endloop
endfacet
facet normal -0.0 -0.0 1.0
  outer loop
    vertex 23.15444216302252 7.807881528731233 40.0
    vertex 26.911499893825116 4.016441991180662 40.0
    vertex 25.928696160677234 9.262830594934291 40.0
  endloop
endfacet
facet normal -0.0 -0.0 1.0
  outer loop
    vertex 25.928696160677234 9.262830594934291 40.0
    vertex 26.911499893825116 4.016441991180662 40.0
    vertex 28.23185121771014 11.386233244459834 40.0
  endloop
endfacet
facet normal -0.0 -0.0 1.0
  outer loop
    vertex 28.23185121771014 11.386233244459834 40.0
    vertex 26.911499893825116 4.016441991180662 40.0
    vertex 30.539032014391257 6.5729793210820935 40.0
  endloop
endfacet
facet normal -0.0 -0.0 1.0
  outer loop
    vertex 28.23185121771014 11.386233244459834 40.0
    vertex 30.539032014391257 6.5729793210820935 40.0
    vertex 29.90695112312813 14.033383095831486 40.0
  endloop
endfacet
facet normal -0.0 -0.0 1.0
  outer loop
    vertex 29.90695112312813 14.033383095831486 40.0
    vertex 30.539032014391257 6.5729793210820935 40.0
    vertex 30.839840586610457 17.023881261300243 40.0
  endloop
endfacet
facet normal -0.0 -0.0 1.0
  outer loop
    vertex 30.839840586610457 17.023881261300243 40.0
    vertex 30.539032014391257 6.5729793210820935 40.0
    vertex 33.38127842484519 9.981279153429623 40.0
  endloop
endfacet
facet normal -0.0 -0.0 1.0
  outer loop
    vertex 30.839840586610457 17.023881261300243 40.0
    vertex 33.38127842484519 9.981279153429623 40.0
    vertex 30.966944732893516 20.153930232921294 40.0
  endloop
endfacet
facet normal -0.0 -0.0 1.0
  outer loop
    vertex 30.966944732893516 20.153930232921294 40.0
    vertex 33.38127842484519 9.981279153429623 40.0
    vertex 31.514503832106797 30.594812197297905 40.0
  endloop
endfacet
facet normal -0.0 -0.0 1.0
  outer loop
    vertex 31.514503832106797 30.594812197297905 40.0
    vertex 33.38127842484519 9.981279153429623 40.0
    vertex 34.07104116200823 26.96728007673177 40.0
  endloop
endfacet
facet normal -0.0 -0.0 1.0
  outer loop
    vertex 34.07104116200823 26.96728007673177 40.0
    vertex 33.38127842484519 9.981279153429623 40.0
    vertex 35.24454472934878 14.009071487130555 40.0
  endloop
endfacet
facet normal -0.0 -0.0 1.0
  outer loop
    vertex 34.07104116200823 26.96728007673177 40.0
    vertex 35.24454472934878 14.009071487130555 40.0
    vertex 35.60159219530846 22.801672565289763 40.0
  endloop
endfacet
facet normal -0.0 -0.0 1.0
  outer loop
    vertex 35.60159219530846 22.801672565289763 40.0
    vertex 35.24454472934878 14.009071487130555 40.0
    vertex 36.00185240844327 18.381868930884746 40.0
  endloop
endfacet
facet normal -0.0 -0.0 1.0
  outer loop
    vertex 2.430110774973786 15.341590770805784 40.0
    vertex 2.7871582409334574 24.134191848964978 40.0
    vertex 2.029850561838979 19.761394405210797 40.0
  endloop
endfacet
facet normal -0.0 -0.0 1.0
  outer loop
    vertex 2.7871582409334574 24.134191848964978 40.0
    vertex 2.430110774973786 15.341590770805784 40.0
    vertex 3.9606618082740193 11.17598325936377 40.0
  endloop
endfacet
facet normal -0.0 -0.0 1.0
  outer loop
    vertex 2.7871582409334574 24.134191848964978 40.0
    vertex 3.9606618082740193 11.17598325936377 40.0
    vertex 4.65042454543705 28.16198418266592 40.0
  endloop
endfacet
facet normal -0.0 -0.0 1.0
  outer loop
    vertex 4.65042454543705 28.16198418266592 40.0
    vertex 3.9606618082740193 11.17598325936377 40.0
    vertex 6.517199138175445 7.548451138797643 40.0
  endloop
endfacet
facet normal -0.0 -0.0 1.0
  outer loop
    vertex 4.65042454543705 28.16198418266592 40.0
    vertex 6.517199138175445 7.548451138797643 40.0
    vertex 7.49267095589099 31.570284015013446 40.0
  endloop
endfacet
facet normal -0.0 -0.0 1.0
  outer loop
    vertex 7.49267095589099 31.570284015013446 40.0
    vertex 6.517199138175445 7.548451138797643 40.0
    vertex 7.064758237388732 17.98933310317424 40.0
  endloop
endfacet
facet normal -0.0 -0.0 1.0
  outer loop
    vertex 7.49267095589099 31.570284015013446 40.0
    vertex 7.064758237388732 17.98933310317424 40.0
    vertex 7.191862383671797 21.119382074795297 40.0
  endloop
endfacet
facet normal -0.0 -0.0 1.0
  outer loop
    vertex 7.49267095589099 31.570284015013446 40.0
    vertex 7.191862383671797 21.119382074795297 40.0
    vertex 8.124751847154117 24.10988024026405 40.0
  endloop
endfacet
facet normal -0.0 -0.0 1.0
  outer loop
    vertex 7.49267095589099 31.570284015013446 40.0
    vertex 8.124751847154117 24.10988024026405 40.0
    vertex 11.120203076457125 34.12682134491487 40.0
  endloop
endfacet
facet normal -0.0 -0.0 1.0
  outer loop
    vertex 11.120203076457125 34.12682134491487 40.0
    vertex 8.124751847154117 24.10988024026405 40.0
    vertex 9.799851752572105 26.75703009163571 40.0
  endloop
endfacet
facet normal -0.0 -0.0 1.0
  outer loop
    vertex 11.120203076457125 34.12682134491487 40.0
    vertex 9.799851752572105 26.75703009163571 40.0
    vertex 12.103006809605015 28.88043274116125 40.0
  endloop
endfacet
facet normal -0.0 -0.0 1.0
  outer loop
    vertex 11.120203076457125 34.12682134491487 40.0
    vertex 12.103006809605015 28.88043274116125 40.0
    vertex 15.285810587899135 35.65737237821511 40.0
  endloop
endfacet
facet normal -0.0 -0.0 1.0
  outer loop
    vertex 15.285810587899135 35.65737237821511 40.0
    vertex 12.103006809605015 28.88043274116125 40.0
    vertex 14.877260807259733 30.335381807364307 40.0
  endloop
endfacet
facet normal -0.0 -0.0 1.0
  outer loop
    vertex 15.285810587899135 35.65737237821511 40.0
    vertex 14.877260807259733 30.335381807364307 40.0
    vertex 17.933552920267594 31.02272491580016 40.0
  endloop
endfacet
facet normal -0.0 -0.0 1.0
  outer loop
    vertex 15.285810587899135 35.65737237821511 40.0
    vertex 17.933552920267594 31.02272491580016 40.0
    vertex 19.70561422230415 36.057632591349915 40.0
  endloop
endfacet
facet normal -0.0 -0.0 1.0
  outer loop
    vertex 19.70561422230415 36.057632591349915 40.0
    vertex 17.933552920267594 31.02272491580016 40.0
    vertex 21.063601891888652 30.895620769517098 40.0
  endloop
endfacet
facet normal -0.0 -0.0 1.0
  outer loop
    vertex 19.70561422230415 36.057632591349915 40.0
    vertex 21.063601891888652 30.895620769517098 40.0
    vertex 24.07841166605833 35.30032491225544 40.0
  endloop
endfacet
facet normal -0.0 -0.0 1.0
  outer loop
    vertex 24.07841166605833 35.30032491225544 40.0
    vertex 21.063601891888652 30.895620769517098 40.0
    vertex 24.05410005735741 29.962731306034776 40.0
  endloop
endfacet
facet normal -0.0 -0.0 1.0
  outer loop
    vertex 24.07841166605833 35.30032491225544 40.0
    vertex 24.05410005735741 29.962731306034776 40.0
    vertex 26.701249908729064 28.28763140061678 40.0
  endloop
endfacet
facet normal -0.0 -0.0 1.0
  outer loop
    vertex 24.07841166605833 35.30032491225544 40.0
    vertex 26.701249908729064 28.28763140061678 40.0
    vertex 28.106203999759266 33.43705860775185 40.0
  endloop
endfacet
facet normal -0.0 -0.0 1.0
  outer loop
    vertex 28.106203999759266 33.43705860775185 40.0
    vertex 26.701249908729064 28.28763140061678 40.0
    vertex 28.82465255825461 25.984476343583875 40.0
  endloop
endfacet
facet normal -0.0 -0.0 1.0
  outer loop
    vertex 28.106203999759266 33.43705860775185 40.0
    vertex 28.82465255825461 25.984476343583875 40.0
    vertex 31.514503832106797 30.594812197297905 40.0
  endloop
endfacet
facet normal -0.0 -0.0 1.0
  outer loop
    vertex 31.514503832106797 30.594812197297905 40.0
    vertex 28.82465255825461 25.984476343583875 40.0
    vertex 30.279601624457666 23.210222345929157 40.0
  endloop
endfacet
facet normal -0.0 -0.0 1.0
  outer loop
    vertex 31.514503832106797 30.594812197297905 40.0
    vertex 30.279601624457666 23.210222345929157 40.0
    vertex 30.966944732893516 20.153930232921294 40.0
  endloop
endfacet
facet normal 0.4198540476846903 0.9075916364989168 0.0
  outer loop
    vertex 24.07841166605833 35.30032491225544 40.0
    vertex 28.106203999759266 33.43705860775185 -1.2523166870383562e-30
    vertex 24.07841166605833 35.30032491225544 -1.2523166870383562e-30
  endloop
endfacet
facet normal 0.4198540476846903 0.9075916364989168 0.0
  outer loop
    vertex 28.106203999759266 33.43705860775185 -1.2523166870383562e-30
    vertex 24.07841166605833 35.30032491225544 40.0
    vertex 28.106203999759266 33.43705860775185 40.0
  endloop
endfacet
facet normal 0.640449868632328 0.7679999777140841 0.0
  outer loop
    vertex 28.106203999759266 33.43705860775185 40.0
    vertex 31.514503832106797 30.594812197297905 -1.2523166870383562e-30
    vertex 28.106203999759266 33.43705860775185 -1.2523166870383562e-30
  endloop
endfacet
facet normal 0.640449868632328 0.7679999777140841 0.0
  outer loop
    vertex 31.514503832106797 30.594812197297905 -1.2523166870383562e-30
    vertex 28.106203999759266 33.43705860775185 40.0
    vertex 31.514503832106797 30.594812197297905 40.0
  endloop
endfacet
facet normal 0.8174000894261227 0.5760703896280094 0.0
  outer loop
    vertex 31.514503832106797 30.594812197297905 -1.2523166870383562e-30
    vertex 34.07104116200823 26.96728007673177 40.0
    vertex 34.07104116200823 26.96728007673177 -1.2523166870383562e-30
  endloop
endfacet
facet normal 0.8174000894261227 0.5760703896280094 0.0
  outer loop
    vertex 34.07104116200823 26.96728007673177 40.0
    vertex 31.514503832106797 30.594812197297905 -1.2523166870383562e-30
    vertex 31.514503832106797 30.594812197297905 40.0
  endloop
endfacet
facet normal 0.9386458449430448 0.3448825564901155 0.0
  outer loop
    vertex 34.07104116200823 26.96728007673177 -1.2523166870383562e-30
    vertex 35.60159219530846 22.801672565289763 40.0
    vertex 35.60159219530846 22.801672565289763 -1.2523166870383562e-30
  endloop
endfacet
facet normal 0.9386458449430448 0.3448825564901155 0.0
  outer loop
    vertex 35.60159219530846 22.801672565289763 40.0
    vertex 34.07104116200823 26.96728007673177 -1.2523166870383562e-30
    vertex 34.07104116200823 26.96728007673177 40.0
  endloop
endfacet
facet normal 0.9959244373126991 0.09019154707279337 0.0
  outer loop
    vertex 35.60159219530846 22.801672565289763 -1.2523166870383562e-30
    vertex 36.00185240844327 18.381868930884746 40.0
    vertex 36.00185240844327 18.381868930884746 -1.2523166870383562e-30
  endloop
endfacet
facet normal 0.9959244373126991 0.09019154707279337 0.0
  outer loop
    vertex 36.00185240844327 18.381868930884746 40.0
    vertex 35.60159219530846 22.801672565289763 -1.2523166870383562e-30
    vertex 35.60159219530846 22.801672565289763 40.0
  endloop
endfacet
facet normal 0.9853324251224436 -0.1706458672289615 0.0
  outer loop
    vertex 36.00185240844327 18.381868930884746 -1.2523166870383562e-30
    vertex 35.24454472934878 14.009071487130555 40.0
    vertex 35.24454472934878 14.009071487130555 -1.2523166870383562e-30
  endloop
endfacet
facet normal 0.9853324251224436 -0.1706458672289615 0.0
  outer loop
    vertex 35.24454472934878 14.009071487130555 40.0
    vertex 36.00185240844327 18.381868930884746 -1.2523166870383562e-30
    vertex 36.00185240844327 18.381868930884746 40.0
  endloop
endfacet
facet normal 0.9075916364989167 -0.41985404768469053 0.0
  outer loop
    vertex 35.24454472934878 14.009071487130555 -1.2523166870383562e-30
    vertex 33.38127842484519 9.981279153429623 40.0
    vertex 33.38127842484519 9.981279153429623 -1.2523166870383562e-30
  endloop
endfacet
facet normal 0.9075916364989167 -0.41985404768469053 0.0
  outer loop
    vertex 33.38127842484519 9.981279153429623 40.0
    vertex 35.24454472934878 14.009071487130555 -1.2523166870383562e-30
    vertex 35.24454472934878 14.009071487130555 40.0
  endloop
endfacet
facet normal 0.7679999777140843 -0.6404498686323278 0.0
  outer loop
    vertex 33.38127842484519 9.981279153429623 -1.2523166870383562e-30
    vertex 30.539032014391257 6.5729793210820935 40.0
    vertex 30.539032014391257 6.5729793210820935 -1.2523166870383562e-30
  endloop
endfacet
facet normal 0.7679999777140843 -0.6404498686323278 0.0
  outer loop
    vertex 30.539032014391257 6.5729793210820935 40.0
    vertex 33.38127842484519 9.981279153429623 -1.2523166870383562e-30
    vertex 33.38127842484519 9.981279153429623 40.0
  endloop
endfacet
facet normal 0.5760703896280086 -0.8174000894261234 0.0
  outer loop
    vertex 30.539032014391257 6.5729793210820935 40.0
    vertex 26.911499893825116 4.016441991180662 -1.2523166870383562e-30
    vertex 30.539032014391257 6.5729793210820935 -1.2523166870383562e-30
  endloop
endfacet
facet normal 0.5760703896280086 -0.8174000894261234 0.0
  outer loop
    vertex 26.911499893825116 4.016441991180662 -1.2523166870383562e-30
    vertex 30.539032014391257 6.5729793210820935 40.0
    vertex 26.911499893825116 4.016441991180662 40.0
  endloop
endfacet
facet normal 0.34488255649011496 -0.938645844943045 0.0
  outer loop
    vertex 26.911499893825116 4.016441991180662 40.0
    vertex 22.745892382383108 2.4858909578804314 -1.2523166870383562e-30
    vertex 26.911499893825116 4.016441991180662 -1.2523166870383562e-30
  endloop
endfacet
facet normal 0.34488255649011496 -0.938645844943045 0.0
  outer loop
    vertex 22.745892382383108 2.4858909578804314 -1.2523166870383562e-30
    vertex 26.911499893825116 4.016441991180662 40.0
    vertex 22.745892382383108 2.4858909578804314 40.0
  endloop
endfacet
facet normal 0.09019154707279348 -0.9959244373126991 0.0
  outer loop
    vertex 22.745892382383108 2.4858909578804314 40.0
    vertex 18.326088747978098 2.085630744745625 -1.2523166870383562e-30
    vertex 22.745892382383108 2.4858909578804314 -1.2523166870383562e-30
  endloop
endfacet
facet normal 0.09019154707279348 -0.9959244373126991 0.0
  outer loop
    vertex 18.326088747978098 2.085630744745625 -1.2523166870383562e-30
    vertex 22.745892382383108 2.4858909578804314 40.0
    vertex 18.326088747978098 2.085630744745625 40.0
  endloop
endfacet
facet normal -0.170645867228961 -0.9853324251224437 -0.0
  outer loop
    vertex 18.326088747978098 2.085630744745625 40.0
    vertex 13.95329130422391 2.8429384238401085 -1.2523166870383562e-30
    vertex 18.326088747978098 2.085630744745625 -1.2523166870383562e-30
  endloop
endfacet
facet normal -0.170645867228961 -0.9853324251224437 -0.0
  outer loop
    vertex 13.95329130422391 2.8429384238401085 -1.2523166870383562e-30
    vertex 18.326088747978098 2.085630744745625 40.0
    vertex 13.95329130422391 2.8429384238401085 40.0
  endloop
endfacet
facet normal -0.41985404768469053 -0.9075916364989167 -0.0
  outer loop
    vertex 13.95329130422391 2.8429384238401085 40.0
    vertex 9.925498970522977 4.706204728343699 -1.2523166870383562e-30
    vertex 13.95329130422391 2.8429384238401085 -1.2523166870383562e-30
  endloop
endfacet
facet normal -0.41985404768469053 -0.9075916364989167 -0.0
  outer loop
    vertex 9.925498970522977 4.706204728343699 -1.2523166870383562e-30
    vertex 13.95329130422391 2.8429384238401085 40.0
    vertex 9.925498970522977 4.706204728343699 40.0
  endloop
endfacet
facet normal -0.6404498686323283 -0.7679999777140838 -0.0
  outer loop
    vertex 9.925498970522977 4.706204728343699 40.0
    vertex 6.517199138175445 7.548451138797643 -1.2523166870383562e-30
    vertex 9.925498970522977 4.706204728343699 -1.2523166870383562e-30
  endloop
endfacet
facet normal -0.6404498686323283 -0.7679999777140838 -0.0
  outer loop
    vertex 6.517199138175445 7.548451138797643 -1.2523166870383562e-30
    vertex 9.925498970522977 4.706204728343699 40.0
    vertex 6.517199138175445 7.548451138797643 40.0
  endloop
endfacet
facet normal -0.817400089426123 -0.576070389628009 -0.0
  outer loop
    vertex 3.9606618082740193 11.17598325936377 40.0
    vertex 6.517199138175445 7.548451138797643 -1.2523166870383562e-30
    vertex 6.517199138175445 7.548451138797643 40.0
  endloop
endfacet
facet normal -0.817400089426123 -0.576070389628009 -0.0
  outer loop
    vertex 6.517199138175445 7.548451138797643 -1.2523166870383562e-30
    vertex 3.9606618082740193 11.17598325936377 40.0
    vertex 3.9606618082740193 11.17598325936377 -1.2523166870383562e-30
  endloop
endfacet
facet normal -0.9386458449430448 -0.34488255649011507 -0.0
  outer loop
    vertex 2.430110774973786 15.341590770805784 40.0
    vertex 3.9606618082740193 11.17598325936377 -1.2523166870383562e-30
    vertex 3.9606618082740193 11.17598325936377 40.0
  endloop
endfacet
facet normal -0.9386458449430448 -0.34488255649011507 -0.0
  outer loop
    vertex 3.9606618082740193 11.17598325936377 -1.2523166870383562e-30
    vertex 2.430110774973786 15.341590770805784 40.0
    vertex 2.430110774973786 15.341590770805784 -1.2523166870383562e-30
  endloop
endfacet
facet normal -0.9959244373126991 -0.09019154707279342 -0.0
  outer loop
    vertex 2.029850561838979 19.761394405210797 40.0
    vertex 2.430110774973786 15.341590770805784 -1.2523166870383562e-30
    vertex 2.430110774973786 15.341590770805784 40.0
  endloop
endfacet
facet normal -0.9959244373126991 -0.09019154707279342 -0.0
  outer loop
    vertex 2.430110774973786 15.341590770805784 -1.2523166870383562e-30
    vertex 2.029850561838979 19.761394405210797 40.0
    vertex 2.029850561838979 19.761394405210797 -1.2523166870383562e-30
  endloop
endfacet
facet normal -0.9853324251224438 0.17064586722896005 0.0
  outer loop
    vertex 2.7871582409334574 24.134191848964978 40.0
    vertex 2.029850561838979 19.761394405210797 -1.2523166870383562e-30
    vertex 2.029850561838979 19.761394405210797 40.0
  endloop
endfacet
facet normal -0.9853324251224438 0.17064586722896005 0.0
  outer loop
    vertex 2.029850561838979 19.761394405210797 -1.2523166870383562e-30
    vertex 2.7871582409334574 24.134191848964978 40.0
    vertex 2.7871582409334574 24.134191848964978 -1.2523166870383562e-30
  endloop
endfacet
facet normal -0.9075916364989168 0.41985404768469037 0.0
  outer loop
    vertex 4.65042454543705 28.16198418266592 40.0
    vertex 2.7871582409334574 24.134191848964978 -1.2523166870383562e-30
    vertex 2.7871582409334574 24.134191848964978 40.0
  endloop
endfacet
facet normal -0.9075916364989168 0.41985404768469037 0.0
  outer loop
    vertex 2.7871582409334574 24.134191848964978 -1.2523166870383562e-30
    vertex 4.65042454543705 28.16198418266592 40.0
    vertex 4.65042454543705 28.16198418266592 -1.2523166870383562e-30
  endloop
endfacet
facet normal -0.7679999777140839 0.6404498686323283 0.0
  outer loop
    vertex 7.49267095589099 31.570284015013446 40.0
    vertex 4.65042454543705 28.16198418266592 -1.2523166870383562e-30
    vertex 4.65042454543705 28.16198418266592 40.0
  endloop
endfacet
facet normal -0.7679999777140839 0.6404498686323283 0.0
  outer loop
    vertex 4.65042454543705 28.16198418266592 -1.2523166870383562e-30
    vertex 7.49267095589099 31.570284015013446 40.0
    vertex 7.49267095589099 31.570284015013446 -1.2523166870383562e-30
  endloop
endfacet
facet normal -0.5760703896280085 0.8174000894261234 0.0
  outer loop
    vertex 7.49267095589099 31.570284015013446 40.0
    vertex 11.120203076457125 34.12682134491487 -1.2523166870383562e-30
    vertex 7.49267095589099 31.570284015013446 -1.2523166870383562e-30
  endloop
endfacet
facet normal -0.5760703896280085 0.8174000894261234 0.0
  outer loop
    vertex 11.120203076457125 34.12682134491487 -1.2523166870383562e-30
    vertex 7.49267095589099 31.570284015013446 40.0
    vertex 11.120203076457125 34.12682134491487 40.0
  endloop
endfacet
facet normal -0.3448825564901153 0.9386458449430448 0.0
  outer loop
    vertex 11.120203076457125 34.12682134491487 40.0
    vertex 15.285810587899135 35.65737237821511 -1.2523166870383562e-30
    vertex 11.120203076457125 34.12682134491487 -1.2523166870383562e-30
  endloop
endfacet
facet normal -0.3448825564901153 0.9386458449430448 0.0
  outer loop
    vertex 15.285810587899135 35.65737237821511 -1.2523166870383562e-30
    vertex 11.120203076457125 34.12682134491487 40.0
    vertex 15.285810587899135 35.65737237821511 40.0
  endloop
endfacet
facet normal -0.09019154707279342 0.9959244373126991 0.0
  outer loop
    vertex 15.285810587899135 35.65737237821511 40.0
    vertex 19.70561422230415 36.057632591349915 -1.2523166870383562e-30
    vertex 15.285810587899135 35.65737237821511 -1.2523166870383562e-30
  endloop
endfacet
facet normal -0.09019154707279342 0.9959244373126991 0.0
  outer loop
    vertex 19.70561422230415 36.057632591349915 -1.2523166870383562e-30
    vertex 15.285810587899135 35.65737237821511 40.0
    vertex 19.70561422230415 36.057632591349915 40.0
  endloop
endfacet
facet normal 0.1706458672289594 0.9853324251224438 0.0
  outer loop
    vertex 19.70561422230415 36.057632591349915 40.0
    vertex 24.07841166605833 35.30032491225544 -1.2523166870383562e-30
    vertex 19.70561422230415 36.057632591349915 -1.2523166870383562e-30
  endloop
endfacet
facet normal 0.1706458672289594 0.9853324251224438 0.0
  outer loop
    vertex 24.07841166605833 35.30032491225544 -1.2523166870383562e-30
    vertex 19.70561422230415 36.057632591349915 40.0
    vertex 24.07841166605833 35.30032491225544 40.0
  endloop
endfacet
facet normal 0.0 0.0 1.0
  outer loop
    vertex 7.7521013458245855 14.933040990166381 120.0
    vertex 7.191862383671797 21.119382074795297 120.0
    vertex 7.064758237388732 17.98933310317424 120.0
  endloop
endfacet
facet normal 0.0 0.0 1.0
  outer loop
    vertex 7.191862383671797 21.119382074795297 120.0
    vertex 7.7521013458245855 14.933040990166381 120.0
    vertex 8.124751847154117 24.10988024026405 120.0
  endloop
endfacet
facet normal 0.0 0.0 1.0
  outer loop
    vertex 8.124751847154117 24.10988024026405 120.0
    vertex 7.7521013458245855 14.933040990166381 120.0
    vertex 9.207050412027646 12.15878699251166 120.0
  endloop
endfacet
facet normal 0.0 0.0 1.0
  outer loop
    vertex 8.124751847154117 24.10988024026405 120.0
    vertex 9.207050412027646 12.15878699251166 120.0
    vertex 9.799851752572105 26.75703009163571 120.0
  endloop
endfacet
facet normal 0.0 0.0 1.0
  outer loop
    vertex 9.799851752572105 26.75703009163571 120.0
    vertex 9.207050412027646 12.15878699251166 120.0
    vertex 11.330453061553188 9.855631935478758 120.0
  endloop
endfacet
facet normal 0.0 0.0 1.0
  outer loop
    vertex 9.799851752572105 26.75703009163571 120.0
    vertex 11.330453061553188 9.855631935478758 120.0
    vertex 12.103006809605015 28.88043274116125 120.0
  endloop
endfacet
facet normal 0.0 0.0 1.0
  outer loop
    vertex 12.103006809605015 28.88043274116125 120.0
    vertex 11.330453061553188 9.855631935478758 120.0
    vertex 13.977602912924844 8.180532030060766 120.0
  endloop
endfacet
facet normal 0.0 0.0 1.0
  outer loop
    vertex 12.103006809605015 28.88043274116125 120.0
    vertex 13.977602912924844 8.180532030060766 120.0
    vertex 14.877260807259733 30.335381807364307 120.0
  endloop
endfacet
facet normal 0.0 0.0 1.0
  outer loop
    vertex 14.877260807259733 30.335381807364307 120.0
    vertex 13.977602912924844 8.180532030060766 120.0
    vertex 16.968101078393598 7.247642566578445 120.0
  endloop
endfacet
facet normal 0.0 0.0 1.0
  outer loop
    vertex 14.877260807259733 30.335381807364307 120.0
    vertex 16.968101078393598 7.247642566578445 120.0
    vertex 17.933552920267594 31.02272491580016 120.0
  endloop
endfacet
facet normal 0.0 0.0 1.0
  outer loop
    vertex 17.933552920267594 31.02272491580016 120.0
    vertex 16.968101078393598 7.247642566578445 120.0
    vertex 20.098150050014652 7.1205384202953805 120.0
  endloop
endfacet
facet normal 0.0 0.0 1.0
  outer loop
    vertex 17.933552920267594 31.02272491580016 120.0
    vertex 20.098150050014652 7.1205384202953805 120.0
    vertex 21.063601891888652 30.895620769517098 120.0
  endloop
endfacet
facet normal 0.0 0.0 1.0
  outer loop
    vertex 21.063601891888652 30.895620769517098 120.0
    vertex 20.098150050014652 7.1205384202953805 120.0
    vertex 23.15444216302252 7.807881528731233 120.0
  endloop
endfacet
facet normal 0.0 0.0 1.0
  outer loop
    vertex 21.063601891888652 30.895620769517098 120.0
    vertex 23.15444216302252 7.807881528731233 120.0
    vertex 24.05410005735741 29.962731306034776 120.0
  endloop
endfacet
facet normal 0.0 0.0 1.0
  outer loop
    vertex 24.05410005735741 29.962731306034776 120.0
    vertex 23.15444216302252 7.807881528731233 120.0
    vertex 25.928696160677234 9.262830594934291 120.0
  endloop
endfacet
facet normal 0.0 0.0 1.0
  outer loop
    vertex 24.05410005735741 29.962731306034776 120.0
    vertex 25.928696160677234 9.262830594934291 120.0
    vertex 26.701249908729064 28.28763140061678 120.0
  endloop
endfacet
facet normal 0.0 0.0 1.0
  outer loop
    vertex 26.701249908729064 28.28763140061678 120.0
    vertex 25.928696160677234 9.262830594934291 120.0
    vertex 28.23185121771014 11.386233244459834 120.0
  endloop
endfacet
facet normal 0.0 0.0 1.0
  outer loop
    vertex 26.701249908729064 28.28763140061678 120.0
    vertex 28.23185121771014 11.386233244459834 120.0
    vertex 28.82465255825461 25.984476343583875 120.0
  endloop
endfacet
facet normal 0.0 0.0 1.0
  outer loop
    vertex 28.82465255825461 25.984476343583875 120.0
    vertex 28.23185121771014 11.386233244459834 120.0
    vertex 29.90695112312813 14.033383095831486 120.0
  endloop
endfacet
facet normal 0.0 0.0 1.0
  outer loop
    vertex 28.82465255825461 25.984476343583875 120.0
    vertex 29.90695112312813 14.033383095831486 120.0
    vertex 30.279601624457666 23.210222345929157 120.0
  endloop
endfacet
facet normal 0.0 0.0 1.0
  outer loop
    vertex 30.279601624457666 23.210222345929157 120.0
    vertex 29.90695112312813 14.033383095831486 120.0
    vertex 30.839840586610457 17.023881261300243 120.0
  endloop
endfacet
facet normal 0.0 0.0 1.0
  outer loop
    vertex 30.279601624457666 23.210222345929157 120.0
    vertex 30.839840586610457 17.023881261300243 120.0
    vertex 30.966944732893516 20.153930232921294 120.0
  endloop
endfacet
facet normal -0.040574278656648866 -0.9991765249001262 -0.0
  outer loop
    vertex 20.098150050014652 7.1205384202953805 120.0
    vertex 16.968101078393598 7.247642566578445 40.0
    vertex 20.098150050014652 7.1205384202953805 40.0
  endloop
endfacet
facet normal -0.040574278656648866 -0.9991765249001262 -0.0
  outer loop
    vertex 16.968101078393598 7.247642566578445 40.0
    vertex 20.098150050014652 7.1205384202953805 120.0
    vertex 16.968101078393598 7.247642566578445 120.0
  endloop
endfacet
facet normal 0.21941417042599928 -0.9756318064804318 0.0
  outer loop
    vertex 23.15444216302252 7.807881528731233 120.0
    vertex 20.098150050014652 7.1205384202953805 40.0
    vertex 23.15444216302252 7.807881528731233 40.0
  endloop
endfacet
facet normal 0.21941417042599928 -0.9756318064804318 0.0
  outer loop
    vertex 20.098150050014652 7.1205384202953805 40.0
    vertex 23.15444216302252 7.807881528731233 120.0
    vertex 20.098150050014652 7.1205384202953805 120.0
  endloop
endfacet
facet normal 0.4644499063931772 -0.8855993927568881 0.0
  outer loop
    vertex 25.928696160677234 9.262830594934291 120.0
    vertex 23.15444216302252 7.807881528731233 40.0
    vertex 25.928696160677234 9.262830594934291 40.0
  endloop
endfacet
facet normal 0.4644499063931772 -0.8855993927568881 0.0
  outer loop
    vertex 23.15444216302252 7.807881528731233 40.0
    vertex 25.928696160677234 9.262830594934291 120.0
    vertex 23.15444216302252 7.807881528731233 120.0
  endloop
endfacet
facet normal 0.6778341487794196 -0.7352148439391575 0.0
  outer loop
    vertex 28.23185121771014 11.386233244459834 120.0
    vertex 25.928696160677234 9.262830594934291 40.0
    vertex 28.23185121771014 11.386233244459834 40.0
  endloop
endfacet
facet normal 0.6778341487794196 -0.7352148439391575 0.0
  outer loop
    vertex 25.928696160677234 9.262830594934291 40.0
    vertex 28.23185121771014 11.386233244459834 120.0
    vertex 25.928696160677234 9.262830594934291 120.0
  endloop
endfacet
facet normal 0.8450251141002395 -0.5347266185069501 0.0
  outer loop
    vertex 29.90695112312813 14.033383095831486 40.0
    vertex 28.23185121771014 11.386233244459834 120.0
    vertex 28.23185121771014 11.386233244459834 40.0
  endloop
endfacet
facet normal 0.8450251141002395 -0.5347266185069501 0.0
  outer loop
    vertex 28.23185121771014 11.386233244459834 120.0
    vertex 29.90695112312813 14.033383095831486 40.0
    vertex 29.90695112312813 14.033383095831486 120.0
  endloop
endfacet
facet normal 0.9546290143651567 -0.2977976577010124 0.0
  outer loop
    vertex 30.839840586610457 17.023881261300243 40.0
    vertex 29.90695112312813 14.033383095831486 120.0
    vertex 29.90695112312813 14.033383095831486 40.0
  endloop
endfacet
facet normal 0.9546290143651567 -0.2977976577010124 0.0
  outer loop
    vertex 29.90695112312813 14.033383095831486 120.0
    vertex 30.839840586610457 17.023881261300243 40.0
    vertex 30.839840586610457 17.023881261300243 120.0
  endloop
endfacet
facet normal 0.9991765249001262 -0.040574278656648 0.0
  outer loop
    vertex 30.966944732893516 20.153930232921294 40.0
    vertex 30.839840586610457 17.023881261300243 120.0
    vertex 30.839840586610457 17.023881261300243 40.0
  endloop
endfacet
facet normal 0.9991765249001262 -0.040574278656648 0.0
  outer loop
    vertex 30.839840586610457 17.023881261300243 120.0
    vertex 30.966944732893516 20.153930232921294 40.0
    vertex 30.966944732893516 20.153930232921294 120.0
  endloop
endfacet
facet normal 0.9756318064804317 0.21941417042599948 0.0
  outer loop
    vertex 30.279601624457666 23.210222345929157 40.0
    vertex 30.966944732893516 20.153930232921294 120.0
    vertex 30.966944732893516 20.153930232921294 40.0
  endloop
endfacet
facet normal 0.9756318064804317 0.21941417042599948 0.0
  outer loop
    vertex 30.966944732893516 20.153930232921294 120.0
    vertex 30.279601624457666 23.210222345929157 40.0
    vertex 30.279601624457666 23.210222345929157 120.0
  endloop
endfacet
facet normal 0.8855993927568885 0.46444990639317646 0.0
  outer loop
    vertex 28.82465255825461 25.984476343583875 40.0
    vertex 30.279601624457666 23.210222345929157 120.0
    vertex 30.279601624457666 23.210222345929157 40.0
  endloop
endfacet
facet normal 0.8855993927568885 0.46444990639317646 0.0
  outer loop
    vertex 30.279601624457666 23.210222345929157 120.0
    vertex 28.82465255825461 25.984476343583875 40.0
    vertex 28.82465255825461 25.984476343583875 120.0
  endloop
endfacet
facet normal 0.7352148439391575 0.6778341487794196 0.0
  outer loop
    vertex 26.701249908729064 28.28763140061678 40.0
    vertex 28.82465255825461 25.984476343583875 120.0
    vertex 28.82465255825461 25.984476343583875 40.0
  endloop
endfacet
facet normal 0.7352148439391575 0.6778341487794196 0.0
  outer loop
    vertex 28.82465255825461 25.984476343583875 120.0
    vertex 26.701249908729064 28.28763140061678 40.0
    vertex 26.701249908729064 28.28763140061678 120.0
  endloop
endfacet
facet normal 0.5347266185069497 0.8450251141002396 0.0
  outer loop
    vertex 24.05410005735741 29.962731306034776 120.0
    vertex 26.701249908729064 28.28763140061678 40.0
    vertex 24.05410005735741 29.962731306034776 40.0
  endloop
endfacet
facet normal 0.5347266185069497 0.8450251141002396 0.0
  outer loop
    vertex 26.701249908729064 28.28763140061678 40.0
    vertex 24.05410005735741 29.962731306034776 120.0
    vertex 26.701249908729064 28.28763140061678 120.0
  endloop
endfacet
facet normal 0.2977976577010124 0.9546290143651567 0.0
  outer loop
    vertex 21.063601891888652 30.895620769517098 120.0
    vertex 24.05410005735741 29.962731306034776 40.0
    vertex 21.063601891888652 30.895620769517098 40.0
  endloop
endfacet
facet normal 0.2977976577010124 0.9546290143651567 0.0
  outer loop
    vertex 24.05410005735741 29.962731306034776 40.0
    vertex 21.063601891888652 30.895620769517098 120.0
    vertex 24.05410005735741 29.962731306034776 120.0
  endloop
endfacet
facet normal 0.040574278656647894 0.9991765249001263 0.0
  outer loop
    vertex 17.933552920267594 31.02272491580016 120.0
    vertex 21.063601891888652 30.895620769517098 40.0
    vertex 17.933552920267594 31.02272491580016 40.0
  endloop
endfacet
facet normal 0.040574278656647894 0.9991765249001263 0.0
  outer loop
    vertex 21.063601891888652 30.895620769517098 40.0
    vertex 17.933552920267594 31.02272491580016 120.0
    vertex 21.063601891888652 30.895620769517098 120.0
  endloop
endfacet
facet normal -0.21941417042599967 0.9756318064804317 0.0
  outer loop
    vertex 14.877260807259733 30.335381807364307 120.0
    vertex 17.933552920267594 31.02272491580016 40.0
    vertex 14.877260807259733 30.335381807364307 40.0
  endloop
endfacet
facet normal -0.21941417042599967 0.9756318064804317 0.0
  outer loop
    vertex 17.933552920267594 31.02272491580016 40.0
    vertex 14.877260807259733 30.335381807364307 120.0
    vertex 17.933552920267594 31.02272491580016 120.0
  endloop
endfacet
facet normal -0.46444990639317646 0.8855993927568885 0.0
  outer loop
    vertex 12.103006809605015 28.88043274116125 120.0
    vertex 14.877260807259733 30.335381807364307 40.0
    vertex 12.103006809605015 28.88043274116125 40.0
  endloop
endfacet
facet normal -0.46444990639317646 0.8855993927568885 0.0
  outer loop
    vertex 14.877260807259733 30.335381807364307 40.0
    vertex 12.103006809605015 28.88043274116125 120.0
    vertex 14.877260807259733 30.335381807364307 120.0
  endloop
endfacet
facet normal -0.6778341487794192 0.7352148439391579 0.0
  outer loop
    vertex 9.799851752572105 26.75703009163571 120.0
    vertex 12.103006809605015 28.88043274116125 40.0
    vertex 9.799851752572105 26.75703009163571 40.0
  endloop
endfacet
facet normal -0.6778341487794192 0.7352148439391579 0.0
  outer loop
    vertex 12.103006809605015 28.88043274116125 40.0
    vertex 9.799851752572105 26.75703009163571 120.0
    vertex 12.103006809605015 28.88043274116125 120.0
  endloop
endfacet
facet normal -0.8450251141002406 0.5347266185069484 0.0
  outer loop
    vertex 9.799851752572105 26.75703009163571 120.0
    vertex 8.124751847154117 24.10988024026405 40.0
    vertex 8.124751847154117 24.10988024026405 120.0
  endloop
endfacet
facet normal -0.8450251141002406 0.5347266185069484 0.0
  outer loop
    vertex 8.124751847154117 24.10988024026405 40.0
    vertex 9.799851752572105 26.75703009163571 120.0
    vertex 9.799851752572105 26.75703009163571 40.0
  endloop
endfacet
facet normal -0.9546290143651569 0.29779765770101185 0.0
  outer loop
    vertex 8.124751847154117 24.10988024026405 120.0
    vertex 7.191862383671797 21.119382074795297 40.0
    vertex 7.191862383671797 21.119382074795297 120.0
  endloop
endfacet
facet normal -0.9546290143651569 0.29779765770101185 0.0
  outer loop
    vertex 7.191862383671797 21.119382074795297 40.0
    vertex 8.124751847154117 24.10988024026405 120.0
    vertex 8.124751847154117 24.10988024026405 40.0
  endloop
endfacet
facet normal -0.9991765249001262 0.04057427865664883 0.0
  outer loop
    vertex 7.191862383671797 21.119382074795297 120.0
    vertex 7.064758237388732 17.98933310317424 40.0
    vertex 7.064758237388732 17.98933310317424 120.0
  endloop
endfacet
facet normal -0.9991765249001262 0.04057427865664883 0.0
  outer loop
    vertex 7.064758237388732 17.98933310317424 40.0
    vertex 7.191862383671797 21.119382074795297 120.0
    vertex 7.191862383671797 21.119382074795297 40.0
  endloop
endfacet
facet normal -0.9756318064804315 -0.21941417042600025 -0.0
  outer loop
    vertex 7.064758237388732 17.98933310317424 120.0
    vertex 7.7521013458245855 14.933040990166381 40.0
    vertex 7.7521013458245855 14.933040990166381 120.0
  endloop
endfacet
facet normal -0.9756318064804315 -0.21941417042600025 -0.0
  outer loop
    vertex 7.7521013458245855 14.933040990166381 40.0
    vertex 7.064758237388732 17.98933310317424 120.0
    vertex 7.064758237388732 17.98933310317424 40.0
  endloop
endfacet
facet normal -0.8855993927568883 -0.46444990639317696 -0.0
  outer loop
    vertex 7.7521013458245855 14.933040990166381 120.0
    vertex 9.207050412027646 12.15878699251166 40.0
    vertex 9.207050412027646 12.15878699251166 120.0
  endloop
endfacet
facet normal -0.8855993927568883 -0.46444990639317696 -0.0
  outer loop
    vertex 9.207050412027646 12.15878699251166 40.0
    vertex 7.7521013458245855 14.933040990166381 120.0
    vertex 7.7521013458245855 14.933040990166381 40.0
  endloop
endfacet
facet normal -0.7352148439391571 -0.67783414877942 -0.0
  outer loop
    vertex 9.207050412027646 12.15878699251166 120.0
    vertex 11.330453061553188 9.855631935478758 40.0
    vertex 11.330453061553188 9.855631935478758 120.0
  endloop
endfacet
facet normal -0.7352148439391571 -0.67783414877942 -0.0
  outer loop
    vertex 11.330453061553188 9.855631935478758 40.0
    vertex 9.207050412027646 12.15878699251166 120.0
    vertex 9.207050412027646 12.15878699251166 40.0
  endloop
endfacet
facet normal -0.5347266185069495 -0.8450251141002397 -0.0
  outer loop
    vertex 13.977602912924844 8.180532030060766 120.0
    vertex 11.330453061553188 9.855631935478758 40.0
    vertex 13.977602912924844 8.180532030060766 40.0
  endloop
endfacet
facet normal -0.5347266185069495 -0.8450251141002397 -0.0
  outer loop
    vertex 11.330453061553188 9.855631935478758 40.0
    vertex 13.977602912924844 8.180532030060766 120.0
    vertex 11.330453061553188 9.855631935478758 120.0
  endloop
endfacet
facet normal -0.29779765770101185 -0.9546290143651569 -0.0
  outer loop
    vertex 16.968101078393598 7.247642566578445 120.0
    vertex 13.977602912924844 8.180532030060766 40.0
    vertex 16.968101078393598 7.247642566578445 40.0
  endloop
endfacet
facet normal -0.29779765770101185 -0.9546290143651569 -0.0
  outer loop
    vertex 13.977602912924844 8.180532030060766 40.0
    vertex 16.968101078393598 7.247642566578445 120.0
    vertex 13.977602912924844 8.180532030060766 120.0
  endloop
endfacet
facet normal 0.0 0.0 -1.0
  outer loop
    vertex 7.560303312759237 22.645203560459898 30.0
    vertex 7.308269807375945 16.43866162293576 30.0
    vertex 7.0257331863396075 19.558523011927537 30.0
  endloop
endfacet
facet normal 0.0 0.0 -1.0
  outer loop
    vertex 7.308269807375945 16.43866162293576 30.0
    vertex 7.560303312759237 22.645203560459898 30.0
    vertex 8.388658772058466 13.498232791329636 30.0
  endloop
endfacet
facet normal 0.0 0.0 -1.0
  outer loop
    vertex 8.388658772058466 13.498232791329636 30.0
    vertex 7.560303312759237 22.645203560459898 30.0
    vertex 8.87555011593824 25.488351090131154 30.0
  endloop
endfacet
facet normal 0.0 0.0 -1.0
  outer loop
    vertex 8.388658772058466 13.498232791329636 30.0
    vertex 8.87555011593824 25.488351090131154 30.0
    vertex 10.193273357871238 10.937621882694721 30.0
  endloop
endfacet
facet normal 0.0 0.0 -1.0
  outer loop
    vertex 10.193273357871238 10.937621882694721 30.0
    vertex 8.87555011593824 25.488351090131154 30.0
    vertex 10.88184169978808 27.894209795317646 30.0
  endloop
endfacet
facet normal 0.0 0.0 -1.0
  outer loop
    vertex 10.193273357871238 10.937621882694721 30.0
    vertex 10.88184169978808 27.894209795317646 30.0
    vertex 12.599132063057732 8.93133029884488 30.0
  endloop
endfacet
facet normal 0.0 0.0 -1.0
  outer loop
    vertex 12.599132063057732 8.93133029884488 30.0
    vertex 10.88184169978808 27.894209795317646 30.0
    vertex 13.442452608422995 29.698824381130418 30.0
  endloop
endfacet
facet normal 0.0 0.0 -1.0
  outer loop
    vertex 12.599132063057732 8.93133029884488 30.0
    vertex 13.442452608422995 29.698824381130418 30.0
    vertex 15.44227959272898 7.616083495665878 30.0
  endloop
endfacet
facet normal 0.0 0.0 -1.0
  outer loop
    vertex 15.44227959272898 7.616083495665878 30.0
    vertex 13.442452608422995 29.698824381130418 30.0
    vertex 16.38288144002912 30.77921334581294 30.0
  endloop
endfacet
facet normal 0.0 0.0 -1.0
  outer loop
    vertex 15.44227959272898 7.616083495665878 30.0
    vertex 16.38288144002912 30.77921334581294 30.0
    vertex 18.528960141261347 7.081513369246244 30.0
  endloop
endfacet
facet normal 0.0 0.0 -1.0
  outer loop
    vertex 18.528960141261347 7.081513369246244 30.0
    vertex 16.38288144002912 30.77921334581294 30.0
    vertex 19.502742829020896 31.06174996684928 30.0
  endloop
endfacet
facet normal 0.0 0.0 -1.0
  outer loop
    vertex 18.528960141261347 7.081513369246244 30.0
    vertex 19.502742829020896 31.06174996684928 30.0
    vertex 21.648821530253123 7.364049990282584 30.0
  endloop
endfacet
facet normal 0.0 0.0 -1.0
  outer loop
    vertex 21.648821530253123 7.364049990282584 30.0
    vertex 19.502742829020896 31.06174996684928 30.0
    vertex 22.589423377553256 30.527179840429646 30.0
  endloop
endfacet
facet normal 0.0 0.0 -1.0
  outer loop
    vertex 21.648821530253123 7.364049990282584 30.0
    vertex 22.589423377553256 30.527179840429646 30.0
    vertex 24.589250361859243 8.444438954965102 30.0
  endloop
endfacet
facet normal 0.0 0.0 -1.0
  outer loop
    vertex 24.589250361859243 8.444438954965102 30.0
    vertex 22.589423377553256 30.527179840429646 30.0
    vertex 25.432570907224505 29.211933037250645 30.0
  endloop
endfacet
facet normal 0.0 0.0 -1.0
  outer loop
    vertex 24.589250361859243 8.444438954965102 30.0
    vertex 25.432570907224505 29.211933037250645 30.0
    vertex 27.149861270494164 10.249053540777876 30.0
  endloop
endfacet
facet normal 0.0 0.0 -1.0
  outer loop
    vertex 27.149861270494164 10.249053540777876 30.0
    vertex 25.432570907224505 29.211933037250645 30.0
    vertex 27.838429612411 27.20564145340081 30.0
  endloop
endfacet
facet normal 0.0 0.0 -1.0
  outer loop
    vertex 27.149861270494164 10.249053540777876 30.0
    vertex 27.838429612411 27.20564145340081 30.0
    vertex 29.156152854344004 12.65491224596437 30.0
  endloop
endfacet
facet normal 0.0 0.0 -1.0
  outer loop
    vertex 29.156152854344004 12.65491224596437 30.0
    vertex 27.838429612411 27.20564145340081 30.0
    vertex 29.64304419822378 24.64503054476589 30.0
  endloop
endfacet
facet normal 0.0 0.0 -1.0
  outer loop
    vertex 29.156152854344004 12.65491224596437 30.0
    vertex 29.64304419822378 24.64503054476589 30.0
    vertex 30.471399657523005 15.498059775635621 30.0
  endloop
endfacet
facet normal 0.0 0.0 -1.0
  outer loop
    vertex 30.471399657523005 15.498059775635621 30.0
    vertex 29.64304419822378 24.64503054476589 30.0
    vertex 30.7234331629063 21.704601713159768 30.0
  endloop
endfacet
facet normal 0.0 0.0 -1.0
  outer loop
    vertex 30.471399657523005 15.498059775635621 30.0
    vertex 30.7234331629063 21.704601713159768 30.0
    vertex 31.00596978394264 18.58474032416799 30.0
  endloop
endfacet
facet normal -0.34488255649011584 0.9386458449430447 -0.0
  outer loop
    vertex 21.648821530253123 7.364049990282584 30.0
    vertex 24.589250361859243 8.444438954965102 -1.2523166870383562e-30
    vertex 21.648821530253123 7.364049990282584 -1.2523166870383562e-30
  endloop
endfacet
facet normal -0.34488255649011584 0.9386458449430447 -0.0
  outer loop
    vertex 24.589250361859243 8.444438954965102 -1.2523166870383562e-30
    vertex 21.648821530253123 7.364049990282584 30.0
    vertex 24.589250361859243 8.444438954965102 30.0
  endloop
endfacet
facet normal -0.09019154707279485 0.995924437312699 -0.0
  outer loop
    vertex 18.528960141261347 7.081513369246244 30.0
    vertex 21.648821530253123 7.364049990282584 -1.2523166870383562e-30
    vertex 18.528960141261347 7.081513369246244 -1.2523166870383562e-30
  endloop
endfacet
facet normal -0.09019154707279485 0.995924437312699 -0.0
  outer loop
    vertex 21.648821530253123 7.364049990282584 -1.2523166870383562e-30
    vertex 18.528960141261347 7.081513369246244 30.0
    vertex 21.648821530253123 7.364049990282584 30.0
  endloop
endfacet
facet normal 0.1706458672289601 0.9853324251224437 0.0
  outer loop
    vertex 15.44227959272898 7.616083495665878 30.0
    vertex 18.528960141261347 7.081513369246244 -1.2523166870383562e-30
    vertex 15.44227959272898 7.616083495665878 -1.2523166870383562e-30
  endloop
endfacet
facet normal 0.1706458672289601 0.9853324251224437 0.0
  outer loop
    vertex 18.528960141261347 7.081513369246244 -1.2523166870383562e-30
    vertex 15.44227959272898 7.616083495665878 30.0
    vertex 18.528960141261347 7.081513369246244 30.0
  endloop
endfacet
facet normal 0.4198540476846899 0.9075916364989168 0.0
  outer loop
    vertex 12.599132063057732 8.93133029884488 30.0
    vertex 15.44227959272898 7.616083495665878 -1.2523166870383562e-30
    vertex 12.599132063057732 8.93133029884488 -1.2523166870383562e-30
  endloop
endfacet
facet normal 0.4198540476846899 0.9075916364989168 0.0
  outer loop
    vertex 15.44227959272898 7.616083495665878 -1.2523166870383562e-30
    vertex 12.599132063057732 8.93133029884488 30.0
    vertex 15.44227959272898 7.616083495665878 30.0
  endloop
endfacet
facet normal 0.6404498686323279 0.7679999777140843 0.0
  outer loop
    vertex 10.193273357871238 10.937621882694721 30.0
    vertex 12.599132063057732 8.93133029884488 -1.2523166870383562e-30
    vertex 10.193273357871238 10.937621882694721 -1.2523166870383562e-30
  endloop
endfacet
facet normal 0.6404498686323279 0.7679999777140843 0.0
  outer loop
    vertex 12.599132063057732 8.93133029884488 -1.2523166870383562e-30
    vertex 10.193273357871238 10.937621882694721 30.0
    vertex 12.599132063057732 8.93133029884488 30.0
  endloop
endfacet
facet normal 0.817400089426123 0.5760703896280093 0.0
  outer loop
    vertex 8.388658772058466 13.498232791329636 -1.2523166870383562e-30
    vertex 10.193273357871238 10.937621882694721 30.0
    vertex 10.193273357871238 10.937621882694721 -1.2523166870383562e-30
  endloop
endfacet
facet normal 0.817400089426123 0.5760703896280093 0.0
  outer loop
    vertex 10.193273357871238 10.937621882694721 30.0
    vertex 8.388658772058466 13.498232791329636 -1.2523166870383562e-30
    vertex 8.388658772058466 13.498232791329636 30.0
  endloop
endfacet
facet normal 0.9386458449430446 0.34488255649011607 0.0
  outer loop
    vertex 7.308269807375945 16.43866162293576 -1.2523166870383562e-30
    vertex 8.388658772058466 13.498232791329636 30.0
    vertex 8.388658772058466 13.498232791329636 -1.2523166870383562e-30
  endloop
endfacet
facet normal 0.9386458449430446 0.34488255649011607 0.0
  outer loop
    vertex 8.388658772058466 13.498232791329636 30.0
    vertex 7.308269807375945 16.43866162293576 -1.2523166870383562e-30
    vertex 7.308269807375945 16.43866162293576 30.0
  endloop
endfacet
facet normal 0.995924437312699 0.0901915470727944 0.0
  outer loop
    vertex 7.0257331863396075 19.558523011927537 -1.2523166870383562e-30
    vertex 7.308269807375945 16.43866162293576 30.0
    vertex 7.308269807375945 16.43866162293576 -1.2523166870383562e-30
  endloop
endfacet
facet normal 0.995924437312699 0.0901915470727944 0.0
  outer loop
    vertex 7.308269807375945 16.43866162293576 30.0
    vertex 7.0257331863396075 19.558523011927537 -1.2523166870383562e-30
    vertex 7.0257331863396075 19.558523011927537 30.0
  endloop
endfacet
facet normal 0.9853324251224438 -0.17064586722895955 -0.0
  outer loop
    vertex 7.560303312759237 22.645203560459898 -1.2523166870383562e-30
    vertex 7.0257331863396075 19.558523011927537 30.0
    vertex 7.0257331863396075 19.558523011927537 -1.2523166870383562e-30
  endloop
endfacet
facet normal 0.9853324251224438 -0.17064586722895955 -0.0
  outer loop
    vertex 7.0257331863396075 19.558523011927537 30.0
    vertex 7.560303312759237 22.645203560459898 -1.2523166870383562e-30
    vertex 7.560303312759237 22.645203560459898 30.0
  endloop
endfacet
facet normal 0.9075916364989173 -0.4198540476846891 -0.0
  outer loop
    vertex 8.87555011593824 25.488351090131154 -1.2523166870383562e-30
    vertex 7.560303312759237 22.645203560459898 30.0
    vertex 7.560303312759237 22.645203560459898 -1.2523166870383562e-30
  endloop
endfacet
facet normal 0.9075916364989173 -0.4198540476846891 -0.0
  outer loop
    vertex 7.560303312759237 22.645203560459898 30.0
    vertex 8.87555011593824 25.488351090131154 -1.2523166870383562e-30
    vertex 8.87555011593824 25.488351090131154 30.0
  endloop
endfacet
facet normal 0.7679999777140841 -0.640449868632328 -0.0
  outer loop
    vertex 10.88184169978808 27.894209795317646 -1.2523166870383562e-30
    vertex 8.87555011593824 25.488351090131154 30.0
    vertex 8.87555011593824 25.488351090131154 -1.2523166870383562e-30
  endloop
endfacet
facet normal 0.7679999777140841 -0.640449868632328 -0.0
  outer loop
    vertex 8.87555011593824 25.488351090131154 30.0
    vertex 10.88184169978808 27.894209795317646 -1.2523166870383562e-30
    vertex 10.88184169978808 27.894209795317646 30.0
  endloop
endfacet
facet normal 0.5760703896280087 -0.8174000894261232 -0.0
  outer loop
    vertex 13.442452608422995 29.698824381130418 30.0
    vertex 10.88184169978808 27.894209795317646 -1.2523166870383562e-30
    vertex 13.442452608422995 29.698824381130418 -1.2523166870383562e-30
  endloop
endfacet
facet normal 0.5760703896280087 -0.8174000894261232 -0.0
  outer loop
    vertex 10.88184169978808 27.894209795317646 -1.2523166870383562e-30
    vertex 13.442452608422995 29.698824381130418 30.0
    vertex 10.88184169978808 27.894209795317646 30.0
  endloop
endfacet
facet normal 0.3448825564901175 -0.9386458449430439 -0.0
  outer loop
    vertex 16.38288144002912 30.77921334581294 30.0
    vertex 13.442452608422995 29.698824381130418 -1.2523166870383562e-30
    vertex 16.38288144002912 30.77921334581294 -1.2523166870383562e-30
  endloop
endfacet
facet normal 0.3448825564901175 -0.9386458449430439 -0.0
  outer loop
    vertex 13.442452608422995 29.698824381130418 -1.2523166870383562e-30
    vertex 16.38288144002912 30.77921334581294 30.0
    vertex 13.442452608422995 29.698824381130418 30.0
  endloop
endfacet
facet normal 0.09019154707279531 -0.995924437312699 -0.0
  outer loop
    vertex 19.502742829020896 31.06174996684928 30.0
    vertex 16.38288144002912 30.77921334581294 -1.2523166870383562e-30
    vertex 19.502742829020896 31.06174996684928 -1.2523166870383562e-30
  endloop
endfacet
facet normal 0.09019154707279531 -0.995924437312699 -0.0
  outer loop
    vertex 16.38288144002912 30.77921334581294 -1.2523166870383562e-30
    vertex 19.502742829020896 31.06174996684928 30.0
    vertex 16.38288144002912 30.77921334581294 30.0
  endloop
endfacet
facet normal -0.17064586722896133 -0.9853324251224436 -0.0
  outer loop
    vertex 22.589423377553256 30.527179840429646 30.0
    vertex 19.502742829020896 31.06174996684928 -1.2523166870383562e-30
    vertex 22.589423377553256 30.527179840429646 -1.2523166870383562e-30
  endloop
endfacet
facet normal -0.17064586722896133 -0.9853324251224436 -0.0
  outer loop
    vertex 19.502742829020896 31.06174996684928 -1.2523166870383562e-30
    vertex 22.589423377553256 30.527179840429646 30.0
    vertex 19.502742829020896 31.06174996684928 30.0
  endloop
endfacet
facet normal -0.41985404768468865 -0.9075916364989175 -0.0
  outer loop
    vertex 25.432570907224505 29.211933037250645 30.0
    vertex 22.589423377553256 30.527179840429646 -1.2523166870383562e-30
    vertex 25.432570907224505 29.211933037250645 -1.2523166870383562e-30
  endloop
endfacet
facet normal -0.41985404768468865 -0.9075916364989175 -0.0
  outer loop
    vertex 22.589423377553256 30.527179840429646 -1.2523166870383562e-30
    vertex 25.432570907224505 29.211933037250645 30.0
    vertex 22.589423377553256 30.527179840429646 30.0
  endloop
endfacet
facet normal -0.6404498686323271 -0.7679999777140849 -0.0
  outer loop
    vertex 27.838429612411 27.20564145340081 30.0
    vertex 25.432570907224505 29.211933037250645 -1.2523166870383562e-30
    vertex 27.838429612411 27.20564145340081 -1.2523166870383562e-30
  endloop
endfacet
facet normal -0.6404498686323271 -0.7679999777140849 -0.0
  outer loop
    vertex 25.432570907224505 29.211933037250645 -1.2523166870383562e-30
    vertex 27.838429612411 27.20564145340081 30.0
    vertex 25.432570907224505 29.211933037250645 30.0
  endloop
endfacet
facet normal -0.8174000894261223 -0.5760703896280099 -0.0
  outer loop
    vertex 27.838429612411 27.20564145340081 30.0
    vertex 29.64304419822378 24.64503054476589 -1.2523166870383562e-30
    vertex 29.64304419822378 24.64503054476589 30.0
  endloop
endfacet
facet normal -0.8174000894261223 -0.5760703896280099 -0.0
  outer loop
    vertex 29.64304419822378 24.64503054476589 -1.2523166870383562e-30
    vertex 27.838429612411 27.20564145340081 30.0
    vertex 27.838429612411 27.20564145340081 -1.2523166870383562e-30
  endloop
endfacet
facet normal -0.9386458449430446 -0.34488255649011595 -0.0
  outer loop
    vertex 29.64304419822378 24.64503054476589 30.0
    vertex 30.7234331629063 21.704601713159768 -1.2523166870383562e-30
    vertex 30.7234331629063 21.704601713159768 30.0
  endloop
endfacet
facet normal -0.9386458449430446 -0.34488255649011595 -0.0
  outer loop
    vertex 30.7234331629063 21.704601713159768 -1.2523166870383562e-30
    vertex 29.64304419822378 24.64503054476589 30.0
    vertex 29.64304419822378 24.64503054476589 -1.2523166870383562e-30
  endloop
endfacet
facet normal -0.9959244373126989 -0.09019154707279521 -0.0
  outer loop
    vertex 30.7234331629063 21.704601713159768 30.0
    vertex 31.00596978394264 18.58474032416799 -1.2523166870383562e-30
    vertex 31.00596978394264 18.58474032416799 30.0
  endloop
endfacet
facet normal -0.9959244373126989 -0.09019154707279521 -0.0
  outer loop
    vertex 31.00596978394264 18.58474032416799 -1.2523166870383562e-30
    vertex 30.7234331629063 21.704601713159768 30.0
    vertex 30.7234331629063 21.704601713159768 -1.2523166870383562e-30
  endloop
endfacet
facet normal -0.9853324251224437 0.17064586722896086 -0.0
  outer loop
    vertex 31.00596978394264 18.58474032416799 30.0
    vertex 30.471399657523005 15.498059775635621 -1.2523166870383562e-30
    vertex 30.471399657523005 15.498059775635621 30.0
  endloop
endfacet
facet normal -0.9853324251224437 0.17064586722896086 -0.0
  outer loop
    vertex 30.471399657523005 15.498059775635621 -1.2523166870383562e-30
    vertex 31.00596978394264 18.58474032416799 30.0
    vertex 31.00596978394264 18.58474032416799 -1.2523166870383562e-30
  endloop
endfacet
facet normal -0.9075916364989175 0.41985404768468865 -0.0
  outer loop
    vertex 30.471399657523005 15.498059775635621 30.0
    vertex 29.156152854344004 12.65491224596437 -1.2523166870383562e-30
    vertex 29.156152854344004 12.65491224596437 30.0
  endloop
endfacet
facet normal -0.9075916364989175 0.41985404768468865 -0.0
  outer loop
    vertex 29.156152854344004 12.65491224596437 -1.2523166870383562e-30
    vertex 30.471399657523005 15.498059775635621 30.0
    vertex 30.471399657523005 15.498059775635621 -1.2523166870383562e-30
  endloop
endfacet
facet normal -0.7679999777140846 0.6404498686323276 -0.0
  outer loop
    vertex 29.156152854344004 12.65491224596437 30.0
    vertex 27.149861270494164 10.249053540777876 -1.2523166870383562e-30
    vertex 27.149861270494164 10.249053540777876 30.0
  endloop
endfacet
facet normal -0.7679999777140846 0.6404498686323276 -0.0
  outer loop
    vertex 27.149861270494164 10.249053540777876 -1.2523166870383562e-30
    vertex 29.156152854344004 12.65491224596437 30.0
    vertex 29.156152854344004 12.65491224596437 -1.2523166870383562e-30
  endloop
endfacet
facet normal -0.5760703896280088 0.8174000894261232 -0.0
  outer loop
    vertex 24.589250361859243 8.444438954965102 30.0
    vertex 27.149861270494164 10.249053540777876 -1.2523166870383562e-30
    vertex 24.589250361859243 8.444438954965102 -1.2523166870383562e-30
  endloop
endfacet
facet normal -0.5760703896280088 0.8174000894261232 -0.0
  outer loop
    vertex 27.149861270494164 10.249053540777876 -1.2523166870383562e-30
    vertex 24.589250361859243 8.444438954965102 30.0
    vertex 27.149861270494164 10.249053540777876 30.0
  endloop
endfacet
endsolid stand_bracket_post
