M48
; DRILL file {KiCad (5.1.5)-3} date 4/23/2022 10:50:28 PM
; FORMAT={-:-/ absolute / inch / decimal}
; #@! TF.CreationDate,2022-04-23T22:50:28-04:00
; #@! TF.GenerationSoftware,Kicad,Pcbnew,(5.1.5)-3
; #@! TF.FileFunction,Plated,1,2,PTH
FMAT,2
INCH
T1C0.0157
T2C0.0248
T3C0.0276
T4C0.0300
T5C0.0315
T6C0.0320
T7C0.0354
T8C0.0394
T9C0.0400
T10C0.0984
T11C0.6299
%
G90
G05
T1
X4.0803Y-4.8154
X4.0882Y-4.3508
X4.1669Y-3.6224
X4.1669Y-3.7091
X4.1669Y-3.7957
X4.1669Y-3.8823
X4.1669Y-3.9689
X4.1669Y-4.0693
X4.1866Y-4.3094
X4.2043Y-3.5339
X4.2417Y-2.5594
X4.2417Y-3.5083
X4.2614Y-4.715
X4.2614Y-4.5673
X4.2614Y-4.6657
X4.2614Y-4.7632
X4.2772Y-3.4827
X4.289Y-4.2583
X4.3618Y-2.5594
X4.4595Y-3.2472
X4.5094Y-3.0161
X4.5095Y-3.2878
X4.5134Y-4.1224
X4.5232Y-4.2169
X4.5567Y-4.8154
X4.5772Y-3.5772
X4.5921Y-4.6675
X4.6256Y-4.6165
X4.6512Y-3.5772
X4.6591Y-4.5142
X4.6925Y-4.713
X4.7299Y-4.5555
X4.7575Y-4.0358
X4.7634Y-4.5949
X4.7929Y-3.5181
X4.7988Y-4.6343
X4.8343Y-4.4768
X4.85Y-3.2839
X4.8815Y-3.7819
X4.9602Y-4.2386
X4.9937Y-4.3193
X5.1118Y-4.398
X5.161Y-4.1598
X5.2614Y-4.2012
X5.2614Y-4.5535
X5.3618Y-4.339
X5.3618Y-4.4768
X5.5902Y-4.1618
X5.6374Y-3.9177
X5.6787Y-3.8056
X5.6787Y-4.398
X5.8244Y-4.402
X5.8323Y-4.524
X5.8323Y-4.5713
X6.1591Y-4.2287
X6.4012Y-3.9591
T2
X6.2594Y-4.5205
X6.2594Y-4.7126
T3
X5.8894Y-4.7031
X5.9209Y-4.7504
X5.9524Y-4.7031
X5.9839Y-4.7504
X6.0154Y-4.7031
T4
X5.8854Y-2.6205
X5.8854Y-2.6992
X5.8854Y-2.778
X5.8854Y-2.8567
T5
X4.0902Y-2.9413
X4.0902Y-3.1815
X5.4248Y-3.713
X5.7339Y-4.4807
X6.2378Y-2.902
X6.2378Y-2.9807
X5.0134Y-3.3843
X5.4134Y-3.3843
T6
X5.8854Y-3.5535
X5.8854Y-3.6323
X5.8854Y-3.0378
X5.8854Y-3.1165
X5.8854Y-3.2957
X5.8854Y-3.3744
T7
X6.1906Y-3.6815
X6.2906Y-3.6815
T8
X6.2378Y-3.235
X6.2378Y-3.335
X6.2378Y-3.435
T9
X4.8602Y-3.9177
X4.9602Y-3.9177
X5.0602Y-3.9177
X5.1602Y-3.9177
X5.2602Y-3.9177
X5.3602Y-3.9177
X5.4602Y-3.9177
X5.5602Y-3.9177
X5.0602Y-4.0437
X5.1602Y-4.0437
X5.2602Y-4.0437
X5.3602Y-4.0437
T10
X4.8169Y-2.7366
X5.6035Y-2.7366
X4.7602Y-4.9768
X5.6602Y-4.9768
T11
X5.2102Y-2.9728
T3
G00X5.8087Y-4.7484
M15
G01X5.8087Y-4.7012
M16
G05
G00X5.8087Y-4.9256
M15
G01X5.8087Y-4.8783
M16
G05
G00X6.0961Y-4.7484
M15
G01X6.0961Y-4.7012
M16
G05
G00X6.0961Y-4.9256
M15
G01X6.0961Y-4.8783
M16
G05
T0
M30
