%FSLAX45Y45*%
G04 Gerber Fmt 4.5, Leading zero omitted, Abs format (unit mm)*
G04 Created by KiCad (PCBNEW (5.1.5)-3) date 2022-04-23 22:50:25*
%MOMM*%
%LPD*%
G04 APERTURE LIST*
%TA.AperFunction,Profile*%
%ADD10C,0.050000*%
%TD*%
%ADD11C,0.200000*%
%ADD12C,0.300000*%
G04 APERTURE END LIST*
D10*
X16484000Y-12641000D02*
G75*
G02X16284000Y-12841000I-200000J0D01*
G01*
X10184000Y-12841000D02*
G75*
G02X9984000Y-12641000I0J200000D01*
G01*
X9984000Y-6541000D02*
G75*
G02X10184000Y-6341000I200000J0D01*
G01*
X16284000Y-6341000D02*
G75*
G02X16484000Y-6541000I0J-200000D01*
G01*
X9984000Y-6541000D02*
X9984000Y-12641000D01*
X16284000Y-6341000D02*
X10184000Y-6341000D01*
X16484000Y-12641000D02*
X16484000Y-6541000D01*
X10184000Y-12841000D02*
X16284000Y-12841000D01*
D11*
X10344000Y-12211000D02*
X10384000Y-12251000D01*
X10384000Y-12211000D02*
X10344000Y-12251000D01*
X10364000Y-11031000D02*
X10404000Y-11071000D01*
X10404000Y-11031000D02*
X10364000Y-11071000D01*
X10564000Y-9181000D02*
X10604000Y-9221000D01*
X10604000Y-9181000D02*
X10564000Y-9221000D01*
X10564000Y-9401000D02*
X10604000Y-9441000D01*
X10604000Y-9401000D02*
X10564000Y-9441000D01*
X10564000Y-9621000D02*
X10604000Y-9661000D01*
X10604000Y-9621000D02*
X10564000Y-9661000D01*
X10564000Y-9841000D02*
X10604000Y-9881000D01*
X10604000Y-9841000D02*
X10564000Y-9881000D01*
X10564000Y-10061000D02*
X10604000Y-10101000D01*
X10604000Y-10061000D02*
X10564000Y-10101000D01*
X10564000Y-10316000D02*
X10604000Y-10356000D01*
X10604000Y-10316000D02*
X10564000Y-10356000D01*
X10614000Y-10926000D02*
X10654000Y-10966000D01*
X10654000Y-10926000D02*
X10614000Y-10966000D01*
X10659000Y-8956000D02*
X10699000Y-8996000D01*
X10699000Y-8956000D02*
X10659000Y-8996000D01*
X10754000Y-6481000D02*
X10794000Y-6521000D01*
X10794000Y-6481000D02*
X10754000Y-6521000D01*
X10754000Y-8891000D02*
X10794000Y-8931000D01*
X10794000Y-8891000D02*
X10754000Y-8931000D01*
X10803999Y-11956000D02*
X10843999Y-11996000D01*
X10843999Y-11956000D02*
X10803999Y-11996000D01*
X10804000Y-11581000D02*
X10844000Y-11621000D01*
X10844000Y-11581000D02*
X10804000Y-11621000D01*
X10804000Y-11831000D02*
X10844000Y-11871000D01*
X10844000Y-11831000D02*
X10804000Y-11871000D01*
X10804000Y-12078499D02*
X10844000Y-12118499D01*
X10844000Y-12078499D02*
X10804000Y-12118499D01*
X10844000Y-8826000D02*
X10884000Y-8866000D01*
X10884000Y-8826000D02*
X10844000Y-8866000D01*
X10874000Y-10796000D02*
X10914000Y-10836000D01*
X10914000Y-10796000D02*
X10874000Y-10836000D01*
X11059000Y-6481000D02*
X11099000Y-6521000D01*
X11099000Y-6481000D02*
X11059000Y-6521000D01*
X11307100Y-8227900D02*
X11347100Y-8267900D01*
X11347100Y-8227900D02*
X11307100Y-8267900D01*
X11434000Y-7641000D02*
X11474000Y-7681000D01*
X11474000Y-7641000D02*
X11434000Y-7681000D01*
X11434100Y-8330900D02*
X11474100Y-8370900D01*
X11474100Y-8330900D02*
X11434100Y-8370900D01*
X11444000Y-10451000D02*
X11484000Y-10491000D01*
X11484000Y-10451000D02*
X11444000Y-10491000D01*
X11469000Y-10691000D02*
X11509000Y-10731000D01*
X11509000Y-10691000D02*
X11469000Y-10731000D01*
X11554000Y-12211000D02*
X11594000Y-12251000D01*
X11594000Y-12211000D02*
X11554000Y-12251000D01*
X11606101Y-9065999D02*
X11646101Y-9105999D01*
X11646101Y-9065999D02*
X11606101Y-9105999D01*
X11644000Y-11835533D02*
X11684000Y-11875533D01*
X11684000Y-11835533D02*
X11644000Y-11875533D01*
X11729000Y-11706000D02*
X11769000Y-11746000D01*
X11769000Y-11706000D02*
X11729000Y-11746000D01*
X11794000Y-9066000D02*
X11834000Y-9106000D01*
X11834000Y-9066000D02*
X11794000Y-9106000D01*
X11814000Y-11446000D02*
X11854000Y-11486000D01*
X11854000Y-11446000D02*
X11814000Y-11486000D01*
X11899000Y-11951000D02*
X11939000Y-11991000D01*
X11939000Y-11951000D02*
X11899000Y-11991000D01*
X11994000Y-11551000D02*
X12034000Y-11591000D01*
X12034000Y-11551000D02*
X11994000Y-11591000D01*
X12064000Y-10231000D02*
X12104000Y-10271000D01*
X12104000Y-10231000D02*
X12064000Y-10271000D01*
X12079000Y-11651000D02*
X12119000Y-11691000D01*
X12119000Y-11651000D02*
X12079000Y-11691000D01*
X12154000Y-8916000D02*
X12194000Y-8956000D01*
X12194000Y-8916000D02*
X12154000Y-8956000D01*
X12169000Y-11751000D02*
X12209000Y-11791000D01*
X12209000Y-11751000D02*
X12169000Y-11791000D01*
X12259000Y-11351000D02*
X12299000Y-11391000D01*
X12299000Y-11351000D02*
X12259000Y-11391000D01*
X12299001Y-8321000D02*
X12339001Y-8361000D01*
X12339001Y-8321000D02*
X12299001Y-8361000D01*
X12379001Y-9586000D02*
X12419001Y-9626000D01*
X12419001Y-9586000D02*
X12379001Y-9626000D01*
X12579000Y-10746000D02*
X12619000Y-10786000D01*
X12619000Y-10746000D02*
X12579000Y-10786000D01*
X12664000Y-10951000D02*
X12704000Y-10991000D01*
X12704000Y-10951000D02*
X12664000Y-10991000D01*
X12964000Y-11151000D02*
X13004000Y-11191000D01*
X13004000Y-11151000D02*
X12964000Y-11191000D01*
X13089000Y-10546000D02*
X13129000Y-10586000D01*
X13129000Y-10546000D02*
X13089000Y-10586000D01*
X13344000Y-10651000D02*
X13384000Y-10691000D01*
X13384000Y-10651000D02*
X13344000Y-10691000D01*
X13344000Y-11546000D02*
X13384000Y-11586000D01*
X13384000Y-11546000D02*
X13344000Y-11586000D01*
X13599000Y-11001000D02*
X13639000Y-11041000D01*
X13639000Y-11001000D02*
X13599000Y-11041000D01*
X13599000Y-11351000D02*
X13639000Y-11391000D01*
X13639000Y-11351000D02*
X13599000Y-11391000D01*
X14179000Y-10551000D02*
X14219000Y-10591000D01*
X14219000Y-10551000D02*
X14179000Y-10591000D01*
X14299000Y-9931000D02*
X14339000Y-9971000D01*
X14339000Y-9931000D02*
X14299000Y-9971000D01*
X14403895Y-9646105D02*
X14443895Y-9686105D01*
X14443895Y-9646105D02*
X14403895Y-9686105D01*
X14404000Y-11151000D02*
X14444000Y-11191000D01*
X14444000Y-11151000D02*
X14404000Y-11191000D01*
X14774000Y-11161000D02*
X14814000Y-11201000D01*
X14814000Y-11161000D02*
X14774000Y-11201000D01*
X14794000Y-11471000D02*
X14834000Y-11511000D01*
X14834000Y-11471000D02*
X14794000Y-11511000D01*
X14794000Y-11591000D02*
X14834000Y-11631000D01*
X14834000Y-11591000D02*
X14794000Y-11631000D01*
X15624000Y-10721000D02*
X15664000Y-10761000D01*
X15664000Y-10721000D02*
X15624000Y-10761000D01*
X16239000Y-10036000D02*
X16279000Y-10076000D01*
X16279000Y-10036000D02*
X16239000Y-10076000D01*
X15930500Y-11482000D02*
G75*
G03X15930500Y-11482000I-31500J0D01*
G01*
X15930500Y-11970000D02*
G75*
G03X15930500Y-11970000I-31500J0D01*
G01*
X14754000Y-11966000D02*
X14754000Y-12036000D01*
X14719000Y-12001000D02*
X14789000Y-12001000D01*
X14779000Y-12061000D02*
X14779000Y-11941000D01*
X14729000Y-12061000D02*
X14729000Y-11941000D01*
X14779000Y-11941000D02*
G75*
G03X14729000Y-11941000I-25000J0D01*
G01*
X14729000Y-12061000D02*
G75*
G03X14779000Y-12061000I25000J0D01*
G01*
X14754000Y-12416000D02*
X14754000Y-12486000D01*
X14719000Y-12451000D02*
X14789000Y-12451000D01*
X14779000Y-12511000D02*
X14779000Y-12391000D01*
X14729000Y-12511000D02*
X14729000Y-12391000D01*
X14779000Y-12391000D02*
G75*
G03X14729000Y-12391000I-25000J0D01*
G01*
X14729000Y-12511000D02*
G75*
G03X14779000Y-12511000I25000J0D01*
G01*
X14959000Y-11911000D02*
X14959000Y-11981000D01*
X14924000Y-11946000D02*
X14994000Y-11946000D01*
X15039000Y-12031000D02*
X15039000Y-12101000D01*
X15004000Y-12066000D02*
X15074000Y-12066000D01*
X15119000Y-11911000D02*
X15119000Y-11981000D01*
X15084000Y-11946000D02*
X15154000Y-11946000D01*
X15199000Y-12031000D02*
X15199000Y-12101000D01*
X15164000Y-12066000D02*
X15234000Y-12066000D01*
X15279000Y-11911000D02*
X15279000Y-11981000D01*
X15244000Y-11946000D02*
X15314000Y-11946000D01*
X15484000Y-11966000D02*
X15484000Y-12036000D01*
X15449000Y-12001000D02*
X15519000Y-12001000D01*
X15509000Y-12061000D02*
X15509000Y-11941000D01*
X15459000Y-12061000D02*
X15459000Y-11941000D01*
X15509000Y-11941000D02*
G75*
G03X15459000Y-11941000I-25000J0D01*
G01*
X15459000Y-12061000D02*
G75*
G03X15509000Y-12061000I25000J0D01*
G01*
X15484000Y-12416000D02*
X15484000Y-12486000D01*
X15449000Y-12451000D02*
X15519000Y-12451000D01*
X15509000Y-12511000D02*
X15509000Y-12391000D01*
X15459000Y-12511000D02*
X15459000Y-12391000D01*
X15509000Y-12391000D02*
G75*
G03X15459000Y-12391000I-25000J0D01*
G01*
X15459000Y-12511000D02*
G75*
G03X15509000Y-12511000I25000J0D01*
G01*
X14975941Y-6682941D02*
X14975941Y-6629059D01*
X14922059Y-6629059D01*
X14922059Y-6682941D01*
X14975941Y-6682941D01*
X14975941Y-6882941D02*
X14975941Y-6829059D01*
X14922059Y-6829059D01*
X14922059Y-6882941D01*
X14975941Y-6882941D01*
X14975941Y-7082941D02*
X14975941Y-7029059D01*
X14922059Y-7029059D01*
X14922059Y-7082941D01*
X14975941Y-7082941D01*
X14975941Y-7282941D02*
X14975941Y-7229059D01*
X14922059Y-7229059D01*
X14922059Y-7282941D01*
X14975941Y-7282941D01*
X10389000Y-7511000D02*
X10429000Y-7471000D01*
X10389000Y-7431000D01*
X10349000Y-7471000D01*
X10389000Y-7511000D01*
X10389000Y-8121000D02*
X10429000Y-8081000D01*
X10389000Y-8041000D01*
X10349000Y-8081000D01*
X10389000Y-8121000D01*
X13779000Y-9471000D02*
X13819000Y-9431000D01*
X13779000Y-9391000D01*
X13739000Y-9431000D01*
X13779000Y-9471000D01*
X14564000Y-11421000D02*
X14604000Y-11381000D01*
X14564000Y-11341000D01*
X14524000Y-11381000D01*
X14564000Y-11421000D01*
X15844000Y-7411000D02*
X15884000Y-7371000D01*
X15844000Y-7331000D01*
X15804000Y-7371000D01*
X15844000Y-7411000D01*
X15844000Y-7611000D02*
X15884000Y-7571000D01*
X15844000Y-7531000D01*
X15804000Y-7571000D01*
X15844000Y-7611000D01*
X12734000Y-8636000D02*
X12774000Y-8596000D01*
X12734000Y-8556000D01*
X12694000Y-8596000D01*
X12734000Y-8636000D01*
X13750000Y-8636000D02*
X13790000Y-8596000D01*
X13750000Y-8556000D01*
X13710000Y-8596000D01*
X13750000Y-8636000D01*
X14908360Y-8985360D02*
X14989640Y-9066640D01*
X14989640Y-8985360D02*
X14908360Y-9066640D01*
X14989640Y-9026000D02*
G75*
G03X14989640Y-9026000I-40640J0D01*
G01*
X14908360Y-9185360D02*
X14989640Y-9266640D01*
X14989640Y-9185360D02*
X14908360Y-9266640D01*
X14989640Y-9226000D02*
G75*
G03X14989640Y-9226000I-40640J0D01*
G01*
X14908360Y-7675360D02*
X14989640Y-7756640D01*
X14989640Y-7675360D02*
X14908360Y-7756640D01*
X14989640Y-7716000D02*
G75*
G03X14989640Y-7716000I-40640J0D01*
G01*
X14908360Y-7875360D02*
X14989640Y-7956640D01*
X14989640Y-7875360D02*
X14908360Y-7956640D01*
X14989640Y-7916000D02*
G75*
G03X14989640Y-7916000I-40640J0D01*
G01*
X14908360Y-8330360D02*
X14989640Y-8411640D01*
X14989640Y-8330360D02*
X14908360Y-8411640D01*
X14989640Y-8371000D02*
G75*
G03X14989640Y-8371000I-40640J0D01*
G01*
X14908360Y-8530360D02*
X14989640Y-8611640D01*
X14989640Y-8530360D02*
X14908360Y-8611640D01*
X14989640Y-8571000D02*
G75*
G03X14989640Y-8571000I-40640J0D01*
G01*
X15679000Y-9306000D02*
X15769000Y-9396000D01*
X15769000Y-9306000D02*
X15679000Y-9396000D01*
X15724000Y-9306000D02*
X15724000Y-9396000D01*
X15679000Y-9351000D02*
X15769000Y-9351000D01*
X15933000Y-9306000D02*
X16023000Y-9396000D01*
X16023000Y-9306000D02*
X15933000Y-9396000D01*
X15978000Y-9306000D02*
X15978000Y-9396000D01*
X15933000Y-9351000D02*
X16023000Y-9351000D01*
X15794000Y-8167000D02*
X15894000Y-8267000D01*
X15894000Y-8167000D02*
X15794000Y-8267000D01*
X15879356Y-8252356D02*
X15879356Y-8181644D01*
X15808644Y-8181644D01*
X15808644Y-8252356D01*
X15879356Y-8252356D01*
X15794000Y-8421000D02*
X15894000Y-8521000D01*
X15894000Y-8421000D02*
X15794000Y-8521000D01*
X15879356Y-8506356D02*
X15879356Y-8435644D01*
X15808644Y-8435644D01*
X15808644Y-8506356D01*
X15879356Y-8506356D01*
X15794000Y-8675000D02*
X15894000Y-8775000D01*
X15894000Y-8675000D02*
X15794000Y-8775000D01*
X15879356Y-8760356D02*
X15879356Y-8689644D01*
X15808644Y-8689644D01*
X15808644Y-8760356D01*
X15879356Y-8760356D01*
X12294200Y-9900200D02*
X12395800Y-10001800D01*
X12395800Y-9900200D02*
X12294200Y-10001800D01*
X12345000Y-10001800D02*
X12395800Y-9951000D01*
X12345000Y-9900200D01*
X12294200Y-9951000D01*
X12345000Y-10001800D01*
X12548200Y-9900200D02*
X12649800Y-10001800D01*
X12649800Y-9900200D02*
X12548200Y-10001800D01*
X12599000Y-10001800D02*
X12649800Y-9951000D01*
X12599000Y-9900200D01*
X12548200Y-9951000D01*
X12599000Y-10001800D01*
X12802200Y-9900200D02*
X12903800Y-10001800D01*
X12903800Y-9900200D02*
X12802200Y-10001800D01*
X12853000Y-10001800D02*
X12903800Y-9951000D01*
X12853000Y-9900200D01*
X12802200Y-9951000D01*
X12853000Y-10001800D01*
X13056200Y-9900200D02*
X13157800Y-10001800D01*
X13157800Y-9900200D02*
X13056200Y-10001800D01*
X13107000Y-10001800D02*
X13157800Y-9951000D01*
X13107000Y-9900200D01*
X13056200Y-9951000D01*
X13107000Y-10001800D01*
X13310200Y-9900200D02*
X13411800Y-10001800D01*
X13411800Y-9900200D02*
X13310200Y-10001800D01*
X13361000Y-10001800D02*
X13411800Y-9951000D01*
X13361000Y-9900200D01*
X13310200Y-9951000D01*
X13361000Y-10001800D01*
X13564200Y-9900200D02*
X13665800Y-10001800D01*
X13665800Y-9900200D02*
X13564200Y-10001800D01*
X13615000Y-10001800D02*
X13665800Y-9951000D01*
X13615000Y-9900200D01*
X13564200Y-9951000D01*
X13615000Y-10001800D01*
X13818200Y-9900200D02*
X13919800Y-10001800D01*
X13919800Y-9900200D02*
X13818200Y-10001800D01*
X13869000Y-10001800D02*
X13919800Y-9951000D01*
X13869000Y-9900200D01*
X13818200Y-9951000D01*
X13869000Y-10001800D01*
X14072200Y-9900200D02*
X14173800Y-10001800D01*
X14173800Y-9900200D02*
X14072200Y-10001800D01*
X14123000Y-10001800D02*
X14173800Y-9951000D01*
X14123000Y-9900200D01*
X14072200Y-9951000D01*
X14123000Y-10001800D01*
X12802200Y-10220200D02*
X12903800Y-10321800D01*
X12903800Y-10220200D02*
X12802200Y-10321800D01*
X12853000Y-10321800D02*
X12903800Y-10271000D01*
X12853000Y-10220200D01*
X12802200Y-10271000D01*
X12853000Y-10321800D01*
X13056200Y-10220200D02*
X13157800Y-10321800D01*
X13157800Y-10220200D02*
X13056200Y-10321800D01*
X13107000Y-10321800D02*
X13157800Y-10271000D01*
X13107000Y-10220200D01*
X13056200Y-10271000D01*
X13107000Y-10321800D01*
X13310200Y-10220200D02*
X13411800Y-10321800D01*
X13411800Y-10220200D02*
X13310200Y-10321800D01*
X13361000Y-10321800D02*
X13411800Y-10271000D01*
X13361000Y-10220200D01*
X13310200Y-10271000D01*
X13361000Y-10321800D01*
X13564200Y-10220200D02*
X13665800Y-10321800D01*
X13665800Y-10220200D02*
X13564200Y-10321800D01*
X13615000Y-10321800D02*
X13665800Y-10271000D01*
X13615000Y-10220200D01*
X13564200Y-10271000D01*
X13615000Y-10321800D01*
X12235000Y-6826000D02*
X12235000Y-7076000D01*
X12110000Y-6951000D02*
X12360000Y-6951000D01*
X12360000Y-6951000D02*
G75*
G03X12360000Y-6951000I-125000J0D01*
G01*
X14233000Y-6826000D02*
X14233000Y-7076000D01*
X14108000Y-6951000D02*
X14358000Y-6951000D01*
X14358000Y-6951000D02*
G75*
G03X14358000Y-6951000I-125000J0D01*
G01*
X12091000Y-12516000D02*
X12091000Y-12766000D01*
X11966000Y-12641000D02*
X12216000Y-12641000D01*
X12216000Y-12641000D02*
G75*
G03X12216000Y-12641000I-125000J0D01*
G01*
X14377000Y-12516000D02*
X14377000Y-12766000D01*
X14252000Y-12641000D02*
X14502000Y-12641000D01*
X14502000Y-12641000D02*
G75*
G03X14502000Y-12641000I-125000J0D01*
G01*
X13799691Y-8116691D02*
X13799691Y-6985309D01*
X12668309Y-6985309D01*
X12668309Y-8116691D01*
X13799691Y-8116691D01*
X14034000Y-7551000D02*
G75*
G03X14034000Y-7551000I-800000J0D01*
G01*
D12*
X10267928Y-13309214D02*
X10267928Y-13009214D01*
X10339357Y-13009214D01*
X10382214Y-13023500D01*
X10410786Y-13052071D01*
X10425071Y-13080643D01*
X10439357Y-13137786D01*
X10439357Y-13180643D01*
X10425071Y-13237786D01*
X10410786Y-13266357D01*
X10382214Y-13294929D01*
X10339357Y-13309214D01*
X10267928Y-13309214D01*
X10567928Y-13309214D02*
X10567928Y-13109214D01*
X10567928Y-13166357D02*
X10582214Y-13137786D01*
X10596500Y-13123500D01*
X10625071Y-13109214D01*
X10653643Y-13109214D01*
X10753643Y-13309214D02*
X10753643Y-13109214D01*
X10753643Y-13009214D02*
X10739357Y-13023500D01*
X10753643Y-13037786D01*
X10767928Y-13023500D01*
X10753643Y-13009214D01*
X10753643Y-13037786D01*
X10939357Y-13309214D02*
X10910786Y-13294929D01*
X10896500Y-13266357D01*
X10896500Y-13009214D01*
X11096500Y-13309214D02*
X11067928Y-13294929D01*
X11053643Y-13266357D01*
X11053643Y-13009214D01*
X11439357Y-13309214D02*
X11439357Y-13009214D01*
X11539357Y-13223500D01*
X11639357Y-13009214D01*
X11639357Y-13309214D01*
X11910786Y-13309214D02*
X11910786Y-13152071D01*
X11896500Y-13123500D01*
X11867928Y-13109214D01*
X11810786Y-13109214D01*
X11782214Y-13123500D01*
X11910786Y-13294929D02*
X11882214Y-13309214D01*
X11810786Y-13309214D01*
X11782214Y-13294929D01*
X11767928Y-13266357D01*
X11767928Y-13237786D01*
X11782214Y-13209214D01*
X11810786Y-13194929D01*
X11882214Y-13194929D01*
X11910786Y-13180643D01*
X12053643Y-13109214D02*
X12053643Y-13409214D01*
X12053643Y-13123500D02*
X12082214Y-13109214D01*
X12139357Y-13109214D01*
X12167928Y-13123500D01*
X12182214Y-13137786D01*
X12196500Y-13166357D01*
X12196500Y-13252071D01*
X12182214Y-13280643D01*
X12167928Y-13294929D01*
X12139357Y-13309214D01*
X12082214Y-13309214D01*
X12053643Y-13294929D01*
X12325071Y-13280643D02*
X12339357Y-13294929D01*
X12325071Y-13309214D01*
X12310786Y-13294929D01*
X12325071Y-13280643D01*
X12325071Y-13309214D01*
X12325071Y-13123500D02*
X12339357Y-13137786D01*
X12325071Y-13152071D01*
X12310786Y-13137786D01*
X12325071Y-13123500D01*
X12325071Y-13152071D01*
X9941500Y-13783500D02*
X9981500Y-13823500D01*
X9981500Y-13783500D02*
X9941500Y-13823500D01*
X10325071Y-13639214D02*
X10353643Y-13639214D01*
X10382214Y-13653500D01*
X10396500Y-13667786D01*
X10410786Y-13696357D01*
X10425071Y-13753500D01*
X10425071Y-13824929D01*
X10410786Y-13882071D01*
X10396500Y-13910643D01*
X10382214Y-13924929D01*
X10353643Y-13939214D01*
X10325071Y-13939214D01*
X10296500Y-13924929D01*
X10282214Y-13910643D01*
X10267928Y-13882071D01*
X10253643Y-13824929D01*
X10253643Y-13753500D01*
X10267928Y-13696357D01*
X10282214Y-13667786D01*
X10296500Y-13653500D01*
X10325071Y-13639214D01*
X10553643Y-13910643D02*
X10567928Y-13924929D01*
X10553643Y-13939214D01*
X10539357Y-13924929D01*
X10553643Y-13910643D01*
X10553643Y-13939214D01*
X10825071Y-13739214D02*
X10825071Y-13939214D01*
X10753643Y-13624929D02*
X10682214Y-13839214D01*
X10867928Y-13839214D01*
X11039357Y-13639214D02*
X11067928Y-13639214D01*
X11096500Y-13653500D01*
X11110786Y-13667786D01*
X11125071Y-13696357D01*
X11139357Y-13753500D01*
X11139357Y-13824929D01*
X11125071Y-13882071D01*
X11110786Y-13910643D01*
X11096500Y-13924929D01*
X11067928Y-13939214D01*
X11039357Y-13939214D01*
X11010786Y-13924929D01*
X10996500Y-13910643D01*
X10982214Y-13882071D01*
X10967928Y-13824929D01*
X10967928Y-13753500D01*
X10982214Y-13696357D01*
X10996500Y-13667786D01*
X11010786Y-13653500D01*
X11039357Y-13639214D01*
X11267928Y-13939214D02*
X11267928Y-13739214D01*
X11267928Y-13767786D02*
X11282214Y-13753500D01*
X11310786Y-13739214D01*
X11353643Y-13739214D01*
X11382214Y-13753500D01*
X11396500Y-13782071D01*
X11396500Y-13939214D01*
X11396500Y-13782071D02*
X11410786Y-13753500D01*
X11439357Y-13739214D01*
X11482214Y-13739214D01*
X11510786Y-13753500D01*
X11525071Y-13782071D01*
X11525071Y-13939214D01*
X11667928Y-13939214D02*
X11667928Y-13739214D01*
X11667928Y-13767786D02*
X11682214Y-13753500D01*
X11710786Y-13739214D01*
X11753643Y-13739214D01*
X11782214Y-13753500D01*
X11796500Y-13782071D01*
X11796500Y-13939214D01*
X11796500Y-13782071D02*
X11810786Y-13753500D01*
X11839357Y-13739214D01*
X11882214Y-13739214D01*
X11910786Y-13753500D01*
X11925071Y-13782071D01*
X11925071Y-13939214D01*
X12510786Y-13624929D02*
X12253643Y-14010643D01*
X12896500Y-13639214D02*
X12925071Y-13639214D01*
X12953643Y-13653500D01*
X12967928Y-13667786D01*
X12982214Y-13696357D01*
X12996500Y-13753500D01*
X12996500Y-13824929D01*
X12982214Y-13882071D01*
X12967928Y-13910643D01*
X12953643Y-13924929D01*
X12925071Y-13939214D01*
X12896500Y-13939214D01*
X12867928Y-13924929D01*
X12853643Y-13910643D01*
X12839357Y-13882071D01*
X12825071Y-13824929D01*
X12825071Y-13753500D01*
X12839357Y-13696357D01*
X12853643Y-13667786D01*
X12867928Y-13653500D01*
X12896500Y-13639214D01*
X13125071Y-13910643D02*
X13139357Y-13924929D01*
X13125071Y-13939214D01*
X13110786Y-13924929D01*
X13125071Y-13910643D01*
X13125071Y-13939214D01*
X13325071Y-13639214D02*
X13353643Y-13639214D01*
X13382214Y-13653500D01*
X13396500Y-13667786D01*
X13410786Y-13696357D01*
X13425071Y-13753500D01*
X13425071Y-13824929D01*
X13410786Y-13882071D01*
X13396500Y-13910643D01*
X13382214Y-13924929D01*
X13353643Y-13939214D01*
X13325071Y-13939214D01*
X13296500Y-13924929D01*
X13282214Y-13910643D01*
X13267928Y-13882071D01*
X13253643Y-13824929D01*
X13253643Y-13753500D01*
X13267928Y-13696357D01*
X13282214Y-13667786D01*
X13296500Y-13653500D01*
X13325071Y-13639214D01*
X13710786Y-13939214D02*
X13539357Y-13939214D01*
X13625071Y-13939214D02*
X13625071Y-13639214D01*
X13596500Y-13682071D01*
X13567928Y-13710643D01*
X13539357Y-13724929D01*
X13967928Y-13639214D02*
X13910786Y-13639214D01*
X13882214Y-13653500D01*
X13867928Y-13667786D01*
X13839357Y-13710643D01*
X13825071Y-13767786D01*
X13825071Y-13882071D01*
X13839357Y-13910643D01*
X13853643Y-13924929D01*
X13882214Y-13939214D01*
X13939357Y-13939214D01*
X13967928Y-13924929D01*
X13982214Y-13910643D01*
X13996500Y-13882071D01*
X13996500Y-13810643D01*
X13982214Y-13782071D01*
X13967928Y-13767786D01*
X13939357Y-13753500D01*
X13882214Y-13753500D01*
X13853643Y-13767786D01*
X13839357Y-13782071D01*
X13825071Y-13810643D01*
X14110786Y-13639214D02*
X14110786Y-13696357D01*
X14225071Y-13639214D02*
X14225071Y-13696357D01*
X14667928Y-14053500D02*
X14653643Y-14039214D01*
X14625071Y-13996357D01*
X14610786Y-13967786D01*
X14596500Y-13924929D01*
X14582214Y-13853500D01*
X14582214Y-13796357D01*
X14596500Y-13724929D01*
X14610786Y-13682071D01*
X14625071Y-13653500D01*
X14653643Y-13610643D01*
X14667928Y-13596357D01*
X14925071Y-13639214D02*
X14782214Y-13639214D01*
X14767928Y-13782071D01*
X14782214Y-13767786D01*
X14810786Y-13753500D01*
X14882214Y-13753500D01*
X14910786Y-13767786D01*
X14925071Y-13782071D01*
X14939357Y-13810643D01*
X14939357Y-13882071D01*
X14925071Y-13910643D01*
X14910786Y-13924929D01*
X14882214Y-13939214D01*
X14810786Y-13939214D01*
X14782214Y-13924929D01*
X14767928Y-13910643D01*
X15196500Y-13639214D02*
X15139357Y-13639214D01*
X15110786Y-13653500D01*
X15096500Y-13667786D01*
X15067928Y-13710643D01*
X15053643Y-13767786D01*
X15053643Y-13882071D01*
X15067928Y-13910643D01*
X15082214Y-13924929D01*
X15110786Y-13939214D01*
X15167928Y-13939214D01*
X15196500Y-13924929D01*
X15210786Y-13910643D01*
X15225071Y-13882071D01*
X15225071Y-13810643D01*
X15210786Y-13782071D01*
X15196500Y-13767786D01*
X15167928Y-13753500D01*
X15110786Y-13753500D01*
X15082214Y-13767786D01*
X15067928Y-13782071D01*
X15053643Y-13810643D01*
X15582214Y-13939214D02*
X15582214Y-13639214D01*
X15710786Y-13939214D02*
X15710786Y-13782071D01*
X15696500Y-13753500D01*
X15667928Y-13739214D01*
X15625071Y-13739214D01*
X15596500Y-13753500D01*
X15582214Y-13767786D01*
X15896500Y-13939214D02*
X15867928Y-13924929D01*
X15853643Y-13910643D01*
X15839357Y-13882071D01*
X15839357Y-13796357D01*
X15853643Y-13767786D01*
X15867928Y-13753500D01*
X15896500Y-13739214D01*
X15939357Y-13739214D01*
X15967928Y-13753500D01*
X15982214Y-13767786D01*
X15996500Y-13796357D01*
X15996500Y-13882071D01*
X15982214Y-13910643D01*
X15967928Y-13924929D01*
X15939357Y-13939214D01*
X15896500Y-13939214D01*
X16167928Y-13939214D02*
X16139357Y-13924929D01*
X16125071Y-13896357D01*
X16125071Y-13639214D01*
X16396500Y-13924929D02*
X16367928Y-13939214D01*
X16310786Y-13939214D01*
X16282214Y-13924929D01*
X16267928Y-13896357D01*
X16267928Y-13782071D01*
X16282214Y-13753500D01*
X16310786Y-13739214D01*
X16367928Y-13739214D01*
X16396500Y-13753500D01*
X16410786Y-13782071D01*
X16410786Y-13810643D01*
X16267928Y-13839214D01*
X16525071Y-13924929D02*
X16553643Y-13939214D01*
X16610786Y-13939214D01*
X16639357Y-13924929D01*
X16653643Y-13896357D01*
X16653643Y-13882071D01*
X16639357Y-13853500D01*
X16610786Y-13839214D01*
X16567928Y-13839214D01*
X16539357Y-13824929D01*
X16525071Y-13796357D01*
X16525071Y-13782071D01*
X16539357Y-13753500D01*
X16567928Y-13739214D01*
X16610786Y-13739214D01*
X16639357Y-13753500D01*
X16753643Y-14053500D02*
X16767928Y-14039214D01*
X16796500Y-13996357D01*
X16810786Y-13967786D01*
X16825071Y-13924929D01*
X16839357Y-13853500D01*
X16839357Y-13796357D01*
X16825071Y-13724929D01*
X16810786Y-13682071D01*
X16796500Y-13653500D01*
X16767928Y-13610643D01*
X16753643Y-13596357D01*
X9981500Y-14199500D02*
G75*
G03X9981500Y-14199500I-31500J0D01*
G01*
X10325071Y-14035214D02*
X10353643Y-14035214D01*
X10382214Y-14049500D01*
X10396500Y-14063786D01*
X10410786Y-14092357D01*
X10425071Y-14149500D01*
X10425071Y-14220929D01*
X10410786Y-14278071D01*
X10396500Y-14306643D01*
X10382214Y-14320929D01*
X10353643Y-14335214D01*
X10325071Y-14335214D01*
X10296500Y-14320929D01*
X10282214Y-14306643D01*
X10267928Y-14278071D01*
X10253643Y-14220929D01*
X10253643Y-14149500D01*
X10267928Y-14092357D01*
X10282214Y-14063786D01*
X10296500Y-14049500D01*
X10325071Y-14035214D01*
X10553643Y-14306643D02*
X10567928Y-14320929D01*
X10553643Y-14335214D01*
X10539357Y-14320929D01*
X10553643Y-14306643D01*
X10553643Y-14335214D01*
X10825071Y-14035214D02*
X10767928Y-14035214D01*
X10739357Y-14049500D01*
X10725071Y-14063786D01*
X10696500Y-14106643D01*
X10682214Y-14163786D01*
X10682214Y-14278071D01*
X10696500Y-14306643D01*
X10710786Y-14320929D01*
X10739357Y-14335214D01*
X10796500Y-14335214D01*
X10825071Y-14320929D01*
X10839357Y-14306643D01*
X10853643Y-14278071D01*
X10853643Y-14206643D01*
X10839357Y-14178071D01*
X10825071Y-14163786D01*
X10796500Y-14149500D01*
X10739357Y-14149500D01*
X10710786Y-14163786D01*
X10696500Y-14178071D01*
X10682214Y-14206643D01*
X10953643Y-14035214D02*
X11139357Y-14035214D01*
X11039357Y-14149500D01*
X11082214Y-14149500D01*
X11110786Y-14163786D01*
X11125071Y-14178071D01*
X11139357Y-14206643D01*
X11139357Y-14278071D01*
X11125071Y-14306643D01*
X11110786Y-14320929D01*
X11082214Y-14335214D01*
X10996500Y-14335214D01*
X10967928Y-14320929D01*
X10953643Y-14306643D01*
X11267928Y-14335214D02*
X11267928Y-14135214D01*
X11267928Y-14163786D02*
X11282214Y-14149500D01*
X11310786Y-14135214D01*
X11353643Y-14135214D01*
X11382214Y-14149500D01*
X11396500Y-14178071D01*
X11396500Y-14335214D01*
X11396500Y-14178071D02*
X11410786Y-14149500D01*
X11439357Y-14135214D01*
X11482214Y-14135214D01*
X11510786Y-14149500D01*
X11525071Y-14178071D01*
X11525071Y-14335214D01*
X11667928Y-14335214D02*
X11667928Y-14135214D01*
X11667928Y-14163786D02*
X11682214Y-14149500D01*
X11710786Y-14135214D01*
X11753643Y-14135214D01*
X11782214Y-14149500D01*
X11796500Y-14178071D01*
X11796500Y-14335214D01*
X11796500Y-14178071D02*
X11810786Y-14149500D01*
X11839357Y-14135214D01*
X11882214Y-14135214D01*
X11910786Y-14149500D01*
X11925071Y-14178071D01*
X11925071Y-14335214D01*
X12510786Y-14020929D02*
X12253643Y-14406643D01*
X12896500Y-14035214D02*
X12925071Y-14035214D01*
X12953643Y-14049500D01*
X12967928Y-14063786D01*
X12982214Y-14092357D01*
X12996500Y-14149500D01*
X12996500Y-14220929D01*
X12982214Y-14278071D01*
X12967928Y-14306643D01*
X12953643Y-14320929D01*
X12925071Y-14335214D01*
X12896500Y-14335214D01*
X12867928Y-14320929D01*
X12853643Y-14306643D01*
X12839357Y-14278071D01*
X12825071Y-14220929D01*
X12825071Y-14149500D01*
X12839357Y-14092357D01*
X12853643Y-14063786D01*
X12867928Y-14049500D01*
X12896500Y-14035214D01*
X13125071Y-14306643D02*
X13139357Y-14320929D01*
X13125071Y-14335214D01*
X13110786Y-14320929D01*
X13125071Y-14306643D01*
X13125071Y-14335214D01*
X13325071Y-14035214D02*
X13353643Y-14035214D01*
X13382214Y-14049500D01*
X13396500Y-14063786D01*
X13410786Y-14092357D01*
X13425071Y-14149500D01*
X13425071Y-14220929D01*
X13410786Y-14278071D01*
X13396500Y-14306643D01*
X13382214Y-14320929D01*
X13353643Y-14335214D01*
X13325071Y-14335214D01*
X13296500Y-14320929D01*
X13282214Y-14306643D01*
X13267928Y-14278071D01*
X13253643Y-14220929D01*
X13253643Y-14149500D01*
X13267928Y-14092357D01*
X13282214Y-14063786D01*
X13296500Y-14049500D01*
X13325071Y-14035214D01*
X13539357Y-14063786D02*
X13553643Y-14049500D01*
X13582214Y-14035214D01*
X13653643Y-14035214D01*
X13682214Y-14049500D01*
X13696500Y-14063786D01*
X13710786Y-14092357D01*
X13710786Y-14120929D01*
X13696500Y-14163786D01*
X13525071Y-14335214D01*
X13710786Y-14335214D01*
X13982214Y-14035214D02*
X13839357Y-14035214D01*
X13825071Y-14178071D01*
X13839357Y-14163786D01*
X13867928Y-14149500D01*
X13939357Y-14149500D01*
X13967928Y-14163786D01*
X13982214Y-14178071D01*
X13996500Y-14206643D01*
X13996500Y-14278071D01*
X13982214Y-14306643D01*
X13967928Y-14320929D01*
X13939357Y-14335214D01*
X13867928Y-14335214D01*
X13839357Y-14320929D01*
X13825071Y-14306643D01*
X14110786Y-14035214D02*
X14110786Y-14092357D01*
X14225071Y-14035214D02*
X14225071Y-14092357D01*
X14667928Y-14449500D02*
X14653643Y-14435214D01*
X14625071Y-14392357D01*
X14610786Y-14363786D01*
X14596500Y-14320929D01*
X14582214Y-14249500D01*
X14582214Y-14192357D01*
X14596500Y-14120929D01*
X14610786Y-14078071D01*
X14625071Y-14049500D01*
X14653643Y-14006643D01*
X14667928Y-13992357D01*
X14767928Y-14063786D02*
X14782214Y-14049500D01*
X14810786Y-14035214D01*
X14882214Y-14035214D01*
X14910786Y-14049500D01*
X14925071Y-14063786D01*
X14939357Y-14092357D01*
X14939357Y-14120929D01*
X14925071Y-14163786D01*
X14753643Y-14335214D01*
X14939357Y-14335214D01*
X15296500Y-14335214D02*
X15296500Y-14035214D01*
X15425071Y-14335214D02*
X15425071Y-14178071D01*
X15410786Y-14149500D01*
X15382214Y-14135214D01*
X15339357Y-14135214D01*
X15310786Y-14149500D01*
X15296500Y-14163786D01*
X15610786Y-14335214D02*
X15582214Y-14320929D01*
X15567928Y-14306643D01*
X15553643Y-14278071D01*
X15553643Y-14192357D01*
X15567928Y-14163786D01*
X15582214Y-14149500D01*
X15610786Y-14135214D01*
X15653643Y-14135214D01*
X15682214Y-14149500D01*
X15696500Y-14163786D01*
X15710786Y-14192357D01*
X15710786Y-14278071D01*
X15696500Y-14306643D01*
X15682214Y-14320929D01*
X15653643Y-14335214D01*
X15610786Y-14335214D01*
X15882214Y-14335214D02*
X15853643Y-14320929D01*
X15839357Y-14292357D01*
X15839357Y-14035214D01*
X16110786Y-14320929D02*
X16082214Y-14335214D01*
X16025071Y-14335214D01*
X15996500Y-14320929D01*
X15982214Y-14292357D01*
X15982214Y-14178071D01*
X15996500Y-14149500D01*
X16025071Y-14135214D01*
X16082214Y-14135214D01*
X16110786Y-14149500D01*
X16125071Y-14178071D01*
X16125071Y-14206643D01*
X15982214Y-14235214D01*
X16239357Y-14320929D02*
X16267928Y-14335214D01*
X16325071Y-14335214D01*
X16353643Y-14320929D01*
X16367928Y-14292357D01*
X16367928Y-14278071D01*
X16353643Y-14249500D01*
X16325071Y-14235214D01*
X16282214Y-14235214D01*
X16253643Y-14220929D01*
X16239357Y-14192357D01*
X16239357Y-14178071D01*
X16253643Y-14149500D01*
X16282214Y-14135214D01*
X16325071Y-14135214D01*
X16353643Y-14149500D01*
X16467928Y-14449500D02*
X16482214Y-14435214D01*
X16510786Y-14392357D01*
X16525071Y-14363786D01*
X16539357Y-14320929D01*
X16553643Y-14249500D01*
X16553643Y-14192357D01*
X16539357Y-14120929D01*
X16525071Y-14078071D01*
X16510786Y-14049500D01*
X16482214Y-14006643D01*
X16467928Y-13992357D01*
X9946500Y-14560500D02*
X9946500Y-14630500D01*
X9911500Y-14595500D02*
X9981500Y-14595500D01*
X10325071Y-14431214D02*
X10353643Y-14431214D01*
X10382214Y-14445500D01*
X10396500Y-14459786D01*
X10410786Y-14488357D01*
X10425071Y-14545500D01*
X10425071Y-14616929D01*
X10410786Y-14674071D01*
X10396500Y-14702643D01*
X10382214Y-14716929D01*
X10353643Y-14731214D01*
X10325071Y-14731214D01*
X10296500Y-14716929D01*
X10282214Y-14702643D01*
X10267928Y-14674071D01*
X10253643Y-14616929D01*
X10253643Y-14545500D01*
X10267928Y-14488357D01*
X10282214Y-14459786D01*
X10296500Y-14445500D01*
X10325071Y-14431214D01*
X10553643Y-14702643D02*
X10567928Y-14716929D01*
X10553643Y-14731214D01*
X10539357Y-14716929D01*
X10553643Y-14702643D01*
X10553643Y-14731214D01*
X10667928Y-14431214D02*
X10867928Y-14431214D01*
X10739357Y-14731214D01*
X11039357Y-14431214D02*
X11067928Y-14431214D01*
X11096500Y-14445500D01*
X11110786Y-14459786D01*
X11125071Y-14488357D01*
X11139357Y-14545500D01*
X11139357Y-14616929D01*
X11125071Y-14674071D01*
X11110786Y-14702643D01*
X11096500Y-14716929D01*
X11067928Y-14731214D01*
X11039357Y-14731214D01*
X11010786Y-14716929D01*
X10996500Y-14702643D01*
X10982214Y-14674071D01*
X10967928Y-14616929D01*
X10967928Y-14545500D01*
X10982214Y-14488357D01*
X10996500Y-14459786D01*
X11010786Y-14445500D01*
X11039357Y-14431214D01*
X11267928Y-14731214D02*
X11267928Y-14531214D01*
X11267928Y-14559786D02*
X11282214Y-14545500D01*
X11310786Y-14531214D01*
X11353643Y-14531214D01*
X11382214Y-14545500D01*
X11396500Y-14574071D01*
X11396500Y-14731214D01*
X11396500Y-14574071D02*
X11410786Y-14545500D01*
X11439357Y-14531214D01*
X11482214Y-14531214D01*
X11510786Y-14545500D01*
X11525071Y-14574071D01*
X11525071Y-14731214D01*
X11667928Y-14731214D02*
X11667928Y-14531214D01*
X11667928Y-14559786D02*
X11682214Y-14545500D01*
X11710786Y-14531214D01*
X11753643Y-14531214D01*
X11782214Y-14545500D01*
X11796500Y-14574071D01*
X11796500Y-14731214D01*
X11796500Y-14574071D02*
X11810786Y-14545500D01*
X11839357Y-14531214D01*
X11882214Y-14531214D01*
X11910786Y-14545500D01*
X11925071Y-14574071D01*
X11925071Y-14731214D01*
X12510786Y-14416929D02*
X12253643Y-14802643D01*
X12896500Y-14431214D02*
X12925071Y-14431214D01*
X12953643Y-14445500D01*
X12967928Y-14459786D01*
X12982214Y-14488357D01*
X12996500Y-14545500D01*
X12996500Y-14616929D01*
X12982214Y-14674071D01*
X12967928Y-14702643D01*
X12953643Y-14716929D01*
X12925071Y-14731214D01*
X12896500Y-14731214D01*
X12867928Y-14716929D01*
X12853643Y-14702643D01*
X12839357Y-14674071D01*
X12825071Y-14616929D01*
X12825071Y-14545500D01*
X12839357Y-14488357D01*
X12853643Y-14459786D01*
X12867928Y-14445500D01*
X12896500Y-14431214D01*
X13125071Y-14702643D02*
X13139357Y-14716929D01*
X13125071Y-14731214D01*
X13110786Y-14716929D01*
X13125071Y-14702643D01*
X13125071Y-14731214D01*
X13325071Y-14431214D02*
X13353643Y-14431214D01*
X13382214Y-14445500D01*
X13396500Y-14459786D01*
X13410786Y-14488357D01*
X13425071Y-14545500D01*
X13425071Y-14616929D01*
X13410786Y-14674071D01*
X13396500Y-14702643D01*
X13382214Y-14716929D01*
X13353643Y-14731214D01*
X13325071Y-14731214D01*
X13296500Y-14716929D01*
X13282214Y-14702643D01*
X13267928Y-14674071D01*
X13253643Y-14616929D01*
X13253643Y-14545500D01*
X13267928Y-14488357D01*
X13282214Y-14459786D01*
X13296500Y-14445500D01*
X13325071Y-14431214D01*
X13539357Y-14459786D02*
X13553643Y-14445500D01*
X13582214Y-14431214D01*
X13653643Y-14431214D01*
X13682214Y-14445500D01*
X13696500Y-14459786D01*
X13710786Y-14488357D01*
X13710786Y-14516929D01*
X13696500Y-14559786D01*
X13525071Y-14731214D01*
X13710786Y-14731214D01*
X13882214Y-14559786D02*
X13853643Y-14545500D01*
X13839357Y-14531214D01*
X13825071Y-14502643D01*
X13825071Y-14488357D01*
X13839357Y-14459786D01*
X13853643Y-14445500D01*
X13882214Y-14431214D01*
X13939357Y-14431214D01*
X13967928Y-14445500D01*
X13982214Y-14459786D01*
X13996500Y-14488357D01*
X13996500Y-14502643D01*
X13982214Y-14531214D01*
X13967928Y-14545500D01*
X13939357Y-14559786D01*
X13882214Y-14559786D01*
X13853643Y-14574071D01*
X13839357Y-14588357D01*
X13825071Y-14616929D01*
X13825071Y-14674071D01*
X13839357Y-14702643D01*
X13853643Y-14716929D01*
X13882214Y-14731214D01*
X13939357Y-14731214D01*
X13967928Y-14716929D01*
X13982214Y-14702643D01*
X13996500Y-14674071D01*
X13996500Y-14616929D01*
X13982214Y-14588357D01*
X13967928Y-14574071D01*
X13939357Y-14559786D01*
X14110786Y-14431214D02*
X14110786Y-14488357D01*
X14225071Y-14431214D02*
X14225071Y-14488357D01*
X14667928Y-14845500D02*
X14653643Y-14831214D01*
X14625071Y-14788357D01*
X14610786Y-14759786D01*
X14596500Y-14716929D01*
X14582214Y-14645500D01*
X14582214Y-14588357D01*
X14596500Y-14516929D01*
X14610786Y-14474071D01*
X14625071Y-14445500D01*
X14653643Y-14402643D01*
X14667928Y-14388357D01*
X14925071Y-14431214D02*
X14782214Y-14431214D01*
X14767928Y-14574071D01*
X14782214Y-14559786D01*
X14810786Y-14545500D01*
X14882214Y-14545500D01*
X14910786Y-14559786D01*
X14925071Y-14574071D01*
X14939357Y-14602643D01*
X14939357Y-14674071D01*
X14925071Y-14702643D01*
X14910786Y-14716929D01*
X14882214Y-14731214D01*
X14810786Y-14731214D01*
X14782214Y-14716929D01*
X14767928Y-14702643D01*
X15296500Y-14731214D02*
X15296500Y-14431214D01*
X15425071Y-14731214D02*
X15425071Y-14574071D01*
X15410786Y-14545500D01*
X15382214Y-14531214D01*
X15339357Y-14531214D01*
X15310786Y-14545500D01*
X15296500Y-14559786D01*
X15610786Y-14731214D02*
X15582214Y-14716929D01*
X15567928Y-14702643D01*
X15553643Y-14674071D01*
X15553643Y-14588357D01*
X15567928Y-14559786D01*
X15582214Y-14545500D01*
X15610786Y-14531214D01*
X15653643Y-14531214D01*
X15682214Y-14545500D01*
X15696500Y-14559786D01*
X15710786Y-14588357D01*
X15710786Y-14674071D01*
X15696500Y-14702643D01*
X15682214Y-14716929D01*
X15653643Y-14731214D01*
X15610786Y-14731214D01*
X15882214Y-14731214D02*
X15853643Y-14716929D01*
X15839357Y-14688357D01*
X15839357Y-14431214D01*
X16110786Y-14716929D02*
X16082214Y-14731214D01*
X16025071Y-14731214D01*
X15996500Y-14716929D01*
X15982214Y-14688357D01*
X15982214Y-14574071D01*
X15996500Y-14545500D01*
X16025071Y-14531214D01*
X16082214Y-14531214D01*
X16110786Y-14545500D01*
X16125071Y-14574071D01*
X16125071Y-14602643D01*
X15982214Y-14631214D01*
X16239357Y-14716929D02*
X16267928Y-14731214D01*
X16325071Y-14731214D01*
X16353643Y-14716929D01*
X16367928Y-14688357D01*
X16367928Y-14674071D01*
X16353643Y-14645500D01*
X16325071Y-14631214D01*
X16282214Y-14631214D01*
X16253643Y-14616929D01*
X16239357Y-14588357D01*
X16239357Y-14574071D01*
X16253643Y-14545500D01*
X16282214Y-14531214D01*
X16325071Y-14531214D01*
X16353643Y-14545500D01*
X16725071Y-14616929D02*
X16953643Y-14616929D01*
X16839357Y-14731214D02*
X16839357Y-14502643D01*
X17453643Y-14531214D02*
X17453643Y-14731214D01*
X17382214Y-14416929D02*
X17310786Y-14631214D01*
X17496500Y-14631214D01*
X17825071Y-14716929D02*
X17853643Y-14731214D01*
X17910786Y-14731214D01*
X17939357Y-14716929D01*
X17953643Y-14688357D01*
X17953643Y-14674071D01*
X17939357Y-14645500D01*
X17910786Y-14631214D01*
X17867928Y-14631214D01*
X17839357Y-14616929D01*
X17825071Y-14588357D01*
X17825071Y-14574071D01*
X17839357Y-14545500D01*
X17867928Y-14531214D01*
X17910786Y-14531214D01*
X17939357Y-14545500D01*
X18125071Y-14731214D02*
X18096500Y-14716929D01*
X18082214Y-14688357D01*
X18082214Y-14431214D01*
X18282214Y-14731214D02*
X18253643Y-14716929D01*
X18239357Y-14702643D01*
X18225071Y-14674071D01*
X18225071Y-14588357D01*
X18239357Y-14559786D01*
X18253643Y-14545500D01*
X18282214Y-14531214D01*
X18325071Y-14531214D01*
X18353643Y-14545500D01*
X18367928Y-14559786D01*
X18382214Y-14588357D01*
X18382214Y-14674071D01*
X18367928Y-14702643D01*
X18353643Y-14716929D01*
X18325071Y-14731214D01*
X18282214Y-14731214D01*
X18467928Y-14531214D02*
X18582214Y-14531214D01*
X18510786Y-14431214D02*
X18510786Y-14688357D01*
X18525071Y-14716929D01*
X18553643Y-14731214D01*
X18582214Y-14731214D01*
X18667928Y-14716929D02*
X18696500Y-14731214D01*
X18753643Y-14731214D01*
X18782214Y-14716929D01*
X18796500Y-14688357D01*
X18796500Y-14674071D01*
X18782214Y-14645500D01*
X18753643Y-14631214D01*
X18710786Y-14631214D01*
X18682214Y-14616929D01*
X18667928Y-14588357D01*
X18667928Y-14574071D01*
X18682214Y-14545500D01*
X18710786Y-14531214D01*
X18753643Y-14531214D01*
X18782214Y-14545500D01*
X18896500Y-14845500D02*
X18910786Y-14831214D01*
X18939357Y-14788357D01*
X18953643Y-14759786D01*
X18967928Y-14716929D01*
X18982214Y-14645500D01*
X18982214Y-14588357D01*
X18967928Y-14516929D01*
X18953643Y-14474071D01*
X18939357Y-14445500D01*
X18910786Y-14402643D01*
X18896500Y-14388357D01*
X9970341Y-15018441D02*
X9970341Y-14964559D01*
X9916459Y-14964559D01*
X9916459Y-15018441D01*
X9970341Y-15018441D01*
X10325071Y-14827214D02*
X10353643Y-14827214D01*
X10382214Y-14841500D01*
X10396500Y-14855786D01*
X10410786Y-14884357D01*
X10425071Y-14941500D01*
X10425071Y-15012929D01*
X10410786Y-15070071D01*
X10396500Y-15098643D01*
X10382214Y-15112929D01*
X10353643Y-15127214D01*
X10325071Y-15127214D01*
X10296500Y-15112929D01*
X10282214Y-15098643D01*
X10267928Y-15070071D01*
X10253643Y-15012929D01*
X10253643Y-14941500D01*
X10267928Y-14884357D01*
X10282214Y-14855786D01*
X10296500Y-14841500D01*
X10325071Y-14827214D01*
X10553643Y-15098643D02*
X10567928Y-15112929D01*
X10553643Y-15127214D01*
X10539357Y-15112929D01*
X10553643Y-15098643D01*
X10553643Y-15127214D01*
X10667928Y-14827214D02*
X10867928Y-14827214D01*
X10739357Y-15127214D01*
X11110786Y-14827214D02*
X11053643Y-14827214D01*
X11025071Y-14841500D01*
X11010786Y-14855786D01*
X10982214Y-14898643D01*
X10967928Y-14955786D01*
X10967928Y-15070071D01*
X10982214Y-15098643D01*
X10996500Y-15112929D01*
X11025071Y-15127214D01*
X11082214Y-15127214D01*
X11110786Y-15112929D01*
X11125071Y-15098643D01*
X11139357Y-15070071D01*
X11139357Y-14998643D01*
X11125071Y-14970071D01*
X11110786Y-14955786D01*
X11082214Y-14941500D01*
X11025071Y-14941500D01*
X10996500Y-14955786D01*
X10982214Y-14970071D01*
X10967928Y-14998643D01*
X11267928Y-15127214D02*
X11267928Y-14927214D01*
X11267928Y-14955786D02*
X11282214Y-14941500D01*
X11310786Y-14927214D01*
X11353643Y-14927214D01*
X11382214Y-14941500D01*
X11396500Y-14970071D01*
X11396500Y-15127214D01*
X11396500Y-14970071D02*
X11410786Y-14941500D01*
X11439357Y-14927214D01*
X11482214Y-14927214D01*
X11510786Y-14941500D01*
X11525071Y-14970071D01*
X11525071Y-15127214D01*
X11667928Y-15127214D02*
X11667928Y-14927214D01*
X11667928Y-14955786D02*
X11682214Y-14941500D01*
X11710786Y-14927214D01*
X11753643Y-14927214D01*
X11782214Y-14941500D01*
X11796500Y-14970071D01*
X11796500Y-15127214D01*
X11796500Y-14970071D02*
X11810786Y-14941500D01*
X11839357Y-14927214D01*
X11882214Y-14927214D01*
X11910786Y-14941500D01*
X11925071Y-14970071D01*
X11925071Y-15127214D01*
X12510786Y-14812929D02*
X12253643Y-15198643D01*
X12896500Y-14827214D02*
X12925071Y-14827214D01*
X12953643Y-14841500D01*
X12967928Y-14855786D01*
X12982214Y-14884357D01*
X12996500Y-14941500D01*
X12996500Y-15012929D01*
X12982214Y-15070071D01*
X12967928Y-15098643D01*
X12953643Y-15112929D01*
X12925071Y-15127214D01*
X12896500Y-15127214D01*
X12867928Y-15112929D01*
X12853643Y-15098643D01*
X12839357Y-15070071D01*
X12825071Y-15012929D01*
X12825071Y-14941500D01*
X12839357Y-14884357D01*
X12853643Y-14855786D01*
X12867928Y-14841500D01*
X12896500Y-14827214D01*
X13125071Y-15098643D02*
X13139357Y-15112929D01*
X13125071Y-15127214D01*
X13110786Y-15112929D01*
X13125071Y-15098643D01*
X13125071Y-15127214D01*
X13325071Y-14827214D02*
X13353643Y-14827214D01*
X13382214Y-14841500D01*
X13396500Y-14855786D01*
X13410786Y-14884357D01*
X13425071Y-14941500D01*
X13425071Y-15012929D01*
X13410786Y-15070071D01*
X13396500Y-15098643D01*
X13382214Y-15112929D01*
X13353643Y-15127214D01*
X13325071Y-15127214D01*
X13296500Y-15112929D01*
X13282214Y-15098643D01*
X13267928Y-15070071D01*
X13253643Y-15012929D01*
X13253643Y-14941500D01*
X13267928Y-14884357D01*
X13282214Y-14855786D01*
X13296500Y-14841500D01*
X13325071Y-14827214D01*
X13525071Y-14827214D02*
X13710786Y-14827214D01*
X13610786Y-14941500D01*
X13653643Y-14941500D01*
X13682214Y-14955786D01*
X13696500Y-14970071D01*
X13710786Y-14998643D01*
X13710786Y-15070071D01*
X13696500Y-15098643D01*
X13682214Y-15112929D01*
X13653643Y-15127214D01*
X13567928Y-15127214D01*
X13539357Y-15112929D01*
X13525071Y-15098643D01*
X13896500Y-14827214D02*
X13925071Y-14827214D01*
X13953643Y-14841500D01*
X13967928Y-14855786D01*
X13982214Y-14884357D01*
X13996500Y-14941500D01*
X13996500Y-15012929D01*
X13982214Y-15070071D01*
X13967928Y-15098643D01*
X13953643Y-15112929D01*
X13925071Y-15127214D01*
X13896500Y-15127214D01*
X13867928Y-15112929D01*
X13853643Y-15098643D01*
X13839357Y-15070071D01*
X13825071Y-15012929D01*
X13825071Y-14941500D01*
X13839357Y-14884357D01*
X13853643Y-14855786D01*
X13867928Y-14841500D01*
X13896500Y-14827214D01*
X14110786Y-14827214D02*
X14110786Y-14884357D01*
X14225071Y-14827214D02*
X14225071Y-14884357D01*
X14667928Y-15241500D02*
X14653643Y-15227214D01*
X14625071Y-15184357D01*
X14610786Y-15155786D01*
X14596500Y-15112929D01*
X14582214Y-15041500D01*
X14582214Y-14984357D01*
X14596500Y-14912929D01*
X14610786Y-14870071D01*
X14625071Y-14841500D01*
X14653643Y-14798643D01*
X14667928Y-14784357D01*
X14910786Y-14927214D02*
X14910786Y-15127214D01*
X14839357Y-14812929D02*
X14767928Y-15027214D01*
X14953643Y-15027214D01*
X15296500Y-15127214D02*
X15296500Y-14827214D01*
X15425071Y-15127214D02*
X15425071Y-14970071D01*
X15410786Y-14941500D01*
X15382214Y-14927214D01*
X15339357Y-14927214D01*
X15310786Y-14941500D01*
X15296500Y-14955786D01*
X15610786Y-15127214D02*
X15582214Y-15112929D01*
X15567928Y-15098643D01*
X15553643Y-15070071D01*
X15553643Y-14984357D01*
X15567928Y-14955786D01*
X15582214Y-14941500D01*
X15610786Y-14927214D01*
X15653643Y-14927214D01*
X15682214Y-14941500D01*
X15696500Y-14955786D01*
X15710786Y-14984357D01*
X15710786Y-15070071D01*
X15696500Y-15098643D01*
X15682214Y-15112929D01*
X15653643Y-15127214D01*
X15610786Y-15127214D01*
X15882214Y-15127214D02*
X15853643Y-15112929D01*
X15839357Y-15084357D01*
X15839357Y-14827214D01*
X16110786Y-15112929D02*
X16082214Y-15127214D01*
X16025071Y-15127214D01*
X15996500Y-15112929D01*
X15982214Y-15084357D01*
X15982214Y-14970071D01*
X15996500Y-14941500D01*
X16025071Y-14927214D01*
X16082214Y-14927214D01*
X16110786Y-14941500D01*
X16125071Y-14970071D01*
X16125071Y-14998643D01*
X15982214Y-15027214D01*
X16239357Y-15112929D02*
X16267928Y-15127214D01*
X16325071Y-15127214D01*
X16353643Y-15112929D01*
X16367928Y-15084357D01*
X16367928Y-15070071D01*
X16353643Y-15041500D01*
X16325071Y-15027214D01*
X16282214Y-15027214D01*
X16253643Y-15012929D01*
X16239357Y-14984357D01*
X16239357Y-14970071D01*
X16253643Y-14941500D01*
X16282214Y-14927214D01*
X16325071Y-14927214D01*
X16353643Y-14941500D01*
X16467928Y-15241500D02*
X16482214Y-15227214D01*
X16510786Y-15184357D01*
X16525071Y-15155786D01*
X16539357Y-15112929D01*
X16553643Y-15041500D01*
X16553643Y-14984357D01*
X16539357Y-14912929D01*
X16525071Y-14870071D01*
X16510786Y-14841500D01*
X16482214Y-14798643D01*
X16467928Y-14784357D01*
X9941500Y-15427500D02*
X9981500Y-15387500D01*
X9941500Y-15347500D01*
X9901500Y-15387500D01*
X9941500Y-15427500D01*
X10325071Y-15223214D02*
X10353643Y-15223214D01*
X10382214Y-15237500D01*
X10396500Y-15251786D01*
X10410786Y-15280357D01*
X10425071Y-15337500D01*
X10425071Y-15408929D01*
X10410786Y-15466071D01*
X10396500Y-15494643D01*
X10382214Y-15508929D01*
X10353643Y-15523214D01*
X10325071Y-15523214D01*
X10296500Y-15508929D01*
X10282214Y-15494643D01*
X10267928Y-15466071D01*
X10253643Y-15408929D01*
X10253643Y-15337500D01*
X10267928Y-15280357D01*
X10282214Y-15251786D01*
X10296500Y-15237500D01*
X10325071Y-15223214D01*
X10553643Y-15494643D02*
X10567928Y-15508929D01*
X10553643Y-15523214D01*
X10539357Y-15508929D01*
X10553643Y-15494643D01*
X10553643Y-15523214D01*
X10739357Y-15351786D02*
X10710786Y-15337500D01*
X10696500Y-15323214D01*
X10682214Y-15294643D01*
X10682214Y-15280357D01*
X10696500Y-15251786D01*
X10710786Y-15237500D01*
X10739357Y-15223214D01*
X10796500Y-15223214D01*
X10825071Y-15237500D01*
X10839357Y-15251786D01*
X10853643Y-15280357D01*
X10853643Y-15294643D01*
X10839357Y-15323214D01*
X10825071Y-15337500D01*
X10796500Y-15351786D01*
X10739357Y-15351786D01*
X10710786Y-15366071D01*
X10696500Y-15380357D01*
X10682214Y-15408929D01*
X10682214Y-15466071D01*
X10696500Y-15494643D01*
X10710786Y-15508929D01*
X10739357Y-15523214D01*
X10796500Y-15523214D01*
X10825071Y-15508929D01*
X10839357Y-15494643D01*
X10853643Y-15466071D01*
X10853643Y-15408929D01*
X10839357Y-15380357D01*
X10825071Y-15366071D01*
X10796500Y-15351786D01*
X11039357Y-15223214D02*
X11067928Y-15223214D01*
X11096500Y-15237500D01*
X11110786Y-15251786D01*
X11125071Y-15280357D01*
X11139357Y-15337500D01*
X11139357Y-15408929D01*
X11125071Y-15466071D01*
X11110786Y-15494643D01*
X11096500Y-15508929D01*
X11067928Y-15523214D01*
X11039357Y-15523214D01*
X11010786Y-15508929D01*
X10996500Y-15494643D01*
X10982214Y-15466071D01*
X10967928Y-15408929D01*
X10967928Y-15337500D01*
X10982214Y-15280357D01*
X10996500Y-15251786D01*
X11010786Y-15237500D01*
X11039357Y-15223214D01*
X11267928Y-15523214D02*
X11267928Y-15323214D01*
X11267928Y-15351786D02*
X11282214Y-15337500D01*
X11310786Y-15323214D01*
X11353643Y-15323214D01*
X11382214Y-15337500D01*
X11396500Y-15366071D01*
X11396500Y-15523214D01*
X11396500Y-15366071D02*
X11410786Y-15337500D01*
X11439357Y-15323214D01*
X11482214Y-15323214D01*
X11510786Y-15337500D01*
X11525071Y-15366071D01*
X11525071Y-15523214D01*
X11667928Y-15523214D02*
X11667928Y-15323214D01*
X11667928Y-15351786D02*
X11682214Y-15337500D01*
X11710786Y-15323214D01*
X11753643Y-15323214D01*
X11782214Y-15337500D01*
X11796500Y-15366071D01*
X11796500Y-15523214D01*
X11796500Y-15366071D02*
X11810786Y-15337500D01*
X11839357Y-15323214D01*
X11882214Y-15323214D01*
X11910786Y-15337500D01*
X11925071Y-15366071D01*
X11925071Y-15523214D01*
X12510786Y-15208929D02*
X12253643Y-15594643D01*
X12896500Y-15223214D02*
X12925071Y-15223214D01*
X12953643Y-15237500D01*
X12967928Y-15251786D01*
X12982214Y-15280357D01*
X12996500Y-15337500D01*
X12996500Y-15408929D01*
X12982214Y-15466071D01*
X12967928Y-15494643D01*
X12953643Y-15508929D01*
X12925071Y-15523214D01*
X12896500Y-15523214D01*
X12867928Y-15508929D01*
X12853643Y-15494643D01*
X12839357Y-15466071D01*
X12825071Y-15408929D01*
X12825071Y-15337500D01*
X12839357Y-15280357D01*
X12853643Y-15251786D01*
X12867928Y-15237500D01*
X12896500Y-15223214D01*
X13125071Y-15494643D02*
X13139357Y-15508929D01*
X13125071Y-15523214D01*
X13110786Y-15508929D01*
X13125071Y-15494643D01*
X13125071Y-15523214D01*
X13325071Y-15223214D02*
X13353643Y-15223214D01*
X13382214Y-15237500D01*
X13396500Y-15251786D01*
X13410786Y-15280357D01*
X13425071Y-15337500D01*
X13425071Y-15408929D01*
X13410786Y-15466071D01*
X13396500Y-15494643D01*
X13382214Y-15508929D01*
X13353643Y-15523214D01*
X13325071Y-15523214D01*
X13296500Y-15508929D01*
X13282214Y-15494643D01*
X13267928Y-15466071D01*
X13253643Y-15408929D01*
X13253643Y-15337500D01*
X13267928Y-15280357D01*
X13282214Y-15251786D01*
X13296500Y-15237500D01*
X13325071Y-15223214D01*
X13525071Y-15223214D02*
X13710786Y-15223214D01*
X13610786Y-15337500D01*
X13653643Y-15337500D01*
X13682214Y-15351786D01*
X13696500Y-15366071D01*
X13710786Y-15394643D01*
X13710786Y-15466071D01*
X13696500Y-15494643D01*
X13682214Y-15508929D01*
X13653643Y-15523214D01*
X13567928Y-15523214D01*
X13539357Y-15508929D01*
X13525071Y-15494643D01*
X13996500Y-15523214D02*
X13825071Y-15523214D01*
X13910786Y-15523214D02*
X13910786Y-15223214D01*
X13882214Y-15266071D01*
X13853643Y-15294643D01*
X13825071Y-15308929D01*
X14110786Y-15223214D02*
X14110786Y-15280357D01*
X14225071Y-15223214D02*
X14225071Y-15280357D01*
X14667928Y-15637500D02*
X14653643Y-15623214D01*
X14625071Y-15580357D01*
X14610786Y-15551786D01*
X14596500Y-15508929D01*
X14582214Y-15437500D01*
X14582214Y-15380357D01*
X14596500Y-15308929D01*
X14610786Y-15266071D01*
X14625071Y-15237500D01*
X14653643Y-15194643D01*
X14667928Y-15180357D01*
X14825071Y-15351786D02*
X14796500Y-15337500D01*
X14782214Y-15323214D01*
X14767928Y-15294643D01*
X14767928Y-15280357D01*
X14782214Y-15251786D01*
X14796500Y-15237500D01*
X14825071Y-15223214D01*
X14882214Y-15223214D01*
X14910786Y-15237500D01*
X14925071Y-15251786D01*
X14939357Y-15280357D01*
X14939357Y-15294643D01*
X14925071Y-15323214D01*
X14910786Y-15337500D01*
X14882214Y-15351786D01*
X14825071Y-15351786D01*
X14796500Y-15366071D01*
X14782214Y-15380357D01*
X14767928Y-15408929D01*
X14767928Y-15466071D01*
X14782214Y-15494643D01*
X14796500Y-15508929D01*
X14825071Y-15523214D01*
X14882214Y-15523214D01*
X14910786Y-15508929D01*
X14925071Y-15494643D01*
X14939357Y-15466071D01*
X14939357Y-15408929D01*
X14925071Y-15380357D01*
X14910786Y-15366071D01*
X14882214Y-15351786D01*
X15296500Y-15523214D02*
X15296500Y-15223214D01*
X15425071Y-15523214D02*
X15425071Y-15366071D01*
X15410786Y-15337500D01*
X15382214Y-15323214D01*
X15339357Y-15323214D01*
X15310786Y-15337500D01*
X15296500Y-15351786D01*
X15610786Y-15523214D02*
X15582214Y-15508929D01*
X15567928Y-15494643D01*
X15553643Y-15466071D01*
X15553643Y-15380357D01*
X15567928Y-15351786D01*
X15582214Y-15337500D01*
X15610786Y-15323214D01*
X15653643Y-15323214D01*
X15682214Y-15337500D01*
X15696500Y-15351786D01*
X15710786Y-15380357D01*
X15710786Y-15466071D01*
X15696500Y-15494643D01*
X15682214Y-15508929D01*
X15653643Y-15523214D01*
X15610786Y-15523214D01*
X15882214Y-15523214D02*
X15853643Y-15508929D01*
X15839357Y-15480357D01*
X15839357Y-15223214D01*
X16110786Y-15508929D02*
X16082214Y-15523214D01*
X16025071Y-15523214D01*
X15996500Y-15508929D01*
X15982214Y-15480357D01*
X15982214Y-15366071D01*
X15996500Y-15337500D01*
X16025071Y-15323214D01*
X16082214Y-15323214D01*
X16110786Y-15337500D01*
X16125071Y-15366071D01*
X16125071Y-15394643D01*
X15982214Y-15423214D01*
X16239357Y-15508929D02*
X16267928Y-15523214D01*
X16325071Y-15523214D01*
X16353643Y-15508929D01*
X16367928Y-15480357D01*
X16367928Y-15466071D01*
X16353643Y-15437500D01*
X16325071Y-15423214D01*
X16282214Y-15423214D01*
X16253643Y-15408929D01*
X16239357Y-15380357D01*
X16239357Y-15366071D01*
X16253643Y-15337500D01*
X16282214Y-15323214D01*
X16325071Y-15323214D01*
X16353643Y-15337500D01*
X16467928Y-15637500D02*
X16482214Y-15623214D01*
X16510786Y-15580357D01*
X16525071Y-15551786D01*
X16539357Y-15508929D01*
X16553643Y-15437500D01*
X16553643Y-15380357D01*
X16539357Y-15308929D01*
X16525071Y-15266071D01*
X16510786Y-15237500D01*
X16482214Y-15194643D01*
X16467928Y-15180357D01*
X9900220Y-15742860D02*
X9981500Y-15824140D01*
X9981500Y-15742860D02*
X9900220Y-15824140D01*
X9981500Y-15783500D02*
G75*
G03X9981500Y-15783500I-40640J0D01*
G01*
X10325071Y-15619214D02*
X10353643Y-15619214D01*
X10382214Y-15633500D01*
X10396500Y-15647786D01*
X10410786Y-15676357D01*
X10425071Y-15733500D01*
X10425071Y-15804929D01*
X10410786Y-15862071D01*
X10396500Y-15890643D01*
X10382214Y-15904929D01*
X10353643Y-15919214D01*
X10325071Y-15919214D01*
X10296500Y-15904929D01*
X10282214Y-15890643D01*
X10267928Y-15862071D01*
X10253643Y-15804929D01*
X10253643Y-15733500D01*
X10267928Y-15676357D01*
X10282214Y-15647786D01*
X10296500Y-15633500D01*
X10325071Y-15619214D01*
X10553643Y-15890643D02*
X10567928Y-15904929D01*
X10553643Y-15919214D01*
X10539357Y-15904929D01*
X10553643Y-15890643D01*
X10553643Y-15919214D01*
X10739357Y-15747786D02*
X10710786Y-15733500D01*
X10696500Y-15719214D01*
X10682214Y-15690643D01*
X10682214Y-15676357D01*
X10696500Y-15647786D01*
X10710786Y-15633500D01*
X10739357Y-15619214D01*
X10796500Y-15619214D01*
X10825071Y-15633500D01*
X10839357Y-15647786D01*
X10853643Y-15676357D01*
X10853643Y-15690643D01*
X10839357Y-15719214D01*
X10825071Y-15733500D01*
X10796500Y-15747786D01*
X10739357Y-15747786D01*
X10710786Y-15762071D01*
X10696500Y-15776357D01*
X10682214Y-15804929D01*
X10682214Y-15862071D01*
X10696500Y-15890643D01*
X10710786Y-15904929D01*
X10739357Y-15919214D01*
X10796500Y-15919214D01*
X10825071Y-15904929D01*
X10839357Y-15890643D01*
X10853643Y-15862071D01*
X10853643Y-15804929D01*
X10839357Y-15776357D01*
X10825071Y-15762071D01*
X10796500Y-15747786D01*
X11139357Y-15919214D02*
X10967928Y-15919214D01*
X11053643Y-15919214D02*
X11053643Y-15619214D01*
X11025071Y-15662071D01*
X10996500Y-15690643D01*
X10967928Y-15704929D01*
X11267928Y-15919214D02*
X11267928Y-15719214D01*
X11267928Y-15747786D02*
X11282214Y-15733500D01*
X11310786Y-15719214D01*
X11353643Y-15719214D01*
X11382214Y-15733500D01*
X11396500Y-15762071D01*
X11396500Y-15919214D01*
X11396500Y-15762071D02*
X11410786Y-15733500D01*
X11439357Y-15719214D01*
X11482214Y-15719214D01*
X11510786Y-15733500D01*
X11525071Y-15762071D01*
X11525071Y-15919214D01*
X11667928Y-15919214D02*
X11667928Y-15719214D01*
X11667928Y-15747786D02*
X11682214Y-15733500D01*
X11710786Y-15719214D01*
X11753643Y-15719214D01*
X11782214Y-15733500D01*
X11796500Y-15762071D01*
X11796500Y-15919214D01*
X11796500Y-15762071D02*
X11810786Y-15733500D01*
X11839357Y-15719214D01*
X11882214Y-15719214D01*
X11910786Y-15733500D01*
X11925071Y-15762071D01*
X11925071Y-15919214D01*
X12510786Y-15604929D02*
X12253643Y-15990643D01*
X12896500Y-15619214D02*
X12925071Y-15619214D01*
X12953643Y-15633500D01*
X12967928Y-15647786D01*
X12982214Y-15676357D01*
X12996500Y-15733500D01*
X12996500Y-15804929D01*
X12982214Y-15862071D01*
X12967928Y-15890643D01*
X12953643Y-15904929D01*
X12925071Y-15919214D01*
X12896500Y-15919214D01*
X12867928Y-15904929D01*
X12853643Y-15890643D01*
X12839357Y-15862071D01*
X12825071Y-15804929D01*
X12825071Y-15733500D01*
X12839357Y-15676357D01*
X12853643Y-15647786D01*
X12867928Y-15633500D01*
X12896500Y-15619214D01*
X13125071Y-15890643D02*
X13139357Y-15904929D01*
X13125071Y-15919214D01*
X13110786Y-15904929D01*
X13125071Y-15890643D01*
X13125071Y-15919214D01*
X13325071Y-15619214D02*
X13353643Y-15619214D01*
X13382214Y-15633500D01*
X13396500Y-15647786D01*
X13410786Y-15676357D01*
X13425071Y-15733500D01*
X13425071Y-15804929D01*
X13410786Y-15862071D01*
X13396500Y-15890643D01*
X13382214Y-15904929D01*
X13353643Y-15919214D01*
X13325071Y-15919214D01*
X13296500Y-15904929D01*
X13282214Y-15890643D01*
X13267928Y-15862071D01*
X13253643Y-15804929D01*
X13253643Y-15733500D01*
X13267928Y-15676357D01*
X13282214Y-15647786D01*
X13296500Y-15633500D01*
X13325071Y-15619214D01*
X13525071Y-15619214D02*
X13710786Y-15619214D01*
X13610786Y-15733500D01*
X13653643Y-15733500D01*
X13682214Y-15747786D01*
X13696500Y-15762071D01*
X13710786Y-15790643D01*
X13710786Y-15862071D01*
X13696500Y-15890643D01*
X13682214Y-15904929D01*
X13653643Y-15919214D01*
X13567928Y-15919214D01*
X13539357Y-15904929D01*
X13525071Y-15890643D01*
X13825071Y-15647786D02*
X13839357Y-15633500D01*
X13867928Y-15619214D01*
X13939357Y-15619214D01*
X13967928Y-15633500D01*
X13982214Y-15647786D01*
X13996500Y-15676357D01*
X13996500Y-15704929D01*
X13982214Y-15747786D01*
X13810786Y-15919214D01*
X13996500Y-15919214D01*
X14110786Y-15619214D02*
X14110786Y-15676357D01*
X14225071Y-15619214D02*
X14225071Y-15676357D01*
X14667928Y-16033500D02*
X14653643Y-16019214D01*
X14625071Y-15976357D01*
X14610786Y-15947786D01*
X14596500Y-15904929D01*
X14582214Y-15833500D01*
X14582214Y-15776357D01*
X14596500Y-15704929D01*
X14610786Y-15662071D01*
X14625071Y-15633500D01*
X14653643Y-15590643D01*
X14667928Y-15576357D01*
X14910786Y-15619214D02*
X14853643Y-15619214D01*
X14825071Y-15633500D01*
X14810786Y-15647786D01*
X14782214Y-15690643D01*
X14767928Y-15747786D01*
X14767928Y-15862071D01*
X14782214Y-15890643D01*
X14796500Y-15904929D01*
X14825071Y-15919214D01*
X14882214Y-15919214D01*
X14910786Y-15904929D01*
X14925071Y-15890643D01*
X14939357Y-15862071D01*
X14939357Y-15790643D01*
X14925071Y-15762071D01*
X14910786Y-15747786D01*
X14882214Y-15733500D01*
X14825071Y-15733500D01*
X14796500Y-15747786D01*
X14782214Y-15762071D01*
X14767928Y-15790643D01*
X15296500Y-15919214D02*
X15296500Y-15619214D01*
X15425071Y-15919214D02*
X15425071Y-15762071D01*
X15410786Y-15733500D01*
X15382214Y-15719214D01*
X15339357Y-15719214D01*
X15310786Y-15733500D01*
X15296500Y-15747786D01*
X15610786Y-15919214D02*
X15582214Y-15904929D01*
X15567928Y-15890643D01*
X15553643Y-15862071D01*
X15553643Y-15776357D01*
X15567928Y-15747786D01*
X15582214Y-15733500D01*
X15610786Y-15719214D01*
X15653643Y-15719214D01*
X15682214Y-15733500D01*
X15696500Y-15747786D01*
X15710786Y-15776357D01*
X15710786Y-15862071D01*
X15696500Y-15890643D01*
X15682214Y-15904929D01*
X15653643Y-15919214D01*
X15610786Y-15919214D01*
X15882214Y-15919214D02*
X15853643Y-15904929D01*
X15839357Y-15876357D01*
X15839357Y-15619214D01*
X16110786Y-15904929D02*
X16082214Y-15919214D01*
X16025071Y-15919214D01*
X15996500Y-15904929D01*
X15982214Y-15876357D01*
X15982214Y-15762071D01*
X15996500Y-15733500D01*
X16025071Y-15719214D01*
X16082214Y-15719214D01*
X16110786Y-15733500D01*
X16125071Y-15762071D01*
X16125071Y-15790643D01*
X15982214Y-15819214D01*
X16239357Y-15904929D02*
X16267928Y-15919214D01*
X16325071Y-15919214D01*
X16353643Y-15904929D01*
X16367928Y-15876357D01*
X16367928Y-15862071D01*
X16353643Y-15833500D01*
X16325071Y-15819214D01*
X16282214Y-15819214D01*
X16253643Y-15804929D01*
X16239357Y-15776357D01*
X16239357Y-15762071D01*
X16253643Y-15733500D01*
X16282214Y-15719214D01*
X16325071Y-15719214D01*
X16353643Y-15733500D01*
X16467928Y-16033500D02*
X16482214Y-16019214D01*
X16510786Y-15976357D01*
X16525071Y-15947786D01*
X16539357Y-15904929D01*
X16553643Y-15833500D01*
X16553643Y-15776357D01*
X16539357Y-15704929D01*
X16525071Y-15662071D01*
X16510786Y-15633500D01*
X16482214Y-15590643D01*
X16467928Y-15576357D01*
X9891500Y-16134500D02*
X9981500Y-16224500D01*
X9981500Y-16134500D02*
X9891500Y-16224500D01*
X9936500Y-16134500D02*
X9936500Y-16224500D01*
X9891500Y-16179500D02*
X9981500Y-16179500D01*
X10325071Y-16015214D02*
X10353643Y-16015214D01*
X10382214Y-16029500D01*
X10396500Y-16043786D01*
X10410786Y-16072357D01*
X10425071Y-16129500D01*
X10425071Y-16200929D01*
X10410786Y-16258071D01*
X10396500Y-16286643D01*
X10382214Y-16300929D01*
X10353643Y-16315214D01*
X10325071Y-16315214D01*
X10296500Y-16300929D01*
X10282214Y-16286643D01*
X10267928Y-16258071D01*
X10253643Y-16200929D01*
X10253643Y-16129500D01*
X10267928Y-16072357D01*
X10282214Y-16043786D01*
X10296500Y-16029500D01*
X10325071Y-16015214D01*
X10553643Y-16286643D02*
X10567928Y-16300929D01*
X10553643Y-16315214D01*
X10539357Y-16300929D01*
X10553643Y-16286643D01*
X10553643Y-16315214D01*
X10710786Y-16315214D02*
X10767928Y-16315214D01*
X10796500Y-16300929D01*
X10810786Y-16286643D01*
X10839357Y-16243786D01*
X10853643Y-16186643D01*
X10853643Y-16072357D01*
X10839357Y-16043786D01*
X10825071Y-16029500D01*
X10796500Y-16015214D01*
X10739357Y-16015214D01*
X10710786Y-16029500D01*
X10696500Y-16043786D01*
X10682214Y-16072357D01*
X10682214Y-16143786D01*
X10696500Y-16172357D01*
X10710786Y-16186643D01*
X10739357Y-16200929D01*
X10796500Y-16200929D01*
X10825071Y-16186643D01*
X10839357Y-16172357D01*
X10853643Y-16143786D01*
X11039357Y-16015214D02*
X11067928Y-16015214D01*
X11096500Y-16029500D01*
X11110786Y-16043786D01*
X11125071Y-16072357D01*
X11139357Y-16129500D01*
X11139357Y-16200929D01*
X11125071Y-16258071D01*
X11110786Y-16286643D01*
X11096500Y-16300929D01*
X11067928Y-16315214D01*
X11039357Y-16315214D01*
X11010786Y-16300929D01*
X10996500Y-16286643D01*
X10982214Y-16258071D01*
X10967928Y-16200929D01*
X10967928Y-16129500D01*
X10982214Y-16072357D01*
X10996500Y-16043786D01*
X11010786Y-16029500D01*
X11039357Y-16015214D01*
X11267928Y-16315214D02*
X11267928Y-16115214D01*
X11267928Y-16143786D02*
X11282214Y-16129500D01*
X11310786Y-16115214D01*
X11353643Y-16115214D01*
X11382214Y-16129500D01*
X11396500Y-16158071D01*
X11396500Y-16315214D01*
X11396500Y-16158071D02*
X11410786Y-16129500D01*
X11439357Y-16115214D01*
X11482214Y-16115214D01*
X11510786Y-16129500D01*
X11525071Y-16158071D01*
X11525071Y-16315214D01*
X11667928Y-16315214D02*
X11667928Y-16115214D01*
X11667928Y-16143786D02*
X11682214Y-16129500D01*
X11710786Y-16115214D01*
X11753643Y-16115214D01*
X11782214Y-16129500D01*
X11796500Y-16158071D01*
X11796500Y-16315214D01*
X11796500Y-16158071D02*
X11810786Y-16129500D01*
X11839357Y-16115214D01*
X11882214Y-16115214D01*
X11910786Y-16129500D01*
X11925071Y-16158071D01*
X11925071Y-16315214D01*
X12510786Y-16000929D02*
X12253643Y-16386643D01*
X12896500Y-16015214D02*
X12925071Y-16015214D01*
X12953643Y-16029500D01*
X12967928Y-16043786D01*
X12982214Y-16072357D01*
X12996500Y-16129500D01*
X12996500Y-16200929D01*
X12982214Y-16258071D01*
X12967928Y-16286643D01*
X12953643Y-16300929D01*
X12925071Y-16315214D01*
X12896500Y-16315214D01*
X12867928Y-16300929D01*
X12853643Y-16286643D01*
X12839357Y-16258071D01*
X12825071Y-16200929D01*
X12825071Y-16129500D01*
X12839357Y-16072357D01*
X12853643Y-16043786D01*
X12867928Y-16029500D01*
X12896500Y-16015214D01*
X13125071Y-16286643D02*
X13139357Y-16300929D01*
X13125071Y-16315214D01*
X13110786Y-16300929D01*
X13125071Y-16286643D01*
X13125071Y-16315214D01*
X13325071Y-16015214D02*
X13353643Y-16015214D01*
X13382214Y-16029500D01*
X13396500Y-16043786D01*
X13410786Y-16072357D01*
X13425071Y-16129500D01*
X13425071Y-16200929D01*
X13410786Y-16258071D01*
X13396500Y-16286643D01*
X13382214Y-16300929D01*
X13353643Y-16315214D01*
X13325071Y-16315214D01*
X13296500Y-16300929D01*
X13282214Y-16286643D01*
X13267928Y-16258071D01*
X13253643Y-16200929D01*
X13253643Y-16129500D01*
X13267928Y-16072357D01*
X13282214Y-16043786D01*
X13296500Y-16029500D01*
X13325071Y-16015214D01*
X13525071Y-16015214D02*
X13710786Y-16015214D01*
X13610786Y-16129500D01*
X13653643Y-16129500D01*
X13682214Y-16143786D01*
X13696500Y-16158071D01*
X13710786Y-16186643D01*
X13710786Y-16258071D01*
X13696500Y-16286643D01*
X13682214Y-16300929D01*
X13653643Y-16315214D01*
X13567928Y-16315214D01*
X13539357Y-16300929D01*
X13525071Y-16286643D01*
X13982214Y-16015214D02*
X13839357Y-16015214D01*
X13825071Y-16158071D01*
X13839357Y-16143786D01*
X13867928Y-16129500D01*
X13939357Y-16129500D01*
X13967928Y-16143786D01*
X13982214Y-16158071D01*
X13996500Y-16186643D01*
X13996500Y-16258071D01*
X13982214Y-16286643D01*
X13967928Y-16300929D01*
X13939357Y-16315214D01*
X13867928Y-16315214D01*
X13839357Y-16300929D01*
X13825071Y-16286643D01*
X14110786Y-16015214D02*
X14110786Y-16072357D01*
X14225071Y-16015214D02*
X14225071Y-16072357D01*
X14667928Y-16429500D02*
X14653643Y-16415214D01*
X14625071Y-16372357D01*
X14610786Y-16343786D01*
X14596500Y-16300929D01*
X14582214Y-16229500D01*
X14582214Y-16172357D01*
X14596500Y-16100929D01*
X14610786Y-16058071D01*
X14625071Y-16029500D01*
X14653643Y-15986643D01*
X14667928Y-15972357D01*
X14767928Y-16043786D02*
X14782214Y-16029500D01*
X14810786Y-16015214D01*
X14882214Y-16015214D01*
X14910786Y-16029500D01*
X14925071Y-16043786D01*
X14939357Y-16072357D01*
X14939357Y-16100929D01*
X14925071Y-16143786D01*
X14753643Y-16315214D01*
X14939357Y-16315214D01*
X15296500Y-16315214D02*
X15296500Y-16015214D01*
X15425071Y-16315214D02*
X15425071Y-16158071D01*
X15410786Y-16129500D01*
X15382214Y-16115214D01*
X15339357Y-16115214D01*
X15310786Y-16129500D01*
X15296500Y-16143786D01*
X15610786Y-16315214D02*
X15582214Y-16300929D01*
X15567928Y-16286643D01*
X15553643Y-16258071D01*
X15553643Y-16172357D01*
X15567928Y-16143786D01*
X15582214Y-16129500D01*
X15610786Y-16115214D01*
X15653643Y-16115214D01*
X15682214Y-16129500D01*
X15696500Y-16143786D01*
X15710786Y-16172357D01*
X15710786Y-16258071D01*
X15696500Y-16286643D01*
X15682214Y-16300929D01*
X15653643Y-16315214D01*
X15610786Y-16315214D01*
X15882214Y-16315214D02*
X15853643Y-16300929D01*
X15839357Y-16272357D01*
X15839357Y-16015214D01*
X16110786Y-16300929D02*
X16082214Y-16315214D01*
X16025071Y-16315214D01*
X15996500Y-16300929D01*
X15982214Y-16272357D01*
X15982214Y-16158071D01*
X15996500Y-16129500D01*
X16025071Y-16115214D01*
X16082214Y-16115214D01*
X16110786Y-16129500D01*
X16125071Y-16158071D01*
X16125071Y-16186643D01*
X15982214Y-16215214D01*
X16239357Y-16300929D02*
X16267928Y-16315214D01*
X16325071Y-16315214D01*
X16353643Y-16300929D01*
X16367928Y-16272357D01*
X16367928Y-16258071D01*
X16353643Y-16229500D01*
X16325071Y-16215214D01*
X16282214Y-16215214D01*
X16253643Y-16200929D01*
X16239357Y-16172357D01*
X16239357Y-16158071D01*
X16253643Y-16129500D01*
X16282214Y-16115214D01*
X16325071Y-16115214D01*
X16353643Y-16129500D01*
X16467928Y-16429500D02*
X16482214Y-16415214D01*
X16510786Y-16372357D01*
X16525071Y-16343786D01*
X16539357Y-16300929D01*
X16553643Y-16229500D01*
X16553643Y-16172357D01*
X16539357Y-16100929D01*
X16525071Y-16058071D01*
X16510786Y-16029500D01*
X16482214Y-15986643D01*
X16467928Y-15972357D01*
X9881500Y-16525500D02*
X9981500Y-16625500D01*
X9981500Y-16525500D02*
X9881500Y-16625500D01*
X9966856Y-16610856D02*
X9966856Y-16540144D01*
X9896144Y-16540144D01*
X9896144Y-16610856D01*
X9966856Y-16610856D01*
X10425071Y-16711214D02*
X10253643Y-16711214D01*
X10339357Y-16711214D02*
X10339357Y-16411214D01*
X10310786Y-16454071D01*
X10282214Y-16482643D01*
X10253643Y-16496929D01*
X10553643Y-16682643D02*
X10567928Y-16696929D01*
X10553643Y-16711214D01*
X10539357Y-16696929D01*
X10553643Y-16682643D01*
X10553643Y-16711214D01*
X10753643Y-16411214D02*
X10782214Y-16411214D01*
X10810786Y-16425500D01*
X10825071Y-16439786D01*
X10839357Y-16468357D01*
X10853643Y-16525500D01*
X10853643Y-16596929D01*
X10839357Y-16654071D01*
X10825071Y-16682643D01*
X10810786Y-16696929D01*
X10782214Y-16711214D01*
X10753643Y-16711214D01*
X10725071Y-16696929D01*
X10710786Y-16682643D01*
X10696500Y-16654071D01*
X10682214Y-16596929D01*
X10682214Y-16525500D01*
X10696500Y-16468357D01*
X10710786Y-16439786D01*
X10725071Y-16425500D01*
X10753643Y-16411214D01*
X11039357Y-16411214D02*
X11067928Y-16411214D01*
X11096500Y-16425500D01*
X11110786Y-16439786D01*
X11125071Y-16468357D01*
X11139357Y-16525500D01*
X11139357Y-16596929D01*
X11125071Y-16654071D01*
X11110786Y-16682643D01*
X11096500Y-16696929D01*
X11067928Y-16711214D01*
X11039357Y-16711214D01*
X11010786Y-16696929D01*
X10996500Y-16682643D01*
X10982214Y-16654071D01*
X10967928Y-16596929D01*
X10967928Y-16525500D01*
X10982214Y-16468357D01*
X10996500Y-16439786D01*
X11010786Y-16425500D01*
X11039357Y-16411214D01*
X11267928Y-16711214D02*
X11267928Y-16511214D01*
X11267928Y-16539786D02*
X11282214Y-16525500D01*
X11310786Y-16511214D01*
X11353643Y-16511214D01*
X11382214Y-16525500D01*
X11396500Y-16554071D01*
X11396500Y-16711214D01*
X11396500Y-16554071D02*
X11410786Y-16525500D01*
X11439357Y-16511214D01*
X11482214Y-16511214D01*
X11510786Y-16525500D01*
X11525071Y-16554071D01*
X11525071Y-16711214D01*
X11667928Y-16711214D02*
X11667928Y-16511214D01*
X11667928Y-16539786D02*
X11682214Y-16525500D01*
X11710786Y-16511214D01*
X11753643Y-16511214D01*
X11782214Y-16525500D01*
X11796500Y-16554071D01*
X11796500Y-16711214D01*
X11796500Y-16554071D02*
X11810786Y-16525500D01*
X11839357Y-16511214D01*
X11882214Y-16511214D01*
X11910786Y-16525500D01*
X11925071Y-16554071D01*
X11925071Y-16711214D01*
X12510786Y-16396929D02*
X12253643Y-16782643D01*
X12896500Y-16411214D02*
X12925071Y-16411214D01*
X12953643Y-16425500D01*
X12967928Y-16439786D01*
X12982214Y-16468357D01*
X12996500Y-16525500D01*
X12996500Y-16596929D01*
X12982214Y-16654071D01*
X12967928Y-16682643D01*
X12953643Y-16696929D01*
X12925071Y-16711214D01*
X12896500Y-16711214D01*
X12867928Y-16696929D01*
X12853643Y-16682643D01*
X12839357Y-16654071D01*
X12825071Y-16596929D01*
X12825071Y-16525500D01*
X12839357Y-16468357D01*
X12853643Y-16439786D01*
X12867928Y-16425500D01*
X12896500Y-16411214D01*
X13125071Y-16682643D02*
X13139357Y-16696929D01*
X13125071Y-16711214D01*
X13110786Y-16696929D01*
X13125071Y-16682643D01*
X13125071Y-16711214D01*
X13325071Y-16411214D02*
X13353643Y-16411214D01*
X13382214Y-16425500D01*
X13396500Y-16439786D01*
X13410786Y-16468357D01*
X13425071Y-16525500D01*
X13425071Y-16596929D01*
X13410786Y-16654071D01*
X13396500Y-16682643D01*
X13382214Y-16696929D01*
X13353643Y-16711214D01*
X13325071Y-16711214D01*
X13296500Y-16696929D01*
X13282214Y-16682643D01*
X13267928Y-16654071D01*
X13253643Y-16596929D01*
X13253643Y-16525500D01*
X13267928Y-16468357D01*
X13282214Y-16439786D01*
X13296500Y-16425500D01*
X13325071Y-16411214D01*
X13525071Y-16411214D02*
X13710786Y-16411214D01*
X13610786Y-16525500D01*
X13653643Y-16525500D01*
X13682214Y-16539786D01*
X13696500Y-16554071D01*
X13710786Y-16582643D01*
X13710786Y-16654071D01*
X13696500Y-16682643D01*
X13682214Y-16696929D01*
X13653643Y-16711214D01*
X13567928Y-16711214D01*
X13539357Y-16696929D01*
X13525071Y-16682643D01*
X13853643Y-16711214D02*
X13910786Y-16711214D01*
X13939357Y-16696929D01*
X13953643Y-16682643D01*
X13982214Y-16639786D01*
X13996500Y-16582643D01*
X13996500Y-16468357D01*
X13982214Y-16439786D01*
X13967928Y-16425500D01*
X13939357Y-16411214D01*
X13882214Y-16411214D01*
X13853643Y-16425500D01*
X13839357Y-16439786D01*
X13825071Y-16468357D01*
X13825071Y-16539786D01*
X13839357Y-16568357D01*
X13853643Y-16582643D01*
X13882214Y-16596929D01*
X13939357Y-16596929D01*
X13967928Y-16582643D01*
X13982214Y-16568357D01*
X13996500Y-16539786D01*
X14110786Y-16411214D02*
X14110786Y-16468357D01*
X14225071Y-16411214D02*
X14225071Y-16468357D01*
X14667928Y-16825500D02*
X14653643Y-16811214D01*
X14625071Y-16768357D01*
X14610786Y-16739786D01*
X14596500Y-16696929D01*
X14582214Y-16625500D01*
X14582214Y-16568357D01*
X14596500Y-16496929D01*
X14610786Y-16454071D01*
X14625071Y-16425500D01*
X14653643Y-16382643D01*
X14667928Y-16368357D01*
X14753643Y-16411214D02*
X14939357Y-16411214D01*
X14839357Y-16525500D01*
X14882214Y-16525500D01*
X14910786Y-16539786D01*
X14925071Y-16554071D01*
X14939357Y-16582643D01*
X14939357Y-16654071D01*
X14925071Y-16682643D01*
X14910786Y-16696929D01*
X14882214Y-16711214D01*
X14796500Y-16711214D01*
X14767928Y-16696929D01*
X14753643Y-16682643D01*
X15296500Y-16711214D02*
X15296500Y-16411214D01*
X15425071Y-16711214D02*
X15425071Y-16554071D01*
X15410786Y-16525500D01*
X15382214Y-16511214D01*
X15339357Y-16511214D01*
X15310786Y-16525500D01*
X15296500Y-16539786D01*
X15610786Y-16711214D02*
X15582214Y-16696929D01*
X15567928Y-16682643D01*
X15553643Y-16654071D01*
X15553643Y-16568357D01*
X15567928Y-16539786D01*
X15582214Y-16525500D01*
X15610786Y-16511214D01*
X15653643Y-16511214D01*
X15682214Y-16525500D01*
X15696500Y-16539786D01*
X15710786Y-16568357D01*
X15710786Y-16654071D01*
X15696500Y-16682643D01*
X15682214Y-16696929D01*
X15653643Y-16711214D01*
X15610786Y-16711214D01*
X15882214Y-16711214D02*
X15853643Y-16696929D01*
X15839357Y-16668357D01*
X15839357Y-16411214D01*
X16110786Y-16696929D02*
X16082214Y-16711214D01*
X16025071Y-16711214D01*
X15996500Y-16696929D01*
X15982214Y-16668357D01*
X15982214Y-16554071D01*
X15996500Y-16525500D01*
X16025071Y-16511214D01*
X16082214Y-16511214D01*
X16110786Y-16525500D01*
X16125071Y-16554071D01*
X16125071Y-16582643D01*
X15982214Y-16611214D01*
X16239357Y-16696929D02*
X16267928Y-16711214D01*
X16325071Y-16711214D01*
X16353643Y-16696929D01*
X16367928Y-16668357D01*
X16367928Y-16654071D01*
X16353643Y-16625500D01*
X16325071Y-16611214D01*
X16282214Y-16611214D01*
X16253643Y-16596929D01*
X16239357Y-16568357D01*
X16239357Y-16554071D01*
X16253643Y-16525500D01*
X16282214Y-16511214D01*
X16325071Y-16511214D01*
X16353643Y-16525500D01*
X16467928Y-16825500D02*
X16482214Y-16811214D01*
X16510786Y-16768357D01*
X16525071Y-16739786D01*
X16539357Y-16696929D01*
X16553643Y-16625500D01*
X16553643Y-16568357D01*
X16539357Y-16496929D01*
X16525071Y-16454071D01*
X16510786Y-16425500D01*
X16482214Y-16382643D01*
X16467928Y-16368357D01*
X9879900Y-16920700D02*
X9981500Y-17022300D01*
X9981500Y-16920700D02*
X9879900Y-17022300D01*
X9930700Y-17022300D02*
X9981500Y-16971500D01*
X9930700Y-16920700D01*
X9879900Y-16971500D01*
X9930700Y-17022300D01*
X10425071Y-17107214D02*
X10253643Y-17107214D01*
X10339357Y-17107214D02*
X10339357Y-16807214D01*
X10310786Y-16850072D01*
X10282214Y-16878643D01*
X10253643Y-16892929D01*
X10553643Y-17078643D02*
X10567928Y-17092929D01*
X10553643Y-17107214D01*
X10539357Y-17092929D01*
X10553643Y-17078643D01*
X10553643Y-17107214D01*
X10753643Y-16807214D02*
X10782214Y-16807214D01*
X10810786Y-16821500D01*
X10825071Y-16835786D01*
X10839357Y-16864357D01*
X10853643Y-16921500D01*
X10853643Y-16992929D01*
X10839357Y-17050072D01*
X10825071Y-17078643D01*
X10810786Y-17092929D01*
X10782214Y-17107214D01*
X10753643Y-17107214D01*
X10725071Y-17092929D01*
X10710786Y-17078643D01*
X10696500Y-17050072D01*
X10682214Y-16992929D01*
X10682214Y-16921500D01*
X10696500Y-16864357D01*
X10710786Y-16835786D01*
X10725071Y-16821500D01*
X10753643Y-16807214D01*
X10967928Y-16835786D02*
X10982214Y-16821500D01*
X11010786Y-16807214D01*
X11082214Y-16807214D01*
X11110786Y-16821500D01*
X11125071Y-16835786D01*
X11139357Y-16864357D01*
X11139357Y-16892929D01*
X11125071Y-16935786D01*
X10953643Y-17107214D01*
X11139357Y-17107214D01*
X11267928Y-17107214D02*
X11267928Y-16907214D01*
X11267928Y-16935786D02*
X11282214Y-16921500D01*
X11310786Y-16907214D01*
X11353643Y-16907214D01*
X11382214Y-16921500D01*
X11396500Y-16950072D01*
X11396500Y-17107214D01*
X11396500Y-16950072D02*
X11410786Y-16921500D01*
X11439357Y-16907214D01*
X11482214Y-16907214D01*
X11510786Y-16921500D01*
X11525071Y-16950072D01*
X11525071Y-17107214D01*
X11667928Y-17107214D02*
X11667928Y-16907214D01*
X11667928Y-16935786D02*
X11682214Y-16921500D01*
X11710786Y-16907214D01*
X11753643Y-16907214D01*
X11782214Y-16921500D01*
X11796500Y-16950072D01*
X11796500Y-17107214D01*
X11796500Y-16950072D02*
X11810786Y-16921500D01*
X11839357Y-16907214D01*
X11882214Y-16907214D01*
X11910786Y-16921500D01*
X11925071Y-16950072D01*
X11925071Y-17107214D01*
X12510786Y-16792929D02*
X12253643Y-17178643D01*
X12896500Y-16807214D02*
X12925071Y-16807214D01*
X12953643Y-16821500D01*
X12967928Y-16835786D01*
X12982214Y-16864357D01*
X12996500Y-16921500D01*
X12996500Y-16992929D01*
X12982214Y-17050072D01*
X12967928Y-17078643D01*
X12953643Y-17092929D01*
X12925071Y-17107214D01*
X12896500Y-17107214D01*
X12867928Y-17092929D01*
X12853643Y-17078643D01*
X12839357Y-17050072D01*
X12825071Y-16992929D01*
X12825071Y-16921500D01*
X12839357Y-16864357D01*
X12853643Y-16835786D01*
X12867928Y-16821500D01*
X12896500Y-16807214D01*
X13125071Y-17078643D02*
X13139357Y-17092929D01*
X13125071Y-17107214D01*
X13110786Y-17092929D01*
X13125071Y-17078643D01*
X13125071Y-17107214D01*
X13325071Y-16807214D02*
X13353643Y-16807214D01*
X13382214Y-16821500D01*
X13396500Y-16835786D01*
X13410786Y-16864357D01*
X13425071Y-16921500D01*
X13425071Y-16992929D01*
X13410786Y-17050072D01*
X13396500Y-17078643D01*
X13382214Y-17092929D01*
X13353643Y-17107214D01*
X13325071Y-17107214D01*
X13296500Y-17092929D01*
X13282214Y-17078643D01*
X13267928Y-17050072D01*
X13253643Y-16992929D01*
X13253643Y-16921500D01*
X13267928Y-16864357D01*
X13282214Y-16835786D01*
X13296500Y-16821500D01*
X13325071Y-16807214D01*
X13682214Y-16907214D02*
X13682214Y-17107214D01*
X13610786Y-16792929D02*
X13539357Y-17007214D01*
X13725071Y-17007214D01*
X13896500Y-16807214D02*
X13925071Y-16807214D01*
X13953643Y-16821500D01*
X13967928Y-16835786D01*
X13982214Y-16864357D01*
X13996500Y-16921500D01*
X13996500Y-16992929D01*
X13982214Y-17050072D01*
X13967928Y-17078643D01*
X13953643Y-17092929D01*
X13925071Y-17107214D01*
X13896500Y-17107214D01*
X13867928Y-17092929D01*
X13853643Y-17078643D01*
X13839357Y-17050072D01*
X13825071Y-16992929D01*
X13825071Y-16921500D01*
X13839357Y-16864357D01*
X13853643Y-16835786D01*
X13867928Y-16821500D01*
X13896500Y-16807214D01*
X14110786Y-16807214D02*
X14110786Y-16864357D01*
X14225071Y-16807214D02*
X14225071Y-16864357D01*
X14667928Y-17221500D02*
X14653643Y-17207214D01*
X14625071Y-17164357D01*
X14610786Y-17135786D01*
X14596500Y-17092929D01*
X14582214Y-17021500D01*
X14582214Y-16964357D01*
X14596500Y-16892929D01*
X14610786Y-16850072D01*
X14625071Y-16821500D01*
X14653643Y-16778643D01*
X14667928Y-16764357D01*
X14939357Y-17107214D02*
X14767928Y-17107214D01*
X14853643Y-17107214D02*
X14853643Y-16807214D01*
X14825071Y-16850072D01*
X14796500Y-16878643D01*
X14767928Y-16892929D01*
X15053643Y-16835786D02*
X15067928Y-16821500D01*
X15096500Y-16807214D01*
X15167928Y-16807214D01*
X15196500Y-16821500D01*
X15210786Y-16835786D01*
X15225071Y-16864357D01*
X15225071Y-16892929D01*
X15210786Y-16935786D01*
X15039357Y-17107214D01*
X15225071Y-17107214D01*
X15582214Y-17107214D02*
X15582214Y-16807214D01*
X15710786Y-17107214D02*
X15710786Y-16950072D01*
X15696500Y-16921500D01*
X15667928Y-16907214D01*
X15625071Y-16907214D01*
X15596500Y-16921500D01*
X15582214Y-16935786D01*
X15896500Y-17107214D02*
X15867928Y-17092929D01*
X15853643Y-17078643D01*
X15839357Y-17050072D01*
X15839357Y-16964357D01*
X15853643Y-16935786D01*
X15867928Y-16921500D01*
X15896500Y-16907214D01*
X15939357Y-16907214D01*
X15967928Y-16921500D01*
X15982214Y-16935786D01*
X15996500Y-16964357D01*
X15996500Y-17050072D01*
X15982214Y-17078643D01*
X15967928Y-17092929D01*
X15939357Y-17107214D01*
X15896500Y-17107214D01*
X16167928Y-17107214D02*
X16139357Y-17092929D01*
X16125071Y-17064357D01*
X16125071Y-16807214D01*
X16396500Y-17092929D02*
X16367928Y-17107214D01*
X16310786Y-17107214D01*
X16282214Y-17092929D01*
X16267928Y-17064357D01*
X16267928Y-16950072D01*
X16282214Y-16921500D01*
X16310786Y-16907214D01*
X16367928Y-16907214D01*
X16396500Y-16921500D01*
X16410786Y-16950072D01*
X16410786Y-16978643D01*
X16267928Y-17007214D01*
X16525071Y-17092929D02*
X16553643Y-17107214D01*
X16610786Y-17107214D01*
X16639357Y-17092929D01*
X16653643Y-17064357D01*
X16653643Y-17050072D01*
X16639357Y-17021500D01*
X16610786Y-17007214D01*
X16567928Y-17007214D01*
X16539357Y-16992929D01*
X16525071Y-16964357D01*
X16525071Y-16950072D01*
X16539357Y-16921500D01*
X16567928Y-16907214D01*
X16610786Y-16907214D01*
X16639357Y-16921500D01*
X16753643Y-17221500D02*
X16767928Y-17207214D01*
X16796500Y-17164357D01*
X16810786Y-17135786D01*
X16825071Y-17092929D01*
X16839357Y-17021500D01*
X16839357Y-16964357D01*
X16825071Y-16892929D01*
X16810786Y-16850072D01*
X16796500Y-16821500D01*
X16767928Y-16778643D01*
X16753643Y-16764357D01*
X9856500Y-17242500D02*
X9856500Y-17492500D01*
X9731500Y-17367500D02*
X9981500Y-17367500D01*
X9981500Y-17367500D02*
G75*
G03X9981500Y-17367500I-125000J0D01*
G01*
X10253643Y-17231786D02*
X10267928Y-17217500D01*
X10296500Y-17203214D01*
X10367928Y-17203214D01*
X10396500Y-17217500D01*
X10410786Y-17231786D01*
X10425071Y-17260357D01*
X10425071Y-17288929D01*
X10410786Y-17331786D01*
X10239357Y-17503214D01*
X10425071Y-17503214D01*
X10553643Y-17474643D02*
X10567928Y-17488929D01*
X10553643Y-17503214D01*
X10539357Y-17488929D01*
X10553643Y-17474643D01*
X10553643Y-17503214D01*
X10839357Y-17203214D02*
X10696500Y-17203214D01*
X10682214Y-17346072D01*
X10696500Y-17331786D01*
X10725071Y-17317500D01*
X10796500Y-17317500D01*
X10825071Y-17331786D01*
X10839357Y-17346072D01*
X10853643Y-17374643D01*
X10853643Y-17446072D01*
X10839357Y-17474643D01*
X10825071Y-17488929D01*
X10796500Y-17503214D01*
X10725071Y-17503214D01*
X10696500Y-17488929D01*
X10682214Y-17474643D01*
X11039357Y-17203214D02*
X11067928Y-17203214D01*
X11096500Y-17217500D01*
X11110786Y-17231786D01*
X11125071Y-17260357D01*
X11139357Y-17317500D01*
X11139357Y-17388929D01*
X11125071Y-17446072D01*
X11110786Y-17474643D01*
X11096500Y-17488929D01*
X11067928Y-17503214D01*
X11039357Y-17503214D01*
X11010786Y-17488929D01*
X10996500Y-17474643D01*
X10982214Y-17446072D01*
X10967928Y-17388929D01*
X10967928Y-17317500D01*
X10982214Y-17260357D01*
X10996500Y-17231786D01*
X11010786Y-17217500D01*
X11039357Y-17203214D01*
X11267928Y-17503214D02*
X11267928Y-17303214D01*
X11267928Y-17331786D02*
X11282214Y-17317500D01*
X11310786Y-17303214D01*
X11353643Y-17303214D01*
X11382214Y-17317500D01*
X11396500Y-17346072D01*
X11396500Y-17503214D01*
X11396500Y-17346072D02*
X11410786Y-17317500D01*
X11439357Y-17303214D01*
X11482214Y-17303214D01*
X11510786Y-17317500D01*
X11525071Y-17346072D01*
X11525071Y-17503214D01*
X11667928Y-17503214D02*
X11667928Y-17303214D01*
X11667928Y-17331786D02*
X11682214Y-17317500D01*
X11710786Y-17303214D01*
X11753643Y-17303214D01*
X11782214Y-17317500D01*
X11796500Y-17346072D01*
X11796500Y-17503214D01*
X11796500Y-17346072D02*
X11810786Y-17317500D01*
X11839357Y-17303214D01*
X11882214Y-17303214D01*
X11910786Y-17317500D01*
X11925071Y-17346072D01*
X11925071Y-17503214D01*
X12510786Y-17188929D02*
X12253643Y-17574643D01*
X12896500Y-17203214D02*
X12925071Y-17203214D01*
X12953643Y-17217500D01*
X12967928Y-17231786D01*
X12982214Y-17260357D01*
X12996500Y-17317500D01*
X12996500Y-17388929D01*
X12982214Y-17446072D01*
X12967928Y-17474643D01*
X12953643Y-17488929D01*
X12925071Y-17503214D01*
X12896500Y-17503214D01*
X12867928Y-17488929D01*
X12853643Y-17474643D01*
X12839357Y-17446072D01*
X12825071Y-17388929D01*
X12825071Y-17317500D01*
X12839357Y-17260357D01*
X12853643Y-17231786D01*
X12867928Y-17217500D01*
X12896500Y-17203214D01*
X13125071Y-17474643D02*
X13139357Y-17488929D01*
X13125071Y-17503214D01*
X13110786Y-17488929D01*
X13125071Y-17474643D01*
X13125071Y-17503214D01*
X13325071Y-17203214D02*
X13353643Y-17203214D01*
X13382214Y-17217500D01*
X13396500Y-17231786D01*
X13410786Y-17260357D01*
X13425071Y-17317500D01*
X13425071Y-17388929D01*
X13410786Y-17446072D01*
X13396500Y-17474643D01*
X13382214Y-17488929D01*
X13353643Y-17503214D01*
X13325071Y-17503214D01*
X13296500Y-17488929D01*
X13282214Y-17474643D01*
X13267928Y-17446072D01*
X13253643Y-17388929D01*
X13253643Y-17317500D01*
X13267928Y-17260357D01*
X13282214Y-17231786D01*
X13296500Y-17217500D01*
X13325071Y-17203214D01*
X13567928Y-17503214D02*
X13625071Y-17503214D01*
X13653643Y-17488929D01*
X13667928Y-17474643D01*
X13696500Y-17431786D01*
X13710786Y-17374643D01*
X13710786Y-17260357D01*
X13696500Y-17231786D01*
X13682214Y-17217500D01*
X13653643Y-17203214D01*
X13596500Y-17203214D01*
X13567928Y-17217500D01*
X13553643Y-17231786D01*
X13539357Y-17260357D01*
X13539357Y-17331786D01*
X13553643Y-17360357D01*
X13567928Y-17374643D01*
X13596500Y-17388929D01*
X13653643Y-17388929D01*
X13682214Y-17374643D01*
X13696500Y-17360357D01*
X13710786Y-17331786D01*
X13882214Y-17331786D02*
X13853643Y-17317500D01*
X13839357Y-17303214D01*
X13825071Y-17274643D01*
X13825071Y-17260357D01*
X13839357Y-17231786D01*
X13853643Y-17217500D01*
X13882214Y-17203214D01*
X13939357Y-17203214D01*
X13967928Y-17217500D01*
X13982214Y-17231786D01*
X13996500Y-17260357D01*
X13996500Y-17274643D01*
X13982214Y-17303214D01*
X13967928Y-17317500D01*
X13939357Y-17331786D01*
X13882214Y-17331786D01*
X13853643Y-17346072D01*
X13839357Y-17360357D01*
X13825071Y-17388929D01*
X13825071Y-17446072D01*
X13839357Y-17474643D01*
X13853643Y-17488929D01*
X13882214Y-17503214D01*
X13939357Y-17503214D01*
X13967928Y-17488929D01*
X13982214Y-17474643D01*
X13996500Y-17446072D01*
X13996500Y-17388929D01*
X13982214Y-17360357D01*
X13967928Y-17346072D01*
X13939357Y-17331786D01*
X14110786Y-17203214D02*
X14110786Y-17260357D01*
X14225071Y-17203214D02*
X14225071Y-17260357D01*
X14667928Y-17617500D02*
X14653643Y-17603214D01*
X14625071Y-17560357D01*
X14610786Y-17531786D01*
X14596500Y-17488929D01*
X14582214Y-17417500D01*
X14582214Y-17360357D01*
X14596500Y-17288929D01*
X14610786Y-17246072D01*
X14625071Y-17217500D01*
X14653643Y-17174643D01*
X14667928Y-17160357D01*
X14910786Y-17303214D02*
X14910786Y-17503214D01*
X14839357Y-17188929D02*
X14767928Y-17403214D01*
X14953643Y-17403214D01*
X15296500Y-17503214D02*
X15296500Y-17203214D01*
X15425071Y-17503214D02*
X15425071Y-17346072D01*
X15410786Y-17317500D01*
X15382214Y-17303214D01*
X15339357Y-17303214D01*
X15310786Y-17317500D01*
X15296500Y-17331786D01*
X15610786Y-17503214D02*
X15582214Y-17488929D01*
X15567928Y-17474643D01*
X15553643Y-17446072D01*
X15553643Y-17360357D01*
X15567928Y-17331786D01*
X15582214Y-17317500D01*
X15610786Y-17303214D01*
X15653643Y-17303214D01*
X15682214Y-17317500D01*
X15696500Y-17331786D01*
X15710786Y-17360357D01*
X15710786Y-17446072D01*
X15696500Y-17474643D01*
X15682214Y-17488929D01*
X15653643Y-17503214D01*
X15610786Y-17503214D01*
X15882214Y-17503214D02*
X15853643Y-17488929D01*
X15839357Y-17460357D01*
X15839357Y-17203214D01*
X16110786Y-17488929D02*
X16082214Y-17503214D01*
X16025071Y-17503214D01*
X15996500Y-17488929D01*
X15982214Y-17460357D01*
X15982214Y-17346072D01*
X15996500Y-17317500D01*
X16025071Y-17303214D01*
X16082214Y-17303214D01*
X16110786Y-17317500D01*
X16125071Y-17346072D01*
X16125071Y-17374643D01*
X15982214Y-17403214D01*
X16239357Y-17488929D02*
X16267928Y-17503214D01*
X16325071Y-17503214D01*
X16353643Y-17488929D01*
X16367928Y-17460357D01*
X16367928Y-17446072D01*
X16353643Y-17417500D01*
X16325071Y-17403214D01*
X16282214Y-17403214D01*
X16253643Y-17388929D01*
X16239357Y-17360357D01*
X16239357Y-17346072D01*
X16253643Y-17317500D01*
X16282214Y-17303214D01*
X16325071Y-17303214D01*
X16353643Y-17317500D01*
X16467928Y-17617500D02*
X16482214Y-17603214D01*
X16510786Y-17560357D01*
X16525071Y-17531786D01*
X16539357Y-17488929D01*
X16553643Y-17417500D01*
X16553643Y-17360357D01*
X16539357Y-17288929D01*
X16525071Y-17246072D01*
X16510786Y-17217500D01*
X16482214Y-17174643D01*
X16467928Y-17160357D01*
X9747191Y-18329191D02*
X9747191Y-17197809D01*
X8615809Y-17197809D01*
X8615809Y-18329191D01*
X9747191Y-18329191D01*
X9981500Y-17763500D02*
G75*
G03X9981500Y-17763500I-800000J0D01*
G01*
X10425071Y-17899214D02*
X10253643Y-17899214D01*
X10339357Y-17899214D02*
X10339357Y-17599214D01*
X10310786Y-17642072D01*
X10282214Y-17670643D01*
X10253643Y-17684929D01*
X10682214Y-17599214D02*
X10625071Y-17599214D01*
X10596500Y-17613500D01*
X10582214Y-17627786D01*
X10553643Y-17670643D01*
X10539357Y-17727786D01*
X10539357Y-17842072D01*
X10553643Y-17870643D01*
X10567928Y-17884929D01*
X10596500Y-17899214D01*
X10653643Y-17899214D01*
X10682214Y-17884929D01*
X10696500Y-17870643D01*
X10710786Y-17842072D01*
X10710786Y-17770643D01*
X10696500Y-17742072D01*
X10682214Y-17727786D01*
X10653643Y-17713500D01*
X10596500Y-17713500D01*
X10567928Y-17727786D01*
X10553643Y-17742072D01*
X10539357Y-17770643D01*
X10839357Y-17870643D02*
X10853643Y-17884929D01*
X10839357Y-17899214D01*
X10825071Y-17884929D01*
X10839357Y-17870643D01*
X10839357Y-17899214D01*
X11039357Y-17599214D02*
X11067928Y-17599214D01*
X11096500Y-17613500D01*
X11110786Y-17627786D01*
X11125071Y-17656357D01*
X11139357Y-17713500D01*
X11139357Y-17784929D01*
X11125071Y-17842072D01*
X11110786Y-17870643D01*
X11096500Y-17884929D01*
X11067928Y-17899214D01*
X11039357Y-17899214D01*
X11010786Y-17884929D01*
X10996500Y-17870643D01*
X10982214Y-17842072D01*
X10967928Y-17784929D01*
X10967928Y-17713500D01*
X10982214Y-17656357D01*
X10996500Y-17627786D01*
X11010786Y-17613500D01*
X11039357Y-17599214D01*
X11325071Y-17599214D02*
X11353643Y-17599214D01*
X11382214Y-17613500D01*
X11396500Y-17627786D01*
X11410786Y-17656357D01*
X11425071Y-17713500D01*
X11425071Y-17784929D01*
X11410786Y-17842072D01*
X11396500Y-17870643D01*
X11382214Y-17884929D01*
X11353643Y-17899214D01*
X11325071Y-17899214D01*
X11296500Y-17884929D01*
X11282214Y-17870643D01*
X11267928Y-17842072D01*
X11253643Y-17784929D01*
X11253643Y-17713500D01*
X11267928Y-17656357D01*
X11282214Y-17627786D01*
X11296500Y-17613500D01*
X11325071Y-17599214D01*
X11553643Y-17899214D02*
X11553643Y-17699214D01*
X11553643Y-17727786D02*
X11567928Y-17713500D01*
X11596500Y-17699214D01*
X11639357Y-17699214D01*
X11667928Y-17713500D01*
X11682214Y-17742072D01*
X11682214Y-17899214D01*
X11682214Y-17742072D02*
X11696500Y-17713500D01*
X11725071Y-17699214D01*
X11767928Y-17699214D01*
X11796500Y-17713500D01*
X11810786Y-17742072D01*
X11810786Y-17899214D01*
X11953643Y-17899214D02*
X11953643Y-17699214D01*
X11953643Y-17727786D02*
X11967928Y-17713500D01*
X11996500Y-17699214D01*
X12039357Y-17699214D01*
X12067928Y-17713500D01*
X12082214Y-17742072D01*
X12082214Y-17899214D01*
X12082214Y-17742072D02*
X12096500Y-17713500D01*
X12125071Y-17699214D01*
X12167928Y-17699214D01*
X12196500Y-17713500D01*
X12210786Y-17742072D01*
X12210786Y-17899214D01*
X12796500Y-17584929D02*
X12539357Y-17970643D01*
X13182214Y-17599214D02*
X13210786Y-17599214D01*
X13239357Y-17613500D01*
X13253643Y-17627786D01*
X13267928Y-17656357D01*
X13282214Y-17713500D01*
X13282214Y-17784929D01*
X13267928Y-17842072D01*
X13253643Y-17870643D01*
X13239357Y-17884929D01*
X13210786Y-17899214D01*
X13182214Y-17899214D01*
X13153643Y-17884929D01*
X13139357Y-17870643D01*
X13125071Y-17842072D01*
X13110786Y-17784929D01*
X13110786Y-17713500D01*
X13125071Y-17656357D01*
X13139357Y-17627786D01*
X13153643Y-17613500D01*
X13182214Y-17599214D01*
X13410786Y-17870643D02*
X13425071Y-17884929D01*
X13410786Y-17899214D01*
X13396500Y-17884929D01*
X13410786Y-17870643D01*
X13410786Y-17899214D01*
X13682214Y-17599214D02*
X13625071Y-17599214D01*
X13596500Y-17613500D01*
X13582214Y-17627786D01*
X13553643Y-17670643D01*
X13539357Y-17727786D01*
X13539357Y-17842072D01*
X13553643Y-17870643D01*
X13567928Y-17884929D01*
X13596500Y-17899214D01*
X13653643Y-17899214D01*
X13682214Y-17884929D01*
X13696500Y-17870643D01*
X13710786Y-17842072D01*
X13710786Y-17770643D01*
X13696500Y-17742072D01*
X13682214Y-17727786D01*
X13653643Y-17713500D01*
X13596500Y-17713500D01*
X13567928Y-17727786D01*
X13553643Y-17742072D01*
X13539357Y-17770643D01*
X13810786Y-17599214D02*
X13996500Y-17599214D01*
X13896500Y-17713500D01*
X13939357Y-17713500D01*
X13967928Y-17727786D01*
X13982214Y-17742072D01*
X13996500Y-17770643D01*
X13996500Y-17842072D01*
X13982214Y-17870643D01*
X13967928Y-17884929D01*
X13939357Y-17899214D01*
X13853643Y-17899214D01*
X13825071Y-17884929D01*
X13810786Y-17870643D01*
X14182214Y-17599214D02*
X14210786Y-17599214D01*
X14239357Y-17613500D01*
X14253643Y-17627786D01*
X14267928Y-17656357D01*
X14282214Y-17713500D01*
X14282214Y-17784929D01*
X14267928Y-17842072D01*
X14253643Y-17870643D01*
X14239357Y-17884929D01*
X14210786Y-17899214D01*
X14182214Y-17899214D01*
X14153643Y-17884929D01*
X14139357Y-17870643D01*
X14125071Y-17842072D01*
X14110786Y-17784929D01*
X14110786Y-17713500D01*
X14125071Y-17656357D01*
X14139357Y-17627786D01*
X14153643Y-17613500D01*
X14182214Y-17599214D01*
X14396500Y-17599214D02*
X14396500Y-17656357D01*
X14510786Y-17599214D02*
X14510786Y-17656357D01*
X14953643Y-18013500D02*
X14939357Y-17999214D01*
X14910786Y-17956357D01*
X14896500Y-17927786D01*
X14882214Y-17884929D01*
X14867928Y-17813500D01*
X14867928Y-17756357D01*
X14882214Y-17684929D01*
X14896500Y-17642072D01*
X14910786Y-17613500D01*
X14939357Y-17570643D01*
X14953643Y-17556357D01*
X15225071Y-17899214D02*
X15053643Y-17899214D01*
X15139357Y-17899214D02*
X15139357Y-17599214D01*
X15110786Y-17642072D01*
X15082214Y-17670643D01*
X15053643Y-17684929D01*
X15582214Y-17899214D02*
X15582214Y-17599214D01*
X15710786Y-17899214D02*
X15710786Y-17742072D01*
X15696500Y-17713500D01*
X15667928Y-17699214D01*
X15625071Y-17699214D01*
X15596500Y-17713500D01*
X15582214Y-17727786D01*
X15896500Y-17899214D02*
X15867928Y-17884929D01*
X15853643Y-17870643D01*
X15839357Y-17842072D01*
X15839357Y-17756357D01*
X15853643Y-17727786D01*
X15867928Y-17713500D01*
X15896500Y-17699214D01*
X15939357Y-17699214D01*
X15967928Y-17713500D01*
X15982214Y-17727786D01*
X15996500Y-17756357D01*
X15996500Y-17842072D01*
X15982214Y-17870643D01*
X15967928Y-17884929D01*
X15939357Y-17899214D01*
X15896500Y-17899214D01*
X16167928Y-17899214D02*
X16139357Y-17884929D01*
X16125071Y-17856357D01*
X16125071Y-17599214D01*
X16396500Y-17884929D02*
X16367928Y-17899214D01*
X16310786Y-17899214D01*
X16282214Y-17884929D01*
X16267928Y-17856357D01*
X16267928Y-17742072D01*
X16282214Y-17713500D01*
X16310786Y-17699214D01*
X16367928Y-17699214D01*
X16396500Y-17713500D01*
X16410786Y-17742072D01*
X16410786Y-17770643D01*
X16267928Y-17799214D01*
X16510786Y-18013500D02*
X16525071Y-17999214D01*
X16553643Y-17956357D01*
X16567928Y-17927786D01*
X16582214Y-17884929D01*
X16596500Y-17813500D01*
X16596500Y-17756357D01*
X16582214Y-17684929D01*
X16567928Y-17642072D01*
X16553643Y-17613500D01*
X16525071Y-17570643D01*
X16510786Y-17556357D01*
M02*
