%FSLAX45Y45*%
G04 Gerber Fmt 4.5, Leading zero omitted, Abs format (unit mm)*
G04 Created by KiCad (PCBNEW (5.1.5)-3) date 2022-04-23 22:50:25*
%MOMM*%
%LPD*%
G04 APERTURE LIST*
%TA.AperFunction,Profile*%
%ADD10C,0.050000*%
%TD*%
%ADD11C,0.200000*%
%ADD12C,0.300000*%
G04 APERTURE END LIST*
D10*
X16484000Y-12641000D02*
G75*
G02X16284000Y-12841000I-200000J0D01*
G01*
X10184000Y-12841000D02*
G75*
G02X9984000Y-12641000I0J200000D01*
G01*
X9984000Y-6541000D02*
G75*
G02X10184000Y-6341000I200000J0D01*
G01*
X16284000Y-6341000D02*
G75*
G02X16484000Y-6541000I0J-200000D01*
G01*
X9984000Y-6541000D02*
X9984000Y-12641000D01*
X16284000Y-6341000D02*
X10184000Y-6341000D01*
X16484000Y-12641000D02*
X16484000Y-6541000D01*
X10184000Y-12841000D02*
X16284000Y-12841000D01*
D11*
X10184050Y-6538650D02*
X10584050Y-6938650D01*
X10584050Y-6538650D02*
X10184050Y-6938650D01*
X15886350Y-6538650D02*
X16286350Y-6938650D01*
X16286350Y-6538650D02*
X15886350Y-6938650D01*
X15886350Y-10539150D02*
X16286350Y-10939150D01*
X16286350Y-10539150D02*
X15886350Y-10939150D01*
X10184050Y-10539150D02*
X10584050Y-10939150D01*
X10584050Y-10539150D02*
X10184050Y-10939150D01*
D12*
X10267928Y-13309214D02*
X10267928Y-13009214D01*
X10339357Y-13009214D01*
X10382214Y-13023500D01*
X10410786Y-13052071D01*
X10425071Y-13080643D01*
X10439357Y-13137786D01*
X10439357Y-13180643D01*
X10425071Y-13237786D01*
X10410786Y-13266357D01*
X10382214Y-13294929D01*
X10339357Y-13309214D01*
X10267928Y-13309214D01*
X10567928Y-13309214D02*
X10567928Y-13109214D01*
X10567928Y-13166357D02*
X10582214Y-13137786D01*
X10596500Y-13123500D01*
X10625071Y-13109214D01*
X10653643Y-13109214D01*
X10753643Y-13309214D02*
X10753643Y-13109214D01*
X10753643Y-13009214D02*
X10739357Y-13023500D01*
X10753643Y-13037786D01*
X10767928Y-13023500D01*
X10753643Y-13009214D01*
X10753643Y-13037786D01*
X10939357Y-13309214D02*
X10910786Y-13294929D01*
X10896500Y-13266357D01*
X10896500Y-13009214D01*
X11096500Y-13309214D02*
X11067928Y-13294929D01*
X11053643Y-13266357D01*
X11053643Y-13009214D01*
X11439357Y-13309214D02*
X11439357Y-13009214D01*
X11539357Y-13223500D01*
X11639357Y-13009214D01*
X11639357Y-13309214D01*
X11910786Y-13309214D02*
X11910786Y-13152071D01*
X11896500Y-13123500D01*
X11867928Y-13109214D01*
X11810786Y-13109214D01*
X11782214Y-13123500D01*
X11910786Y-13294929D02*
X11882214Y-13309214D01*
X11810786Y-13309214D01*
X11782214Y-13294929D01*
X11767928Y-13266357D01*
X11767928Y-13237786D01*
X11782214Y-13209214D01*
X11810786Y-13194929D01*
X11882214Y-13194929D01*
X11910786Y-13180643D01*
X12053643Y-13109214D02*
X12053643Y-13409214D01*
X12053643Y-13123500D02*
X12082214Y-13109214D01*
X12139357Y-13109214D01*
X12167928Y-13123500D01*
X12182214Y-13137786D01*
X12196500Y-13166357D01*
X12196500Y-13252071D01*
X12182214Y-13280643D01*
X12167928Y-13294929D01*
X12139357Y-13309214D01*
X12082214Y-13309214D01*
X12053643Y-13294929D01*
X12325071Y-13280643D02*
X12339357Y-13294929D01*
X12325071Y-13309214D01*
X12310786Y-13294929D01*
X12325071Y-13280643D01*
X12325071Y-13309214D01*
X12325071Y-13123500D02*
X12339357Y-13137786D01*
X12325071Y-13152071D01*
X12310786Y-13137786D01*
X12325071Y-13123500D01*
X12325071Y-13152071D01*
X9581500Y-13603500D02*
X9981500Y-14003500D01*
X9981500Y-13603500D02*
X9581500Y-14003500D01*
X10396500Y-13739214D02*
X10396500Y-13939214D01*
X10325071Y-13624929D02*
X10253643Y-13839214D01*
X10439357Y-13839214D01*
X10553643Y-13910643D02*
X10567928Y-13924929D01*
X10553643Y-13939214D01*
X10539357Y-13924929D01*
X10553643Y-13910643D01*
X10553643Y-13939214D01*
X10753643Y-13639214D02*
X10782214Y-13639214D01*
X10810786Y-13653500D01*
X10825071Y-13667786D01*
X10839357Y-13696357D01*
X10853643Y-13753500D01*
X10853643Y-13824929D01*
X10839357Y-13882071D01*
X10825071Y-13910643D01*
X10810786Y-13924929D01*
X10782214Y-13939214D01*
X10753643Y-13939214D01*
X10725071Y-13924929D01*
X10710786Y-13910643D01*
X10696500Y-13882071D01*
X10682214Y-13824929D01*
X10682214Y-13753500D01*
X10696500Y-13696357D01*
X10710786Y-13667786D01*
X10725071Y-13653500D01*
X10753643Y-13639214D01*
X11039357Y-13639214D02*
X11067928Y-13639214D01*
X11096500Y-13653500D01*
X11110786Y-13667786D01*
X11125071Y-13696357D01*
X11139357Y-13753500D01*
X11139357Y-13824929D01*
X11125071Y-13882071D01*
X11110786Y-13910643D01*
X11096500Y-13924929D01*
X11067928Y-13939214D01*
X11039357Y-13939214D01*
X11010786Y-13924929D01*
X10996500Y-13910643D01*
X10982214Y-13882071D01*
X10967928Y-13824929D01*
X10967928Y-13753500D01*
X10982214Y-13696357D01*
X10996500Y-13667786D01*
X11010786Y-13653500D01*
X11039357Y-13639214D01*
X11267928Y-13939214D02*
X11267928Y-13739214D01*
X11267928Y-13767786D02*
X11282214Y-13753500D01*
X11310786Y-13739214D01*
X11353643Y-13739214D01*
X11382214Y-13753500D01*
X11396500Y-13782071D01*
X11396500Y-13939214D01*
X11396500Y-13782071D02*
X11410786Y-13753500D01*
X11439357Y-13739214D01*
X11482214Y-13739214D01*
X11510786Y-13753500D01*
X11525071Y-13782071D01*
X11525071Y-13939214D01*
X11667928Y-13939214D02*
X11667928Y-13739214D01*
X11667928Y-13767786D02*
X11682214Y-13753500D01*
X11710786Y-13739214D01*
X11753643Y-13739214D01*
X11782214Y-13753500D01*
X11796500Y-13782071D01*
X11796500Y-13939214D01*
X11796500Y-13782071D02*
X11810786Y-13753500D01*
X11839357Y-13739214D01*
X11882214Y-13739214D01*
X11910786Y-13753500D01*
X11925071Y-13782071D01*
X11925071Y-13939214D01*
X12510786Y-13624929D02*
X12253643Y-14010643D01*
X12896500Y-13639214D02*
X12925071Y-13639214D01*
X12953643Y-13653500D01*
X12967928Y-13667786D01*
X12982214Y-13696357D01*
X12996500Y-13753500D01*
X12996500Y-13824929D01*
X12982214Y-13882071D01*
X12967928Y-13910643D01*
X12953643Y-13924929D01*
X12925071Y-13939214D01*
X12896500Y-13939214D01*
X12867928Y-13924929D01*
X12853643Y-13910643D01*
X12839357Y-13882071D01*
X12825071Y-13824929D01*
X12825071Y-13753500D01*
X12839357Y-13696357D01*
X12853643Y-13667786D01*
X12867928Y-13653500D01*
X12896500Y-13639214D01*
X13125071Y-13910643D02*
X13139357Y-13924929D01*
X13125071Y-13939214D01*
X13110786Y-13924929D01*
X13125071Y-13910643D01*
X13125071Y-13939214D01*
X13425071Y-13939214D02*
X13253643Y-13939214D01*
X13339357Y-13939214D02*
X13339357Y-13639214D01*
X13310786Y-13682071D01*
X13282214Y-13710643D01*
X13253643Y-13724929D01*
X13696500Y-13639214D02*
X13553643Y-13639214D01*
X13539357Y-13782071D01*
X13553643Y-13767786D01*
X13582214Y-13753500D01*
X13653643Y-13753500D01*
X13682214Y-13767786D01*
X13696500Y-13782071D01*
X13710786Y-13810643D01*
X13710786Y-13882071D01*
X13696500Y-13910643D01*
X13682214Y-13924929D01*
X13653643Y-13939214D01*
X13582214Y-13939214D01*
X13553643Y-13924929D01*
X13539357Y-13910643D01*
X13810786Y-13639214D02*
X14010786Y-13639214D01*
X13882214Y-13939214D01*
X14110786Y-13639214D02*
X14110786Y-13696357D01*
X14225071Y-13639214D02*
X14225071Y-13696357D01*
X14667928Y-14053500D02*
X14653643Y-14039214D01*
X14625071Y-13996357D01*
X14610786Y-13967786D01*
X14596500Y-13924929D01*
X14582214Y-13853500D01*
X14582214Y-13796357D01*
X14596500Y-13724929D01*
X14610786Y-13682071D01*
X14625071Y-13653500D01*
X14653643Y-13610643D01*
X14667928Y-13596357D01*
X14910786Y-13739214D02*
X14910786Y-13939214D01*
X14839357Y-13624929D02*
X14767928Y-13839214D01*
X14953643Y-13839214D01*
X15296500Y-13939214D02*
X15296500Y-13639214D01*
X15425071Y-13939214D02*
X15425071Y-13782071D01*
X15410786Y-13753500D01*
X15382214Y-13739214D01*
X15339357Y-13739214D01*
X15310786Y-13753500D01*
X15296500Y-13767786D01*
X15610786Y-13939214D02*
X15582214Y-13924929D01*
X15567928Y-13910643D01*
X15553643Y-13882071D01*
X15553643Y-13796357D01*
X15567928Y-13767786D01*
X15582214Y-13753500D01*
X15610786Y-13739214D01*
X15653643Y-13739214D01*
X15682214Y-13753500D01*
X15696500Y-13767786D01*
X15710786Y-13796357D01*
X15710786Y-13882071D01*
X15696500Y-13910643D01*
X15682214Y-13924929D01*
X15653643Y-13939214D01*
X15610786Y-13939214D01*
X15882214Y-13939214D02*
X15853643Y-13924929D01*
X15839357Y-13896357D01*
X15839357Y-13639214D01*
X16110786Y-13924929D02*
X16082214Y-13939214D01*
X16025071Y-13939214D01*
X15996500Y-13924929D01*
X15982214Y-13896357D01*
X15982214Y-13782071D01*
X15996500Y-13753500D01*
X16025071Y-13739214D01*
X16082214Y-13739214D01*
X16110786Y-13753500D01*
X16125071Y-13782071D01*
X16125071Y-13810643D01*
X15982214Y-13839214D01*
X16239357Y-13924929D02*
X16267928Y-13939214D01*
X16325071Y-13939214D01*
X16353643Y-13924929D01*
X16367928Y-13896357D01*
X16367928Y-13882071D01*
X16353643Y-13853500D01*
X16325071Y-13839214D01*
X16282214Y-13839214D01*
X16253643Y-13824929D01*
X16239357Y-13796357D01*
X16239357Y-13782071D01*
X16253643Y-13753500D01*
X16282214Y-13739214D01*
X16325071Y-13739214D01*
X16353643Y-13753500D01*
X16467928Y-14053500D02*
X16482214Y-14039214D01*
X16510786Y-13996357D01*
X16525071Y-13967786D01*
X16539357Y-13924929D01*
X16553643Y-13853500D01*
X16553643Y-13796357D01*
X16539357Y-13724929D01*
X16525071Y-13682071D01*
X16510786Y-13653500D01*
X16482214Y-13610643D01*
X16467928Y-13596357D01*
X17010786Y-14053500D02*
X16996500Y-14039214D01*
X16967928Y-13996357D01*
X16953643Y-13967786D01*
X16939357Y-13924929D01*
X16925071Y-13853500D01*
X16925071Y-13796357D01*
X16939357Y-13724929D01*
X16953643Y-13682071D01*
X16967928Y-13653500D01*
X16996500Y-13610643D01*
X17010786Y-13596357D01*
X17125071Y-13739214D02*
X17125071Y-13939214D01*
X17125071Y-13767786D02*
X17139357Y-13753500D01*
X17167928Y-13739214D01*
X17210786Y-13739214D01*
X17239357Y-13753500D01*
X17253643Y-13782071D01*
X17253643Y-13939214D01*
X17439357Y-13939214D02*
X17410786Y-13924929D01*
X17396500Y-13910643D01*
X17382214Y-13882071D01*
X17382214Y-13796357D01*
X17396500Y-13767786D01*
X17410786Y-13753500D01*
X17439357Y-13739214D01*
X17482214Y-13739214D01*
X17510786Y-13753500D01*
X17525071Y-13767786D01*
X17539357Y-13796357D01*
X17539357Y-13882071D01*
X17525071Y-13910643D01*
X17510786Y-13924929D01*
X17482214Y-13939214D01*
X17439357Y-13939214D01*
X17625071Y-13739214D02*
X17739357Y-13739214D01*
X17667928Y-13639214D02*
X17667928Y-13896357D01*
X17682214Y-13924929D01*
X17710786Y-13939214D01*
X17739357Y-13939214D01*
X18067928Y-13739214D02*
X18067928Y-14039214D01*
X18067928Y-13753500D02*
X18096500Y-13739214D01*
X18153643Y-13739214D01*
X18182214Y-13753500D01*
X18196500Y-13767786D01*
X18210786Y-13796357D01*
X18210786Y-13882071D01*
X18196500Y-13910643D01*
X18182214Y-13924929D01*
X18153643Y-13939214D01*
X18096500Y-13939214D01*
X18067928Y-13924929D01*
X18382214Y-13939214D02*
X18353643Y-13924929D01*
X18339357Y-13896357D01*
X18339357Y-13639214D01*
X18625071Y-13939214D02*
X18625071Y-13782071D01*
X18610786Y-13753500D01*
X18582214Y-13739214D01*
X18525071Y-13739214D01*
X18496500Y-13753500D01*
X18625071Y-13924929D02*
X18596500Y-13939214D01*
X18525071Y-13939214D01*
X18496500Y-13924929D01*
X18482214Y-13896357D01*
X18482214Y-13867786D01*
X18496500Y-13839214D01*
X18525071Y-13824929D01*
X18596500Y-13824929D01*
X18625071Y-13810643D01*
X18725071Y-13739214D02*
X18839357Y-13739214D01*
X18767928Y-13639214D02*
X18767928Y-13896357D01*
X18782214Y-13924929D01*
X18810786Y-13939214D01*
X18839357Y-13939214D01*
X19053643Y-13924929D02*
X19025071Y-13939214D01*
X18967928Y-13939214D01*
X18939357Y-13924929D01*
X18925071Y-13896357D01*
X18925071Y-13782071D01*
X18939357Y-13753500D01*
X18967928Y-13739214D01*
X19025071Y-13739214D01*
X19053643Y-13753500D01*
X19067928Y-13782071D01*
X19067928Y-13810643D01*
X18925071Y-13839214D01*
X19325071Y-13939214D02*
X19325071Y-13639214D01*
X19325071Y-13924929D02*
X19296500Y-13939214D01*
X19239357Y-13939214D01*
X19210786Y-13924929D01*
X19196500Y-13910643D01*
X19182214Y-13882071D01*
X19182214Y-13796357D01*
X19196500Y-13767786D01*
X19210786Y-13753500D01*
X19239357Y-13739214D01*
X19296500Y-13739214D01*
X19325071Y-13753500D01*
X19439357Y-14053500D02*
X19453643Y-14039214D01*
X19482214Y-13996357D01*
X19496500Y-13967786D01*
X19510786Y-13924929D01*
X19525071Y-13853500D01*
X19525071Y-13796357D01*
X19510786Y-13724929D01*
X19496500Y-13682071D01*
X19482214Y-13653500D01*
X19453643Y-13610643D01*
X19439357Y-13596357D01*
M02*
