G04 #@! TF.GenerationSoftware,KiCad,Pcbnew,(5.1.5)-3*
G04 #@! TF.CreationDate,2022-04-23T22:50:00-04:00*
G04 #@! TF.ProjectId,SailCam_MK5,5361696c-4361-46d5-9f4d-4b352e6b6963,rev?*
G04 #@! TF.SameCoordinates,Original*
G04 #@! TF.FileFunction,Legend,Top*
G04 #@! TF.FilePolarity,Positive*
%FSLAX46Y46*%
G04 Gerber Fmt 4.6, Leading zero omitted, Abs format (unit mm)*
G04 Created by KiCad (PCBNEW (5.1.5)-3) date 2022-04-23 22:50:00*
%MOMM*%
%LPD*%
G04 APERTURE LIST*
%ADD10C,0.120000*%
%ADD11C,0.127000*%
%ADD12C,0.400000*%
%ADD13C,0.200000*%
%ADD14C,0.100000*%
%ADD15C,0.150000*%
G04 APERTURE END LIST*
D10*
X124340000Y-69510000D02*
G75*
G03X124340000Y-69510000I-2000000J0D01*
G01*
X144340000Y-69510000D02*
G75*
G03X144340000Y-69510000I-2000000J0D01*
G01*
X113640000Y-105060000D02*
X109940000Y-105060000D01*
X113640000Y-103160000D02*
X113640000Y-105060000D01*
X109940000Y-103160000D02*
X113640000Y-103160000D01*
X109940000Y-105060000D02*
X109940000Y-103160000D01*
X118370000Y-128310000D02*
X118370000Y-100370000D01*
X146310000Y-128310000D02*
X118370000Y-128310000D01*
X146310000Y-100370000D02*
X146310000Y-128310000D01*
X128911000Y-104815000D02*
G75*
G03X128911000Y-104815000I-381000J0D01*
G01*
X126879000Y-101313000D02*
X126879000Y-103980000D01*
X137801000Y-101313000D02*
X126879000Y-101313000D01*
X137801000Y-103980000D02*
X137801000Y-101313000D01*
X126879000Y-103980000D02*
X137801000Y-103980000D01*
X146310000Y-100370000D02*
X118370000Y-100370000D01*
D11*
X146242000Y-90840000D02*
X139638000Y-90840000D01*
X146242000Y-84744000D02*
X146242000Y-90840000D01*
X145805000Y-84744000D02*
X146242000Y-84744000D01*
X139638000Y-84744000D02*
X139638000Y-90840000D01*
X140075000Y-84744000D02*
X139638000Y-84744000D01*
D10*
X136460000Y-85960000D02*
X135690000Y-85960000D01*
X128380000Y-85960000D02*
X129150000Y-85960000D01*
X135690000Y-84590000D02*
X129150000Y-84590000D01*
X135690000Y-87330000D02*
X135690000Y-84590000D01*
X129150000Y-87330000D02*
X135690000Y-87330000D01*
X129150000Y-84590000D02*
X129150000Y-87330000D01*
X106661100Y-75789100D02*
X106661100Y-80030900D01*
X111918900Y-80030900D02*
X111918900Y-75789100D01*
X108677860Y-65484500D02*
X107639000Y-65484500D01*
X107639000Y-65484500D02*
X107639000Y-67135500D01*
X110941000Y-65484500D02*
X109902140Y-65484500D01*
X110941000Y-67135500D02*
X110941000Y-65484500D01*
X108952139Y-67135500D02*
X109627861Y-67135500D01*
X122860900Y-83781100D02*
X118619100Y-83781100D01*
X118619100Y-89038900D02*
X122860900Y-89038900D01*
X151664500Y-98822140D02*
X151664500Y-99835600D01*
X151664500Y-99835600D02*
X153315500Y-99835600D01*
X151664500Y-96584400D02*
X151664500Y-97597860D01*
X153315500Y-96584400D02*
X151664500Y-96584400D01*
X153315500Y-98547861D02*
X153315500Y-97872139D01*
X162415500Y-97597860D02*
X162415500Y-96584400D01*
X162415500Y-96584400D02*
X160764500Y-96584400D01*
X162415500Y-99835600D02*
X162415500Y-98822140D01*
X160764500Y-99835600D02*
X162415500Y-99835600D01*
X160764500Y-97872139D02*
X160764500Y-98547861D01*
D12*
X130040000Y-90110000D02*
G75*
G03X130040000Y-90110000I-50000J0D01*
G01*
D11*
X131510000Y-92560000D02*
X133270000Y-92560000D01*
X131510000Y-89660000D02*
X133270000Y-89660000D01*
X160000000Y-122935000D02*
X157980000Y-122935000D01*
X157980000Y-122935000D02*
G75*
G02X156660000Y-121665000I-25000J1295000D01*
G01*
X156660000Y-121665000D02*
X156660000Y-112855000D01*
X156660000Y-112855000D02*
G75*
G02X157980000Y-111585000I1295000J-25000D01*
G01*
X157980000Y-111585000D02*
X160000000Y-111585000D01*
X160000000Y-111585000D02*
G75*
G02X161320000Y-112855000I25000J-1295000D01*
G01*
X161320000Y-112855000D02*
X161320000Y-121665000D01*
X161320000Y-121665000D02*
G75*
G02X160000000Y-122935000I-1295000J25000D01*
G01*
D13*
X119587803Y-72078000D02*
G75*
G03X119587803Y-72078000I-111803J0D01*
G01*
D11*
X118376000Y-65328000D02*
X118376000Y-65628000D01*
X114576000Y-65328000D02*
X118376000Y-65328000D01*
X114576000Y-65678000D02*
X114576000Y-65328000D01*
X118376000Y-73328000D02*
X118376000Y-72978000D01*
X114576000Y-73328000D02*
X118376000Y-73328000D01*
X114576000Y-72928000D02*
X114576000Y-73328000D01*
D14*
G36*
X104277600Y-116175500D02*
G01*
X104277600Y-115794500D01*
X104531600Y-115794500D01*
X104531600Y-116175500D01*
X104277600Y-116175500D01*
G37*
X104277600Y-116175500D02*
X104277600Y-115794500D01*
X104531600Y-115794500D01*
X104531600Y-116175500D01*
X104277600Y-116175500D01*
D10*
X106157200Y-124240000D02*
X110322800Y-124240000D01*
X110322800Y-114080000D02*
X106157200Y-114080000D01*
X151140000Y-100950000D02*
X149190000Y-100950000D01*
X151140000Y-100950000D02*
X153090000Y-100950000D01*
X151140000Y-111070000D02*
X149190000Y-111070000D01*
X151140000Y-111070000D02*
X154590000Y-111070000D01*
D12*
X130040000Y-95060000D02*
G75*
G03X130040000Y-95060000I-50000J0D01*
G01*
D11*
X131510000Y-97510000D02*
X133270000Y-97510000D01*
X131510000Y-94610000D02*
X133270000Y-94610000D01*
D10*
X117804900Y-80048900D02*
X117804900Y-75807100D01*
X112547100Y-75807100D02*
X112547100Y-80048900D01*
X139840000Y-95710000D02*
X143540000Y-95710000D01*
X139840000Y-97610000D02*
X139840000Y-95710000D01*
X143540000Y-97610000D02*
X139840000Y-97610000D01*
X143540000Y-95710000D02*
X143540000Y-97610000D01*
X155172000Y-98360000D02*
X158872000Y-98360000D01*
X155172000Y-100260000D02*
X155172000Y-98360000D01*
X158872000Y-100260000D02*
X155172000Y-100260000D01*
X158872000Y-98360000D02*
X158872000Y-100260000D01*
X158872000Y-98048000D02*
X155172000Y-98048000D01*
X158872000Y-96148000D02*
X158872000Y-98048000D01*
X155172000Y-96148000D02*
X158872000Y-96148000D01*
X155172000Y-98048000D02*
X155172000Y-96148000D01*
X101040000Y-94360000D02*
X104740000Y-94360000D01*
X101040000Y-96260000D02*
X101040000Y-94360000D01*
X104740000Y-96260000D02*
X101040000Y-96260000D01*
X104740000Y-94360000D02*
X104740000Y-96260000D01*
X149294000Y-115160000D02*
X152994000Y-115160000D01*
X149294000Y-117060000D02*
X149294000Y-115160000D01*
X152994000Y-117060000D02*
X149294000Y-117060000D01*
X152994000Y-115160000D02*
X152994000Y-117060000D01*
X149294000Y-112938000D02*
X152994000Y-112938000D01*
X149294000Y-114838000D02*
X149294000Y-112938000D01*
X152994000Y-114838000D02*
X149294000Y-114838000D01*
X152994000Y-112938000D02*
X152994000Y-114838000D01*
X113640000Y-102860000D02*
X109940000Y-102860000D01*
X113640000Y-100960000D02*
X113640000Y-102860000D01*
X109940000Y-100960000D02*
X113640000Y-100960000D01*
X109940000Y-102860000D02*
X109940000Y-100960000D01*
X113640000Y-100660000D02*
X109940000Y-100660000D01*
X113640000Y-98760000D02*
X113640000Y-100660000D01*
X109940000Y-98760000D02*
X113640000Y-98760000D01*
X109940000Y-100660000D02*
X109940000Y-98760000D01*
X113640000Y-96260000D02*
X109940000Y-96260000D01*
X113640000Y-94360000D02*
X113640000Y-96260000D01*
X109940000Y-94360000D02*
X113640000Y-94360000D01*
X109940000Y-96260000D02*
X109940000Y-94360000D01*
X113640000Y-98460000D02*
X109940000Y-98460000D01*
X113640000Y-96560000D02*
X113640000Y-98460000D01*
X109940000Y-96560000D02*
X113640000Y-96560000D01*
X109940000Y-98460000D02*
X109940000Y-96560000D01*
X104740000Y-91860000D02*
X101040000Y-91860000D01*
X104740000Y-89960000D02*
X104740000Y-91860000D01*
X101040000Y-89960000D02*
X104740000Y-89960000D01*
X101040000Y-91860000D02*
X101040000Y-89960000D01*
X111350000Y-69076000D02*
X111350000Y-72776000D01*
X109450000Y-69076000D02*
X111350000Y-69076000D01*
X109450000Y-72776000D02*
X109450000Y-69076000D01*
X111350000Y-72776000D02*
X109450000Y-72776000D01*
X104740000Y-94060000D02*
X101040000Y-94060000D01*
X104740000Y-92160000D02*
X104740000Y-94060000D01*
X101040000Y-92160000D02*
X104740000Y-92160000D01*
X101040000Y-94060000D02*
X101040000Y-92160000D01*
X109140000Y-69076000D02*
X109140000Y-72776000D01*
X107240000Y-69076000D02*
X109140000Y-69076000D01*
X107240000Y-72776000D02*
X107240000Y-69076000D01*
X109140000Y-72776000D02*
X107240000Y-72776000D01*
X104740000Y-87460000D02*
X101040000Y-87460000D01*
X104740000Y-85560000D02*
X104740000Y-87460000D01*
X101040000Y-85560000D02*
X104740000Y-85560000D01*
X101040000Y-87460000D02*
X101040000Y-85560000D01*
X104740000Y-89660000D02*
X101040000Y-89660000D01*
X104740000Y-87760000D02*
X104740000Y-89660000D01*
X101040000Y-87760000D02*
X104740000Y-87760000D01*
X101040000Y-89660000D02*
X101040000Y-87760000D01*
X104740000Y-102860000D02*
X101040000Y-102860000D01*
X104740000Y-100960000D02*
X104740000Y-102860000D01*
X101040000Y-100960000D02*
X104740000Y-100960000D01*
X101040000Y-102860000D02*
X101040000Y-100960000D01*
X154390000Y-94460000D02*
X150690000Y-94460000D01*
X154390000Y-92560000D02*
X154390000Y-94460000D01*
X150690000Y-92560000D02*
X154390000Y-92560000D01*
X150690000Y-94460000D02*
X150690000Y-92560000D01*
X113640000Y-87460000D02*
X109940000Y-87460000D01*
X113640000Y-85560000D02*
X113640000Y-87460000D01*
X109940000Y-85560000D02*
X113640000Y-85560000D01*
X109940000Y-87460000D02*
X109940000Y-85560000D01*
X113640000Y-89660000D02*
X109940000Y-89660000D01*
X113640000Y-87760000D02*
X113640000Y-89660000D01*
X109940000Y-87760000D02*
X113640000Y-87760000D01*
X109940000Y-89660000D02*
X109940000Y-87760000D01*
X113640000Y-91860000D02*
X109940000Y-91860000D01*
X113640000Y-89960000D02*
X113640000Y-91860000D01*
X109940000Y-89960000D02*
X113640000Y-89960000D01*
X109940000Y-91860000D02*
X109940000Y-89960000D01*
X104740000Y-98460000D02*
X101040000Y-98460000D01*
X104740000Y-96560000D02*
X104740000Y-98460000D01*
X101040000Y-96560000D02*
X104740000Y-96560000D01*
X101040000Y-98460000D02*
X101040000Y-96560000D01*
X113640000Y-94060000D02*
X109940000Y-94060000D01*
X113640000Y-92160000D02*
X113640000Y-94060000D01*
X109940000Y-92160000D02*
X113640000Y-92160000D01*
X109940000Y-94060000D02*
X109940000Y-92160000D01*
X104740000Y-100660000D02*
X101040000Y-100660000D01*
X104740000Y-98760000D02*
X104740000Y-100660000D01*
X101040000Y-98760000D02*
X104740000Y-98760000D01*
X101040000Y-100660000D02*
X101040000Y-98760000D01*
X118840000Y-89910000D02*
X122540000Y-89910000D01*
X118840000Y-91810000D02*
X118840000Y-89910000D01*
X122540000Y-91810000D02*
X118840000Y-91810000D01*
X122540000Y-89910000D02*
X122540000Y-91810000D01*
X138940000Y-93560000D02*
X135240000Y-93560000D01*
X138940000Y-91660000D02*
X138940000Y-93560000D01*
X135240000Y-91660000D02*
X138940000Y-91660000D01*
X135240000Y-93560000D02*
X135240000Y-91660000D01*
X109940000Y-107560000D02*
X113640000Y-107560000D01*
X109940000Y-109460000D02*
X109940000Y-107560000D01*
X113640000Y-109460000D02*
X109940000Y-109460000D01*
X113640000Y-107560000D02*
X113640000Y-109460000D01*
X109940000Y-105360000D02*
X113640000Y-105360000D01*
X109940000Y-107260000D02*
X109940000Y-105360000D01*
X113640000Y-107260000D02*
X109940000Y-107260000D01*
X113640000Y-105360000D02*
X113640000Y-107260000D01*
X157390000Y-102660000D02*
X157390000Y-106360000D01*
X155490000Y-102660000D02*
X157390000Y-102660000D01*
X155490000Y-106360000D02*
X155490000Y-102660000D01*
X157390000Y-106360000D02*
X155490000Y-106360000D01*
X163440000Y-121110000D02*
X161540000Y-121110000D01*
X161540000Y-121110000D02*
X161540000Y-117410000D01*
X161540000Y-117410000D02*
X163440000Y-117410000D01*
X163440000Y-117410000D02*
X163440000Y-121110000D01*
X161540000Y-113510000D02*
X163440000Y-113510000D01*
X163440000Y-113510000D02*
X163440000Y-117210000D01*
X163440000Y-117210000D02*
X161540000Y-117210000D01*
X161540000Y-117210000D02*
X161540000Y-113510000D01*
X122540000Y-81660000D02*
X118840000Y-81660000D01*
X122540000Y-79760000D02*
X122540000Y-81660000D01*
X118840000Y-79760000D02*
X122540000Y-79760000D01*
X118840000Y-81660000D02*
X118840000Y-79760000D01*
X162990000Y-83910000D02*
X162990000Y-87610000D01*
X161090000Y-83910000D02*
X162990000Y-83910000D01*
X161090000Y-87610000D02*
X161090000Y-83910000D01*
X162990000Y-87610000D02*
X161090000Y-87610000D01*
X138940000Y-97610000D02*
X135240000Y-97610000D01*
X138940000Y-95710000D02*
X138940000Y-97610000D01*
X135240000Y-95710000D02*
X138940000Y-95710000D01*
X135240000Y-97610000D02*
X135240000Y-95710000D01*
X152090000Y-69410000D02*
X152090000Y-65710000D01*
X153990000Y-69410000D02*
X152090000Y-69410000D01*
X153990000Y-65710000D02*
X153990000Y-69410000D01*
X152090000Y-65710000D02*
X153990000Y-65710000D01*
D15*
X114497142Y-104562380D02*
X114163809Y-104086190D01*
X113925714Y-104562380D02*
X113925714Y-103562380D01*
X114306666Y-103562380D01*
X114401904Y-103610000D01*
X114449523Y-103657619D01*
X114497142Y-103752857D01*
X114497142Y-103895714D01*
X114449523Y-103990952D01*
X114401904Y-104038571D01*
X114306666Y-104086190D01*
X113925714Y-104086190D01*
X114878095Y-103657619D02*
X114925714Y-103610000D01*
X115020952Y-103562380D01*
X115259047Y-103562380D01*
X115354285Y-103610000D01*
X115401904Y-103657619D01*
X115449523Y-103752857D01*
X115449523Y-103848095D01*
X115401904Y-103990952D01*
X114830476Y-104562380D01*
X115449523Y-104562380D01*
X115782857Y-103562380D02*
X116449523Y-103562380D01*
X116020952Y-104562380D01*
X132006666Y-104684880D02*
X132006666Y-105399166D01*
X131959047Y-105542023D01*
X131863809Y-105637261D01*
X131720952Y-105684880D01*
X131625714Y-105684880D01*
X132911428Y-104684880D02*
X132720952Y-104684880D01*
X132625714Y-104732500D01*
X132578095Y-104780119D01*
X132482857Y-104922976D01*
X132435238Y-105113452D01*
X132435238Y-105494404D01*
X132482857Y-105589642D01*
X132530476Y-105637261D01*
X132625714Y-105684880D01*
X132816190Y-105684880D01*
X132911428Y-105637261D01*
X132959047Y-105589642D01*
X133006666Y-105494404D01*
X133006666Y-105256309D01*
X132959047Y-105161071D01*
X132911428Y-105113452D01*
X132816190Y-105065833D01*
X132625714Y-105065833D01*
X132530476Y-105113452D01*
X132482857Y-105161071D01*
X132435238Y-105256309D01*
X142844761Y-82957619D02*
X142749523Y-82910000D01*
X142654285Y-82814761D01*
X142511428Y-82671904D01*
X142416190Y-82624285D01*
X142320952Y-82624285D01*
X142368571Y-82862380D02*
X142273333Y-82814761D01*
X142178095Y-82719523D01*
X142130476Y-82529047D01*
X142130476Y-82195714D01*
X142178095Y-82005238D01*
X142273333Y-81910000D01*
X142368571Y-81862380D01*
X142559047Y-81862380D01*
X142654285Y-81910000D01*
X142749523Y-82005238D01*
X142797142Y-82195714D01*
X142797142Y-82529047D01*
X142749523Y-82719523D01*
X142654285Y-82814761D01*
X142559047Y-82862380D01*
X142368571Y-82862380D01*
X143130476Y-81862380D02*
X143749523Y-81862380D01*
X143416190Y-82243333D01*
X143559047Y-82243333D01*
X143654285Y-82290952D01*
X143701904Y-82338571D01*
X143749523Y-82433809D01*
X143749523Y-82671904D01*
X143701904Y-82767142D01*
X143654285Y-82814761D01*
X143559047Y-82862380D01*
X143273333Y-82862380D01*
X143178095Y-82814761D01*
X143130476Y-82767142D01*
X131797142Y-86412380D02*
X131463809Y-85936190D01*
X131225714Y-86412380D02*
X131225714Y-85412380D01*
X131606666Y-85412380D01*
X131701904Y-85460000D01*
X131749523Y-85507619D01*
X131797142Y-85602857D01*
X131797142Y-85745714D01*
X131749523Y-85840952D01*
X131701904Y-85888571D01*
X131606666Y-85936190D01*
X131225714Y-85936190D01*
X132178095Y-85507619D02*
X132225714Y-85460000D01*
X132320952Y-85412380D01*
X132559047Y-85412380D01*
X132654285Y-85460000D01*
X132701904Y-85507619D01*
X132749523Y-85602857D01*
X132749523Y-85698095D01*
X132701904Y-85840952D01*
X132130476Y-86412380D01*
X132749523Y-86412380D01*
X133606666Y-85412380D02*
X133416190Y-85412380D01*
X133320952Y-85460000D01*
X133273333Y-85507619D01*
X133178095Y-85650476D01*
X133130476Y-85840952D01*
X133130476Y-86221904D01*
X133178095Y-86317142D01*
X133225714Y-86364761D01*
X133320952Y-86412380D01*
X133511428Y-86412380D01*
X133606666Y-86364761D01*
X133654285Y-86317142D01*
X133701904Y-86221904D01*
X133701904Y-85983809D01*
X133654285Y-85888571D01*
X133606666Y-85840952D01*
X133511428Y-85793333D01*
X133320952Y-85793333D01*
X133225714Y-85840952D01*
X133178095Y-85888571D01*
X133130476Y-85983809D01*
X104778095Y-77662380D02*
X104778095Y-78471904D01*
X104825714Y-78567142D01*
X104873333Y-78614761D01*
X104968571Y-78662380D01*
X105159047Y-78662380D01*
X105254285Y-78614761D01*
X105301904Y-78567142D01*
X105349523Y-78471904D01*
X105349523Y-77662380D01*
X106254285Y-77662380D02*
X106063809Y-77662380D01*
X105968571Y-77710000D01*
X105920952Y-77757619D01*
X105825714Y-77900476D01*
X105778095Y-78090952D01*
X105778095Y-78471904D01*
X105825714Y-78567142D01*
X105873333Y-78614761D01*
X105968571Y-78662380D01*
X106159047Y-78662380D01*
X106254285Y-78614761D01*
X106301904Y-78567142D01*
X106349523Y-78471904D01*
X106349523Y-78233809D01*
X106301904Y-78138571D01*
X106254285Y-78090952D01*
X106159047Y-78043333D01*
X105968571Y-78043333D01*
X105873333Y-78090952D01*
X105825714Y-78138571D01*
X105778095Y-78233809D01*
X105892380Y-80610000D02*
X106130476Y-80610000D01*
X106035238Y-80848095D02*
X106130476Y-80610000D01*
X106035238Y-80371904D01*
X106320952Y-80752857D02*
X106130476Y-80610000D01*
X106320952Y-80467142D01*
X105892380Y-80610000D02*
X106130476Y-80610000D01*
X106035238Y-80848095D02*
X106130476Y-80610000D01*
X106035238Y-80371904D01*
X106320952Y-80752857D02*
X106130476Y-80610000D01*
X106320952Y-80467142D01*
X111278095Y-65762380D02*
X111278095Y-66571904D01*
X111325714Y-66667142D01*
X111373333Y-66714761D01*
X111468571Y-66762380D01*
X111659047Y-66762380D01*
X111754285Y-66714761D01*
X111801904Y-66667142D01*
X111849523Y-66571904D01*
X111849523Y-65762380D01*
X112230476Y-65762380D02*
X112897142Y-65762380D01*
X112468571Y-66762380D01*
X119578095Y-82462380D02*
X119578095Y-83271904D01*
X119625714Y-83367142D01*
X119673333Y-83414761D01*
X119768571Y-83462380D01*
X119959047Y-83462380D01*
X120054285Y-83414761D01*
X120101904Y-83367142D01*
X120149523Y-83271904D01*
X120149523Y-82462380D01*
X121149523Y-83462380D02*
X120578095Y-83462380D01*
X120863809Y-83462380D02*
X120863809Y-82462380D01*
X120768571Y-82605238D01*
X120673333Y-82700476D01*
X120578095Y-82748095D01*
X118290000Y-83112380D02*
X118290000Y-83350476D01*
X118051904Y-83255238D02*
X118290000Y-83350476D01*
X118528095Y-83255238D01*
X118147142Y-83540952D02*
X118290000Y-83350476D01*
X118432857Y-83540952D01*
X118290000Y-83112380D02*
X118290000Y-83350476D01*
X118051904Y-83255238D02*
X118290000Y-83350476D01*
X118528095Y-83255238D01*
X118147142Y-83540952D02*
X118290000Y-83350476D01*
X118432857Y-83540952D01*
X152394761Y-96357619D02*
X152299523Y-96310000D01*
X152204285Y-96214761D01*
X152061428Y-96071904D01*
X151966190Y-96024285D01*
X151870952Y-96024285D01*
X151918571Y-96262380D02*
X151823333Y-96214761D01*
X151728095Y-96119523D01*
X151680476Y-95929047D01*
X151680476Y-95595714D01*
X151728095Y-95405238D01*
X151823333Y-95310000D01*
X151918571Y-95262380D01*
X152109047Y-95262380D01*
X152204285Y-95310000D01*
X152299523Y-95405238D01*
X152347142Y-95595714D01*
X152347142Y-95929047D01*
X152299523Y-96119523D01*
X152204285Y-96214761D01*
X152109047Y-96262380D01*
X151918571Y-96262380D01*
X152728095Y-95357619D02*
X152775714Y-95310000D01*
X152870952Y-95262380D01*
X153109047Y-95262380D01*
X153204285Y-95310000D01*
X153251904Y-95357619D01*
X153299523Y-95452857D01*
X153299523Y-95548095D01*
X153251904Y-95690952D01*
X152680476Y-96262380D01*
X153299523Y-96262380D01*
X161494761Y-96357619D02*
X161399523Y-96310000D01*
X161304285Y-96214761D01*
X161161428Y-96071904D01*
X161066190Y-96024285D01*
X160970952Y-96024285D01*
X161018571Y-96262380D02*
X160923333Y-96214761D01*
X160828095Y-96119523D01*
X160780476Y-95929047D01*
X160780476Y-95595714D01*
X160828095Y-95405238D01*
X160923333Y-95310000D01*
X161018571Y-95262380D01*
X161209047Y-95262380D01*
X161304285Y-95310000D01*
X161399523Y-95405238D01*
X161447142Y-95595714D01*
X161447142Y-95929047D01*
X161399523Y-96119523D01*
X161304285Y-96214761D01*
X161209047Y-96262380D01*
X161018571Y-96262380D01*
X162399523Y-96262380D02*
X161828095Y-96262380D01*
X162113809Y-96262380D02*
X162113809Y-95262380D01*
X162018571Y-95405238D01*
X161923333Y-95500476D01*
X161828095Y-95548095D01*
X131628095Y-88162380D02*
X131628095Y-88971904D01*
X131675714Y-89067142D01*
X131723333Y-89114761D01*
X131818571Y-89162380D01*
X132009047Y-89162380D01*
X132104285Y-89114761D01*
X132151904Y-89067142D01*
X132199523Y-88971904D01*
X132199523Y-88162380D01*
X133151904Y-88162380D02*
X132675714Y-88162380D01*
X132628095Y-88638571D01*
X132675714Y-88590952D01*
X132770952Y-88543333D01*
X133009047Y-88543333D01*
X133104285Y-88590952D01*
X133151904Y-88638571D01*
X133199523Y-88733809D01*
X133199523Y-88971904D01*
X133151904Y-89067142D01*
X133104285Y-89114761D01*
X133009047Y-89162380D01*
X132770952Y-89162380D01*
X132675714Y-89114761D01*
X132628095Y-89067142D01*
X158563423Y-123936171D02*
X158563423Y-124412747D01*
X158229819Y-123411936D02*
X158563423Y-123936171D01*
X158897027Y-123411936D01*
X159182973Y-123507252D02*
X159230630Y-123459594D01*
X159325946Y-123411936D01*
X159564234Y-123411936D01*
X159659549Y-123459594D01*
X159707207Y-123507252D01*
X159754865Y-123602567D01*
X159754865Y-123697882D01*
X159707207Y-123840855D01*
X159135315Y-124412747D01*
X159754865Y-124412747D01*
X119213809Y-73986190D02*
X119213809Y-74462380D01*
X118880476Y-73462380D02*
X119213809Y-73986190D01*
X119547142Y-73462380D01*
X120404285Y-74462380D02*
X119832857Y-74462380D01*
X120118571Y-74462380D02*
X120118571Y-73462380D01*
X120023333Y-73605238D01*
X119928095Y-73700476D01*
X119832857Y-73748095D01*
X107541595Y-112706880D02*
X107541595Y-113516404D01*
X107589214Y-113611642D01*
X107636833Y-113659261D01*
X107732071Y-113706880D01*
X107922547Y-113706880D01*
X108017785Y-113659261D01*
X108065404Y-113611642D01*
X108113023Y-113516404D01*
X108113023Y-112706880D01*
X108636833Y-113706880D02*
X108827309Y-113706880D01*
X108922547Y-113659261D01*
X108970166Y-113611642D01*
X109065404Y-113468785D01*
X109113023Y-113278309D01*
X109113023Y-112897357D01*
X109065404Y-112802119D01*
X109017785Y-112754500D01*
X108922547Y-112706880D01*
X108732071Y-112706880D01*
X108636833Y-112754500D01*
X108589214Y-112802119D01*
X108541595Y-112897357D01*
X108541595Y-113135452D01*
X108589214Y-113230690D01*
X108636833Y-113278309D01*
X108732071Y-113325928D01*
X108922547Y-113325928D01*
X109017785Y-113278309D01*
X109065404Y-113230690D01*
X109113023Y-113135452D01*
X111199100Y-124733780D02*
X111199100Y-124971876D01*
X110961004Y-124876638D02*
X111199100Y-124971876D01*
X111437195Y-124876638D01*
X111056242Y-125162352D02*
X111199100Y-124971876D01*
X111341957Y-125162352D01*
X111199100Y-124733780D02*
X111199100Y-124971876D01*
X110961004Y-124876638D02*
X111199100Y-124971876D01*
X111437195Y-124876638D01*
X111056242Y-125162352D02*
X111199100Y-124971876D01*
X111341957Y-125162352D01*
X150378095Y-111362380D02*
X150378095Y-112171904D01*
X150425714Y-112267142D01*
X150473333Y-112314761D01*
X150568571Y-112362380D01*
X150759047Y-112362380D01*
X150854285Y-112314761D01*
X150901904Y-112267142D01*
X150949523Y-112171904D01*
X150949523Y-111362380D01*
X151568571Y-111790952D02*
X151473333Y-111743333D01*
X151425714Y-111695714D01*
X151378095Y-111600476D01*
X151378095Y-111552857D01*
X151425714Y-111457619D01*
X151473333Y-111410000D01*
X151568571Y-111362380D01*
X151759047Y-111362380D01*
X151854285Y-111410000D01*
X151901904Y-111457619D01*
X151949523Y-111552857D01*
X151949523Y-111600476D01*
X151901904Y-111695714D01*
X151854285Y-111743333D01*
X151759047Y-111790952D01*
X151568571Y-111790952D01*
X151473333Y-111838571D01*
X151425714Y-111886190D01*
X151378095Y-111981428D01*
X151378095Y-112171904D01*
X151425714Y-112267142D01*
X151473333Y-112314761D01*
X151568571Y-112362380D01*
X151759047Y-112362380D01*
X151854285Y-112314761D01*
X151901904Y-112267142D01*
X151949523Y-112171904D01*
X151949523Y-111981428D01*
X151901904Y-111886190D01*
X151854285Y-111838571D01*
X151759047Y-111790952D01*
X131628095Y-97612380D02*
X131628095Y-98421904D01*
X131675714Y-98517142D01*
X131723333Y-98564761D01*
X131818571Y-98612380D01*
X132009047Y-98612380D01*
X132104285Y-98564761D01*
X132151904Y-98517142D01*
X132199523Y-98421904D01*
X132199523Y-97612380D01*
X133104285Y-97945714D02*
X133104285Y-98612380D01*
X132866190Y-97564761D02*
X132628095Y-98279047D01*
X133247142Y-98279047D01*
X118178095Y-77412380D02*
X118178095Y-78221904D01*
X118225714Y-78317142D01*
X118273333Y-78364761D01*
X118368571Y-78412380D01*
X118559047Y-78412380D01*
X118654285Y-78364761D01*
X118701904Y-78317142D01*
X118749523Y-78221904D01*
X118749523Y-77412380D01*
X119178095Y-77507619D02*
X119225714Y-77460000D01*
X119320952Y-77412380D01*
X119559047Y-77412380D01*
X119654285Y-77460000D01*
X119701904Y-77507619D01*
X119749523Y-77602857D01*
X119749523Y-77698095D01*
X119701904Y-77840952D01*
X119130476Y-78412380D01*
X119749523Y-78412380D01*
X117892380Y-75260000D02*
X118130476Y-75260000D01*
X118035238Y-75498095D02*
X118130476Y-75260000D01*
X118035238Y-75021904D01*
X118320952Y-75402857D02*
X118130476Y-75260000D01*
X118320952Y-75117142D01*
X117892380Y-75260000D02*
X118130476Y-75260000D01*
X118035238Y-75498095D02*
X118130476Y-75260000D01*
X118035238Y-75021904D01*
X118320952Y-75402857D02*
X118130476Y-75260000D01*
X118320952Y-75117142D01*
X142097142Y-95462380D02*
X141763809Y-94986190D01*
X141525714Y-95462380D02*
X141525714Y-94462380D01*
X141906666Y-94462380D01*
X142001904Y-94510000D01*
X142049523Y-94557619D01*
X142097142Y-94652857D01*
X142097142Y-94795714D01*
X142049523Y-94890952D01*
X142001904Y-94938571D01*
X141906666Y-94986190D01*
X141525714Y-94986190D01*
X142478095Y-94557619D02*
X142525714Y-94510000D01*
X142620952Y-94462380D01*
X142859047Y-94462380D01*
X142954285Y-94510000D01*
X143001904Y-94557619D01*
X143049523Y-94652857D01*
X143049523Y-94748095D01*
X143001904Y-94890952D01*
X142430476Y-95462380D01*
X143049523Y-95462380D01*
X143954285Y-94462380D02*
X143478095Y-94462380D01*
X143430476Y-94938571D01*
X143478095Y-94890952D01*
X143573333Y-94843333D01*
X143811428Y-94843333D01*
X143906666Y-94890952D01*
X143954285Y-94938571D01*
X144001904Y-95033809D01*
X144001904Y-95271904D01*
X143954285Y-95367142D01*
X143906666Y-95414761D01*
X143811428Y-95462380D01*
X143573333Y-95462380D01*
X143478095Y-95414761D01*
X143430476Y-95367142D01*
X156347142Y-101562380D02*
X156013809Y-101086190D01*
X155775714Y-101562380D02*
X155775714Y-100562380D01*
X156156666Y-100562380D01*
X156251904Y-100610000D01*
X156299523Y-100657619D01*
X156347142Y-100752857D01*
X156347142Y-100895714D01*
X156299523Y-100990952D01*
X156251904Y-101038571D01*
X156156666Y-101086190D01*
X155775714Y-101086190D01*
X156728095Y-100657619D02*
X156775714Y-100610000D01*
X156870952Y-100562380D01*
X157109047Y-100562380D01*
X157204285Y-100610000D01*
X157251904Y-100657619D01*
X157299523Y-100752857D01*
X157299523Y-100848095D01*
X157251904Y-100990952D01*
X156680476Y-101562380D01*
X157299523Y-101562380D01*
X158156666Y-100895714D02*
X158156666Y-101562380D01*
X157918571Y-100514761D02*
X157680476Y-101229047D01*
X158299523Y-101229047D01*
X156347142Y-95862380D02*
X156013809Y-95386190D01*
X155775714Y-95862380D02*
X155775714Y-94862380D01*
X156156666Y-94862380D01*
X156251904Y-94910000D01*
X156299523Y-94957619D01*
X156347142Y-95052857D01*
X156347142Y-95195714D01*
X156299523Y-95290952D01*
X156251904Y-95338571D01*
X156156666Y-95386190D01*
X155775714Y-95386190D01*
X156728095Y-94957619D02*
X156775714Y-94910000D01*
X156870952Y-94862380D01*
X157109047Y-94862380D01*
X157204285Y-94910000D01*
X157251904Y-94957619D01*
X157299523Y-95052857D01*
X157299523Y-95148095D01*
X157251904Y-95290952D01*
X156680476Y-95862380D01*
X157299523Y-95862380D01*
X157632857Y-94862380D02*
X158251904Y-94862380D01*
X157918571Y-95243333D01*
X158061428Y-95243333D01*
X158156666Y-95290952D01*
X158204285Y-95338571D01*
X158251904Y-95433809D01*
X158251904Y-95671904D01*
X158204285Y-95767142D01*
X158156666Y-95814761D01*
X158061428Y-95862380D01*
X157775714Y-95862380D01*
X157680476Y-95814761D01*
X157632857Y-95767142D01*
X105647142Y-95762380D02*
X105313809Y-95286190D01*
X105075714Y-95762380D02*
X105075714Y-94762380D01*
X105456666Y-94762380D01*
X105551904Y-94810000D01*
X105599523Y-94857619D01*
X105647142Y-94952857D01*
X105647142Y-95095714D01*
X105599523Y-95190952D01*
X105551904Y-95238571D01*
X105456666Y-95286190D01*
X105075714Y-95286190D01*
X106028095Y-94857619D02*
X106075714Y-94810000D01*
X106170952Y-94762380D01*
X106409047Y-94762380D01*
X106504285Y-94810000D01*
X106551904Y-94857619D01*
X106599523Y-94952857D01*
X106599523Y-95048095D01*
X106551904Y-95190952D01*
X105980476Y-95762380D01*
X106599523Y-95762380D01*
X106980476Y-94857619D02*
X107028095Y-94810000D01*
X107123333Y-94762380D01*
X107361428Y-94762380D01*
X107456666Y-94810000D01*
X107504285Y-94857619D01*
X107551904Y-94952857D01*
X107551904Y-95048095D01*
X107504285Y-95190952D01*
X106932857Y-95762380D01*
X107551904Y-95762380D01*
X153847142Y-116562380D02*
X153513809Y-116086190D01*
X153275714Y-116562380D02*
X153275714Y-115562380D01*
X153656666Y-115562380D01*
X153751904Y-115610000D01*
X153799523Y-115657619D01*
X153847142Y-115752857D01*
X153847142Y-115895714D01*
X153799523Y-115990952D01*
X153751904Y-116038571D01*
X153656666Y-116086190D01*
X153275714Y-116086190D01*
X154228095Y-115657619D02*
X154275714Y-115610000D01*
X154370952Y-115562380D01*
X154609047Y-115562380D01*
X154704285Y-115610000D01*
X154751904Y-115657619D01*
X154799523Y-115752857D01*
X154799523Y-115848095D01*
X154751904Y-115990952D01*
X154180476Y-116562380D01*
X154799523Y-116562380D01*
X155751904Y-116562380D02*
X155180476Y-116562380D01*
X155466190Y-116562380D02*
X155466190Y-115562380D01*
X155370952Y-115705238D01*
X155275714Y-115800476D01*
X155180476Y-115848095D01*
X153847142Y-114362380D02*
X153513809Y-113886190D01*
X153275714Y-114362380D02*
X153275714Y-113362380D01*
X153656666Y-113362380D01*
X153751904Y-113410000D01*
X153799523Y-113457619D01*
X153847142Y-113552857D01*
X153847142Y-113695714D01*
X153799523Y-113790952D01*
X153751904Y-113838571D01*
X153656666Y-113886190D01*
X153275714Y-113886190D01*
X154228095Y-113457619D02*
X154275714Y-113410000D01*
X154370952Y-113362380D01*
X154609047Y-113362380D01*
X154704285Y-113410000D01*
X154751904Y-113457619D01*
X154799523Y-113552857D01*
X154799523Y-113648095D01*
X154751904Y-113790952D01*
X154180476Y-114362380D01*
X154799523Y-114362380D01*
X155418571Y-113362380D02*
X155513809Y-113362380D01*
X155609047Y-113410000D01*
X155656666Y-113457619D01*
X155704285Y-113552857D01*
X155751904Y-113743333D01*
X155751904Y-113981428D01*
X155704285Y-114171904D01*
X155656666Y-114267142D01*
X155609047Y-114314761D01*
X155513809Y-114362380D01*
X155418571Y-114362380D01*
X155323333Y-114314761D01*
X155275714Y-114267142D01*
X155228095Y-114171904D01*
X155180476Y-113981428D01*
X155180476Y-113743333D01*
X155228095Y-113552857D01*
X155275714Y-113457619D01*
X155323333Y-113410000D01*
X155418571Y-113362380D01*
X114497142Y-102362380D02*
X114163809Y-101886190D01*
X113925714Y-102362380D02*
X113925714Y-101362380D01*
X114306666Y-101362380D01*
X114401904Y-101410000D01*
X114449523Y-101457619D01*
X114497142Y-101552857D01*
X114497142Y-101695714D01*
X114449523Y-101790952D01*
X114401904Y-101838571D01*
X114306666Y-101886190D01*
X113925714Y-101886190D01*
X115449523Y-102362380D02*
X114878095Y-102362380D01*
X115163809Y-102362380D02*
X115163809Y-101362380D01*
X115068571Y-101505238D01*
X114973333Y-101600476D01*
X114878095Y-101648095D01*
X115925714Y-102362380D02*
X116116190Y-102362380D01*
X116211428Y-102314761D01*
X116259047Y-102267142D01*
X116354285Y-102124285D01*
X116401904Y-101933809D01*
X116401904Y-101552857D01*
X116354285Y-101457619D01*
X116306666Y-101410000D01*
X116211428Y-101362380D01*
X116020952Y-101362380D01*
X115925714Y-101410000D01*
X115878095Y-101457619D01*
X115830476Y-101552857D01*
X115830476Y-101790952D01*
X115878095Y-101886190D01*
X115925714Y-101933809D01*
X116020952Y-101981428D01*
X116211428Y-101981428D01*
X116306666Y-101933809D01*
X116354285Y-101886190D01*
X116401904Y-101790952D01*
X114447142Y-100162380D02*
X114113809Y-99686190D01*
X113875714Y-100162380D02*
X113875714Y-99162380D01*
X114256666Y-99162380D01*
X114351904Y-99210000D01*
X114399523Y-99257619D01*
X114447142Y-99352857D01*
X114447142Y-99495714D01*
X114399523Y-99590952D01*
X114351904Y-99638571D01*
X114256666Y-99686190D01*
X113875714Y-99686190D01*
X115399523Y-100162380D02*
X114828095Y-100162380D01*
X115113809Y-100162380D02*
X115113809Y-99162380D01*
X115018571Y-99305238D01*
X114923333Y-99400476D01*
X114828095Y-99448095D01*
X115970952Y-99590952D02*
X115875714Y-99543333D01*
X115828095Y-99495714D01*
X115780476Y-99400476D01*
X115780476Y-99352857D01*
X115828095Y-99257619D01*
X115875714Y-99210000D01*
X115970952Y-99162380D01*
X116161428Y-99162380D01*
X116256666Y-99210000D01*
X116304285Y-99257619D01*
X116351904Y-99352857D01*
X116351904Y-99400476D01*
X116304285Y-99495714D01*
X116256666Y-99543333D01*
X116161428Y-99590952D01*
X115970952Y-99590952D01*
X115875714Y-99638571D01*
X115828095Y-99686190D01*
X115780476Y-99781428D01*
X115780476Y-99971904D01*
X115828095Y-100067142D01*
X115875714Y-100114761D01*
X115970952Y-100162380D01*
X116161428Y-100162380D01*
X116256666Y-100114761D01*
X116304285Y-100067142D01*
X116351904Y-99971904D01*
X116351904Y-99781428D01*
X116304285Y-99686190D01*
X116256666Y-99638571D01*
X116161428Y-99590952D01*
X114447142Y-95762380D02*
X114113809Y-95286190D01*
X113875714Y-95762380D02*
X113875714Y-94762380D01*
X114256666Y-94762380D01*
X114351904Y-94810000D01*
X114399523Y-94857619D01*
X114447142Y-94952857D01*
X114447142Y-95095714D01*
X114399523Y-95190952D01*
X114351904Y-95238571D01*
X114256666Y-95286190D01*
X113875714Y-95286190D01*
X115399523Y-95762380D02*
X114828095Y-95762380D01*
X115113809Y-95762380D02*
X115113809Y-94762380D01*
X115018571Y-94905238D01*
X114923333Y-95000476D01*
X114828095Y-95048095D01*
X115732857Y-94762380D02*
X116399523Y-94762380D01*
X115970952Y-95762380D01*
X114447142Y-97962380D02*
X114113809Y-97486190D01*
X113875714Y-97962380D02*
X113875714Y-96962380D01*
X114256666Y-96962380D01*
X114351904Y-97010000D01*
X114399523Y-97057619D01*
X114447142Y-97152857D01*
X114447142Y-97295714D01*
X114399523Y-97390952D01*
X114351904Y-97438571D01*
X114256666Y-97486190D01*
X113875714Y-97486190D01*
X115399523Y-97962380D02*
X114828095Y-97962380D01*
X115113809Y-97962380D02*
X115113809Y-96962380D01*
X115018571Y-97105238D01*
X114923333Y-97200476D01*
X114828095Y-97248095D01*
X116256666Y-96962380D02*
X116066190Y-96962380D01*
X115970952Y-97010000D01*
X115923333Y-97057619D01*
X115828095Y-97200476D01*
X115780476Y-97390952D01*
X115780476Y-97771904D01*
X115828095Y-97867142D01*
X115875714Y-97914761D01*
X115970952Y-97962380D01*
X116161428Y-97962380D01*
X116256666Y-97914761D01*
X116304285Y-97867142D01*
X116351904Y-97771904D01*
X116351904Y-97533809D01*
X116304285Y-97438571D01*
X116256666Y-97390952D01*
X116161428Y-97343333D01*
X115970952Y-97343333D01*
X115875714Y-97390952D01*
X115828095Y-97438571D01*
X115780476Y-97533809D01*
X105647142Y-91362380D02*
X105313809Y-90886190D01*
X105075714Y-91362380D02*
X105075714Y-90362380D01*
X105456666Y-90362380D01*
X105551904Y-90410000D01*
X105599523Y-90457619D01*
X105647142Y-90552857D01*
X105647142Y-90695714D01*
X105599523Y-90790952D01*
X105551904Y-90838571D01*
X105456666Y-90886190D01*
X105075714Y-90886190D01*
X106599523Y-91362380D02*
X106028095Y-91362380D01*
X106313809Y-91362380D02*
X106313809Y-90362380D01*
X106218571Y-90505238D01*
X106123333Y-90600476D01*
X106028095Y-90648095D01*
X107504285Y-90362380D02*
X107028095Y-90362380D01*
X106980476Y-90838571D01*
X107028095Y-90790952D01*
X107123333Y-90743333D01*
X107361428Y-90743333D01*
X107456666Y-90790952D01*
X107504285Y-90838571D01*
X107551904Y-90933809D01*
X107551904Y-91171904D01*
X107504285Y-91267142D01*
X107456666Y-91314761D01*
X107361428Y-91362380D01*
X107123333Y-91362380D01*
X107028095Y-91314761D01*
X106980476Y-91267142D01*
X112097142Y-71162380D02*
X111763809Y-70686190D01*
X111525714Y-71162380D02*
X111525714Y-70162380D01*
X111906666Y-70162380D01*
X112001904Y-70210000D01*
X112049523Y-70257619D01*
X112097142Y-70352857D01*
X112097142Y-70495714D01*
X112049523Y-70590952D01*
X112001904Y-70638571D01*
X111906666Y-70686190D01*
X111525714Y-70686190D01*
X113049523Y-71162380D02*
X112478095Y-71162380D01*
X112763809Y-71162380D02*
X112763809Y-70162380D01*
X112668571Y-70305238D01*
X112573333Y-70400476D01*
X112478095Y-70448095D01*
X113906666Y-70495714D02*
X113906666Y-71162380D01*
X113668571Y-70114761D02*
X113430476Y-70829047D01*
X114049523Y-70829047D01*
X105647142Y-93562380D02*
X105313809Y-93086190D01*
X105075714Y-93562380D02*
X105075714Y-92562380D01*
X105456666Y-92562380D01*
X105551904Y-92610000D01*
X105599523Y-92657619D01*
X105647142Y-92752857D01*
X105647142Y-92895714D01*
X105599523Y-92990952D01*
X105551904Y-93038571D01*
X105456666Y-93086190D01*
X105075714Y-93086190D01*
X106599523Y-93562380D02*
X106028095Y-93562380D01*
X106313809Y-93562380D02*
X106313809Y-92562380D01*
X106218571Y-92705238D01*
X106123333Y-92800476D01*
X106028095Y-92848095D01*
X106932857Y-92562380D02*
X107551904Y-92562380D01*
X107218571Y-92943333D01*
X107361428Y-92943333D01*
X107456666Y-92990952D01*
X107504285Y-93038571D01*
X107551904Y-93133809D01*
X107551904Y-93371904D01*
X107504285Y-93467142D01*
X107456666Y-93514761D01*
X107361428Y-93562380D01*
X107075714Y-93562380D01*
X106980476Y-93514761D01*
X106932857Y-93467142D01*
X105097142Y-71212380D02*
X104763809Y-70736190D01*
X104525714Y-71212380D02*
X104525714Y-70212380D01*
X104906666Y-70212380D01*
X105001904Y-70260000D01*
X105049523Y-70307619D01*
X105097142Y-70402857D01*
X105097142Y-70545714D01*
X105049523Y-70640952D01*
X105001904Y-70688571D01*
X104906666Y-70736190D01*
X104525714Y-70736190D01*
X106049523Y-71212380D02*
X105478095Y-71212380D01*
X105763809Y-71212380D02*
X105763809Y-70212380D01*
X105668571Y-70355238D01*
X105573333Y-70450476D01*
X105478095Y-70498095D01*
X106430476Y-70307619D02*
X106478095Y-70260000D01*
X106573333Y-70212380D01*
X106811428Y-70212380D01*
X106906666Y-70260000D01*
X106954285Y-70307619D01*
X107001904Y-70402857D01*
X107001904Y-70498095D01*
X106954285Y-70640952D01*
X106382857Y-71212380D01*
X107001904Y-71212380D01*
X105647142Y-86962380D02*
X105313809Y-86486190D01*
X105075714Y-86962380D02*
X105075714Y-85962380D01*
X105456666Y-85962380D01*
X105551904Y-86010000D01*
X105599523Y-86057619D01*
X105647142Y-86152857D01*
X105647142Y-86295714D01*
X105599523Y-86390952D01*
X105551904Y-86438571D01*
X105456666Y-86486190D01*
X105075714Y-86486190D01*
X106599523Y-86962380D02*
X106028095Y-86962380D01*
X106313809Y-86962380D02*
X106313809Y-85962380D01*
X106218571Y-86105238D01*
X106123333Y-86200476D01*
X106028095Y-86248095D01*
X107551904Y-86962380D02*
X106980476Y-86962380D01*
X107266190Y-86962380D02*
X107266190Y-85962380D01*
X107170952Y-86105238D01*
X107075714Y-86200476D01*
X106980476Y-86248095D01*
X105647142Y-89162380D02*
X105313809Y-88686190D01*
X105075714Y-89162380D02*
X105075714Y-88162380D01*
X105456666Y-88162380D01*
X105551904Y-88210000D01*
X105599523Y-88257619D01*
X105647142Y-88352857D01*
X105647142Y-88495714D01*
X105599523Y-88590952D01*
X105551904Y-88638571D01*
X105456666Y-88686190D01*
X105075714Y-88686190D01*
X106599523Y-89162380D02*
X106028095Y-89162380D01*
X106313809Y-89162380D02*
X106313809Y-88162380D01*
X106218571Y-88305238D01*
X106123333Y-88400476D01*
X106028095Y-88448095D01*
X107218571Y-88162380D02*
X107313809Y-88162380D01*
X107409047Y-88210000D01*
X107456666Y-88257619D01*
X107504285Y-88352857D01*
X107551904Y-88543333D01*
X107551904Y-88781428D01*
X107504285Y-88971904D01*
X107456666Y-89067142D01*
X107409047Y-89114761D01*
X107313809Y-89162380D01*
X107218571Y-89162380D01*
X107123333Y-89114761D01*
X107075714Y-89067142D01*
X107028095Y-88971904D01*
X106980476Y-88781428D01*
X106980476Y-88543333D01*
X107028095Y-88352857D01*
X107075714Y-88257619D01*
X107123333Y-88210000D01*
X107218571Y-88162380D01*
X105623333Y-102362380D02*
X105290000Y-101886190D01*
X105051904Y-102362380D02*
X105051904Y-101362380D01*
X105432857Y-101362380D01*
X105528095Y-101410000D01*
X105575714Y-101457619D01*
X105623333Y-101552857D01*
X105623333Y-101695714D01*
X105575714Y-101790952D01*
X105528095Y-101838571D01*
X105432857Y-101886190D01*
X105051904Y-101886190D01*
X106099523Y-102362380D02*
X106290000Y-102362380D01*
X106385238Y-102314761D01*
X106432857Y-102267142D01*
X106528095Y-102124285D01*
X106575714Y-101933809D01*
X106575714Y-101552857D01*
X106528095Y-101457619D01*
X106480476Y-101410000D01*
X106385238Y-101362380D01*
X106194761Y-101362380D01*
X106099523Y-101410000D01*
X106051904Y-101457619D01*
X106004285Y-101552857D01*
X106004285Y-101790952D01*
X106051904Y-101886190D01*
X106099523Y-101933809D01*
X106194761Y-101981428D01*
X106385238Y-101981428D01*
X106480476Y-101933809D01*
X106528095Y-101886190D01*
X106575714Y-101790952D01*
X152373333Y-92312380D02*
X152040000Y-91836190D01*
X151801904Y-92312380D02*
X151801904Y-91312380D01*
X152182857Y-91312380D01*
X152278095Y-91360000D01*
X152325714Y-91407619D01*
X152373333Y-91502857D01*
X152373333Y-91645714D01*
X152325714Y-91740952D01*
X152278095Y-91788571D01*
X152182857Y-91836190D01*
X151801904Y-91836190D01*
X152944761Y-91740952D02*
X152849523Y-91693333D01*
X152801904Y-91645714D01*
X152754285Y-91550476D01*
X152754285Y-91502857D01*
X152801904Y-91407619D01*
X152849523Y-91360000D01*
X152944761Y-91312380D01*
X153135238Y-91312380D01*
X153230476Y-91360000D01*
X153278095Y-91407619D01*
X153325714Y-91502857D01*
X153325714Y-91550476D01*
X153278095Y-91645714D01*
X153230476Y-91693333D01*
X153135238Y-91740952D01*
X152944761Y-91740952D01*
X152849523Y-91788571D01*
X152801904Y-91836190D01*
X152754285Y-91931428D01*
X152754285Y-92121904D01*
X152801904Y-92217142D01*
X152849523Y-92264761D01*
X152944761Y-92312380D01*
X153135238Y-92312380D01*
X153230476Y-92264761D01*
X153278095Y-92217142D01*
X153325714Y-92121904D01*
X153325714Y-91931428D01*
X153278095Y-91836190D01*
X153230476Y-91788571D01*
X153135238Y-91740952D01*
X114473333Y-86956380D02*
X114140000Y-86480190D01*
X113901904Y-86956380D02*
X113901904Y-85956380D01*
X114282857Y-85956380D01*
X114378095Y-86004000D01*
X114425714Y-86051619D01*
X114473333Y-86146857D01*
X114473333Y-86289714D01*
X114425714Y-86384952D01*
X114378095Y-86432571D01*
X114282857Y-86480190D01*
X113901904Y-86480190D01*
X114806666Y-85956380D02*
X115473333Y-85956380D01*
X115044761Y-86956380D01*
X114473333Y-89162380D02*
X114140000Y-88686190D01*
X113901904Y-89162380D02*
X113901904Y-88162380D01*
X114282857Y-88162380D01*
X114378095Y-88210000D01*
X114425714Y-88257619D01*
X114473333Y-88352857D01*
X114473333Y-88495714D01*
X114425714Y-88590952D01*
X114378095Y-88638571D01*
X114282857Y-88686190D01*
X113901904Y-88686190D01*
X115330476Y-88162380D02*
X115140000Y-88162380D01*
X115044761Y-88210000D01*
X114997142Y-88257619D01*
X114901904Y-88400476D01*
X114854285Y-88590952D01*
X114854285Y-88971904D01*
X114901904Y-89067142D01*
X114949523Y-89114761D01*
X115044761Y-89162380D01*
X115235238Y-89162380D01*
X115330476Y-89114761D01*
X115378095Y-89067142D01*
X115425714Y-88971904D01*
X115425714Y-88733809D01*
X115378095Y-88638571D01*
X115330476Y-88590952D01*
X115235238Y-88543333D01*
X115044761Y-88543333D01*
X114949523Y-88590952D01*
X114901904Y-88638571D01*
X114854285Y-88733809D01*
X114473333Y-91362380D02*
X114140000Y-90886190D01*
X113901904Y-91362380D02*
X113901904Y-90362380D01*
X114282857Y-90362380D01*
X114378095Y-90410000D01*
X114425714Y-90457619D01*
X114473333Y-90552857D01*
X114473333Y-90695714D01*
X114425714Y-90790952D01*
X114378095Y-90838571D01*
X114282857Y-90886190D01*
X113901904Y-90886190D01*
X115378095Y-90362380D02*
X114901904Y-90362380D01*
X114854285Y-90838571D01*
X114901904Y-90790952D01*
X114997142Y-90743333D01*
X115235238Y-90743333D01*
X115330476Y-90790952D01*
X115378095Y-90838571D01*
X115425714Y-90933809D01*
X115425714Y-91171904D01*
X115378095Y-91267142D01*
X115330476Y-91314761D01*
X115235238Y-91362380D01*
X114997142Y-91362380D01*
X114901904Y-91314761D01*
X114854285Y-91267142D01*
X105623333Y-97962380D02*
X105290000Y-97486190D01*
X105051904Y-97962380D02*
X105051904Y-96962380D01*
X105432857Y-96962380D01*
X105528095Y-97010000D01*
X105575714Y-97057619D01*
X105623333Y-97152857D01*
X105623333Y-97295714D01*
X105575714Y-97390952D01*
X105528095Y-97438571D01*
X105432857Y-97486190D01*
X105051904Y-97486190D01*
X106480476Y-97295714D02*
X106480476Y-97962380D01*
X106242380Y-96914761D02*
X106004285Y-97629047D01*
X106623333Y-97629047D01*
X114473333Y-93562380D02*
X114140000Y-93086190D01*
X113901904Y-93562380D02*
X113901904Y-92562380D01*
X114282857Y-92562380D01*
X114378095Y-92610000D01*
X114425714Y-92657619D01*
X114473333Y-92752857D01*
X114473333Y-92895714D01*
X114425714Y-92990952D01*
X114378095Y-93038571D01*
X114282857Y-93086190D01*
X113901904Y-93086190D01*
X114806666Y-92562380D02*
X115425714Y-92562380D01*
X115092380Y-92943333D01*
X115235238Y-92943333D01*
X115330476Y-92990952D01*
X115378095Y-93038571D01*
X115425714Y-93133809D01*
X115425714Y-93371904D01*
X115378095Y-93467142D01*
X115330476Y-93514761D01*
X115235238Y-93562380D01*
X114949523Y-93562380D01*
X114854285Y-93514761D01*
X114806666Y-93467142D01*
X105623333Y-100162380D02*
X105290000Y-99686190D01*
X105051904Y-100162380D02*
X105051904Y-99162380D01*
X105432857Y-99162380D01*
X105528095Y-99210000D01*
X105575714Y-99257619D01*
X105623333Y-99352857D01*
X105623333Y-99495714D01*
X105575714Y-99590952D01*
X105528095Y-99638571D01*
X105432857Y-99686190D01*
X105051904Y-99686190D01*
X106004285Y-99257619D02*
X106051904Y-99210000D01*
X106147142Y-99162380D01*
X106385238Y-99162380D01*
X106480476Y-99210000D01*
X106528095Y-99257619D01*
X106575714Y-99352857D01*
X106575714Y-99448095D01*
X106528095Y-99590952D01*
X105956666Y-100162380D01*
X106575714Y-100162380D01*
X123423333Y-91312380D02*
X123090000Y-90836190D01*
X122851904Y-91312380D02*
X122851904Y-90312380D01*
X123232857Y-90312380D01*
X123328095Y-90360000D01*
X123375714Y-90407619D01*
X123423333Y-90502857D01*
X123423333Y-90645714D01*
X123375714Y-90740952D01*
X123328095Y-90788571D01*
X123232857Y-90836190D01*
X122851904Y-90836190D01*
X124375714Y-91312380D02*
X123804285Y-91312380D01*
X124090000Y-91312380D02*
X124090000Y-90312380D01*
X123994761Y-90455238D01*
X123899523Y-90550476D01*
X123804285Y-90598095D01*
X136247142Y-91267142D02*
X136199523Y-91314761D01*
X136056666Y-91362380D01*
X135961428Y-91362380D01*
X135818571Y-91314761D01*
X135723333Y-91219523D01*
X135675714Y-91124285D01*
X135628095Y-90933809D01*
X135628095Y-90790952D01*
X135675714Y-90600476D01*
X135723333Y-90505238D01*
X135818571Y-90410000D01*
X135961428Y-90362380D01*
X136056666Y-90362380D01*
X136199523Y-90410000D01*
X136247142Y-90457619D01*
X137199523Y-91362380D02*
X136628095Y-91362380D01*
X136913809Y-91362380D02*
X136913809Y-90362380D01*
X136818571Y-90505238D01*
X136723333Y-90600476D01*
X136628095Y-90648095D01*
X137580476Y-90457619D02*
X137628095Y-90410000D01*
X137723333Y-90362380D01*
X137961428Y-90362380D01*
X138056666Y-90410000D01*
X138104285Y-90457619D01*
X138151904Y-90552857D01*
X138151904Y-90648095D01*
X138104285Y-90790952D01*
X137532857Y-91362380D01*
X138151904Y-91362380D01*
X114597142Y-108917142D02*
X114549523Y-108964761D01*
X114406666Y-109012380D01*
X114311428Y-109012380D01*
X114168571Y-108964761D01*
X114073333Y-108869523D01*
X114025714Y-108774285D01*
X113978095Y-108583809D01*
X113978095Y-108440952D01*
X114025714Y-108250476D01*
X114073333Y-108155238D01*
X114168571Y-108060000D01*
X114311428Y-108012380D01*
X114406666Y-108012380D01*
X114549523Y-108060000D01*
X114597142Y-108107619D01*
X115549523Y-109012380D02*
X114978095Y-109012380D01*
X115263809Y-109012380D02*
X115263809Y-108012380D01*
X115168571Y-108155238D01*
X115073333Y-108250476D01*
X114978095Y-108298095D01*
X116168571Y-108012380D02*
X116263809Y-108012380D01*
X116359047Y-108060000D01*
X116406666Y-108107619D01*
X116454285Y-108202857D01*
X116501904Y-108393333D01*
X116501904Y-108631428D01*
X116454285Y-108821904D01*
X116406666Y-108917142D01*
X116359047Y-108964761D01*
X116263809Y-109012380D01*
X116168571Y-109012380D01*
X116073333Y-108964761D01*
X116025714Y-108917142D01*
X115978095Y-108821904D01*
X115930476Y-108631428D01*
X115930476Y-108393333D01*
X115978095Y-108202857D01*
X116025714Y-108107619D01*
X116073333Y-108060000D01*
X116168571Y-108012380D01*
X114671333Y-106667142D02*
X114623714Y-106714761D01*
X114480857Y-106762380D01*
X114385619Y-106762380D01*
X114242761Y-106714761D01*
X114147523Y-106619523D01*
X114099904Y-106524285D01*
X114052285Y-106333809D01*
X114052285Y-106190952D01*
X114099904Y-106000476D01*
X114147523Y-105905238D01*
X114242761Y-105810000D01*
X114385619Y-105762380D01*
X114480857Y-105762380D01*
X114623714Y-105810000D01*
X114671333Y-105857619D01*
X115242761Y-106190952D02*
X115147523Y-106143333D01*
X115099904Y-106095714D01*
X115052285Y-106000476D01*
X115052285Y-105952857D01*
X115099904Y-105857619D01*
X115147523Y-105810000D01*
X115242761Y-105762380D01*
X115433238Y-105762380D01*
X115528476Y-105810000D01*
X115576095Y-105857619D01*
X115623714Y-105952857D01*
X115623714Y-106000476D01*
X115576095Y-106095714D01*
X115528476Y-106143333D01*
X115433238Y-106190952D01*
X115242761Y-106190952D01*
X115147523Y-106238571D01*
X115099904Y-106286190D01*
X115052285Y-106381428D01*
X115052285Y-106571904D01*
X115099904Y-106667142D01*
X115147523Y-106714761D01*
X115242761Y-106762380D01*
X115433238Y-106762380D01*
X115528476Y-106714761D01*
X115576095Y-106667142D01*
X115623714Y-106571904D01*
X115623714Y-106381428D01*
X115576095Y-106286190D01*
X115528476Y-106238571D01*
X115433238Y-106190952D01*
X158373333Y-103667142D02*
X158325714Y-103714761D01*
X158182857Y-103762380D01*
X158087619Y-103762380D01*
X157944761Y-103714761D01*
X157849523Y-103619523D01*
X157801904Y-103524285D01*
X157754285Y-103333809D01*
X157754285Y-103190952D01*
X157801904Y-103000476D01*
X157849523Y-102905238D01*
X157944761Y-102810000D01*
X158087619Y-102762380D01*
X158182857Y-102762380D01*
X158325714Y-102810000D01*
X158373333Y-102857619D01*
X158706666Y-102762380D02*
X159373333Y-102762380D01*
X158944761Y-103762380D01*
X162323333Y-122367142D02*
X162275714Y-122414761D01*
X162132857Y-122462380D01*
X162037619Y-122462380D01*
X161894761Y-122414761D01*
X161799523Y-122319523D01*
X161751904Y-122224285D01*
X161704285Y-122033809D01*
X161704285Y-121890952D01*
X161751904Y-121700476D01*
X161799523Y-121605238D01*
X161894761Y-121510000D01*
X162037619Y-121462380D01*
X162132857Y-121462380D01*
X162275714Y-121510000D01*
X162323333Y-121557619D01*
X163180476Y-121462380D02*
X162990000Y-121462380D01*
X162894761Y-121510000D01*
X162847142Y-121557619D01*
X162751904Y-121700476D01*
X162704285Y-121890952D01*
X162704285Y-122271904D01*
X162751904Y-122367142D01*
X162799523Y-122414761D01*
X162894761Y-122462380D01*
X163085238Y-122462380D01*
X163180476Y-122414761D01*
X163228095Y-122367142D01*
X163275714Y-122271904D01*
X163275714Y-122033809D01*
X163228095Y-121938571D01*
X163180476Y-121890952D01*
X163085238Y-121843333D01*
X162894761Y-121843333D01*
X162799523Y-121890952D01*
X162751904Y-121938571D01*
X162704285Y-122033809D01*
X162323333Y-113117142D02*
X162275714Y-113164761D01*
X162132857Y-113212380D01*
X162037619Y-113212380D01*
X161894761Y-113164761D01*
X161799523Y-113069523D01*
X161751904Y-112974285D01*
X161704285Y-112783809D01*
X161704285Y-112640952D01*
X161751904Y-112450476D01*
X161799523Y-112355238D01*
X161894761Y-112260000D01*
X162037619Y-112212380D01*
X162132857Y-112212380D01*
X162275714Y-112260000D01*
X162323333Y-112307619D01*
X163228095Y-112212380D02*
X162751904Y-112212380D01*
X162704285Y-112688571D01*
X162751904Y-112640952D01*
X162847142Y-112593333D01*
X163085238Y-112593333D01*
X163180476Y-112640952D01*
X163228095Y-112688571D01*
X163275714Y-112783809D01*
X163275714Y-113021904D01*
X163228095Y-113117142D01*
X163180476Y-113164761D01*
X163085238Y-113212380D01*
X162847142Y-113212380D01*
X162751904Y-113164761D01*
X162704285Y-113117142D01*
X120967833Y-79479642D02*
X120920214Y-79527261D01*
X120777357Y-79574880D01*
X120682119Y-79574880D01*
X120539261Y-79527261D01*
X120444023Y-79432023D01*
X120396404Y-79336785D01*
X120348785Y-79146309D01*
X120348785Y-79003452D01*
X120396404Y-78812976D01*
X120444023Y-78717738D01*
X120539261Y-78622500D01*
X120682119Y-78574880D01*
X120777357Y-78574880D01*
X120920214Y-78622500D01*
X120967833Y-78670119D01*
X121824976Y-78908214D02*
X121824976Y-79574880D01*
X121586880Y-78527261D02*
X121348785Y-79241547D01*
X121967833Y-79241547D01*
X161873333Y-88767142D02*
X161825714Y-88814761D01*
X161682857Y-88862380D01*
X161587619Y-88862380D01*
X161444761Y-88814761D01*
X161349523Y-88719523D01*
X161301904Y-88624285D01*
X161254285Y-88433809D01*
X161254285Y-88290952D01*
X161301904Y-88100476D01*
X161349523Y-88005238D01*
X161444761Y-87910000D01*
X161587619Y-87862380D01*
X161682857Y-87862380D01*
X161825714Y-87910000D01*
X161873333Y-87957619D01*
X162206666Y-87862380D02*
X162825714Y-87862380D01*
X162492380Y-88243333D01*
X162635238Y-88243333D01*
X162730476Y-88290952D01*
X162778095Y-88338571D01*
X162825714Y-88433809D01*
X162825714Y-88671904D01*
X162778095Y-88767142D01*
X162730476Y-88814761D01*
X162635238Y-88862380D01*
X162349523Y-88862380D01*
X162254285Y-88814761D01*
X162206666Y-88767142D01*
X135923333Y-95367142D02*
X135875714Y-95414761D01*
X135732857Y-95462380D01*
X135637619Y-95462380D01*
X135494761Y-95414761D01*
X135399523Y-95319523D01*
X135351904Y-95224285D01*
X135304285Y-95033809D01*
X135304285Y-94890952D01*
X135351904Y-94700476D01*
X135399523Y-94605238D01*
X135494761Y-94510000D01*
X135637619Y-94462380D01*
X135732857Y-94462380D01*
X135875714Y-94510000D01*
X135923333Y-94557619D01*
X136304285Y-94557619D02*
X136351904Y-94510000D01*
X136447142Y-94462380D01*
X136685238Y-94462380D01*
X136780476Y-94510000D01*
X136828095Y-94557619D01*
X136875714Y-94652857D01*
X136875714Y-94748095D01*
X136828095Y-94890952D01*
X136256666Y-95462380D01*
X136875714Y-95462380D01*
X152873333Y-70567142D02*
X152825714Y-70614761D01*
X152682857Y-70662380D01*
X152587619Y-70662380D01*
X152444761Y-70614761D01*
X152349523Y-70519523D01*
X152301904Y-70424285D01*
X152254285Y-70233809D01*
X152254285Y-70090952D01*
X152301904Y-69900476D01*
X152349523Y-69805238D01*
X152444761Y-69710000D01*
X152587619Y-69662380D01*
X152682857Y-69662380D01*
X152825714Y-69710000D01*
X152873333Y-69757619D01*
X153825714Y-70662380D02*
X153254285Y-70662380D01*
X153540000Y-70662380D02*
X153540000Y-69662380D01*
X153444761Y-69805238D01*
X153349523Y-69900476D01*
X153254285Y-69948095D01*
M02*
