solid section_4
facet normal -0.0 -0.0 1.0
  outer loop
    vertex 53.51319702558536 12.176280381217254 7.999999999999999
    vertex 11.513197025585324 64.67628038121727 7.999999999999999
    vertex 11.513197025585324 12.176280381217254 7.999999999999999
  endloop
endfacet
facet normal -0.0 -0.0 1.0
  outer loop
    vertex 11.513197025585324 64.67628038121727 7.999999999999999
    vertex 53.51319702558536 12.176280381217254 7.999999999999999
    vertex 53.51319702558536 64.67628038121727 7.999999999999999
  endloop
endfacet
facet normal -0.0 1.0 -0.0
  outer loop
    vertex 2.513197025585341 64.67628038121727 3.9999999999999996
    vertex 53.51319702558536 64.67628038121727 0.0
    vertex 2.513197025585341 64.67628038121727 -4.595000104447587e-16
  endloop
endfacet
facet normal -0.0 1.0 -0.0
  outer loop
    vertex 53.51319702558536 64.67628038121727 0.0
    vertex 2.513197025585341 64.67628038121727 3.9999999999999996
    vertex 11.513197025585324 64.67628038121727 3.9999999999999996
  endloop
endfacet
facet normal -0.0 1.0 -0.0
  outer loop
    vertex 53.51319702558536 64.67628038121727 0.0
    vertex 11.513197025585324 64.67628038121727 3.9999999999999996
    vertex 53.51319702558536 64.67628038121727 7.999999999999999
  endloop
endfacet
facet normal -0.0 1.0 -0.0
  outer loop
    vertex 53.51319702558536 64.67628038121727 7.999999999999999
    vertex 11.513197025585324 64.67628038121727 3.9999999999999996
    vertex 11.513197025585324 64.67628038121727 7.999999999999999
  endloop
endfacet
facet normal 8.665357090279245e-18 -1.917108824912366e-18 -1.0
  outer loop
    vertex 53.51319702558536 64.67628038121727 0.0
    vertex 2.513197025585341 12.176280381217254 -6.89250015667138e-16
    vertex 2.513197025585341 64.67628038121727 -4.595000104447587e-16
  endloop
endfacet
facet normal 8.665357090279245e-18 -1.917108824912366e-18 -1.0
  outer loop
    vertex 2.513197025585341 12.176280381217254 -6.89250015667138e-16
    vertex 53.51319702558536 64.67628038121727 0.0
    vertex 11.513197025585336 12.176280381217254 -1.8920588665372414e-16
  endloop
endfacet
facet normal 8.665357090279245e-18 -1.917108824912366e-18 -1.0
  outer loop
    vertex 11.513197025585336 12.176280381217254 -1.8920588665372414e-16
    vertex 53.51319702558536 64.67628038121727 0.0
    vertex 11.513197025585336 -0.32371961878274563 0.0
  endloop
endfacet
facet normal 8.665357090279245e-18 -1.917108824912366e-18 -1.0
  outer loop
    vertex 11.513197025585336 -0.32371961878274563 0.0
    vertex 53.51319702558536 64.67628038121727 0.0
    vertex 53.51319702558536 -0.32371961878274563 0.0
  endloop
endfacet
facet normal 1.0 -0.0 -0.0
  outer loop
    vertex 53.51319702558536 64.67628038121727 0.0
    vertex 53.51319702558536 -0.32371961878274563 3.999999999999999
    vertex 53.51319702558536 -0.32371961878274563 0.0
  endloop
endfacet
facet normal 1.0 -0.0 -0.0
  outer loop
    vertex 53.51319702558536 -0.32371961878274563 3.999999999999999
    vertex 53.51319702558536 64.67628038121727 0.0
    vertex 53.51319702558536 12.176280381217254 3.999999999999999
  endloop
endfacet
facet normal 1.0 -0.0 -0.0
  outer loop
    vertex 53.51319702558536 12.176280381217254 3.999999999999999
    vertex 53.51319702558536 64.67628038121727 0.0
    vertex 53.51319702558536 12.176280381217254 7.999999999999999
  endloop
endfacet
facet normal 1.0 -0.0 -0.0
  outer loop
    vertex 53.51319702558536 12.176280381217254 7.999999999999999
    vertex 53.51319702558536 64.67628038121727 0.0
    vertex 53.51319702558536 64.67628038121727 7.999999999999999
  endloop
endfacet
facet normal 8.392757388535404e-18 -2.819966482547897e-17 1.0
  outer loop
    vertex 11.513197025585336 -0.32371961878274563 3.999999999999999
    vertex 53.51319702558536 12.176280381217254 3.999999999999999
    vertex 11.513197025585324 12.176280381217254 3.9999999999999996
  endloop
endfacet
facet normal 8.392757388535404e-18 -2.819966482547897e-17 1.0
  outer loop
    vertex 53.51319702558536 12.176280381217254 3.999999999999999
    vertex 11.513197025585336 -0.32371961878274563 3.999999999999999
    vertex 53.51319702558536 -0.32371961878274563 3.999999999999999
  endloop
endfacet
facet normal 0.0 -1.0 0.0
  outer loop
    vertex 53.51319702558536 12.176280381217254 7.999999999999999
    vertex 11.513197025585324 12.176280381217254 3.9999999999999996
    vertex 53.51319702558536 12.176280381217254 3.999999999999999
  endloop
endfacet
facet normal 0.0 -1.0 0.0
  outer loop
    vertex 11.513197025585324 12.176280381217254 3.9999999999999996
    vertex 53.51319702558536 12.176280381217254 7.999999999999999
    vertex 11.513197025585324 12.176280381217254 7.999999999999999
  endloop
endfacet
facet normal 0.0 -1.0 0.0
  outer loop
    vertex 11.513197025585336 12.176280381217254 -1.8920588665372414e-16
    vertex 2.513197025585341 12.176280381217254 3.999999999999999
    vertex 2.513197025585341 12.176280381217254 -6.89250015667138e-16
  endloop
endfacet
facet normal 0.0 -1.0 0.0
  outer loop
    vertex 2.513197025585341 12.176280381217254 3.999999999999999
    vertex 11.513197025585336 12.176280381217254 -1.8920588665372414e-16
    vertex 11.513197025585324 12.176280381217254 3.9999999999999996
  endloop
endfacet
facet normal -1.0 -4.511946372076635e-16 -1.409983241273949e-15
  outer loop
    vertex 11.513197025585324 12.176280381217254 3.9999999999999996
    vertex 11.513197025585336 -0.32371961878274563 0.0
    vertex 11.513197025585336 -0.32371961878274563 3.999999999999999
  endloop
endfacet
facet normal -1.0 -4.511946372076635e-16 -1.409983241273949e-15
  outer loop
    vertex 11.513197025585336 -0.32371961878274563 0.0
    vertex 11.513197025585324 12.176280381217254 3.9999999999999996
    vertex 11.513197025585336 12.176280381217254 -1.8920588665372414e-16
  endloop
endfacet
facet normal 0.0 -1.0 0.0
  outer loop
    vertex 53.51319702558536 -0.32371961878274563 3.999999999999999
    vertex 11.513197025585336 -0.32371961878274563 0.0
    vertex 53.51319702558536 -0.32371961878274563 0.0
  endloop
endfacet
facet normal 0.0 -1.0 0.0
  outer loop
    vertex 11.513197025585336 -0.32371961878274563 0.0
    vertex 53.51319702558536 -0.32371961878274563 3.999999999999999
    vertex 11.513197025585336 -0.32371961878274563 3.999999999999999
  endloop
endfacet
facet normal -3.9166201146498655e-17 -6.714205910828326e-18 1.0
  outer loop
    vertex 11.513197025585324 12.176280381217254 3.9999999999999996
    vertex 2.513197025585341 64.67628038121727 3.9999999999999996
    vertex 2.513197025585341 12.176280381217254 3.999999999999999
  endloop
endfacet
facet normal -3.9166201146498655e-17 -6.714205910828326e-18 1.0
  outer loop
    vertex 2.513197025585341 64.67628038121727 3.9999999999999996
    vertex 11.513197025585324 12.176280381217254 3.9999999999999996
    vertex 11.513197025585324 64.67628038121727 3.9999999999999996
  endloop
endfacet
facet normal -1.0 0.0 0.0
  outer loop
    vertex 11.513197025585324 64.67628038121727 7.999999999999999
    vertex 11.513197025585324 12.176280381217254 3.9999999999999996
    vertex 11.513197025585324 12.176280381217254 7.999999999999999
  endloop
endfacet
facet normal -1.0 0.0 0.0
  outer loop
    vertex 11.513197025585324 12.176280381217254 3.9999999999999996
    vertex 11.513197025585324 64.67628038121727 7.999999999999999
    vertex 11.513197025585324 64.67628038121727 3.9999999999999996
  endloop
endfacet
facet normal -1.0 0.0 0.0
  outer loop
    vertex 2.513197025585341 64.67628038121727 3.9999999999999996
    vertex 2.513197025585341 12.176280381217254 -6.89250015667138e-16
    vertex 2.513197025585341 12.176280381217254 3.999999999999999
  endloop
endfacet
facet normal -1.0 0.0 0.0
  outer loop
    vertex 2.513197025585341 12.176280381217254 -6.89250015667138e-16
    vertex 2.513197025585341 64.67628038121727 3.9999999999999996
    vertex 2.513197025585341 64.67628038121727 -4.595000104447587e-16
  endloop
endfacet
endsolid section_4
