solid section_1
facet normal 1.0 -0.0 -0.0
  outer loop
    vertex 76.34292999999998 55.000000000000036 0.0
    vertex 76.34292999999998 0.0 7.999999999999999
    vertex 76.34292999999998 0.0 0.0
  endloop
endfacet
facet normal 1.0 -0.0 -0.0
  outer loop
    vertex 76.34292999999998 0.0 7.999999999999999
    vertex 76.34292999999998 55.000000000000036 0.0
    vertex 76.34292999999998 55.000000000000036 3.9999999999999996
  endloop
endfacet
facet normal 1.0 -0.0 -0.0
  outer loop
    vertex 76.34292999999998 0.0 7.999999999999999
    vertex 76.34292999999998 55.000000000000036 3.9999999999999996
    vertex 76.34292999999998 67.50000000000003 7.999999999999999
  endloop
endfacet
facet normal 1.0 -0.0 -0.0
  outer loop
    vertex 76.34292999999998 67.50000000000003 7.999999999999999
    vertex 76.34292999999998 55.000000000000036 3.9999999999999996
    vertex 76.34292999999998 67.50000000000003 3.9999999999999996
  endloop
endfacet
facet normal 0.0 -1.0 0.0
  outer loop
    vertex 76.34292999999998 0.0 7.999999999999999
    vertex 7.342930000000014 0.0 0.0
    vertex 76.34292999999998 0.0 0.0
  endloop
endfacet
facet normal 0.0 -1.0 0.0
  outer loop
    vertex 7.342930000000014 0.0 0.0
    vertex 76.34292999999998 0.0 7.999999999999999
    vertex 7.342930000000014 0.0 3.9999999999999996
  endloop
endfacet
facet normal 0.0 -1.0 0.0
  outer loop
    vertex 7.342930000000014 0.0 3.9999999999999996
    vertex 76.34292999999998 0.0 7.999999999999999
    vertex -1.657069999999978 0.0 3.9999999999999996
  endloop
endfacet
facet normal 0.0 -1.0 0.0
  outer loop
    vertex -1.657069999999978 0.0 3.9999999999999996
    vertex 76.34292999999998 0.0 7.999999999999999
    vertex -1.6570699999999836 0.0 7.999999999999999
  endloop
endfacet
facet normal -0.0 -0.0 1.0
  outer loop
    vertex -1.6570699999999836 0.0 7.999999999999999
    vertex 14.150898978321731 52.80796897832172 7.999999999999999
    vertex -1.6570699999999836 67.50000000000003 7.999999999999999
  endloop
endfacet
facet normal -0.0 -0.0 1.0
  outer loop
    vertex 14.150898978321731 52.80796897832172 7.999999999999999
    vertex -1.6570699999999836 0.0 7.999999999999999
    vertex 76.34292999999998 0.0 7.999999999999999
  endloop
endfacet
facet normal -0.0 -0.0 1.0
  outer loop
    vertex -1.6570699999999836 67.50000000000003 7.999999999999999
    vertex 14.150898978321731 52.80796897832172 7.999999999999999
    vertex 13.65825124826827 53.45000000000002 7.999999999999999
  endloop
endfacet
facet normal -0.0 -0.0 1.0
  outer loop
    vertex -1.6570699999999836 67.50000000000003 7.999999999999999
    vertex 13.65825124826827 53.45000000000002 7.999999999999999
    vertex 13.348559938503918 54.19766096018219 7.999999999999999
  endloop
endfacet
facet normal -0.0 -0.0 1.0
  outer loop
    vertex -1.6570699999999836 67.50000000000003 7.999999999999999
    vertex 13.348559938503918 54.19766096018219 7.999999999999999
    vertex 13.242930000000028 55.000000000000014 7.999999999999999
  endloop
endfacet
facet normal -0.0 -0.0 1.0
  outer loop
    vertex 14.150898978321731 52.80796897832172 7.999999999999999
    vertex 76.34292999999998 0.0 7.999999999999999
    vertex 14.79293000000003 52.315321248268255 7.999999999999999
  endloop
endfacet
facet normal -0.0 -0.0 1.0
  outer loop
    vertex 14.79293000000003 52.315321248268255 7.999999999999999
    vertex 76.34292999999998 0.0 7.999999999999999
    vertex 15.540590960182215 52.005629938503894 7.999999999999999
  endloop
endfacet
facet normal -0.0 -0.0 1.0
  outer loop
    vertex 15.540590960182215 52.005629938503894 7.999999999999999
    vertex 76.34292999999998 0.0 7.999999999999999
    vertex 16.342930000000027 51.90000000000002 7.999999999999999
  endloop
endfacet
facet normal -0.0 -0.0 1.0
  outer loop
    vertex 16.342930000000027 51.90000000000002 7.999999999999999
    vertex 76.34292999999998 0.0 7.999999999999999
    vertex 17.145269039817844 52.005629938503894 7.999999999999999
  endloop
endfacet
facet normal -0.0 -0.0 1.0
  outer loop
    vertex 17.145269039817844 52.005629938503894 7.999999999999999
    vertex 76.34292999999998 0.0 7.999999999999999
    vertex 17.892930000000028 52.315321248268255 7.999999999999999
  endloop
endfacet
facet normal -0.0 -0.0 1.0
  outer loop
    vertex 17.892930000000028 52.315321248268255 7.999999999999999
    vertex 76.34292999999998 0.0 7.999999999999999
    vertex 18.534961021678328 52.80796897832172 7.999999999999999
  endloop
endfacet
facet normal -0.0 -0.0 1.0
  outer loop
    vertex 18.534961021678328 52.80796897832172 7.999999999999999
    vertex 76.34292999999998 0.0 7.999999999999999
    vertex 19.027608751731787 53.45000000000002 7.999999999999999
  endloop
endfacet
facet normal -0.0 -0.0 1.0
  outer loop
    vertex 19.027608751731787 53.45000000000002 7.999999999999999
    vertex 76.34292999999998 0.0 7.999999999999999
    vertex 19.33730006149614 54.197660960182205 7.999999999999999
  endloop
endfacet
facet normal -0.0 -0.0 1.0
  outer loop
    vertex 19.33730006149614 54.197660960182205 7.999999999999999
    vertex 76.34292999999998 0.0 7.999999999999999
    vertex 19.442930000000025 55.000000000000014 7.999999999999999
  endloop
endfacet
facet normal -0.0 -0.0 1.0
  outer loop
    vertex -1.6570699999999836 67.50000000000003 7.999999999999999
    vertex 15.540590960182211 57.99437006149613 7.999999999999999
    vertex 76.34292999999998 67.50000000000003 7.999999999999999
  endloop
endfacet
facet normal -0.0 -0.0 1.0
  outer loop
    vertex 15.540590960182211 57.99437006149613 7.999999999999999
    vertex -1.6570699999999836 67.50000000000003 7.999999999999999
    vertex 14.792930000000027 57.68467875173177 7.999999999999999
  endloop
endfacet
facet normal -0.0 -0.0 1.0
  outer loop
    vertex 14.792930000000027 57.68467875173177 7.999999999999999
    vertex -1.6570699999999836 67.50000000000003 7.999999999999999
    vertex 14.150898978321731 57.192031021678304 7.999999999999999
  endloop
endfacet
facet normal -0.0 -0.0 1.0
  outer loop
    vertex 14.150898978321731 57.192031021678304 7.999999999999999
    vertex -1.6570699999999836 67.50000000000003 7.999999999999999
    vertex 13.658251248268266 56.55000000000001 7.999999999999999
  endloop
endfacet
facet normal -0.0 -0.0 1.0
  outer loop
    vertex 13.658251248268266 56.55000000000001 7.999999999999999
    vertex -1.6570699999999836 67.50000000000003 7.999999999999999
    vertex 13.348559938503914 55.802339039817824 7.999999999999999
  endloop
endfacet
facet normal -0.0 -0.0 1.0
  outer loop
    vertex 13.348559938503914 55.802339039817824 7.999999999999999
    vertex -1.6570699999999836 67.50000000000003 7.999999999999999
    vertex 13.242930000000028 55.000000000000014 7.999999999999999
  endloop
endfacet
facet normal -0.0 -0.0 1.0
  outer loop
    vertex 76.34292999999998 67.50000000000003 7.999999999999999
    vertex 15.540590960182211 57.99437006149613 7.999999999999999
    vertex 16.342930000000027 58.10000000000001 7.999999999999999
  endloop
endfacet
facet normal -0.0 -0.0 1.0
  outer loop
    vertex 76.34292999999998 67.50000000000003 7.999999999999999
    vertex 16.342930000000027 58.10000000000001 7.999999999999999
    vertex 17.14526903981784 57.99437006149613 7.999999999999999
  endloop
endfacet
facet normal -0.0 -0.0 1.0
  outer loop
    vertex 76.34292999999998 67.50000000000003 7.999999999999999
    vertex 17.14526903981784 57.99437006149613 7.999999999999999
    vertex 17.892930000000028 57.68467875173177 7.999999999999999
  endloop
endfacet
facet normal -0.0 -0.0 1.0
  outer loop
    vertex 76.34292999999998 67.50000000000003 7.999999999999999
    vertex 17.892930000000028 57.68467875173177 7.999999999999999
    vertex 18.534961021678324 57.192031021678304 7.999999999999999
  endloop
endfacet
facet normal -0.0 -0.0 1.0
  outer loop
    vertex 76.34292999999998 67.50000000000003 7.999999999999999
    vertex 18.534961021678324 57.192031021678304 7.999999999999999
    vertex 19.027608751731787 56.55000000000001 7.999999999999999
  endloop
endfacet
facet normal -0.0 -0.0 1.0
  outer loop
    vertex 76.34292999999998 67.50000000000003 7.999999999999999
    vertex 19.027608751731787 56.55000000000001 7.999999999999999
    vertex 19.337300061496137 55.802339039817824 7.999999999999999
  endloop
endfacet
facet normal -0.0 -0.0 1.0
  outer loop
    vertex 76.34292999999998 67.50000000000003 7.999999999999999
    vertex 19.337300061496137 55.802339039817824 7.999999999999999
    vertex 19.442930000000025 55.000000000000014 7.999999999999999
  endloop
endfacet
facet normal -0.0 -0.0 1.0
  outer loop
    vertex 76.34292999999998 67.50000000000003 7.999999999999999
    vertex 19.442930000000025 55.000000000000014 7.999999999999999
    vertex 76.34292999999998 0.0 7.999999999999999
  endloop
endfacet
facet normal 2.1888525165699675e-18 -3.3315989310531087e-18 -1.0
  outer loop
    vertex 7.342930000000014 67.50000000000003 -3.524958103184872e-16
    vertex 14.242930000000028 55.000000000000014 -1.4041355112530129e-15
    vertex 7.342930000000014 0.0 0.0
  endloop
endfacet
facet normal 2.1888525165699675e-18 -3.3315989310531087e-18 -1.0
  outer loop
    vertex 14.242930000000028 55.000000000000014 -1.4041355112530129e-15
    vertex 7.342930000000014 67.50000000000003 -3.524958103184872e-16
    vertex 14.314485764792984 55.54351999471531 -1.4057896768705702e-15
  endloop
endfacet
facet normal 2.1888525165699675e-18 -3.3315989310531087e-18 -1.0
  outer loop
    vertex 14.314485764792984 55.54351999471531 -1.4057896768705702e-15
    vertex 7.342930000000014 67.50000000000003 -3.524958103184872e-16
    vertex 14.52427665205271 56.05000000000001 -1.4070178638032445e-15
  endloop
endfacet
facet normal 2.1888525165699675e-18 -3.3315989310531087e-18 -1.0
  outer loop
    vertex 14.52427665205271 56.05000000000001 -1.4070178638032445e-15
    vertex 7.342930000000014 67.50000000000003 -3.524958103184872e-16
    vertex 14.858005759508277 56.48492424049176 -1.4077363731412492e-15
  endloop
endfacet
facet normal 2.1888525165699675e-18 -3.3315989310531087e-18 -1.0
  outer loop
    vertex 14.858005759508277 56.48492424049176 -1.4077363731412492e-15
    vertex 7.342930000000014 67.50000000000003 -3.524958103184872e-16
    vertex 15.292930000000029 56.81865334794733 -1.4078962396605918e-15
  endloop
endfacet
facet normal 2.1888525165699675e-18 -3.3315989310531087e-18 -1.0
  outer loop
    vertex 15.292930000000029 56.81865334794733 -1.4078962396605918e-15
    vertex 7.342930000000014 67.50000000000003 -3.524958103184872e-16
    vertex 34.342929999999996 67.50000000000003 -3.524958103184872e-16
  endloop
endfacet
facet normal 2.1888525165699675e-18 -3.3315989310531087e-18 -1.0
  outer loop
    vertex 15.292930000000029 56.81865334794733 -1.4078962396605918e-15
    vertex 34.342929999999996 67.50000000000003 -3.524958103184872e-16
    vertex 15.799410005284734 57.028444235207054 -1.4074865687221711e-15
  endloop
endfacet
facet normal 2.1888525165699675e-18 -3.3315989310531087e-18 -1.0
  outer loop
    vertex 15.799410005284734 57.028444235207054 -1.4074865687221711e-15
    vertex 34.342929999999996 67.50000000000003 -3.524958103184872e-16
    vertex 16.342930000000027 57.10000000000001 -1.4065352787234273e-15
  endloop
endfacet
facet normal 2.1888525165699675e-18 -3.3315989310531087e-18 -1.0
  outer loop
    vertex 16.342930000000027 57.10000000000001 -1.4065352787234273e-15
    vertex 34.342929999999996 67.50000000000003 -3.524958103184872e-16
    vertex 16.886449994715324 57.028444235207054 -1.4051071985056937e-15
  endloop
endfacet
facet normal 2.1888525165699675e-18 -3.3315989310531087e-18 -1.0
  outer loop
    vertex 16.886449994715324 57.028444235207054 -1.4051071985056937e-15
    vertex 34.342929999999996 67.50000000000003 -3.524958103184872e-16
    vertex 17.392930000000028 56.81865334794733 -1.4032996493757947e-15
  endloop
endfacet
facet normal 2.1888525165699675e-18 -3.3315989310531087e-18 -1.0
  outer loop
    vertex 17.392930000000028 56.81865334794733 -1.4032996493757947e-15
    vertex 34.342929999999996 67.50000000000003 -3.524958103184872e-16
    vertex 17.827854240491778 56.48492424049176 -1.4012358128198167e-15
  endloop
endfacet
facet normal 2.1888525165699675e-18 -3.3315989310531087e-18 -1.0
  outer loop
    vertex 17.827854240491778 56.48492424049176 -1.4012358128198167e-15
    vertex 34.342929999999996 67.50000000000003 -3.524958103184872e-16
    vertex 18.16158334794735 56.05000000000001 -1.3990563358883986e-15
  endloop
endfacet
facet normal 2.1888525165699675e-18 -3.3315989310531087e-18 -1.0
  outer loop
    vertex 18.16158334794735 56.05000000000001 -1.3990563358883986e-15
    vertex 34.342929999999996 67.50000000000003 -3.524958103184872e-16
    vertex 18.37137423520707 55.5435199947153 -1.3969097463326603e-15
  endloop
endfacet
facet normal 2.1888525165699675e-18 -3.3315989310531087e-18 -1.0
  outer loop
    vertex 18.37137423520707 55.5435199947153 -1.3969097463326603e-15
    vertex 34.342929999999996 67.50000000000003 -3.524958103184872e-16
    vertex 18.442930000000025 55.000000000000014 -1.3949423306834187e-15
  endloop
endfacet
facet normal 2.1888525165699675e-18 -3.3315989310531087e-18 -1.0
  outer loop
    vertex 7.342930000000014 0.0 0.0
    vertex 14.858005759508277 53.51507575950827 -1.397842029116615e-15
    vertex 76.34292999999998 0.0 0.0
  endloop
endfacet
facet normal 2.1888525165699675e-18 -3.3315989310531087e-18 -1.0
  outer loop
    vertex 14.858005759508277 53.51507575950827 -1.397842029116615e-15
    vertex 7.342930000000014 0.0 0.0
    vertex 14.524276652052706 53.95000000000002 -1.400021506048033e-15
  endloop
endfacet
facet normal 2.1888525165699675e-18 -3.3315989310531087e-18 -1.0
  outer loop
    vertex 14.524276652052706 53.95000000000002 -1.400021506048033e-15
    vertex 7.342930000000014 0.0 0.0
    vertex 14.314485764792984 54.45648000528471 -1.4021680956037713e-15
  endloop
endfacet
facet normal 2.1888525165699675e-18 -3.3315989310531087e-18 -1.0
  outer loop
    vertex 14.314485764792984 54.45648000528471 -1.4021680956037713e-15
    vertex 7.342930000000014 0.0 0.0
    vertex 14.242930000000028 55.000000000000014 -1.4041355112530129e-15
  endloop
endfacet
facet normal 2.1888525165699675e-18 -3.3315989310531087e-18 -1.0
  outer loop
    vertex 76.34292999999998 0.0 0.0
    vertex 14.858005759508277 53.51507575950827 -1.397842029116615e-15
    vertex 15.292930000000027 53.18134665205269 -1.3957781925606369e-15
  endloop
endfacet
facet normal 2.1888525165699675e-18 -3.3315989310531087e-18 -1.0
  outer loop
    vertex 76.34292999999998 0.0 0.0
    vertex 15.292930000000027 53.18134665205269 -1.3957781925606369e-15
    vertex 15.799410005284734 52.97155576479297 -1.3939706434307379e-15
  endloop
endfacet
facet normal 2.1888525165699675e-18 -3.3315989310531087e-18 -1.0
  outer loop
    vertex 76.34292999999998 0.0 0.0
    vertex 15.799410005284734 52.97155576479297 -1.3939706434307379e-15
    vertex 16.342930000000027 52.90000000000001 -1.3925425632130043e-15
  endloop
endfacet
facet normal 2.1888525165699675e-18 -3.3315989310531087e-18 -1.0
  outer loop
    vertex 76.34292999999998 0.0 0.0
    vertex 16.342930000000027 52.90000000000001 -1.3925425632130043e-15
    vertex 16.88644999471532 52.97155576479297 -1.3915912732142605e-15
  endloop
endfacet
facet normal 2.1888525165699675e-18 -3.3315989310531087e-18 -1.0
  outer loop
    vertex 76.34292999999998 0.0 0.0
    vertex 16.88644999471532 52.97155576479297 -1.3915912732142605e-15
    vertex 17.392930000000025 53.18134665205269 -1.3911816022758398e-15
  endloop
endfacet
facet normal 2.1888525165699675e-18 -3.3315989310531087e-18 -1.0
  outer loop
    vertex 76.34292999999998 0.0 0.0
    vertex 17.392930000000025 53.18134665205269 -1.3911816022758398e-15
    vertex 17.827854240491778 53.51507575950827 -1.3913414687951824e-15
  endloop
endfacet
facet normal 2.1888525165699675e-18 -3.3315989310531087e-18 -1.0
  outer loop
    vertex 76.34292999999998 0.0 0.0
    vertex 17.827854240491778 53.51507575950827 -1.3913414687951824e-15
    vertex 18.16158334794735 53.95000000000002 -1.392059978133187e-15
  endloop
endfacet
facet normal 2.1888525165699675e-18 -3.3315989310531087e-18 -1.0
  outer loop
    vertex 76.34292999999998 0.0 0.0
    vertex 18.16158334794735 53.95000000000002 -1.392059978133187e-15
    vertex 18.37137423520707 54.45648000528471 -1.3932881650658613e-15
  endloop
endfacet
facet normal 2.1888525165699675e-18 -3.3315989310531087e-18 -1.0
  outer loop
    vertex 76.34292999999998 0.0 0.0
    vertex 18.37137423520707 54.45648000528471 -1.3932881650658613e-15
    vertex 18.442930000000025 55.000000000000014 -1.3949423306834187e-15
  endloop
endfacet
facet normal 2.1888525165699675e-18 -3.3315989310531087e-18 -1.0
  outer loop
    vertex 76.34292999999998 0.0 0.0
    vertex 18.442930000000025 55.000000000000014 -1.3949423306834187e-15
    vertex 34.342929999999996 55.000000000000036 0.0
  endloop
endfacet
facet normal 2.1888525165699675e-18 -3.3315989310531087e-18 -1.0
  outer loop
    vertex 34.342929999999996 55.000000000000036 0.0
    vertex 18.442930000000025 55.000000000000014 -1.3949423306834187e-15
    vertex 34.342929999999996 67.50000000000003 -3.524958103184872e-16
  endloop
endfacet
facet normal 2.1888525165699675e-18 -3.3315989310531087e-18 -1.0
  outer loop
    vertex 76.34292999999998 0.0 0.0
    vertex 34.342929999999996 55.000000000000036 0.0
    vertex 76.34292999999998 55.000000000000036 0.0
  endloop
endfacet
facet normal -1.0 0.0 0.0
  outer loop
    vertex 7.342930000000014 67.50000000000003 3.9999999999999702
    vertex 7.342930000000014 0.0 0.0
    vertex 7.342930000000014 0.0 3.9999999999999996
  endloop
endfacet
facet normal -1.0 0.0 0.0
  outer loop
    vertex 7.342930000000014 0.0 0.0
    vertex 7.342930000000014 67.50000000000003 3.9999999999999702
    vertex 7.342930000000014 67.50000000000003 -3.524958103184872e-16
  endloop
endfacet
facet normal -1.0 -4.17772812229318e-17 -7.049916206369745e-16
  outer loop
    vertex -1.6570699999999836 67.50000000000003 7.999999999999999
    vertex -1.657069999999978 0.0 3.9999999999999996
    vertex -1.6570699999999836 0.0 7.999999999999999
  endloop
endfacet
facet normal -1.0 -4.17772812229318e-17 -7.049916206369745e-16
  outer loop
    vertex -1.657069999999978 0.0 3.9999999999999996
    vertex -1.6570699999999836 67.50000000000003 7.999999999999999
    vertex -1.6570699999999836 67.50000000000003 3.9999999999999996
  endloop
endfacet
facet normal -0.0 1.0 -0.0
  outer loop
    vertex 34.342929999999996 55.000000000000036 3.9999999999999982
    vertex 76.34292999999998 55.000000000000036 0.0
    vertex 34.342929999999996 55.000000000000036 0.0
  endloop
endfacet
facet normal -0.0 1.0 -0.0
  outer loop
    vertex 76.34292999999998 55.000000000000036 0.0
    vertex 34.342929999999996 55.000000000000036 3.9999999999999982
    vertex 76.34292999999998 55.000000000000036 3.9999999999999996
  endloop
endfacet
facet normal 1.0 4.511946372076635e-16 1.4099832412739493e-15
  outer loop
    vertex 34.342929999999996 67.50000000000003 -3.524958103184872e-16
    vertex 34.342929999999996 55.000000000000036 3.9999999999999982
    vertex 34.342929999999996 55.000000000000036 0.0
  endloop
endfacet
facet normal 1.0 4.511946372076635e-16 1.4099832412739493e-15
  outer loop
    vertex 34.342929999999996 55.000000000000036 3.9999999999999982
    vertex 34.342929999999996 67.50000000000003 -3.524958103184872e-16
    vertex 34.34292999999998 67.50000000000003 3.9999999999999996
  endloop
endfacet
facet normal 1.6785514777070818e-17 5.639932965095795e-17 -1.0
  outer loop
    vertex 76.34292999999998 67.50000000000003 3.9999999999999996
    vertex 34.342929999999996 55.000000000000036 3.9999999999999982
    vertex 34.34292999999998 67.50000000000003 3.9999999999999996
  endloop
endfacet
facet normal 1.6785514777070818e-17 5.639932965095795e-17 -1.0
  outer loop
    vertex 34.342929999999996 55.000000000000036 3.9999999999999982
    vertex 76.34292999999998 67.50000000000003 3.9999999999999996
    vertex 76.34292999999998 55.000000000000036 3.9999999999999996
  endloop
endfacet
facet normal -0.0 1.0 -0.0
  outer loop
    vertex 7.342930000000014 67.50000000000003 3.9999999999999702
    vertex 34.342929999999996 67.50000000000003 -3.524958103184872e-16
    vertex 7.342930000000014 67.50000000000003 -3.524958103184872e-16
  endloop
endfacet
facet normal -0.0 1.0 -0.0
  outer loop
    vertex 34.342929999999996 67.50000000000003 -3.524958103184872e-16
    vertex 7.342930000000014 67.50000000000003 3.9999999999999702
    vertex 34.34292999999998 67.50000000000003 3.9999999999999996
  endloop
endfacet
facet normal -0.0 1.0 -0.0
  outer loop
    vertex -1.6570699999999836 67.50000000000003 3.9999999999999996
    vertex 34.34292999999998 67.50000000000003 3.9999999999999996
    vertex 7.342930000000014 67.50000000000003 3.9999999999999702
  endloop
endfacet
facet normal -0.0 1.0 -0.0
  outer loop
    vertex 34.34292999999998 67.50000000000003 3.9999999999999996
    vertex -1.6570699999999836 67.50000000000003 3.9999999999999996
    vertex -1.6570699999999836 67.50000000000003 7.999999999999999
  endloop
endfacet
facet normal -0.0 1.0 -0.0
  outer loop
    vertex 34.34292999999998 67.50000000000003 3.9999999999999996
    vertex -1.6570699999999836 67.50000000000003 7.999999999999999
    vertex 76.34292999999998 67.50000000000003 3.9999999999999996
  endloop
endfacet
facet normal -0.0 1.0 -0.0
  outer loop
    vertex 76.34292999999998 67.50000000000003 3.9999999999999996
    vertex -1.6570699999999836 67.50000000000003 7.999999999999999
    vertex 76.34292999999998 67.50000000000003 7.999999999999999
  endloop
endfacet
facet normal -1.6449804481529414e-15 -2.1933072642039196e-16 -1.0
  outer loop
    vertex 7.342930000000014 67.50000000000003 3.9999999999999702
    vertex -1.657069999999978 0.0 3.9999999999999996
    vertex -1.6570699999999836 67.50000000000003 3.9999999999999996
  endloop
endfacet
facet normal -1.6449804481529414e-15 -2.1933072642039196e-16 -1.0
  outer loop
    vertex -1.657069999999978 0.0 3.9999999999999996
    vertex 7.342930000000014 67.50000000000003 3.9999999999999702
    vertex 7.342930000000014 0.0 3.9999999999999996
  endloop
endfacet
facet normal 0.0 0.0 1.0
  outer loop
    vertex 13.348559938503918 54.19766096018219 3.9999999999999996
    vertex 13.348559938503914 55.802339039817824 3.9999999999999996
    vertex 13.242930000000028 55.000000000000014 3.9999999999999996
  endloop
endfacet
facet normal 0.0 0.0 1.0
  outer loop
    vertex 13.348559938503914 55.802339039817824 3.9999999999999996
    vertex 13.348559938503918 54.19766096018219 3.9999999999999996
    vertex 13.658251248268266 56.55000000000001 3.9999999999999996
  endloop
endfacet
facet normal 0.0 0.0 1.0
  outer loop
    vertex 13.658251248268266 56.55000000000001 3.9999999999999996
    vertex 13.348559938503918 54.19766096018219 3.9999999999999996
    vertex 13.65825124826827 53.45000000000002 3.9999999999999996
  endloop
endfacet
facet normal 0.0 0.0 1.0
  outer loop
    vertex 13.658251248268266 56.55000000000001 3.9999999999999996
    vertex 13.65825124826827 53.45000000000002 3.9999999999999996
    vertex 14.150898978321731 57.192031021678304 3.9999999999999996
  endloop
endfacet
facet normal 0.0 0.0 1.0
  outer loop
    vertex 14.150898978321731 57.192031021678304 3.9999999999999996
    vertex 13.65825124826827 53.45000000000002 3.9999999999999996
    vertex 14.150898978321731 52.80796897832172 3.9999999999999996
  endloop
endfacet
facet normal 0.0 0.0 1.0
  outer loop
    vertex 14.150898978321731 57.192031021678304 3.9999999999999996
    vertex 14.150898978321731 52.80796897832172 3.9999999999999996
    vertex 14.242930000000028 55.000000000000014 3.9999999999999956
  endloop
endfacet
facet normal 0.0 0.0 1.0
  outer loop
    vertex 14.242930000000028 55.000000000000014 3.9999999999999956
    vertex 14.150898978321731 52.80796897832172 3.9999999999999996
    vertex 14.314485764792984 54.45648000528471 3.9999999999999956
  endloop
endfacet
facet normal 0.0 0.0 1.0
  outer loop
    vertex 14.314485764792984 54.45648000528471 3.9999999999999956
    vertex 14.150898978321731 52.80796897832172 3.9999999999999996
    vertex 14.79293000000003 52.315321248268255 3.9999999999999996
  endloop
endfacet
facet normal 0.0 0.0 1.0
  outer loop
    vertex 14.314485764792984 54.45648000528471 3.9999999999999956
    vertex 14.79293000000003 52.315321248268255 3.9999999999999996
    vertex 14.524276652052706 53.95000000000002 3.9999999999999956
  endloop
endfacet
facet normal 0.0 0.0 1.0
  outer loop
    vertex 14.524276652052706 53.95000000000002 3.9999999999999956
    vertex 14.79293000000003 52.315321248268255 3.9999999999999996
    vertex 14.858005759508277 53.51507575950827 3.9999999999999956
  endloop
endfacet
facet normal 0.0 0.0 1.0
  outer loop
    vertex 14.858005759508277 53.51507575950827 3.9999999999999956
    vertex 14.79293000000003 52.315321248268255 3.9999999999999996
    vertex 15.540590960182215 52.005629938503894 3.9999999999999996
  endloop
endfacet
facet normal 0.0 0.0 1.0
  outer loop
    vertex 14.858005759508277 53.51507575950827 3.9999999999999956
    vertex 15.540590960182215 52.005629938503894 3.9999999999999996
    vertex 15.292930000000027 53.18134665205269 3.9999999999999956
  endloop
endfacet
facet normal 0.0 0.0 1.0
  outer loop
    vertex 15.292930000000027 53.18134665205269 3.9999999999999956
    vertex 15.540590960182215 52.005629938503894 3.9999999999999996
    vertex 15.799410005284734 52.97155576479297 3.9999999999999956
  endloop
endfacet
facet normal 0.0 0.0 1.0
  outer loop
    vertex 15.799410005284734 52.97155576479297 3.9999999999999956
    vertex 15.540590960182215 52.005629938503894 3.9999999999999996
    vertex 16.342930000000027 51.90000000000002 3.9999999999999996
  endloop
endfacet
facet normal 0.0 0.0 1.0
  outer loop
    vertex 15.799410005284734 52.97155576479297 3.9999999999999956
    vertex 16.342930000000027 51.90000000000002 3.9999999999999996
    vertex 16.342930000000027 52.90000000000001 3.9999999999999956
  endloop
endfacet
facet normal 0.0 0.0 1.0
  outer loop
    vertex 16.342930000000027 52.90000000000001 3.9999999999999956
    vertex 16.342930000000027 51.90000000000002 3.9999999999999996
    vertex 17.145269039817844 52.005629938503894 3.9999999999999996
  endloop
endfacet
facet normal 0.0 0.0 1.0
  outer loop
    vertex 16.342930000000027 52.90000000000001 3.9999999999999956
    vertex 17.145269039817844 52.005629938503894 3.9999999999999996
    vertex 16.88644999471532 52.97155576479297 3.9999999999999956
  endloop
endfacet
facet normal 0.0 0.0 1.0
  outer loop
    vertex 16.88644999471532 52.97155576479297 3.9999999999999956
    vertex 17.145269039817844 52.005629938503894 3.9999999999999996
    vertex 17.392930000000025 53.18134665205269 3.9999999999999956
  endloop
endfacet
facet normal 0.0 0.0 1.0
  outer loop
    vertex 17.392930000000025 53.18134665205269 3.9999999999999956
    vertex 17.145269039817844 52.005629938503894 3.9999999999999996
    vertex 17.892930000000028 52.315321248268255 3.9999999999999996
  endloop
endfacet
facet normal 0.0 0.0 1.0
  outer loop
    vertex 17.392930000000025 53.18134665205269 3.9999999999999956
    vertex 17.892930000000028 52.315321248268255 3.9999999999999996
    vertex 17.827854240491778 53.51507575950827 3.9999999999999956
  endloop
endfacet
facet normal 0.0 0.0 1.0
  outer loop
    vertex 17.827854240491778 53.51507575950827 3.9999999999999956
    vertex 17.892930000000028 52.315321248268255 3.9999999999999996
    vertex 18.16158334794735 53.95000000000002 3.9999999999999956
  endloop
endfacet
facet normal 0.0 0.0 1.0
  outer loop
    vertex 18.16158334794735 53.95000000000002 3.9999999999999956
    vertex 17.892930000000028 52.315321248268255 3.9999999999999996
    vertex 18.534961021678328 52.80796897832172 3.9999999999999996
  endloop
endfacet
facet normal 0.0 0.0 1.0
  outer loop
    vertex 18.16158334794735 53.95000000000002 3.9999999999999956
    vertex 18.534961021678328 52.80796897832172 3.9999999999999996
    vertex 18.37137423520707 54.45648000528471 3.9999999999999956
  endloop
endfacet
facet normal 0.0 0.0 1.0
  outer loop
    vertex 18.37137423520707 54.45648000528471 3.9999999999999956
    vertex 18.534961021678328 52.80796897832172 3.9999999999999996
    vertex 18.442930000000025 55.000000000000014 3.9999999999999956
  endloop
endfacet
facet normal 0.0 0.0 1.0
  outer loop
    vertex 18.442930000000025 55.000000000000014 3.9999999999999956
    vertex 18.534961021678328 52.80796897832172 3.9999999999999996
    vertex 18.534961021678324 57.192031021678304 3.9999999999999996
  endloop
endfacet
facet normal 0.0 0.0 1.0
  outer loop
    vertex 18.534961021678324 57.192031021678304 3.9999999999999996
    vertex 18.534961021678328 52.80796897832172 3.9999999999999996
    vertex 19.027608751731787 56.55000000000001 3.9999999999999996
  endloop
endfacet
facet normal 0.0 0.0 1.0
  outer loop
    vertex 19.027608751731787 56.55000000000001 3.9999999999999996
    vertex 18.534961021678328 52.80796897832172 3.9999999999999996
    vertex 19.027608751731787 53.45000000000002 3.9999999999999996
  endloop
endfacet
facet normal 0.0 0.0 1.0
  outer loop
    vertex 19.027608751731787 56.55000000000001 3.9999999999999996
    vertex 19.027608751731787 53.45000000000002 3.9999999999999996
    vertex 19.33730006149614 54.197660960182205 3.9999999999999996
  endloop
endfacet
facet normal 0.0 0.0 1.0
  outer loop
    vertex 19.027608751731787 56.55000000000001 3.9999999999999996
    vertex 19.33730006149614 54.197660960182205 3.9999999999999996
    vertex 19.337300061496137 55.802339039817824 3.9999999999999996
  endloop
endfacet
facet normal 0.0 0.0 1.0
  outer loop
    vertex 19.337300061496137 55.802339039817824 3.9999999999999996
    vertex 19.33730006149614 54.197660960182205 3.9999999999999996
    vertex 19.442930000000025 55.000000000000014 3.9999999999999996
  endloop
endfacet
facet normal 0.0 0.0 1.0
  outer loop
    vertex 14.150898978321731 57.192031021678304 3.9999999999999996
    vertex 14.314485764792984 55.54351999471531 3.9999999999999956
    vertex 14.792930000000027 57.68467875173177 3.9999999999999996
  endloop
endfacet
facet normal 0.0 0.0 1.0
  outer loop
    vertex 14.314485764792984 55.54351999471531 3.9999999999999956
    vertex 14.150898978321731 57.192031021678304 3.9999999999999996
    vertex 14.242930000000028 55.000000000000014 3.9999999999999956
  endloop
endfacet
facet normal 0.0 0.0 1.0
  outer loop
    vertex 14.792930000000027 57.68467875173177 3.9999999999999996
    vertex 14.314485764792984 55.54351999471531 3.9999999999999956
    vertex 14.52427665205271 56.05000000000001 3.9999999999999956
  endloop
endfacet
facet normal 0.0 0.0 1.0
  outer loop
    vertex 14.792930000000027 57.68467875173177 3.9999999999999996
    vertex 14.52427665205271 56.05000000000001 3.9999999999999956
    vertex 14.858005759508277 56.48492424049176 3.9999999999999956
  endloop
endfacet
facet normal 0.0 0.0 1.0
  outer loop
    vertex 14.792930000000027 57.68467875173177 3.9999999999999996
    vertex 14.858005759508277 56.48492424049176 3.9999999999999956
    vertex 15.540590960182211 57.99437006149613 3.9999999999999996
  endloop
endfacet
facet normal 0.0 0.0 1.0
  outer loop
    vertex 15.540590960182211 57.99437006149613 3.9999999999999996
    vertex 14.858005759508277 56.48492424049176 3.9999999999999956
    vertex 15.292930000000029 56.81865334794733 3.9999999999999956
  endloop
endfacet
facet normal 0.0 0.0 1.0
  outer loop
    vertex 15.540590960182211 57.99437006149613 3.9999999999999996
    vertex 15.292930000000029 56.81865334794733 3.9999999999999956
    vertex 15.799410005284734 57.028444235207054 3.9999999999999956
  endloop
endfacet
facet normal 0.0 0.0 1.0
  outer loop
    vertex 15.540590960182211 57.99437006149613 3.9999999999999996
    vertex 15.799410005284734 57.028444235207054 3.9999999999999956
    vertex 16.342930000000027 58.10000000000001 3.9999999999999996
  endloop
endfacet
facet normal 0.0 0.0 1.0
  outer loop
    vertex 16.342930000000027 58.10000000000001 3.9999999999999996
    vertex 15.799410005284734 57.028444235207054 3.9999999999999956
    vertex 16.342930000000027 57.10000000000001 3.9999999999999956
  endloop
endfacet
facet normal 0.0 0.0 1.0
  outer loop
    vertex 16.342930000000027 58.10000000000001 3.9999999999999996
    vertex 16.342930000000027 57.10000000000001 3.9999999999999956
    vertex 16.886449994715324 57.028444235207054 3.9999999999999956
  endloop
endfacet
facet normal 0.0 0.0 1.0
  outer loop
    vertex 16.342930000000027 58.10000000000001 3.9999999999999996
    vertex 16.886449994715324 57.028444235207054 3.9999999999999956
    vertex 17.14526903981784 57.99437006149613 3.9999999999999996
  endloop
endfacet
facet normal 0.0 0.0 1.0
  outer loop
    vertex 17.14526903981784 57.99437006149613 3.9999999999999996
    vertex 16.886449994715324 57.028444235207054 3.9999999999999956
    vertex 17.392930000000028 56.81865334794733 3.9999999999999956
  endloop
endfacet
facet normal 0.0 0.0 1.0
  outer loop
    vertex 17.14526903981784 57.99437006149613 3.9999999999999996
    vertex 17.392930000000028 56.81865334794733 3.9999999999999956
    vertex 17.892930000000028 57.68467875173177 3.9999999999999996
  endloop
endfacet
facet normal 0.0 0.0 1.0
  outer loop
    vertex 17.892930000000028 57.68467875173177 3.9999999999999996
    vertex 17.392930000000028 56.81865334794733 3.9999999999999956
    vertex 17.827854240491778 56.48492424049176 3.9999999999999956
  endloop
endfacet
facet normal 0.0 0.0 1.0
  outer loop
    vertex 17.892930000000028 57.68467875173177 3.9999999999999996
    vertex 17.827854240491778 56.48492424049176 3.9999999999999956
    vertex 18.16158334794735 56.05000000000001 3.9999999999999956
  endloop
endfacet
facet normal 0.0 0.0 1.0
  outer loop
    vertex 17.892930000000028 57.68467875173177 3.9999999999999996
    vertex 18.16158334794735 56.05000000000001 3.9999999999999956
    vertex 18.534961021678324 57.192031021678304 3.9999999999999996
  endloop
endfacet
facet normal 0.0 0.0 1.0
  outer loop
    vertex 18.534961021678324 57.192031021678304 3.9999999999999996
    vertex 18.16158334794735 56.05000000000001 3.9999999999999956
    vertex 18.37137423520707 55.5435199947153 3.9999999999999956
  endloop
endfacet
facet normal 0.0 0.0 1.0
  outer loop
    vertex 18.534961021678324 57.192031021678304 3.9999999999999996
    vertex 18.37137423520707 55.5435199947153 3.9999999999999956
    vertex 18.442930000000025 55.000000000000014 3.9999999999999956
  endloop
endfacet
facet normal -0.9914448613738102 -0.13052619222005443 -0.0
  outer loop
    vertex 19.337300061496137 55.802339039817824 7.999999999999999
    vertex 19.442930000000025 55.000000000000014 3.9999999999999996
    vertex 19.442930000000025 55.000000000000014 7.999999999999999
  endloop
endfacet
facet normal -0.9914448613738102 -0.13052619222005443 -0.0
  outer loop
    vertex 19.442930000000025 55.000000000000014 3.9999999999999996
    vertex 19.337300061496137 55.802339039817824 7.999999999999999
    vertex 19.337300061496137 55.802339039817824 3.9999999999999996
  endloop
endfacet
facet normal -0.923879532511288 -0.3826834323650868 -0.0
  outer loop
    vertex 19.027608751731787 56.55000000000001 7.999999999999999
    vertex 19.337300061496137 55.802339039817824 3.9999999999999996
    vertex 19.337300061496137 55.802339039817824 7.999999999999999
  endloop
endfacet
facet normal -0.923879532511288 -0.3826834323650868 -0.0
  outer loop
    vertex 19.337300061496137 55.802339039817824 3.9999999999999996
    vertex 19.027608751731787 56.55000000000001 7.999999999999999
    vertex 19.027608751731787 56.55000000000001 3.9999999999999996
  endloop
endfacet
facet normal -0.7933533402912342 -0.6087614290087221 -0.0
  outer loop
    vertex 18.534961021678324 57.192031021678304 7.999999999999999
    vertex 19.027608751731787 56.55000000000001 3.9999999999999996
    vertex 19.027608751731787 56.55000000000001 7.999999999999999
  endloop
endfacet
facet normal -0.7933533402912342 -0.6087614290087221 -0.0
  outer loop
    vertex 19.027608751731787 56.55000000000001 3.9999999999999996
    vertex 18.534961021678324 57.192031021678304 7.999999999999999
    vertex 18.534961021678324 57.192031021678304 3.9999999999999996
  endloop
endfacet
facet normal -0.6087614290087221 -0.7933533402912342 -0.0
  outer loop
    vertex 18.534961021678324 57.192031021678304 7.999999999999999
    vertex 17.892930000000028 57.68467875173177 3.9999999999999996
    vertex 18.534961021678324 57.192031021678304 3.9999999999999996
  endloop
endfacet
facet normal -0.6087614290087221 -0.7933533402912342 -0.0
  outer loop
    vertex 17.892930000000028 57.68467875173177 3.9999999999999996
    vertex 18.534961021678324 57.192031021678304 7.999999999999999
    vertex 17.892930000000028 57.68467875173177 7.999999999999999
  endloop
endfacet
facet normal -0.3826834323650957 -0.9238795325112843 -0.0
  outer loop
    vertex 17.892930000000028 57.68467875173177 7.999999999999999
    vertex 17.14526903981784 57.99437006149613 3.9999999999999996
    vertex 17.892930000000028 57.68467875173177 3.9999999999999996
  endloop
endfacet
facet normal -0.3826834323650957 -0.9238795325112843 -0.0
  outer loop
    vertex 17.14526903981784 57.99437006149613 3.9999999999999996
    vertex 17.892930000000028 57.68467875173177 7.999999999999999
    vertex 17.14526903981784 57.99437006149613 7.999999999999999
  endloop
endfacet
facet normal -0.13052619222004028 -0.9914448613738119 -0.0
  outer loop
    vertex 17.14526903981784 57.99437006149613 7.999999999999999
    vertex 16.342930000000027 58.10000000000001 3.9999999999999996
    vertex 17.14526903981784 57.99437006149613 3.9999999999999996
  endloop
endfacet
facet normal -0.13052619222004028 -0.9914448613738119 -0.0
  outer loop
    vertex 16.342930000000027 58.10000000000001 3.9999999999999996
    vertex 17.14526903981784 57.99437006149613 7.999999999999999
    vertex 16.342930000000027 58.10000000000001 7.999999999999999
  endloop
endfacet
facet normal 0.1305261922200398 -0.9914448613738119 -0.0
  outer loop
    vertex 16.342930000000027 58.10000000000001 7.999999999999999
    vertex 15.540590960182211 57.99437006149613 3.9999999999999996
    vertex 16.342930000000027 58.10000000000001 3.9999999999999996
  endloop
endfacet
facet normal 0.1305261922200398 -0.9914448613738119 -0.0
  outer loop
    vertex 15.540590960182211 57.99437006149613 3.9999999999999996
    vertex 16.342930000000027 58.10000000000001 7.999999999999999
    vertex 15.540590960182211 57.99437006149613 7.999999999999999
  endloop
endfacet
facet normal 0.382683432365097 -0.9238795325112839 -0.0
  outer loop
    vertex 15.540590960182211 57.99437006149613 7.999999999999999
    vertex 14.792930000000027 57.68467875173177 3.9999999999999996
    vertex 15.540590960182211 57.99437006149613 3.9999999999999996
  endloop
endfacet
facet normal 0.382683432365097 -0.9238795325112839 -0.0
  outer loop
    vertex 14.792930000000027 57.68467875173177 3.9999999999999996
    vertex 15.540590960182211 57.99437006149613 7.999999999999999
    vertex 14.792930000000027 57.68467875173177 7.999999999999999
  endloop
endfacet
facet normal 0.6087614290087221 -0.7933533402912342 -0.0
  outer loop
    vertex 14.792930000000027 57.68467875173177 7.999999999999999
    vertex 14.150898978321731 57.192031021678304 3.9999999999999996
    vertex 14.792930000000027 57.68467875173177 3.9999999999999996
  endloop
endfacet
facet normal 0.6087614290087221 -0.7933533402912342 -0.0
  outer loop
    vertex 14.150898978321731 57.192031021678304 3.9999999999999996
    vertex 14.792930000000027 57.68467875173177 7.999999999999999
    vertex 14.150898978321731 57.192031021678304 7.999999999999999
  endloop
endfacet
facet normal 0.7933533402912342 -0.6087614290087221 -0.0
  outer loop
    vertex 14.150898978321731 57.192031021678304 3.9999999999999996
    vertex 13.658251248268266 56.55000000000001 7.999999999999999
    vertex 13.658251248268266 56.55000000000001 3.9999999999999996
  endloop
endfacet
facet normal 0.7933533402912342 -0.6087614290087221 -0.0
  outer loop
    vertex 13.658251248268266 56.55000000000001 7.999999999999999
    vertex 14.150898978321731 57.192031021678304 3.9999999999999996
    vertex 14.150898978321731 57.192031021678304 7.999999999999999
  endloop
endfacet
facet normal 0.9238795325112868 -0.38268343236508984 -0.0
  outer loop
    vertex 13.658251248268266 56.55000000000001 3.9999999999999996
    vertex 13.348559938503914 55.802339039817824 7.999999999999999
    vertex 13.348559938503914 55.802339039817824 3.9999999999999996
  endloop
endfacet
facet normal 0.9238795325112868 -0.38268343236508984 -0.0
  outer loop
    vertex 13.348559938503914 55.802339039817824 7.999999999999999
    vertex 13.658251248268266 56.55000000000001 3.9999999999999996
    vertex 13.658251248268266 56.55000000000001 7.999999999999999
  endloop
endfacet
facet normal 0.9914448613738105 -0.13052619222005102 -0.0
  outer loop
    vertex 13.348559938503914 55.802339039817824 3.9999999999999996
    vertex 13.242930000000028 55.000000000000014 7.999999999999999
    vertex 13.242930000000028 55.000000000000014 3.9999999999999996
  endloop
endfacet
facet normal 0.9914448613738105 -0.13052619222005102 -0.0
  outer loop
    vertex 13.242930000000028 55.000000000000014 7.999999999999999
    vertex 13.348559938503914 55.802339039817824 3.9999999999999996
    vertex 13.348559938503914 55.802339039817824 7.999999999999999
  endloop
endfacet
facet normal 0.9914448613738103 0.1305261922200526 0.0
  outer loop
    vertex 13.242930000000028 55.000000000000014 3.9999999999999996
    vertex 13.348559938503918 54.19766096018219 7.999999999999999
    vertex 13.348559938503918 54.19766096018219 3.9999999999999996
  endloop
endfacet
facet normal 0.9914448613738103 0.1305261922200526 0.0
  outer loop
    vertex 13.348559938503918 54.19766096018219 7.999999999999999
    vertex 13.242930000000028 55.000000000000014 3.9999999999999996
    vertex 13.242930000000028 55.000000000000014 7.999999999999999
  endloop
endfacet
facet normal 0.9238795325112846 0.3826834323650947 0.0
  outer loop
    vertex 13.348559938503918 54.19766096018219 3.9999999999999996
    vertex 13.65825124826827 53.45000000000002 7.999999999999999
    vertex 13.65825124826827 53.45000000000002 3.9999999999999996
  endloop
endfacet
facet normal 0.9238795325112846 0.3826834323650947 0.0
  outer loop
    vertex 13.65825124826827 53.45000000000002 7.999999999999999
    vertex 13.348559938503918 54.19766096018219 3.9999999999999996
    vertex 13.348559938503918 54.19766096018219 7.999999999999999
  endloop
endfacet
facet normal 0.7933533402912358 0.6087614290087199 0.0
  outer loop
    vertex 13.65825124826827 53.45000000000002 3.9999999999999996
    vertex 14.150898978321731 52.80796897832172 7.999999999999999
    vertex 14.150898978321731 52.80796897832172 3.9999999999999996
  endloop
endfacet
facet normal 0.7933533402912358 0.6087614290087199 0.0
  outer loop
    vertex 14.150898978321731 52.80796897832172 7.999999999999999
    vertex 13.65825124826827 53.45000000000002 3.9999999999999996
    vertex 13.65825124826827 53.45000000000002 7.999999999999999
  endloop
endfacet
facet normal 0.6087614290087203 0.7933533402912354 0.0
  outer loop
    vertex 14.150898978321731 52.80796897832172 7.999999999999999
    vertex 14.79293000000003 52.315321248268255 3.9999999999999996
    vertex 14.150898978321731 52.80796897832172 3.9999999999999996
  endloop
endfacet
facet normal 0.6087614290087203 0.7933533402912354 0.0
  outer loop
    vertex 14.79293000000003 52.315321248268255 3.9999999999999996
    vertex 14.150898978321731 52.80796897832172 7.999999999999999
    vertex 14.79293000000003 52.315321248268255 7.999999999999999
  endloop
endfacet
facet normal 0.382683432365097 0.9238795325112839 0.0
  outer loop
    vertex 14.79293000000003 52.315321248268255 7.999999999999999
    vertex 15.540590960182215 52.005629938503894 3.9999999999999996
    vertex 14.79293000000003 52.315321248268255 3.9999999999999996
  endloop
endfacet
facet normal 0.382683432365097 0.9238795325112839 0.0
  outer loop
    vertex 15.540590960182215 52.005629938503894 3.9999999999999996
    vertex 14.79293000000003 52.315321248268255 7.999999999999999
    vertex 15.540590960182215 52.005629938503894 7.999999999999999
  endloop
endfacet
facet normal 0.13052619222004028 0.9914448613738119 0.0
  outer loop
    vertex 15.540590960182215 52.005629938503894 7.999999999999999
    vertex 16.342930000000027 51.90000000000002 3.9999999999999996
    vertex 15.540590960182215 52.005629938503894 3.9999999999999996
  endloop
endfacet
facet normal 0.13052619222004028 0.9914448613738119 0.0
  outer loop
    vertex 16.342930000000027 51.90000000000002 3.9999999999999996
    vertex 15.540590960182215 52.005629938503894 7.999999999999999
    vertex 16.342930000000027 51.90000000000002 7.999999999999999
  endloop
endfacet
facet normal -0.1305261922200398 0.9914448613738119 -0.0
  outer loop
    vertex 16.342930000000027 51.90000000000002 7.999999999999999
    vertex 17.145269039817844 52.005629938503894 3.9999999999999996
    vertex 16.342930000000027 51.90000000000002 3.9999999999999996
  endloop
endfacet
facet normal -0.1305261922200398 0.9914448613738119 -0.0
  outer loop
    vertex 17.145269039817844 52.005629938503894 3.9999999999999996
    vertex 16.342930000000027 51.90000000000002 7.999999999999999
    vertex 17.145269039817844 52.005629938503894 7.999999999999999
  endloop
endfacet
facet normal -0.3826834323650957 0.9238795325112843 -0.0
  outer loop
    vertex 17.145269039817844 52.005629938503894 7.999999999999999
    vertex 17.892930000000028 52.315321248268255 3.9999999999999996
    vertex 17.145269039817844 52.005629938503894 3.9999999999999996
  endloop
endfacet
facet normal -0.3826834323650957 0.9238795325112843 -0.0
  outer loop
    vertex 17.892930000000028 52.315321248268255 3.9999999999999996
    vertex 17.145269039817844 52.005629938503894 7.999999999999999
    vertex 17.892930000000028 52.315321248268255 7.999999999999999
  endloop
endfacet
facet normal -0.6087614290087221 0.7933533402912342 -0.0
  outer loop
    vertex 17.892930000000028 52.315321248268255 7.999999999999999
    vertex 18.534961021678328 52.80796897832172 3.9999999999999996
    vertex 17.892930000000028 52.315321248268255 3.9999999999999996
  endloop
endfacet
facet normal -0.6087614290087221 0.7933533402912342 -0.0
  outer loop
    vertex 18.534961021678328 52.80796897832172 3.9999999999999996
    vertex 17.892930000000028 52.315321248268255 7.999999999999999
    vertex 18.534961021678328 52.80796897832172 7.999999999999999
  endloop
endfacet
facet normal -0.7933533402912358 0.6087614290087199 -0.0
  outer loop
    vertex 19.027608751731787 53.45000000000002 7.999999999999999
    vertex 18.534961021678328 52.80796897832172 3.9999999999999996
    vertex 18.534961021678328 52.80796897832172 7.999999999999999
  endloop
endfacet
facet normal -0.7933533402912358 0.6087614290087199 -0.0
  outer loop
    vertex 18.534961021678328 52.80796897832172 3.9999999999999996
    vertex 19.027608751731787 53.45000000000002 7.999999999999999
    vertex 19.027608751731787 53.45000000000002 3.9999999999999996
  endloop
endfacet
facet normal -0.9238795325112868 0.38268343236508984 -0.0
  outer loop
    vertex 19.33730006149614 54.197660960182205 7.999999999999999
    vertex 19.027608751731787 53.45000000000002 3.9999999999999996
    vertex 19.027608751731787 53.45000000000002 7.999999999999999
  endloop
endfacet
facet normal -0.9238795325112868 0.38268343236508984 -0.0
  outer loop
    vertex 19.027608751731787 53.45000000000002 3.9999999999999996
    vertex 19.33730006149614 54.197660960182205 7.999999999999999
    vertex 19.33730006149614 54.197660960182205 3.9999999999999996
  endloop
endfacet
facet normal -0.9914448613738105 0.13052619222005102 -0.0
  outer loop
    vertex 19.442930000000025 55.000000000000014 7.999999999999999
    vertex 19.33730006149614 54.197660960182205 3.9999999999999996
    vertex 19.33730006149614 54.197660960182205 7.999999999999999
  endloop
endfacet
facet normal -0.9914448613738105 0.13052619222005102 -0.0
  outer loop
    vertex 19.33730006149614 54.197660960182205 3.9999999999999996
    vertex 19.442930000000025 55.000000000000014 7.999999999999999
    vertex 19.442930000000025 55.000000000000014 3.9999999999999996
  endloop
endfacet
facet normal 0.9914448613738108 -0.13052619222004846 2.60498750233325e-18
  outer loop
    vertex 14.314485764792984 55.54351999471531 -1.4057896768705702e-15
    vertex 14.242930000000028 55.000000000000014 3.9999999999999956
    vertex 14.242930000000028 55.000000000000014 -1.4041355112530129e-15
  endloop
endfacet
facet normal 0.9914448613738108 -0.13052619222004846 2.60498750233325e-18
  outer loop
    vertex 14.242930000000028 55.000000000000014 3.9999999999999956
    vertex 14.314485764792984 55.54351999471531 -1.4057896768705702e-15
    vertex 14.314485764792984 55.54351999471531 3.9999999999999956
  endloop
endfacet
facet normal 0.923879532511283 -0.38268343236509894 3.2971837539441742e-18
  outer loop
    vertex 14.52427665205271 56.05000000000001 -1.4070178638032445e-15
    vertex 14.314485764792984 55.54351999471531 3.9999999999999956
    vertex 14.314485764792984 55.54351999471531 -1.4057896768705702e-15
  endloop
endfacet
facet normal 0.923879532511283 -0.38268343236509894 3.2971837539441742e-18
  outer loop
    vertex 14.314485764792984 55.54351999471531 3.9999999999999956
    vertex 14.52427665205271 56.05000000000001 -1.4070178638032445e-15
    vertex 14.52427665205271 56.05000000000001 3.9999999999999956
  endloop
endfacet
facet normal 0.7933533402912356 -0.60876142900872 3.764682381577534e-18
  outer loop
    vertex 14.858005759508277 56.48492424049176 -1.4077363731412492e-15
    vertex 14.52427665205271 56.05000000000001 3.9999999999999956
    vertex 14.52427665205271 56.05000000000001 -1.4070178638032445e-15
  endloop
endfacet
facet normal 0.7933533402912356 -0.60876142900872 3.764682381577534e-18
  outer loop
    vertex 14.52427665205271 56.05000000000001 3.9999999999999956
    vertex 14.858005759508277 56.48492424049176 -1.4077363731412492e-15
    vertex 14.858005759508277 56.48492424049176 3.9999999999999956
  endloop
endfacet
facet normal 0.608761429008728 -0.7933533402912296 3.975624126338202e-18
  outer loop
    vertex 15.292930000000029 56.81865334794733 3.9999999999999956
    vertex 14.858005759508277 56.48492424049176 -1.4077363731412492e-15
    vertex 15.292930000000029 56.81865334794733 -1.4078962396605918e-15
  endloop
endfacet
facet normal 0.608761429008728 -0.7933533402912296 3.975624126338202e-18
  outer loop
    vertex 14.858005759508277 56.48492424049176 -1.4077363731412492e-15
    vertex 15.292930000000029 56.81865334794733 3.9999999999999956
    vertex 14.858005759508277 56.48492424049176 3.9999999999999956
  endloop
endfacet
facet normal 0.3826834323650865 -0.9238795325112882 3.915633656918432e-18
  outer loop
    vertex 15.799410005284734 57.028444235207054 -1.4074865687221711e-15
    vertex 15.292930000000029 56.81865334794733 3.9999999999999956
    vertex 15.292930000000029 56.81865334794733 -1.4078962396605918e-15
  endloop
endfacet
facet normal 0.3826834323650865 -0.9238795325112882 3.915633656918432e-18
  outer loop
    vertex 15.292930000000029 56.81865334794733 3.9999999999999956
    vertex 15.799410005284734 57.028444235207054 -1.4074865687221711e-15
    vertex 15.799410005284734 57.028444235207054 3.9999999999999956
  endloop
endfacet
facet normal 0.13052619222004475 -0.9914448613738114 3.5887992246702346e-18
  outer loop
    vertex 16.342930000000027 57.10000000000001 -1.4065352787234273e-15
    vertex 15.799410005284734 57.028444235207054 3.9999999999999956
    vertex 15.799410005284734 57.028444235207054 -1.4074865687221711e-15
  endloop
endfacet
facet normal 0.13052619222004475 -0.9914448613738114 3.5887992246702346e-18
  outer loop
    vertex 15.799410005284734 57.028444235207054 3.9999999999999956
    vertex 16.342930000000027 57.10000000000001 -1.4065352787234273e-15
    vertex 16.342930000000027 57.10000000000001 3.9999999999999956
  endloop
endfacet
facet normal -0.13052619222004408 -0.9914448613738115 3.0173940560319354e-18
  outer loop
    vertex 16.886449994715324 57.028444235207054 -1.4051071985056937e-15
    vertex 16.342930000000027 57.10000000000001 3.9999999999999956
    vertex 16.342930000000027 57.10000000000001 -1.4065352787234273e-15
  endloop
endfacet
facet normal -0.13052619222004408 -0.9914448613738115 3.0173940560319354e-18
  outer loop
    vertex 16.342930000000027 57.10000000000001 3.9999999999999956
    vertex 16.886449994715324 57.028444235207054 -1.4051071985056937e-15
    vertex 16.886449994715324 57.028444235207054 3.9999999999999956
  endloop
endfacet
facet normal -0.3826834323650865 -0.9238795325112882 2.240358468954468e-18
  outer loop
    vertex 17.392930000000028 56.81865334794733 -1.4032996493757947e-15
    vertex 16.886449994715324 57.028444235207054 3.9999999999999956
    vertex 16.886449994715324 57.028444235207054 -1.4051071985056937e-15
  endloop
endfacet
facet normal -0.3826834323650865 -0.9238795325112882 2.240358468954468e-18
  outer loop
    vertex 16.886449994715324 57.028444235207054 3.9999999999999956
    vertex 17.392930000000028 56.81865334794733 -1.4032996493757947e-15
    vertex 17.392930000000028 56.81865334794733 3.9999999999999956
  endloop
endfacet
facet normal -0.6087614290087304 -0.7933533402912276 1.3106461545851282e-18
  outer loop
    vertex 17.827854240491778 56.48492424049176 -1.4012358128198167e-15
    vertex 17.392930000000028 56.81865334794733 3.9999999999999956
    vertex 17.392930000000028 56.81865334794733 -1.4032996493757947e-15
  endloop
endfacet
facet normal -0.6087614290087304 -0.7933533402912276 1.3106461545851282e-18
  outer loop
    vertex 17.392930000000028 56.81865334794733 3.9999999999999956
    vertex 17.827854240491778 56.48492424049176 -1.4012358128198167e-15
    vertex 17.827854240491778 56.48492424049176 3.9999999999999956
  endloop
endfacet
facet normal -0.7933533402912332 -0.6087614290087232 2.916154707261066e-19
  outer loop
    vertex 17.827854240491778 56.48492424049176 3.9999999999999956
    vertex 18.16158334794735 56.05000000000001 -1.3990563358883986e-15
    vertex 18.16158334794735 56.05000000000001 3.9999999999999956
  endloop
endfacet
facet normal -0.7933533402912332 -0.6087614290087232 2.916154707261066e-19
  outer loop
    vertex 18.16158334794735 56.05000000000001 -1.3990563358883986e-15
    vertex 17.827854240491778 56.48492424049176 3.9999999999999956
    vertex 17.827854240491778 56.48492424049176 -1.4012358128198167e-15
  endloop
endfacet
facet normal -0.9238795325112878 -0.3826834323650873 -7.472883255456303e-19
  outer loop
    vertex 18.16158334794735 56.05000000000001 3.9999999999999956
    vertex 18.37137423520707 55.5435199947153 -1.3969097463326603e-15
    vertex 18.37137423520707 55.5435199947153 3.9999999999999956
  endloop
endfacet
facet normal -0.9238795325112878 -0.3826834323650873 -7.472883255456303e-19
  outer loop
    vertex 18.37137423520707 55.5435199947153 -1.3969097463326603e-15
    vertex 18.16158334794735 56.05000000000001 3.9999999999999956
    vertex 18.16158334794735 56.05000000000001 -1.3990563358883986e-15
  endloop
endfacet
facet normal -0.9914448613738105 -0.13052619222005113 -1.7352656573837493e-18
  outer loop
    vertex 18.37137423520707 55.5435199947153 3.9999999999999956
    vertex 18.442930000000025 55.000000000000014 -1.3949423306834187e-15
    vertex 18.442930000000025 55.000000000000014 3.9999999999999956
  endloop
endfacet
facet normal -0.9914448613738105 -0.13052619222005113 -1.7352656573837493e-18
  outer loop
    vertex 18.442930000000025 55.000000000000014 -1.3949423306834187e-15
    vertex 18.37137423520707 55.5435199947153 3.9999999999999956
    vertex 18.37137423520707 55.5435199947153 -1.3969097463326603e-15
  endloop
endfacet
facet normal -0.9914448613738108 0.13052619222004846 -2.60498750233325e-18
  outer loop
    vertex 18.442930000000025 55.000000000000014 3.9999999999999956
    vertex 18.37137423520707 54.45648000528471 -1.3932881650658613e-15
    vertex 18.37137423520707 54.45648000528471 3.9999999999999956
  endloop
endfacet
facet normal -0.9914448613738108 0.13052619222004846 -2.60498750233325e-18
  outer loop
    vertex 18.37137423520707 54.45648000528471 -1.3932881650658613e-15
    vertex 18.442930000000025 55.000000000000014 3.9999999999999956
    vertex 18.442930000000025 55.000000000000014 -1.3949423306834187e-15
  endloop
endfacet
facet normal -0.9238795325112849 0.38268343236509456 -3.2971837539441642e-18
  outer loop
    vertex 18.37137423520707 54.45648000528471 3.9999999999999956
    vertex 18.16158334794735 53.95000000000002 -1.392059978133187e-15
    vertex 18.16158334794735 53.95000000000002 3.9999999999999956
  endloop
endfacet
facet normal -0.9238795325112849 0.38268343236509456 -3.2971837539441642e-18
  outer loop
    vertex 18.16158334794735 53.95000000000002 -1.392059978133187e-15
    vertex 18.37137423520707 54.45648000528471 3.9999999999999956
    vertex 18.37137423520707 54.45648000528471 -1.3932881650658613e-15
  endloop
endfacet
facet normal -0.7933533402912332 0.6087614290087232 -3.7646823815775396e-18
  outer loop
    vertex 18.16158334794735 53.95000000000002 3.9999999999999956
    vertex 17.827854240491778 53.51507575950827 -1.3913414687951824e-15
    vertex 17.827854240491778 53.51507575950827 3.9999999999999956
  endloop
endfacet
facet normal -0.7933533402912332 0.6087614290087232 -3.7646823815775396e-18
  outer loop
    vertex 17.827854240491778 53.51507575950827 -1.3913414687951824e-15
    vertex 18.16158334794735 53.95000000000002 3.9999999999999956
    vertex 18.16158334794735 53.95000000000002 -1.392059978133187e-15
  endloop
endfacet
facet normal -0.608761429008728 0.7933533402912296 -3.975624126338202e-18
  outer loop
    vertex 17.392930000000025 53.18134665205269 -1.3911816022758398e-15
    vertex 17.827854240491778 53.51507575950827 3.9999999999999956
    vertex 17.827854240491778 53.51507575950827 -1.3913414687951824e-15
  endloop
endfacet
facet normal -0.608761429008728 0.7933533402912296 -3.975624126338202e-18
  outer loop
    vertex 17.827854240491778 53.51507575950827 3.9999999999999956
    vertex 17.392930000000025 53.18134665205269 -1.3911816022758398e-15
    vertex 17.392930000000025 53.18134665205269 3.9999999999999956
  endloop
endfacet
facet normal -0.3826834323650865 0.9238795325112882 -3.915633656918432e-18
  outer loop
    vertex 16.88644999471532 52.97155576479297 3.9999999999999956
    vertex 17.392930000000025 53.18134665205269 -1.3911816022758398e-15
    vertex 16.88644999471532 52.97155576479297 -1.3915912732142605e-15
  endloop
endfacet
facet normal -0.3826834323650865 0.9238795325112882 -3.915633656918432e-18
  outer loop
    vertex 17.392930000000025 53.18134665205269 -1.3911816022758398e-15
    vertex 16.88644999471532 52.97155576479297 3.9999999999999956
    vertex 17.392930000000025 53.18134665205269 3.9999999999999956
  endloop
endfacet
facet normal -0.13052619222004475 0.9914448613738114 -3.5887992246702346e-18
  outer loop
    vertex 16.342930000000027 52.90000000000001 3.9999999999999956
    vertex 16.88644999471532 52.97155576479297 -1.3915912732142605e-15
    vertex 16.342930000000027 52.90000000000001 -1.3925425632130043e-15
  endloop
endfacet
facet normal -0.13052619222004475 0.9914448613738114 -3.5887992246702346e-18
  outer loop
    vertex 16.88644999471532 52.97155576479297 -1.3915912732142605e-15
    vertex 16.342930000000027 52.90000000000001 3.9999999999999956
    vertex 16.88644999471532 52.97155576479297 3.9999999999999956
  endloop
endfacet
facet normal 0.13052619222004475 0.9914448613738114 -3.017394056031934e-18
  outer loop
    vertex 15.799410005284734 52.97155576479297 3.9999999999999956
    vertex 16.342930000000027 52.90000000000001 -1.3925425632130043e-15
    vertex 15.799410005284734 52.97155576479297 -1.3939706434307379e-15
  endloop
endfacet
facet normal 0.13052619222004475 0.9914448613738114 -3.017394056031934e-18
  outer loop
    vertex 16.342930000000027 52.90000000000001 -1.3925425632130043e-15
    vertex 15.799410005284734 52.97155576479297 3.9999999999999956
    vertex 16.342930000000027 52.90000000000001 3.9999999999999956
  endloop
endfacet
facet normal 0.3826834323650847 0.9238795325112888 -2.2403584689544745e-18
  outer loop
    vertex 15.292930000000027 53.18134665205269 3.9999999999999956
    vertex 15.799410005284734 52.97155576479297 -1.3939706434307379e-15
    vertex 15.292930000000027 53.18134665205269 -1.3957781925606369e-15
  endloop
endfacet
facet normal 0.3826834323650847 0.9238795325112888 -2.2403584689544745e-18
  outer loop
    vertex 15.799410005284734 52.97155576479297 -1.3939706434307379e-15
    vertex 15.292930000000027 53.18134665205269 3.9999999999999956
    vertex 15.799410005284734 52.97155576479297 3.9999999999999956
  endloop
endfacet
facet normal 0.6087614290087304 0.7933533402912276 -1.3106461545851282e-18
  outer loop
    vertex 14.858005759508277 53.51507575950827 3.9999999999999956
    vertex 15.292930000000027 53.18134665205269 -1.3957781925606369e-15
    vertex 14.858005759508277 53.51507575950827 -1.397842029116615e-15
  endloop
endfacet
facet normal 0.6087614290087304 0.7933533402912276 -1.3106461545851282e-18
  outer loop
    vertex 15.292930000000027 53.18134665205269 -1.3957781925606369e-15
    vertex 14.858005759508277 53.51507575950827 3.9999999999999956
    vertex 15.292930000000027 53.18134665205269 3.9999999999999956
  endloop
endfacet
facet normal 0.7933533402912332 0.6087614290087232 -2.916154707261066e-19
  outer loop
    vertex 14.524276652052706 53.95000000000002 -1.400021506048033e-15
    vertex 14.858005759508277 53.51507575950827 3.9999999999999956
    vertex 14.858005759508277 53.51507575950827 -1.397842029116615e-15
  endloop
endfacet
facet normal 0.7933533402912332 0.6087614290087232 -2.916154707261066e-19
  outer loop
    vertex 14.858005759508277 53.51507575950827 3.9999999999999956
    vertex 14.524276652052706 53.95000000000002 -1.400021506048033e-15
    vertex 14.524276652052706 53.95000000000002 3.9999999999999956
  endloop
endfacet
facet normal 0.9238795325112849 0.38268343236509456 7.472883255455994e-19
  outer loop
    vertex 14.314485764792984 54.45648000528471 -1.4021680956037713e-15
    vertex 14.524276652052706 53.95000000000002 3.9999999999999956
    vertex 14.524276652052706 53.95000000000002 -1.400021506048033e-15
  endloop
endfacet
facet normal 0.9238795325112849 0.38268343236509456 7.472883255455994e-19
  outer loop
    vertex 14.524276652052706 53.95000000000002 3.9999999999999956
    vertex 14.314485764792984 54.45648000528471 -1.4021680956037713e-15
    vertex 14.314485764792984 54.45648000528471 3.9999999999999956
  endloop
endfacet
facet normal 0.9914448613738108 0.13052619222004846 1.735265657383759e-18
  outer loop
    vertex 14.242930000000028 55.000000000000014 -1.4041355112530129e-15
    vertex 14.314485764792984 54.45648000528471 3.9999999999999956
    vertex 14.314485764792984 54.45648000528471 -1.4021680956037713e-15
  endloop
endfacet
facet normal 0.9914448613738108 0.13052619222004846 1.735265657383759e-18
  outer loop
    vertex 14.314485764792984 54.45648000528471 3.9999999999999956
    vertex 14.242930000000028 55.000000000000014 -1.4041355112530129e-15
    vertex 14.242930000000028 55.000000000000014 3.9999999999999956
  endloop
endfacet
endsolid section_1
