solid section_2
facet normal -1.0 0.0 0.0
  outer loop
    vertex 0.0 55.000000000000014 7.999999999999999
    vertex 0.0 0.0 0.0
    vertex 0.0 0.0 7.999999999999999
  endloop
endfacet
facet normal -1.0 0.0 0.0
  outer loop
    vertex 0.0 0.0 0.0
    vertex 0.0 55.000000000000014 7.999999999999999
    vertex 0.0 55.000000000000014 3.9999999999999996
  endloop
endfacet
facet normal -1.0 0.0 0.0
  outer loop
    vertex 0.0 0.0 0.0
    vertex 0.0 55.000000000000014 3.9999999999999996
    vertex 0.0 67.50000000000001 -5.40588247582069e-16
  endloop
endfacet
facet normal -1.0 0.0 0.0
  outer loop
    vertex 0.0 67.50000000000001 -5.40588247582069e-16
    vertex 0.0 55.000000000000014 3.9999999999999996
    vertex 0.0 67.50000000000001 3.9999999999999996
  endloop
endfacet
facet normal -0.0 -0.0 1.0
  outer loop
    vertex 42.00000000000001 0.0 7.999999999999999
    vertex 0.0 55.000000000000014 7.999999999999999
    vertex 0.0 0.0 7.999999999999999
  endloop
endfacet
facet normal -0.0 -0.0 1.0
  outer loop
    vertex 0.0 55.000000000000014 7.999999999999999
    vertex 42.00000000000001 0.0 7.999999999999999
    vertex 42.00000000000001 55.000000000000014 7.999999999999999
  endloop
endfacet
facet normal 0.0 -1.0 0.0
  outer loop
    vertex 51.00000000000001 0.0 3.9999999999999996
    vertex 0.0 0.0 0.0
    vertex 51.00000000000001 0.0 0.0
  endloop
endfacet
facet normal 0.0 -1.0 0.0
  outer loop
    vertex 0.0 0.0 0.0
    vertex 51.00000000000001 0.0 3.9999999999999996
    vertex 42.000000000000014 0.0 3.9999999999999996
  endloop
endfacet
facet normal 0.0 -1.0 0.0
  outer loop
    vertex 0.0 0.0 0.0
    vertex 42.000000000000014 0.0 3.9999999999999996
    vertex 0.0 0.0 7.999999999999999
  endloop
endfacet
facet normal 0.0 -1.0 0.0
  outer loop
    vertex 0.0 0.0 7.999999999999999
    vertex 42.000000000000014 0.0 3.9999999999999996
    vertex 42.00000000000001 0.0 7.999999999999999
  endloop
endfacet
facet normal 4.3773313034325285e-18 -5.5932013537659825e-18 -1.0
  outer loop
    vertex 51.00000000000001 67.50000000000001 -3.252343424311687e-16
    vertex 0.0 0.0 0.0
    vertex 0.0 67.50000000000001 -5.40588247582069e-16
  endloop
endfacet
facet normal 4.3773313034325285e-18 -5.5932013537659825e-18 -1.0
  outer loop
    vertex 0.0 0.0 0.0
    vertex 51.00000000000001 67.50000000000001 -3.252343424311687e-16
    vertex 51.00000000000001 0.0 0.0
  endloop
endfacet
facet normal 1.0 5.127211786450722e-17 7.049916206369744e-16
  outer loop
    vertex 42.00000000000001 55.000000000000014 3.999999999999999
    vertex 42.00000000000001 0.0 7.999999999999999
    vertex 42.000000000000014 0.0 3.9999999999999996
  endloop
endfacet
facet normal 1.0 5.127211786450722e-17 7.049916206369744e-16
  outer loop
    vertex 42.00000000000001 0.0 7.999999999999999
    vertex 42.00000000000001 55.000000000000014 3.999999999999999
    vertex 42.00000000000001 55.000000000000014 7.999999999999999
  endloop
endfacet
facet normal 1.0 -0.0 -0.0
  outer loop
    vertex 51.00000000000001 67.50000000000001 -3.252343424311687e-16
    vertex 51.00000000000001 0.0 3.9999999999999996
    vertex 51.00000000000001 0.0 0.0
  endloop
endfacet
facet normal 1.0 -0.0 -0.0
  outer loop
    vertex 51.00000000000001 0.0 3.9999999999999996
    vertex 51.00000000000001 67.50000000000001 -3.252343424311687e-16
    vertex 51.00000000000001 67.50000000000001 3.999999999999999
  endloop
endfacet
facet normal 1.414724520599555e-17 1.0756016212552021e-17 1.0
  outer loop
    vertex 42.00000000000001 55.000000000000014 3.999999999999999
    vertex 0.0 67.50000000000001 3.9999999999999996
    vertex 0.0 55.000000000000014 3.9999999999999996
  endloop
endfacet
facet normal 1.414724520599555e-17 1.0756016212552021e-17 1.0
  outer loop
    vertex 0.0 67.50000000000001 3.9999999999999996
    vertex 42.00000000000001 55.000000000000014 3.999999999999999
    vertex 51.00000000000001 67.50000000000001 3.999999999999999
  endloop
endfacet
facet normal 1.414724520599555e-17 1.0756016212552021e-17 1.0
  outer loop
    vertex 51.00000000000001 67.50000000000001 3.999999999999999
    vertex 42.00000000000001 55.000000000000014 3.999999999999999
    vertex 42.000000000000014 0.0 3.9999999999999996
  endloop
endfacet
facet normal 1.414724520599555e-17 1.0756016212552021e-17 1.0
  outer loop
    vertex 51.00000000000001 67.50000000000001 3.999999999999999
    vertex 42.000000000000014 0.0 3.9999999999999996
    vertex 51.00000000000001 0.0 3.9999999999999996
  endloop
endfacet
facet normal -0.0 1.0 -0.0
  outer loop
    vertex 0.0 55.000000000000014 3.9999999999999996
    vertex 42.00000000000001 55.000000000000014 7.999999999999999
    vertex 42.00000000000001 55.000000000000014 3.999999999999999
  endloop
endfacet
facet normal -0.0 1.0 -0.0
  outer loop
    vertex 42.00000000000001 55.000000000000014 7.999999999999999
    vertex 0.0 55.000000000000014 3.9999999999999996
    vertex 0.0 55.000000000000014 7.999999999999999
  endloop
endfacet
facet normal -0.0 1.0 -0.0
  outer loop
    vertex 0.0 67.50000000000001 3.9999999999999996
    vertex 51.00000000000001 67.50000000000001 -3.252343424311687e-16
    vertex 0.0 67.50000000000001 -5.40588247582069e-16
  endloop
endfacet
facet normal -0.0 1.0 -0.0
  outer loop
    vertex 51.00000000000001 67.50000000000001 -3.252343424311687e-16
    vertex 0.0 67.50000000000001 3.9999999999999996
    vertex 51.00000000000001 67.50000000000001 3.999999999999999
  endloop
endfacet
endsolid section_2
