solid section_3
facet normal -4.406969409636429e-18 7.336554788613789e-18 -1.0
  outer loop
    vertex 69.00000000000004 64.88209500000006 -4.595000104447587e-16
    vertex 0.0 12.382095000000012 -5.40588247582069e-16
    vertex 0.0 64.88209500000006 0.0
  endloop
endfacet
facet normal -4.406969409636429e-18 7.336554788613789e-18 -1.0
  outer loop
    vertex 0.0 12.382095000000012 -5.40588247582069e-16
    vertex 69.00000000000004 64.88209500000006 -4.595000104447587e-16
    vertex 57.97155576479296 25.425614994715307 -1.3927473486042135e-15
  endloop
endfacet
facet normal -4.406969409636429e-18 7.336554788613789e-18 -1.0
  outer loop
    vertex 0.0 12.382095000000012 -5.40588247582069e-16
    vertex 57.97155576479296 25.425614994715307 -1.3927473486042135e-15
    vertex 57.900000000000006 24.882095000000014 -1.3964195687576235e-15
  endloop
endfacet
facet normal -4.406969409636429e-18 7.336554788613789e-18 -1.0
  outer loop
    vertex 57.97155576479296 25.425614994715307 -1.3927473486042135e-15
    vertex 69.00000000000004 64.88209500000006 -4.595000104447587e-16
    vertex 58.18134665205269 25.93209500000001 -1.3899560723186789e-15
  endloop
endfacet
facet normal -4.406969409636429e-18 7.336554788613789e-18 -1.0
  outer loop
    vertex 58.18134665205269 25.93209500000001 -1.3899560723186789e-15
    vertex 69.00000000000004 64.88209500000006 -4.595000104447587e-16
    vertex 58.51507575950826 26.367019240491757 -1.3882359607670769e-15
  endloop
endfacet
facet normal -4.406969409636429e-18 7.336554788613789e-18 -1.0
  outer loop
    vertex 58.51507575950826 26.367019240491757 -1.3882359607670769e-15
    vertex 69.00000000000004 64.88209500000006 -4.595000104447587e-16
    vertex 58.95 26.700748347947332 -1.3877042367090303e-15
  endloop
endfacet
facet normal -4.406969409636429e-18 7.336554788613789e-18 -1.0
  outer loop
    vertex 58.95 26.700748347947332 -1.3877042367090303e-15
    vertex 69.00000000000004 64.88209500000006 -4.595000104447587e-16
    vertex 59.45648000528472 26.91053923520705 -1.3883971362603796e-15
  endloop
endfacet
facet normal -4.406969409636429e-18 7.336554788613789e-18 -1.0
  outer loop
    vertex 59.45648000528472 26.91053923520705 -1.3883971362603796e-15
    vertex 69.00000000000004 64.88209500000006 -4.595000104447587e-16
    vertex 60.0 26.982095000000008 -1.390267439461771e-15
  endloop
endfacet
facet normal -4.406969409636429e-18 7.336554788613789e-18 -1.0
  outer loop
    vertex 60.0 26.982095000000008 -1.390267439461771e-15
    vertex 69.00000000000004 64.88209500000006 -4.595000104447587e-16
    vertex 60.54351999471529 26.91053923520705 -1.3931876882408515e-15
  endloop
endfacet
facet normal -4.406969409636429e-18 7.336554788613789e-18 -1.0
  outer loop
    vertex 60.54351999471529 26.91053923520705 -1.3931876882408515e-15
    vertex 69.00000000000004 64.88209500000006 -4.595000104447587e-16
    vertex 61.050000000000004 26.700748347947332 -1.3969588724692665e-15
  endloop
endfacet
facet normal -4.406969409636429e-18 7.336554788613789e-18 -1.0
  outer loop
    vertex 61.050000000000004 26.700748347947332 -1.3969588724692665e-15
    vertex 69.00000000000004 64.88209500000006 -4.595000104447587e-16
    vertex 61.48492424049175 26.367019240491757 -1.401323992174026e-15
  endloop
endfacet
facet normal -4.406969409636429e-18 7.336554788613789e-18 -1.0
  outer loop
    vertex 61.48492424049175 26.367019240491757 -1.401323992174026e-15
    vertex 69.00000000000004 64.88209500000006 -4.595000104447587e-16
    vertex 61.81865334794732 25.93209500000001 -1.4059855716609518e-15
  endloop
endfacet
facet normal -4.406969409636429e-18 7.336554788613789e-18 -1.0
  outer loop
    vertex 61.81865334794732 25.93209500000001 -1.4059855716609518e-15
    vertex 69.00000000000004 64.88209500000006 -4.595000104447587e-16
    vertex 62.02844423520705 25.425614994715307 -1.4106259319916345e-15
  endloop
endfacet
facet normal -4.406969409636429e-18 7.336554788613789e-18 -1.0
  outer loop
    vertex 62.02844423520705 25.425614994715307 -1.4106259319916345e-15
    vertex 69.00000000000004 64.88209500000006 -4.595000104447587e-16
    vertex 62.1 24.882095000000014 -1.414928840278096e-15
  endloop
endfacet
facet normal -4.406969409636429e-18 7.336554788613789e-18 -1.0
  outer loop
    vertex 0.0 12.382095000000012 -5.40588247582069e-16
    vertex 58.51507575950826 23.397170759508267 -1.4100244168616938e-15
    vertex 69.00000000000004 12.382095000000012 -6.89250015667138e-16
  endloop
endfacet
facet normal -4.406969409636429e-18 7.336554788613789e-18 -1.0
  outer loop
    vertex 58.51507575950826 23.397170759508267 -1.4100244168616938e-15
    vertex 0.0 12.382095000000012 -5.40588247582069e-16
    vertex 58.18134665205268 23.832095000000013 -1.4053628373747678e-15
  endloop
endfacet
facet normal -4.406969409636429e-18 7.336554788613789e-18 -1.0
  outer loop
    vertex 58.18134665205268 23.832095000000013 -1.4053628373747678e-15
    vertex 0.0 12.382095000000012 -5.40588247582069e-16
    vertex 57.97155576479296 24.33857500528472 -1.400722477044085e-15
  endloop
endfacet
facet normal -4.406969409636429e-18 7.336554788613789e-18 -1.0
  outer loop
    vertex 57.97155576479296 24.33857500528472 -1.400722477044085e-15
    vertex 0.0 12.382095000000012 -5.40588247582069e-16
    vertex 57.900000000000006 24.882095000000014 -1.3964195687576235e-15
  endloop
endfacet
facet normal -4.406969409636429e-18 7.336554788613789e-18 -1.0
  outer loop
    vertex 69.00000000000004 12.382095000000012 -6.89250015667138e-16
    vertex 58.51507575950826 23.397170759508267 -1.4100244168616938e-15
    vertex 58.95 23.063441652052695 -1.4143895365664531e-15
  endloop
endfacet
facet normal -4.406969409636429e-18 7.336554788613789e-18 -1.0
  outer loop
    vertex 69.00000000000004 12.382095000000012 -6.89250015667138e-16
    vertex 58.95 23.063441652052695 -1.4143895365664531e-15
    vertex 59.4564800052847 22.853650764792974 -1.4181607207948681e-15
  endloop
endfacet
facet normal -4.406969409636429e-18 7.336554788613789e-18 -1.0
  outer loop
    vertex 69.00000000000004 12.382095000000012 -6.89250015667138e-16
    vertex 59.4564800052847 22.853650764792974 -1.4181607207948681e-15
    vertex 60.0 22.782095000000016 -1.4210809695739487e-15
  endloop
endfacet
facet normal -4.406969409636429e-18 7.336554788613789e-18 -1.0
  outer loop
    vertex 69.00000000000004 12.382095000000012 -6.89250015667138e-16
    vertex 60.0 22.782095000000016 -1.4210809695739487e-15
    vertex 60.54351999471529 22.85365076479297 -1.42295127277534e-15
  endloop
endfacet
facet normal -4.406969409636429e-18 7.336554788613789e-18 -1.0
  outer loop
    vertex 69.00000000000004 12.382095000000012 -6.89250015667138e-16
    vertex 60.54351999471529 22.85365076479297 -1.42295127277534e-15
    vertex 61.050000000000004 23.063441652052695 -1.4236441723266893e-15
  endloop
endfacet
facet normal -4.406969409636429e-18 7.336554788613789e-18 -1.0
  outer loop
    vertex 69.00000000000004 12.382095000000012 -6.89250015667138e-16
    vertex 61.050000000000004 23.063441652052695 -1.4236441723266893e-15
    vertex 61.48492424049175 23.397170759508267 -1.4231124482686427e-15
  endloop
endfacet
facet normal -4.406969409636429e-18 7.336554788613789e-18 -1.0
  outer loop
    vertex 69.00000000000004 12.382095000000012 -6.89250015667138e-16
    vertex 61.48492424049175 23.397170759508267 -1.4231124482686427e-15
    vertex 61.81865334794732 23.832095000000013 -1.4213923367170407e-15
  endloop
endfacet
facet normal -4.406969409636429e-18 7.336554788613789e-18 -1.0
  outer loop
    vertex 69.00000000000004 12.382095000000012 -6.89250015667138e-16
    vertex 61.81865334794732 23.832095000000013 -1.4213923367170407e-15
    vertex 62.02844423520705 24.33857500528472 -1.4186010604315061e-15
  endloop
endfacet
facet normal -4.406969409636429e-18 7.336554788613789e-18 -1.0
  outer loop
    vertex 69.00000000000004 12.382095000000012 -6.89250015667138e-16
    vertex 62.02844423520705 24.33857500528472 -1.4186010604315061e-15
    vertex 62.1 24.882095000000014 -1.414928840278096e-15
  endloop
endfacet
facet normal -4.406969409636429e-18 7.336554788613789e-18 -1.0
  outer loop
    vertex 69.00000000000004 12.382095000000012 -6.89250015667138e-16
    vertex 62.1 24.882095000000014 -1.414928840278096e-15
    vertex 69.00000000000004 64.88209500000006 -4.595000104447587e-16
  endloop
endfacet
facet normal -1.0 0.0 0.0
  outer loop
    vertex 0.0 64.88209500000006 7.999999999999999
    vertex 0.0 -0.11790499999998677 3.9999999999999996
    vertex 0.0 -0.11790499999998677 7.999999999999999
  endloop
endfacet
facet normal -1.0 0.0 0.0
  outer loop
    vertex 0.0 -0.11790499999998677 3.9999999999999996
    vertex 0.0 64.88209500000006 7.999999999999999
    vertex 0.0 12.382095000000012 3.9999999999999996
  endloop
endfacet
facet normal -1.0 0.0 0.0
  outer loop
    vertex 0.0 12.382095000000012 3.9999999999999996
    vertex 0.0 64.88209500000006 7.999999999999999
    vertex 0.0 12.382095000000012 -5.40588247582069e-16
  endloop
endfacet
facet normal -1.0 0.0 0.0
  outer loop
    vertex 0.0 12.382095000000012 -5.40588247582069e-16
    vertex 0.0 64.88209500000006 7.999999999999999
    vertex 0.0 64.88209500000006 0.0
  endloop
endfacet
facet normal -0.0 1.0 -0.0
  outer loop
    vertex 0.0 64.88209500000006 0.0
    vertex 69.00000000000004 64.88209500000006 3.9999999999999996
    vertex 69.00000000000004 64.88209500000006 -4.595000104447587e-16
  endloop
endfacet
facet normal -0.0 1.0 -0.0
  outer loop
    vertex 69.00000000000004 64.88209500000006 3.9999999999999996
    vertex 0.0 64.88209500000006 0.0
    vertex 0.0 64.88209500000006 7.999999999999999
  endloop
endfacet
facet normal -0.0 1.0 -0.0
  outer loop
    vertex 69.00000000000004 64.88209500000006 3.9999999999999996
    vertex 0.0 64.88209500000006 7.999999999999999
    vertex 78.00000000000003 64.88209500000006 3.9999999999999996
  endloop
endfacet
facet normal -0.0 1.0 -0.0
  outer loop
    vertex 78.00000000000003 64.88209500000006 3.9999999999999996
    vertex 0.0 64.88209500000006 7.999999999999999
    vertex 78.00000000000003 64.88209500000006 7.999999999999999
  endloop
endfacet
facet normal -0.0 -0.0 1.0
  outer loop
    vertex 42.00000000000001 12.382095000000012 7.999999999999999
    vertex 57.00562993850392 24.079755960182197 7.999999999999999
    vertex 56.900000000000034 24.882095000000014 7.999999999999999
  endloop
endfacet
facet normal -0.0 -0.0 1.0
  outer loop
    vertex 57.00562993850392 24.079755960182197 7.999999999999999
    vertex 42.00000000000001 12.382095000000012 7.999999999999999
    vertex 57.31532124826827 23.33209500000001 7.999999999999999
  endloop
endfacet
facet normal -0.0 -0.0 1.0
  outer loop
    vertex 57.31532124826827 23.33209500000001 7.999999999999999
    vertex 42.00000000000001 12.382095000000012 7.999999999999999
    vertex 57.80796897832173 22.69006397832171 7.999999999999999
  endloop
endfacet
facet normal -0.0 -0.0 1.0
  outer loop
    vertex 57.80796897832173 22.69006397832171 7.999999999999999
    vertex 42.00000000000001 12.382095000000012 7.999999999999999
    vertex 58.45000000000004 22.197416248268247 7.999999999999999
  endloop
endfacet
facet normal -0.0 -0.0 1.0
  outer loop
    vertex 58.45000000000004 22.197416248268247 7.999999999999999
    vertex 42.00000000000001 12.382095000000012 7.999999999999999
    vertex 78.00000000000003 12.382095000000012 7.999999999999999
  endloop
endfacet
facet normal -0.0 -0.0 1.0
  outer loop
    vertex 58.45000000000004 22.197416248268247 7.999999999999999
    vertex 78.00000000000003 12.382095000000012 7.999999999999999
    vertex 59.197660960182226 21.887724938503894 7.999999999999999
  endloop
endfacet
facet normal -0.0 -0.0 1.0
  outer loop
    vertex 59.197660960182226 21.887724938503894 7.999999999999999
    vertex 78.00000000000003 12.382095000000012 7.999999999999999
    vertex 60.000000000000036 21.782095000000005 7.999999999999999
  endloop
endfacet
facet normal -0.0 -0.0 1.0
  outer loop
    vertex 60.000000000000036 21.782095000000005 7.999999999999999
    vertex 78.00000000000003 12.382095000000012 7.999999999999999
    vertex 60.80233903981786 21.887724938503897 7.999999999999999
  endloop
endfacet
facet normal -0.0 -0.0 1.0
  outer loop
    vertex 60.80233903981786 21.887724938503897 7.999999999999999
    vertex 78.00000000000003 12.382095000000012 7.999999999999999
    vertex 61.55000000000005 22.19741624826825 7.999999999999999
  endloop
endfacet
facet normal -0.0 -0.0 1.0
  outer loop
    vertex 61.55000000000005 22.19741624826825 7.999999999999999
    vertex 78.00000000000003 12.382095000000012 7.999999999999999
    vertex 62.19203102167834 22.69006397832171 7.999999999999999
  endloop
endfacet
facet normal -0.0 -0.0 1.0
  outer loop
    vertex 62.19203102167834 22.69006397832171 7.999999999999999
    vertex 78.00000000000003 12.382095000000012 7.999999999999999
    vertex 62.6846787517318 23.33209500000001 7.999999999999999
  endloop
endfacet
facet normal -0.0 -0.0 1.0
  outer loop
    vertex 62.6846787517318 23.33209500000001 7.999999999999999
    vertex 78.00000000000003 12.382095000000012 7.999999999999999
    vertex 62.994370061496156 24.079755960182197 7.999999999999999
  endloop
endfacet
facet normal -0.0 -0.0 1.0
  outer loop
    vertex 62.994370061496156 24.079755960182197 7.999999999999999
    vertex 78.00000000000003 12.382095000000012 7.999999999999999
    vertex 63.100000000000044 24.882095000000014 7.999999999999999
  endloop
endfacet
facet normal -0.0 -0.0 1.0
  outer loop
    vertex 42.00000000000001 -0.11790499999998677 7.999999999999999
    vertex 0.0 64.88209500000006 7.999999999999999
    vertex 0.0 -0.11790499999998677 7.999999999999999
  endloop
endfacet
facet normal -0.0 -0.0 1.0
  outer loop
    vertex 0.0 64.88209500000006 7.999999999999999
    vertex 42.00000000000001 -0.11790499999998677 7.999999999999999
    vertex 42.00000000000001 12.382095000000012 7.999999999999999
  endloop
endfacet
facet normal -0.0 -0.0 1.0
  outer loop
    vertex 0.0 64.88209500000006 7.999999999999999
    vertex 42.00000000000001 12.382095000000012 7.999999999999999
    vertex 78.00000000000003 64.88209500000006 7.999999999999999
  endloop
endfacet
facet normal -0.0 -0.0 1.0
  outer loop
    vertex 78.00000000000003 64.88209500000006 7.999999999999999
    vertex 42.00000000000001 12.382095000000012 7.999999999999999
    vertex 57.31532124826827 26.432095000000015 7.999999999999999
  endloop
endfacet
facet normal -0.0 -0.0 1.0
  outer loop
    vertex 57.31532124826827 26.432095000000015 7.999999999999999
    vertex 42.00000000000001 12.382095000000012 7.999999999999999
    vertex 57.00562993850392 25.68443403981783 7.999999999999999
  endloop
endfacet
facet normal -0.0 -0.0 1.0
  outer loop
    vertex 57.00562993850392 25.68443403981783 7.999999999999999
    vertex 42.00000000000001 12.382095000000012 7.999999999999999
    vertex 56.900000000000034 24.882095000000014 7.999999999999999
  endloop
endfacet
facet normal -0.0 -0.0 1.0
  outer loop
    vertex 78.00000000000003 64.88209500000006 7.999999999999999
    vertex 57.31532124826827 26.432095000000015 7.999999999999999
    vertex 57.80796897832173 27.07412602167831 7.999999999999999
  endloop
endfacet
facet normal -0.0 -0.0 1.0
  outer loop
    vertex 78.00000000000003 64.88209500000006 7.999999999999999
    vertex 57.80796897832173 27.07412602167831 7.999999999999999
    vertex 58.45000000000003 27.566773751731777 7.999999999999999
  endloop
endfacet
facet normal -0.0 -0.0 1.0
  outer loop
    vertex 78.00000000000003 64.88209500000006 7.999999999999999
    vertex 58.45000000000003 27.566773751731777 7.999999999999999
    vertex 59.19766096018221 27.876465061496127 7.999999999999999
  endloop
endfacet
facet normal -0.0 -0.0 1.0
  outer loop
    vertex 78.00000000000003 64.88209500000006 7.999999999999999
    vertex 59.19766096018221 27.876465061496127 7.999999999999999
    vertex 60.000000000000036 27.98209500000002 7.999999999999999
  endloop
endfacet
facet normal -0.0 -0.0 1.0
  outer loop
    vertex 78.00000000000003 64.88209500000006 7.999999999999999
    vertex 60.000000000000036 27.98209500000002 7.999999999999999
    vertex 60.802339039817845 27.876465061496127 7.999999999999999
  endloop
endfacet
facet normal -0.0 -0.0 1.0
  outer loop
    vertex 78.00000000000003 64.88209500000006 7.999999999999999
    vertex 60.802339039817845 27.876465061496127 7.999999999999999
    vertex 61.55000000000003 27.56677375173178 7.999999999999999
  endloop
endfacet
facet normal -0.0 -0.0 1.0
  outer loop
    vertex 78.00000000000003 64.88209500000006 7.999999999999999
    vertex 61.55000000000003 27.56677375173178 7.999999999999999
    vertex 62.19203102167834 27.07412602167831 7.999999999999999
  endloop
endfacet
facet normal -0.0 -0.0 1.0
  outer loop
    vertex 78.00000000000003 64.88209500000006 7.999999999999999
    vertex 62.19203102167834 27.07412602167831 7.999999999999999
    vertex 62.6846787517318 26.432095000000015 7.999999999999999
  endloop
endfacet
facet normal -0.0 -0.0 1.0
  outer loop
    vertex 78.00000000000003 64.88209500000006 7.999999999999999
    vertex 62.6846787517318 26.432095000000015 7.999999999999999
    vertex 62.994370061496156 25.68443403981783 7.999999999999999
  endloop
endfacet
facet normal -0.0 -0.0 1.0
  outer loop
    vertex 78.00000000000003 64.88209500000006 7.999999999999999
    vertex 62.994370061496156 25.68443403981783 7.999999999999999
    vertex 63.100000000000044 24.882095000000014 7.999999999999999
  endloop
endfacet
facet normal -0.0 -0.0 1.0
  outer loop
    vertex 78.00000000000003 64.88209500000006 7.999999999999999
    vertex 63.100000000000044 24.882095000000014 7.999999999999999
    vertex 78.00000000000003 12.382095000000012 7.999999999999999
  endloop
endfacet
facet normal 0.0 -1.0 0.0
  outer loop
    vertex 42.00000000000001 -0.11790499999998677 7.999999999999999
    vertex 0.0 -0.11790499999998677 3.9999999999999996
    vertex 42.00000000000001 -0.11790499999998677 3.9999999999999996
  endloop
endfacet
facet normal 0.0 -1.0 0.0
  outer loop
    vertex 0.0 -0.11790499999998677 3.9999999999999996
    vertex 42.00000000000001 -0.11790499999998677 7.999999999999999
    vertex 0.0 -0.11790499999998677 7.999999999999999
  endloop
endfacet
facet normal 0.0 -1.0 0.0
  outer loop
    vertex 69.00000000000004 12.382095000000012 3.9999999999999982
    vertex 0.0 12.382095000000012 -5.40588247582069e-16
    vertex 69.00000000000004 12.382095000000012 -6.89250015667138e-16
  endloop
endfacet
facet normal 0.0 -1.0 0.0
  outer loop
    vertex 0.0 12.382095000000012 -5.40588247582069e-16
    vertex 69.00000000000004 12.382095000000012 3.9999999999999982
    vertex 0.0 12.382095000000012 3.9999999999999996
  endloop
endfacet
facet normal 0.0 -1.0 0.0
  outer loop
    vertex 0.0 12.382095000000012 3.9999999999999996
    vertex 69.00000000000004 12.382095000000012 3.9999999999999982
    vertex 78.00000000000003 12.382095000000012 4.0
  endloop
endfacet
facet normal 0.0 -1.0 0.0
  outer loop
    vertex 0.0 12.382095000000012 3.9999999999999996
    vertex 78.00000000000003 12.382095000000012 4.0
    vertex 42.00000000000001 12.382095000000012 4.0
  endloop
endfacet
facet normal 0.0 -1.0 0.0
  outer loop
    vertex 42.00000000000001 12.382095000000012 4.0
    vertex 78.00000000000003 12.382095000000012 4.0
    vertex 78.00000000000003 12.382095000000012 7.999999999999999
  endloop
endfacet
facet normal 0.0 -1.0 0.0
  outer loop
    vertex 42.00000000000001 12.382095000000012 4.0
    vertex 78.00000000000003 12.382095000000012 7.999999999999999
    vertex 42.00000000000001 12.382095000000012 7.999999999999999
  endloop
endfacet
facet normal 1.0 -0.0 -0.0
  outer loop
    vertex 69.00000000000004 64.88209500000006 -4.595000104447587e-16
    vertex 69.00000000000004 12.382095000000012 3.9999999999999982
    vertex 69.00000000000004 12.382095000000012 -6.89250015667138e-16
  endloop
endfacet
facet normal 1.0 -0.0 -0.0
  outer loop
    vertex 69.00000000000004 12.382095000000012 3.9999999999999982
    vertex 69.00000000000004 64.88209500000006 -4.595000104447587e-16
    vertex 69.00000000000004 64.88209500000006 3.9999999999999996
  endloop
endfacet
facet normal 1.0 -0.0 -0.0
  outer loop
    vertex 42.00000000000001 12.382095000000012 4.0
    vertex 42.00000000000001 -0.11790499999998677 7.999999999999999
    vertex 42.00000000000001 -0.11790499999998677 3.9999999999999996
  endloop
endfacet
facet normal 1.0 -0.0 -0.0
  outer loop
    vertex 42.00000000000001 -0.11790499999998677 7.999999999999999
    vertex 42.00000000000001 12.382095000000012 4.0
    vertex 42.00000000000001 12.382095000000012 7.999999999999999
  endloop
endfacet
facet normal 8.392757388535407e-18 2.8199664825478977e-17 -1.0
  outer loop
    vertex 42.00000000000001 12.382095000000012 4.0
    vertex 0.0 -0.11790499999998677 3.9999999999999996
    vertex 0.0 12.382095000000012 3.9999999999999996
  endloop
endfacet
facet normal 8.392757388535407e-18 2.8199664825478977e-17 -1.0
  outer loop
    vertex 0.0 -0.11790499999998677 3.9999999999999996
    vertex 42.00000000000001 12.382095000000012 4.0
    vertex 42.00000000000001 -0.11790499999998677 3.9999999999999996
  endloop
endfacet
facet normal 1.0 -0.0 -0.0
  outer loop
    vertex 78.00000000000003 64.88209500000006 3.9999999999999996
    vertex 78.00000000000003 12.382095000000012 7.999999999999999
    vertex 78.00000000000003 12.382095000000012 4.0
  endloop
endfacet
facet normal 1.0 -0.0 -0.0
  outer loop
    vertex 78.00000000000003 12.382095000000012 7.999999999999999
    vertex 78.00000000000003 64.88209500000006 3.9999999999999996
    vertex 78.00000000000003 64.88209500000006 7.999999999999999
  endloop
endfacet
facet normal 1.1749860343949596e-16 6.714205910828322e-18 -1.0
  outer loop
    vertex 78.00000000000003 64.88209500000006 3.9999999999999996
    vertex 69.00000000000004 12.382095000000012 3.9999999999999982
    vertex 69.00000000000004 64.88209500000006 3.9999999999999996
  endloop
endfacet
facet normal 1.1749860343949596e-16 6.714205910828322e-18 -1.0
  outer loop
    vertex 69.00000000000004 12.382095000000012 3.9999999999999982
    vertex 78.00000000000003 64.88209500000006 3.9999999999999996
    vertex 78.00000000000003 12.382095000000012 4.0
  endloop
endfacet
facet normal 0.0 0.0 1.0
  outer loop
    vertex 57.00562993850392 24.079755960182197 3.9999999999999996
    vertex 57.00562993850392 25.68443403981783 3.9999999999999996
    vertex 56.900000000000034 24.882095000000014 3.9999999999999996
  endloop
endfacet
facet normal 0.0 0.0 1.0
  outer loop
    vertex 57.00562993850392 25.68443403981783 3.9999999999999996
    vertex 57.00562993850392 24.079755960182197 3.9999999999999996
    vertex 57.31532124826827 23.33209500000001 3.9999999999999996
  endloop
endfacet
facet normal 0.0 0.0 1.0
  outer loop
    vertex 57.00562993850392 25.68443403981783 3.9999999999999996
    vertex 57.31532124826827 23.33209500000001 3.9999999999999996
    vertex 57.31532124826827 26.432095000000015 3.9999999999999996
  endloop
endfacet
facet normal 0.0 0.0 1.0
  outer loop
    vertex 57.31532124826827 26.432095000000015 3.9999999999999996
    vertex 57.31532124826827 23.33209500000001 3.9999999999999996
    vertex 57.80796897832173 22.69006397832171 3.9999999999999996
  endloop
endfacet
facet normal 0.0 0.0 1.0
  outer loop
    vertex 57.31532124826827 26.432095000000015 3.9999999999999996
    vertex 57.80796897832173 22.69006397832171 3.9999999999999996
    vertex 57.80796897832173 27.07412602167831 3.9999999999999996
  endloop
endfacet
facet normal 0.0 0.0 1.0
  outer loop
    vertex 57.80796897832173 27.07412602167831 3.9999999999999996
    vertex 57.80796897832173 22.69006397832171 3.9999999999999996
    vertex 57.900000000000006 24.882095000000014 3.9999999999999885
  endloop
endfacet
facet normal 0.0 0.0 1.0
  outer loop
    vertex 57.900000000000006 24.882095000000014 3.9999999999999885
    vertex 57.80796897832173 22.69006397832171 3.9999999999999996
    vertex 57.97155576479296 24.33857500528472 3.9999999999999885
  endloop
endfacet
facet normal 0.0 0.0 1.0
  outer loop
    vertex 57.97155576479296 24.33857500528472 3.9999999999999885
    vertex 57.80796897832173 22.69006397832171 3.9999999999999996
    vertex 58.45000000000004 22.197416248268247 3.9999999999999996
  endloop
endfacet
facet normal 0.0 0.0 1.0
  outer loop
    vertex 57.97155576479296 24.33857500528472 3.9999999999999885
    vertex 58.45000000000004 22.197416248268247 3.9999999999999996
    vertex 58.18134665205268 23.832095000000013 3.9999999999999885
  endloop
endfacet
facet normal 0.0 0.0 1.0
  outer loop
    vertex 58.18134665205268 23.832095000000013 3.9999999999999885
    vertex 58.45000000000004 22.197416248268247 3.9999999999999996
    vertex 58.51507575950826 23.397170759508267 3.9999999999999885
  endloop
endfacet
facet normal 0.0 0.0 1.0
  outer loop
    vertex 58.51507575950826 23.397170759508267 3.9999999999999885
    vertex 58.45000000000004 22.197416248268247 3.9999999999999996
    vertex 59.197660960182226 21.887724938503894 3.9999999999999996
  endloop
endfacet
facet normal 0.0 0.0 1.0
  outer loop
    vertex 58.51507575950826 23.397170759508267 3.9999999999999885
    vertex 59.197660960182226 21.887724938503894 3.9999999999999996
    vertex 58.95 23.063441652052695 3.9999999999999885
  endloop
endfacet
facet normal 0.0 0.0 1.0
  outer loop
    vertex 58.95 23.063441652052695 3.9999999999999885
    vertex 59.197660960182226 21.887724938503894 3.9999999999999996
    vertex 59.4564800052847 22.853650764792974 3.9999999999999885
  endloop
endfacet
facet normal 0.0 0.0 1.0
  outer loop
    vertex 59.4564800052847 22.853650764792974 3.9999999999999885
    vertex 59.197660960182226 21.887724938503894 3.9999999999999996
    vertex 60.000000000000036 21.782095000000005 3.9999999999999996
  endloop
endfacet
facet normal 0.0 0.0 1.0
  outer loop
    vertex 59.4564800052847 22.853650764792974 3.9999999999999885
    vertex 60.000000000000036 21.782095000000005 3.9999999999999996
    vertex 60.0 22.782095000000016 3.9999999999999885
  endloop
endfacet
facet normal 0.0 0.0 1.0
  outer loop
    vertex 60.0 22.782095000000016 3.9999999999999885
    vertex 60.000000000000036 21.782095000000005 3.9999999999999996
    vertex 60.54351999471529 22.85365076479297 3.9999999999999885
  endloop
endfacet
facet normal 0.0 0.0 1.0
  outer loop
    vertex 60.54351999471529 22.85365076479297 3.9999999999999885
    vertex 60.000000000000036 21.782095000000005 3.9999999999999996
    vertex 60.80233903981786 21.887724938503897 3.9999999999999996
  endloop
endfacet
facet normal 0.0 0.0 1.0
  outer loop
    vertex 60.54351999471529 22.85365076479297 3.9999999999999885
    vertex 60.80233903981786 21.887724938503897 3.9999999999999996
    vertex 61.050000000000004 23.063441652052695 3.9999999999999885
  endloop
endfacet
facet normal 0.0 0.0 1.0
  outer loop
    vertex 61.050000000000004 23.063441652052695 3.9999999999999885
    vertex 60.80233903981786 21.887724938503897 3.9999999999999996
    vertex 61.55000000000005 22.19741624826825 3.9999999999999996
  endloop
endfacet
facet normal 0.0 0.0 1.0
  outer loop
    vertex 61.050000000000004 23.063441652052695 3.9999999999999885
    vertex 61.55000000000005 22.19741624826825 3.9999999999999996
    vertex 61.48492424049175 23.397170759508267 3.9999999999999885
  endloop
endfacet
facet normal 0.0 0.0 1.0
  outer loop
    vertex 61.48492424049175 23.397170759508267 3.9999999999999885
    vertex 61.55000000000005 22.19741624826825 3.9999999999999996
    vertex 61.81865334794732 23.832095000000013 3.9999999999999885
  endloop
endfacet
facet normal 0.0 0.0 1.0
  outer loop
    vertex 61.81865334794732 23.832095000000013 3.9999999999999885
    vertex 61.55000000000005 22.19741624826825 3.9999999999999996
    vertex 62.19203102167834 22.69006397832171 3.9999999999999996
  endloop
endfacet
facet normal 0.0 0.0 1.0
  outer loop
    vertex 61.81865334794732 23.832095000000013 3.9999999999999885
    vertex 62.19203102167834 22.69006397832171 3.9999999999999996
    vertex 62.02844423520705 24.33857500528472 3.9999999999999885
  endloop
endfacet
facet normal 0.0 0.0 1.0
  outer loop
    vertex 62.02844423520705 24.33857500528472 3.9999999999999885
    vertex 62.19203102167834 22.69006397832171 3.9999999999999996
    vertex 62.1 24.882095000000014 3.9999999999999885
  endloop
endfacet
facet normal 0.0 0.0 1.0
  outer loop
    vertex 57.80796897832173 27.07412602167831 3.9999999999999996
    vertex 57.97155576479296 25.425614994715307 3.9999999999999885
    vertex 58.45000000000003 27.566773751731777 3.9999999999999996
  endloop
endfacet
facet normal 0.0 0.0 1.0
  outer loop
    vertex 57.97155576479296 25.425614994715307 3.9999999999999885
    vertex 57.80796897832173 27.07412602167831 3.9999999999999996
    vertex 57.900000000000006 24.882095000000014 3.9999999999999885
  endloop
endfacet
facet normal 0.0 0.0 1.0
  outer loop
    vertex 58.45000000000003 27.566773751731777 3.9999999999999996
    vertex 57.97155576479296 25.425614994715307 3.9999999999999885
    vertex 58.18134665205269 25.93209500000001 3.9999999999999885
  endloop
endfacet
facet normal 0.0 0.0 1.0
  outer loop
    vertex 58.45000000000003 27.566773751731777 3.9999999999999996
    vertex 58.18134665205269 25.93209500000001 3.9999999999999885
    vertex 58.51507575950826 26.367019240491757 3.9999999999999885
  endloop
endfacet
facet normal 0.0 0.0 1.0
  outer loop
    vertex 58.45000000000003 27.566773751731777 3.9999999999999996
    vertex 58.51507575950826 26.367019240491757 3.9999999999999885
    vertex 59.19766096018221 27.876465061496127 3.9999999999999996
  endloop
endfacet
facet normal 0.0 0.0 1.0
  outer loop
    vertex 59.19766096018221 27.876465061496127 3.9999999999999996
    vertex 58.51507575950826 26.367019240491757 3.9999999999999885
    vertex 58.95 26.700748347947332 3.9999999999999885
  endloop
endfacet
facet normal 0.0 0.0 1.0
  outer loop
    vertex 59.19766096018221 27.876465061496127 3.9999999999999996
    vertex 58.95 26.700748347947332 3.9999999999999885
    vertex 59.45648000528472 26.91053923520705 3.9999999999999885
  endloop
endfacet
facet normal 0.0 0.0 1.0
  outer loop
    vertex 59.19766096018221 27.876465061496127 3.9999999999999996
    vertex 59.45648000528472 26.91053923520705 3.9999999999999885
    vertex 60.000000000000036 27.98209500000002 3.9999999999999996
  endloop
endfacet
facet normal 0.0 0.0 1.0
  outer loop
    vertex 60.000000000000036 27.98209500000002 3.9999999999999996
    vertex 59.45648000528472 26.91053923520705 3.9999999999999885
    vertex 60.0 26.982095000000008 3.9999999999999885
  endloop
endfacet
facet normal 0.0 0.0 1.0
  outer loop
    vertex 60.000000000000036 27.98209500000002 3.9999999999999996
    vertex 60.0 26.982095000000008 3.9999999999999885
    vertex 60.54351999471529 26.91053923520705 3.9999999999999885
  endloop
endfacet
facet normal 0.0 0.0 1.0
  outer loop
    vertex 60.000000000000036 27.98209500000002 3.9999999999999996
    vertex 60.54351999471529 26.91053923520705 3.9999999999999885
    vertex 60.802339039817845 27.876465061496127 3.9999999999999996
  endloop
endfacet
facet normal 0.0 0.0 1.0
  outer loop
    vertex 60.802339039817845 27.876465061496127 3.9999999999999996
    vertex 60.54351999471529 26.91053923520705 3.9999999999999885
    vertex 61.050000000000004 26.700748347947332 3.9999999999999885
  endloop
endfacet
facet normal 0.0 0.0 1.0
  outer loop
    vertex 60.802339039817845 27.876465061496127 3.9999999999999996
    vertex 61.050000000000004 26.700748347947332 3.9999999999999885
    vertex 61.55000000000003 27.56677375173178 3.9999999999999996
  endloop
endfacet
facet normal 0.0 0.0 1.0
  outer loop
    vertex 61.55000000000003 27.56677375173178 3.9999999999999996
    vertex 61.050000000000004 26.700748347947332 3.9999999999999885
    vertex 61.48492424049175 26.367019240491757 3.9999999999999885
  endloop
endfacet
facet normal 0.0 0.0 1.0
  outer loop
    vertex 61.55000000000003 27.56677375173178 3.9999999999999996
    vertex 61.48492424049175 26.367019240491757 3.9999999999999885
    vertex 61.81865334794732 25.93209500000001 3.9999999999999885
  endloop
endfacet
facet normal 0.0 0.0 1.0
  outer loop
    vertex 61.55000000000003 27.56677375173178 3.9999999999999996
    vertex 61.81865334794732 25.93209500000001 3.9999999999999885
    vertex 62.19203102167834 27.07412602167831 3.9999999999999996
  endloop
endfacet
facet normal 0.0 0.0 1.0
  outer loop
    vertex 62.19203102167834 27.07412602167831 3.9999999999999996
    vertex 61.81865334794732 25.93209500000001 3.9999999999999885
    vertex 62.02844423520705 25.425614994715307 3.9999999999999885
  endloop
endfacet
facet normal 0.0 0.0 1.0
  outer loop
    vertex 62.19203102167834 27.07412602167831 3.9999999999999996
    vertex 62.02844423520705 25.425614994715307 3.9999999999999885
    vertex 62.1 24.882095000000014 3.9999999999999885
  endloop
endfacet
facet normal 0.0 0.0 1.0
  outer loop
    vertex 62.19203102167834 27.07412602167831 3.9999999999999996
    vertex 62.1 24.882095000000014 3.9999999999999885
    vertex 62.19203102167834 22.69006397832171 3.9999999999999996
  endloop
endfacet
facet normal 0.0 0.0 1.0
  outer loop
    vertex 62.19203102167834 27.07412602167831 3.9999999999999996
    vertex 62.19203102167834 22.69006397832171 3.9999999999999996
    vertex 62.6846787517318 23.33209500000001 3.9999999999999996
  endloop
endfacet
facet normal 0.0 0.0 1.0
  outer loop
    vertex 62.19203102167834 27.07412602167831 3.9999999999999996
    vertex 62.6846787517318 23.33209500000001 3.9999999999999996
    vertex 62.6846787517318 26.432095000000015 3.9999999999999996
  endloop
endfacet
facet normal 0.0 0.0 1.0
  outer loop
    vertex 62.6846787517318 26.432095000000015 3.9999999999999996
    vertex 62.6846787517318 23.33209500000001 3.9999999999999996
    vertex 62.994370061496156 24.079755960182197 3.9999999999999996
  endloop
endfacet
facet normal 0.0 0.0 1.0
  outer loop
    vertex 62.6846787517318 26.432095000000015 3.9999999999999996
    vertex 62.994370061496156 24.079755960182197 3.9999999999999996
    vertex 62.994370061496156 25.68443403981783 3.9999999999999996
  endloop
endfacet
facet normal 0.0 0.0 1.0
  outer loop
    vertex 62.994370061496156 25.68443403981783 3.9999999999999996
    vertex 62.994370061496156 24.079755960182197 3.9999999999999996
    vertex 63.100000000000044 24.882095000000014 3.9999999999999996
  endloop
endfacet
facet normal 0.9914448613738102 0.13052619222005352 0.0
  outer loop
    vertex 56.900000000000034 24.882095000000014 3.9999999999999996
    vertex 57.00562993850392 24.079755960182197 7.999999999999999
    vertex 57.00562993850392 24.079755960182197 3.9999999999999996
  endloop
endfacet
facet normal 0.9914448613738102 0.13052619222005352 0.0
  outer loop
    vertex 57.00562993850392 24.079755960182197 7.999999999999999
    vertex 56.900000000000034 24.882095000000014 3.9999999999999996
    vertex 56.900000000000034 24.882095000000014 7.999999999999999
  endloop
endfacet
facet normal 0.9238795325112892 0.38268343236508384 0.0
  outer loop
    vertex 57.00562993850392 24.079755960182197 3.9999999999999996
    vertex 57.31532124826827 23.33209500000001 7.999999999999999
    vertex 57.31532124826827 23.33209500000001 3.9999999999999996
  endloop
endfacet
facet normal 0.9238795325112892 0.38268343236508384 0.0
  outer loop
    vertex 57.31532124826827 23.33209500000001 7.999999999999999
    vertex 57.00562993850392 24.079755960182197 3.9999999999999996
    vertex 57.00562993850392 24.079755960182197 7.999999999999999
  endloop
endfacet
facet normal 0.7933533402912354 0.6087614290087203 0.0
  outer loop
    vertex 57.31532124826827 23.33209500000001 3.9999999999999996
    vertex 57.80796897832173 22.69006397832171 7.999999999999999
    vertex 57.80796897832173 22.69006397832171 3.9999999999999996
  endloop
endfacet
facet normal 0.7933533402912354 0.6087614290087203 0.0
  outer loop
    vertex 57.80796897832173 22.69006397832171 7.999999999999999
    vertex 57.31532124826827 23.33209500000001 3.9999999999999996
    vertex 57.31532124826827 23.33209500000001 7.999999999999999
  endloop
endfacet
facet normal 0.6087614290087153 0.7933533402912393 0.0
  outer loop
    vertex 57.80796897832173 22.69006397832171 7.999999999999999
    vertex 58.45000000000004 22.197416248268247 3.9999999999999996
    vertex 57.80796897832173 22.69006397832171 3.9999999999999996
  endloop
endfacet
facet normal 0.6087614290087153 0.7933533402912393 0.0
  outer loop
    vertex 58.45000000000004 22.197416248268247 3.9999999999999996
    vertex 57.80796897832173 22.69006397832171 7.999999999999999
    vertex 58.45000000000004 22.197416248268247 7.999999999999999
  endloop
endfacet
facet normal 0.38268343236508984 0.9238795325112868 0.0
  outer loop
    vertex 58.45000000000004 22.197416248268247 7.999999999999999
    vertex 59.197660960182226 21.887724938503894 3.9999999999999996
    vertex 58.45000000000004 22.197416248268247 3.9999999999999996
  endloop
endfacet
facet normal 0.38268343236508984 0.9238795325112868 0.0
  outer loop
    vertex 59.197660960182226 21.887724938503894 3.9999999999999996
    vertex 58.45000000000004 22.197416248268247 7.999999999999999
    vertex 59.197660960182226 21.887724938503894 7.999999999999999
  endloop
endfacet
facet normal 0.13052619222005102 0.9914448613738105 0.0
  outer loop
    vertex 59.197660960182226 21.887724938503894 7.999999999999999
    vertex 60.000000000000036 21.782095000000005 3.9999999999999996
    vertex 59.197660960182226 21.887724938503894 3.9999999999999996
  endloop
endfacet
facet normal 0.13052619222005102 0.9914448613738105 0.0
  outer loop
    vertex 60.000000000000036 21.782095000000005 3.9999999999999996
    vertex 59.197660960182226 21.887724938503894 7.999999999999999
    vertex 60.000000000000036 21.782095000000005 7.999999999999999
  endloop
endfacet
facet normal -0.1305261922200526 0.9914448613738103 -0.0
  outer loop
    vertex 60.000000000000036 21.782095000000005 7.999999999999999
    vertex 60.80233903981786 21.887724938503897 3.9999999999999996
    vertex 60.000000000000036 21.782095000000005 3.9999999999999996
  endloop
endfacet
facet normal -0.1305261922200526 0.9914448613738103 -0.0
  outer loop
    vertex 60.80233903981786 21.887724938503897 3.9999999999999996
    vertex 60.000000000000036 21.782095000000005 7.999999999999999
    vertex 60.80233903981786 21.887724938503897 7.999999999999999
  endloop
endfacet
facet normal -0.38268343236508984 0.9238795325112868 -0.0
  outer loop
    vertex 60.80233903981786 21.887724938503897 7.999999999999999
    vertex 61.55000000000005 22.19741624826825 3.9999999999999996
    vertex 60.80233903981786 21.887724938503897 3.9999999999999996
  endloop
endfacet
facet normal -0.38268343236508984 0.9238795325112868 -0.0
  outer loop
    vertex 61.55000000000005 22.19741624826825 3.9999999999999996
    vertex 60.80233903981786 21.887724938503897 7.999999999999999
    vertex 61.55000000000005 22.19741624826825 7.999999999999999
  endloop
endfacet
facet normal -0.6087614290087199 0.7933533402912358 -0.0
  outer loop
    vertex 61.55000000000005 22.19741624826825 7.999999999999999
    vertex 62.19203102167834 22.69006397832171 3.9999999999999996
    vertex 61.55000000000005 22.19741624826825 3.9999999999999996
  endloop
endfacet
facet normal -0.6087614290087199 0.7933533402912358 -0.0
  outer loop
    vertex 62.19203102167834 22.69006397832171 3.9999999999999996
    vertex 61.55000000000005 22.19741624826825 7.999999999999999
    vertex 62.19203102167834 22.69006397832171 7.999999999999999
  endloop
endfacet
facet normal -0.7933533402912354 0.6087614290087203 -0.0
  outer loop
    vertex 62.6846787517318 23.33209500000001 7.999999999999999
    vertex 62.19203102167834 22.69006397832171 3.9999999999999996
    vertex 62.19203102167834 22.69006397832171 7.999999999999999
  endloop
endfacet
facet normal -0.7933533402912354 0.6087614290087203 -0.0
  outer loop
    vertex 62.19203102167834 22.69006397832171 3.9999999999999996
    vertex 62.6846787517318 23.33209500000001 7.999999999999999
    vertex 62.6846787517318 23.33209500000001 3.9999999999999996
  endloop
endfacet
facet normal -0.9238795325112892 0.38268343236508384 -0.0
  outer loop
    vertex 62.994370061496156 24.079755960182197 7.999999999999999
    vertex 62.6846787517318 23.33209500000001 3.9999999999999996
    vertex 62.6846787517318 23.33209500000001 7.999999999999999
  endloop
endfacet
facet normal -0.9238795325112892 0.38268343236508384 -0.0
  outer loop
    vertex 62.6846787517318 23.33209500000001 3.9999999999999996
    vertex 62.994370061496156 24.079755960182197 7.999999999999999
    vertex 62.994370061496156 24.079755960182197 3.9999999999999996
  endloop
endfacet
facet normal -0.9914448613738102 0.13052619222005352 -0.0
  outer loop
    vertex 63.100000000000044 24.882095000000014 7.999999999999999
    vertex 62.994370061496156 24.079755960182197 3.9999999999999996
    vertex 62.994370061496156 24.079755960182197 7.999999999999999
  endloop
endfacet
facet normal -0.9914448613738102 0.13052619222005352 -0.0
  outer loop
    vertex 62.994370061496156 24.079755960182197 3.9999999999999996
    vertex 63.100000000000044 24.882095000000014 7.999999999999999
    vertex 63.100000000000044 24.882095000000014 3.9999999999999996
  endloop
endfacet
facet normal -0.9914448613738102 -0.13052619222005352 -0.0
  outer loop
    vertex 62.994370061496156 25.68443403981783 7.999999999999999
    vertex 63.100000000000044 24.882095000000014 3.9999999999999996
    vertex 63.100000000000044 24.882095000000014 7.999999999999999
  endloop
endfacet
facet normal -0.9914448613738102 -0.13052619222005352 -0.0
  outer loop
    vertex 63.100000000000044 24.882095000000014 3.9999999999999996
    vertex 62.994370061496156 25.68443403981783 7.999999999999999
    vertex 62.994370061496156 25.68443403981783 3.9999999999999996
  endloop
endfacet
facet normal -0.9238795325112892 -0.38268343236508384 -0.0
  outer loop
    vertex 62.6846787517318 26.432095000000015 7.999999999999999
    vertex 62.994370061496156 25.68443403981783 3.9999999999999996
    vertex 62.994370061496156 25.68443403981783 7.999999999999999
  endloop
endfacet
facet normal -0.9238795325112892 -0.38268343236508384 -0.0
  outer loop
    vertex 62.994370061496156 25.68443403981783 3.9999999999999996
    vertex 62.6846787517318 26.432095000000015 7.999999999999999
    vertex 62.6846787517318 26.432095000000015 3.9999999999999996
  endloop
endfacet
facet normal -0.7933533402912342 -0.6087614290087221 -0.0
  outer loop
    vertex 62.19203102167834 27.07412602167831 7.999999999999999
    vertex 62.6846787517318 26.432095000000015 3.9999999999999996
    vertex 62.6846787517318 26.432095000000015 7.999999999999999
  endloop
endfacet
facet normal -0.7933533402912342 -0.6087614290087221 -0.0
  outer loop
    vertex 62.6846787517318 26.432095000000015 3.9999999999999996
    vertex 62.19203102167834 27.07412602167831 7.999999999999999
    vertex 62.19203102167834 27.07412602167831 3.9999999999999996
  endloop
endfacet
facet normal -0.6087614290087197 -0.7933533402912358 -0.0
  outer loop
    vertex 62.19203102167834 27.07412602167831 7.999999999999999
    vertex 61.55000000000003 27.56677375173178 3.9999999999999996
    vertex 62.19203102167834 27.07412602167831 3.9999999999999996
  endloop
endfacet
facet normal -0.6087614290087197 -0.7933533402912358 -0.0
  outer loop
    vertex 61.55000000000003 27.56677375173178 3.9999999999999996
    vertex 62.19203102167834 27.07412602167831 7.999999999999999
    vertex 61.55000000000003 27.56677375173178 7.999999999999999
  endloop
endfacet
facet normal -0.38268343236508384 -0.9238795325112892 -0.0
  outer loop
    vertex 61.55000000000003 27.56677375173178 7.999999999999999
    vertex 60.802339039817845 27.876465061496127 3.9999999999999996
    vertex 61.55000000000003 27.56677375173178 3.9999999999999996
  endloop
endfacet
facet normal -0.38268343236508384 -0.9238795325112892 -0.0
  outer loop
    vertex 60.802339039817845 27.876465061496127 3.9999999999999996
    vertex 61.55000000000003 27.56677375173178 7.999999999999999
    vertex 60.802339039817845 27.876465061496127 7.999999999999999
  endloop
endfacet
facet normal -0.13052619222005443 -0.9914448613738102 -0.0
  outer loop
    vertex 60.802339039817845 27.876465061496127 7.999999999999999
    vertex 60.000000000000036 27.98209500000002 3.9999999999999996
    vertex 60.802339039817845 27.876465061496127 3.9999999999999996
  endloop
endfacet
facet normal -0.13052619222005443 -0.9914448613738102 -0.0
  outer loop
    vertex 60.000000000000036 27.98209500000002 3.9999999999999996
    vertex 60.802339039817845 27.876465061496127 7.999999999999999
    vertex 60.000000000000036 27.98209500000002 7.999999999999999
  endloop
endfacet
facet normal 0.1305261922200526 -0.9914448613738103 -0.0
  outer loop
    vertex 60.000000000000036 27.98209500000002 7.999999999999999
    vertex 59.19766096018221 27.876465061496127 3.9999999999999996
    vertex 60.000000000000036 27.98209500000002 3.9999999999999996
  endloop
endfacet
facet normal 0.1305261922200526 -0.9914448613738103 -0.0
  outer loop
    vertex 59.19766096018221 27.876465061496127 3.9999999999999996
    vertex 60.000000000000036 27.98209500000002 7.999999999999999
    vertex 59.19766096018221 27.876465061496127 7.999999999999999
  endloop
endfacet
facet normal 0.38268343236508984 -0.9238795325112868 -0.0
  outer loop
    vertex 59.19766096018221 27.876465061496127 7.999999999999999
    vertex 58.45000000000003 27.566773751731777 3.9999999999999996
    vertex 59.19766096018221 27.876465061496127 3.9999999999999996
  endloop
endfacet
facet normal 0.38268343236508984 -0.9238795325112868 -0.0
  outer loop
    vertex 58.45000000000003 27.566773751731777 3.9999999999999996
    vertex 59.19766096018221 27.876465061496127 7.999999999999999
    vertex 58.45000000000003 27.566773751731777 7.999999999999999
  endloop
endfacet
facet normal 0.6087614290087221 -0.7933533402912342 -0.0
  outer loop
    vertex 58.45000000000003 27.566773751731777 7.999999999999999
    vertex 57.80796897832173 27.07412602167831 3.9999999999999996
    vertex 58.45000000000003 27.566773751731777 3.9999999999999996
  endloop
endfacet
facet normal 0.6087614290087221 -0.7933533402912342 -0.0
  outer loop
    vertex 57.80796897832173 27.07412602167831 3.9999999999999996
    vertex 58.45000000000003 27.566773751731777 7.999999999999999
    vertex 57.80796897832173 27.07412602167831 7.999999999999999
  endloop
endfacet
facet normal 0.7933533402912342 -0.6087614290087221 -0.0
  outer loop
    vertex 57.80796897832173 27.07412602167831 3.9999999999999996
    vertex 57.31532124826827 26.432095000000015 7.999999999999999
    vertex 57.31532124826827 26.432095000000015 3.9999999999999996
  endloop
endfacet
facet normal 0.7933533402912342 -0.6087614290087221 -0.0
  outer loop
    vertex 57.31532124826827 26.432095000000015 7.999999999999999
    vertex 57.80796897832173 27.07412602167831 3.9999999999999996
    vertex 57.80796897832173 27.07412602167831 7.999999999999999
  endloop
endfacet
facet normal 0.9238795325112892 -0.38268343236508384 -0.0
  outer loop
    vertex 57.31532124826827 26.432095000000015 3.9999999999999996
    vertex 57.00562993850392 25.68443403981783 7.999999999999999
    vertex 57.00562993850392 25.68443403981783 3.9999999999999996
  endloop
endfacet
facet normal 0.9238795325112892 -0.38268343236508384 -0.0
  outer loop
    vertex 57.00562993850392 25.68443403981783 7.999999999999999
    vertex 57.31532124826827 26.432095000000015 3.9999999999999996
    vertex 57.31532124826827 26.432095000000015 7.999999999999999
  endloop
endfacet
facet normal 0.9914448613738102 -0.13052619222005352 -0.0
  outer loop
    vertex 57.00562993850392 25.68443403981783 3.9999999999999996
    vertex 56.900000000000034 24.882095000000014 7.999999999999999
    vertex 56.900000000000034 24.882095000000014 3.9999999999999996
  endloop
endfacet
facet normal 0.9914448613738102 -0.13052619222005352 -0.0
  outer loop
    vertex 56.900000000000034 24.882095000000014 7.999999999999999
    vertex 57.00562993850392 25.68443403981783 3.9999999999999996
    vertex 57.00562993850392 25.68443403981783 7.999999999999999
  endloop
endfacet
facet normal -0.6087614290087232 0.7933533402912332 8.503273243184317e-18
  outer loop
    vertex 61.050000000000004 23.063441652052695 3.9999999999999885
    vertex 61.48492424049175 23.397170759508267 -1.4231124482686427e-15
    vertex 61.050000000000004 23.063441652052695 -1.4236441723266893e-15
  endloop
endfacet
facet normal -0.6087614290087232 0.7933533402912332 8.503273243184317e-18
  outer loop
    vertex 61.48492424049175 23.397170759508267 -1.4231124482686427e-15
    vertex 61.050000000000004 23.063441652052695 3.9999999999999885
    vertex 61.48492424049175 23.397170759508267 3.9999999999999885
  endloop
endfacet
facet normal -0.3826834323650873 0.9238795325112878 8.464566988355525e-18
  outer loop
    vertex 60.54351999471529 22.85365076479297 -1.42295127277534e-15
    vertex 61.050000000000004 23.063441652052695 3.9999999999999885
    vertex 61.050000000000004 23.063441652052695 -1.4236441723266893e-15
  endloop
endfacet
facet normal -0.3826834323650873 0.9238795325112878 8.464566988355525e-18
  outer loop
    vertex 61.050000000000004 23.063441652052695 3.9999999999999885
    vertex 60.54351999471529 22.85365076479297 -1.42295127277534e-15
    vertex 60.54351999471529 22.85365076479297 3.9999999999999885
  endloop
endfacet
facet normal -0.13052619222005113 0.9914448613738105 7.849014481628644e-18
  outer loop
    vertex 60.0 22.782095000000016 -1.4210809695739487e-15
    vertex 60.54351999471529 22.85365076479297 3.9999999999999885
    vertex 60.54351999471529 22.85365076479297 -1.42295127277534e-15
  endloop
endfacet
facet normal -0.13052619222005113 0.9914448613738105 7.849014481628644e-18
  outer loop
    vertex 60.54351999471529 22.85365076479297 3.9999999999999885
    vertex 60.0 22.782095000000016 -1.4210809695739487e-15
    vertex 60.0 22.782095000000016 3.9999999999999885
  endloop
endfacet
facet normal 0.13052619222005352 0.9914448613738103 6.698564609088489e-18
  outer loop
    vertex 59.4564800052847 22.853650764792974 -1.4181607207948681e-15
    vertex 60.0 22.782095000000016 3.9999999999999885
    vertex 60.0 22.782095000000016 -1.4210809695739487e-15
  endloop
endfacet
facet normal 0.13052619222005352 0.9914448613738103 6.698564609088489e-18
  outer loop
    vertex 60.0 22.782095000000016 3.9999999999999885
    vertex 59.4564800052847 22.853650764792974 -1.4181607207948681e-15
    vertex 59.4564800052847 22.853650764792974 3.9999999999999885
  endloop
endfacet
facet normal 0.38268343236509017 0.9238795325112866 5.091618628340386e-18
  outer loop
    vertex 58.95 23.063441652052695 -1.4143895365664531e-15
    vertex 59.4564800052847 22.853650764792974 3.9999999999999885
    vertex 59.4564800052847 22.853650764792974 -1.4181607207948681e-15
  endloop
endfacet
facet normal 0.38268343236509017 0.9238795325112866 5.091618628340386e-18
  outer loop
    vertex 59.4564800052847 22.853650764792974 3.9999999999999885
    vertex 58.95 23.063441652052695 -1.4143895365664531e-15
    vertex 58.95 23.063441652052695 3.9999999999999885
  endloop
endfacet
facet normal 0.6087614290087232 0.7933533402912332 3.1376872523684812e-18
  outer loop
    vertex 58.51507575950826 23.397170759508267 -1.4100244168616938e-15
    vertex 58.95 23.063441652052695 3.9999999999999885
    vertex 58.95 23.063441652052695 -1.4143895365664531e-15
  endloop
endfacet
facet normal 0.6087614290087232 0.7933533402912332 3.1376872523684812e-18
  outer loop
    vertex 58.95 23.063441652052695 3.9999999999999885
    vertex 58.51507575950826 23.397170759508267 -1.4100244168616938e-15
    vertex 58.51507575950826 23.397170759508267 3.9999999999999885
  endloop
endfacet
facet normal 0.7933533402912276 0.6087614290087304 9.699276754211694e-19
  outer loop
    vertex 58.18134665205268 23.832095000000013 -1.4053628373747678e-15
    vertex 58.51507575950826 23.397170759508267 3.9999999999999885
    vertex 58.51507575950826 23.397170759508267 -1.4100244168616938e-15
  endloop
endfacet
facet normal 0.7933533402912276 0.6087614290087304 9.699276754211694e-19
  outer loop
    vertex 58.51507575950826 23.397170759508267 3.9999999999999885
    vertex 58.18134665205268 23.832095000000013 -1.4053628373747678e-15
    vertex 58.18134665205268 23.832095000000013 3.9999999999999885
  endloop
endfacet
facet normal 0.9238795325112888 0.3826834323650847 -1.263930869725101e-18
  outer loop
    vertex 57.97155576479296 24.33857500528472 -1.400722477044085e-15
    vertex 58.18134665205268 23.832095000000013 3.9999999999999885
    vertex 58.18134665205268 23.832095000000013 -1.4053628373747678e-15
  endloop
endfacet
facet normal 0.9238795325112888 0.3826834323650847 -1.263930869725101e-18
  outer loop
    vertex 58.18134665205268 23.832095000000013 3.9999999999999885
    vertex 57.97155576479296 24.33857500528472 -1.400722477044085e-15
    vertex 57.97155576479296 24.33857500528472 3.9999999999999885
  endloop
endfacet
facet normal 0.9914448613738113 0.13052619222004538 -3.4116546148439806e-18
  outer loop
    vertex 57.900000000000006 24.882095000000014 -1.3964195687576235e-15
    vertex 57.97155576479296 24.33857500528472 3.9999999999999885
    vertex 57.97155576479296 24.33857500528472 -1.400722477044085e-15
  endloop
endfacet
facet normal 0.9914448613738113 0.13052619222004538 -3.4116546148439806e-18
  outer loop
    vertex 57.97155576479296 24.33857500528472 3.9999999999999885
    vertex 57.900000000000006 24.882095000000014 -1.3964195687576235e-15
    vertex 57.900000000000006 24.882095000000014 3.9999999999999885
  endloop
endfacet
facet normal 0.9914448613738114 -0.13052619222004475 -5.3268797359869746e-18
  outer loop
    vertex 57.97155576479296 25.425614994715307 -1.3927473486042135e-15
    vertex 57.900000000000006 24.882095000000014 3.9999999999999885
    vertex 57.900000000000006 24.882095000000014 -1.3964195687576235e-15
  endloop
endfacet
facet normal 0.9914448613738114 -0.13052619222004475 -5.3268797359869746e-18
  outer loop
    vertex 57.900000000000006 24.882095000000014 3.9999999999999885
    vertex 57.97155576479296 25.425614994715307 -1.3927473486042135e-15
    vertex 57.97155576479296 25.425614994715307 3.9999999999999885
  endloop
endfacet
facet normal 0.923879532511281 -0.3826834323651041 -6.879086806207662e-18
  outer loop
    vertex 58.18134665205269 25.93209500000001 -1.3899560723186789e-15
    vertex 57.97155576479296 25.425614994715307 3.9999999999999885
    vertex 57.97155576479296 25.425614994715307 -1.3927473486042135e-15
  endloop
endfacet
facet normal 0.923879532511281 -0.3826834323651041 -6.879086806207662e-18
  outer loop
    vertex 57.97155576479296 25.425614994715307 3.9999999999999885
    vertex 58.18134665205269 25.93209500000001 -1.3899560723186789e-15
    vertex 58.18134665205269 25.93209500000001 3.9999999999999885
  endloop
endfacet
facet normal 0.7933533402912356 -0.60876142900872 -7.962495478813551e-18
  outer loop
    vertex 58.51507575950826 26.367019240491757 -1.3882359607670769e-15
    vertex 58.18134665205269 25.93209500000001 3.9999999999999885
    vertex 58.18134665205269 25.93209500000001 -1.3899560723186789e-15
  endloop
endfacet
facet normal 0.7933533402912356 -0.60876142900872 -7.962495478813551e-18
  outer loop
    vertex 58.18134665205269 25.93209500000001 3.9999999999999885
    vertex 58.51507575950826 26.367019240491757 -1.3882359607670769e-15
    vertex 58.51507575950826 26.367019240491757 3.9999999999999885
  endloop
endfacet
facet normal 0.6087614290087265 -0.7933533402912308 -8.503273243184315e-18
  outer loop
    vertex 58.95 26.700748347947332 -1.3877042367090303e-15
    vertex 58.51507575950826 26.367019240491757 3.9999999999999885
    vertex 58.51507575950826 26.367019240491757 -1.3882359607670769e-15
  endloop
endfacet
facet normal 0.6087614290087265 -0.7933533402912308 -8.503273243184315e-18
  outer loop
    vertex 58.51507575950826 26.367019240491757 3.9999999999999885
    vertex 58.95 26.700748347947332 -1.3877042367090303e-15
    vertex 58.95 26.700748347947332 3.9999999999999885
  endloop
endfacet
facet normal 0.38268343236508295 -0.9238795325112897 -8.464566988355519e-18
  outer loop
    vertex 59.45648000528472 26.91053923520705 3.9999999999999885
    vertex 58.95 26.700748347947332 -1.3877042367090303e-15
    vertex 59.45648000528472 26.91053923520705 -1.3883971362603796e-15
  endloop
endfacet
facet normal 0.38268343236508295 -0.9238795325112897 -8.464566988355519e-18
  outer loop
    vertex 58.95 26.700748347947332 -1.3877042367090303e-15
    vertex 59.45648000528472 26.91053923520705 3.9999999999999885
    vertex 58.95 26.700748347947332 3.9999999999999885
  endloop
endfacet
facet normal 0.13052619222005618 -0.9914448613738098 -7.849014481628662e-18
  outer loop
    vertex 60.0 26.982095000000008 3.9999999999999885
    vertex 59.45648000528472 26.91053923520705 -1.3883971362603796e-15
    vertex 60.0 26.982095000000008 -1.390267439461771e-15
  endloop
endfacet
facet normal 0.13052619222005618 -0.9914448613738098 -7.849014481628662e-18
  outer loop
    vertex 59.45648000528472 26.91053923520705 -1.3883971362603796e-15
    vertex 60.0 26.982095000000008 3.9999999999999885
    vertex 59.45648000528472 26.91053923520705 3.9999999999999885
  endloop
endfacet
facet normal -0.13052619222005618 -0.9914448613738098 -6.698564609088473e-18
  outer loop
    vertex 60.54351999471529 26.91053923520705 3.9999999999999885
    vertex 60.0 26.982095000000008 -1.390267439461771e-15
    vertex 60.54351999471529 26.91053923520705 -1.3931876882408515e-15
  endloop
endfacet
facet normal -0.13052619222005618 -0.9914448613738098 -6.698564609088473e-18
  outer loop
    vertex 60.0 26.982095000000008 -1.390267439461771e-15
    vertex 60.54351999471529 26.91053923520705 3.9999999999999885
    vertex 60.0 26.982095000000008 3.9999999999999885
  endloop
endfacet
facet normal -0.38268343236508295 -0.9238795325112897 -5.091618628340441e-18
  outer loop
    vertex 61.050000000000004 26.700748347947332 3.9999999999999885
    vertex 60.54351999471529 26.91053923520705 -1.3931876882408515e-15
    vertex 61.050000000000004 26.700748347947332 -1.3969588724692665e-15
  endloop
endfacet
facet normal -0.38268343236508295 -0.9238795325112897 -5.091618628340441e-18
  outer loop
    vertex 60.54351999471529 26.91053923520705 -1.3931876882408515e-15
    vertex 61.050000000000004 26.700748347947332 3.9999999999999885
    vertex 60.54351999471529 26.91053923520705 3.9999999999999885
  endloop
endfacet
facet normal -0.6087614290087265 -0.7933533402912308 -3.1376872523684493e-18
  outer loop
    vertex 61.48492424049175 26.367019240491757 3.9999999999999885
    vertex 61.050000000000004 26.700748347947332 -1.3969588724692665e-15
    vertex 61.48492424049175 26.367019240491757 -1.401323992174026e-15
  endloop
endfacet
facet normal -0.6087614290087265 -0.7933533402912308 -3.1376872523684493e-18
  outer loop
    vertex 61.050000000000004 26.700748347947332 -1.3969588724692665e-15
    vertex 61.48492424049175 26.367019240491757 3.9999999999999885
    vertex 61.050000000000004 26.700748347947332 3.9999999999999885
  endloop
endfacet
facet normal -0.7933533402912356 -0.60876142900872 -9.699276754210566e-19
  outer loop
    vertex 61.48492424049175 26.367019240491757 3.9999999999999885
    vertex 61.81865334794732 25.93209500000001 -1.4059855716609518e-15
    vertex 61.81865334794732 25.93209500000001 3.9999999999999885
  endloop
endfacet
facet normal -0.7933533402912356 -0.60876142900872 -9.699276754210566e-19
  outer loop
    vertex 61.81865334794732 25.93209500000001 -1.4059855716609518e-15
    vertex 61.48492424049175 26.367019240491757 3.9999999999999885
    vertex 61.48492424049175 26.367019240491757 -1.401323992174026e-15
  endloop
endfacet
facet normal -0.923879532511281 -0.3826834323651041 1.2639308697249237e-18
  outer loop
    vertex 61.81865334794732 25.93209500000001 3.9999999999999885
    vertex 62.02844423520705 25.425614994715307 -1.4106259319916345e-15
    vertex 62.02844423520705 25.425614994715307 3.9999999999999885
  endloop
endfacet
facet normal -0.923879532511281 -0.3826834323651041 1.2639308697249237e-18
  outer loop
    vertex 62.02844423520705 25.425614994715307 -1.4106259319916345e-15
    vertex 61.81865334794732 25.93209500000001 3.9999999999999885
    vertex 61.81865334794732 25.93209500000001 -1.4059855716609518e-15
  endloop
endfacet
facet normal -0.9914448613738114 -0.13052619222004475 3.4116546148439857e-18
  outer loop
    vertex 62.02844423520705 25.425614994715307 3.9999999999999885
    vertex 62.1 24.882095000000014 -1.414928840278096e-15
    vertex 62.1 24.882095000000014 3.9999999999999885
  endloop
endfacet
facet normal -0.9914448613738114 -0.13052619222004475 3.4116546148439857e-18
  outer loop
    vertex 62.1 24.882095000000014 -1.414928840278096e-15
    vertex 62.02844423520705 25.425614994715307 3.9999999999999885
    vertex 62.02844423520705 25.425614994715307 -1.4106259319916345e-15
  endloop
endfacet
facet normal -0.9914448613738114 0.13052619222004475 5.3268797359869746e-18
  outer loop
    vertex 62.1 24.882095000000014 3.9999999999999885
    vertex 62.02844423520705 24.33857500528472 -1.4186010604315061e-15
    vertex 62.02844423520705 24.33857500528472 3.9999999999999885
  endloop
endfacet
facet normal -0.9914448613738114 0.13052619222004475 5.3268797359869746e-18
  outer loop
    vertex 62.02844423520705 24.33857500528472 -1.4186010604315061e-15
    vertex 62.1 24.882095000000014 3.9999999999999885
    vertex 62.1 24.882095000000014 -1.414928840278096e-15
  endloop
endfacet
facet normal -0.923879532511281 0.3826834323651041 6.879086806207662e-18
  outer loop
    vertex 62.02844423520705 24.33857500528472 3.9999999999999885
    vertex 61.81865334794732 23.832095000000013 -1.4213923367170407e-15
    vertex 61.81865334794732 23.832095000000013 3.9999999999999885
  endloop
endfacet
facet normal -0.923879532511281 0.3826834323651041 6.879086806207662e-18
  outer loop
    vertex 61.81865334794732 23.832095000000013 -1.4213923367170407e-15
    vertex 62.02844423520705 24.33857500528472 3.9999999999999885
    vertex 62.02844423520705 24.33857500528472 -1.4186010604315061e-15
  endloop
endfacet
facet normal -0.7933533402912376 0.6087614290087175 7.96249547881354e-18
  outer loop
    vertex 61.81865334794732 23.832095000000013 3.9999999999999885
    vertex 61.48492424049175 23.397170759508267 -1.4231124482686427e-15
    vertex 61.48492424049175 23.397170759508267 3.9999999999999885
  endloop
endfacet
facet normal -0.7933533402912376 0.6087614290087175 7.96249547881354e-18
  outer loop
    vertex 61.48492424049175 23.397170759508267 -1.4231124482686427e-15
    vertex 61.81865334794732 23.832095000000013 3.9999999999999885
    vertex 61.81865334794732 23.832095000000013 -1.4213923367170407e-15
  endloop
endfacet
endsolid section_3
